<?xml version="1.0" standalone="no"?>
<!DOCTYPE svg PUBLIC "-//W3C//DTD SVG 20010904//EN"
 "http://www.w3.org/TR/2001/REC-SVG-20010904/DTD/svg10.dtd">
<svg version="1.0" xmlns="http://www.w3.org/2000/svg"
 width="180.000000pt" height="180.000000pt" viewBox="0 0 180.000000 180.000000"
 preserveAspectRatio="xMidYMid meet">

<g transform="translate(0.000000,180.000000) scale(0.100000,-0.100000)"
fill="#000000" stroke="none">
<path d="M0 1737 c0 -54 5 -71 38 -127 l38 -65 217 -3 c119 -1 217 0 217 3 0
4 -32 62 -72 131 l-72 124 -183 0 -183 0 0 -63z"/>
<path d="M419 1748 c17 -29 48 -83 69 -120 20 -38 40 -68 44 -68 5 0 124 201
136 232 2 4 -60 8 -138 8 l-142 0 31 -52z"/>
<path d="M658 1732 c-21 -37 -54 -95 -73 -129 l-36 -63 220 0 220 0 70 124
c39 68 71 126 71 130 0 3 -98 6 -217 6 l-218 0 -37 -68z"/>
<path d="M1107 1708 c-30 -51 -64 -112 -77 -135 l-23 -43 26 -49 c72 -132 184
-316 192 -315 10 2 215 349 215 364 0 5 -34 67 -76 139 l-76 131 -63 0 -64 0
-54 -92z"/>
<path d="M1385 1673 l74 -128 171 -3 170 -2 0 86 c0 75 -3 93 -25 131 l-26 43
-219 0 -219 0 74 -127z"/>
<path d="M1780 1793 c0 -5 5 -15 10 -23 8 -12 10 -11 10 8 0 12 -4 22 -10 22
-5 0 -10 -3 -10 -7z"/>
<path d="M0 1530 l0 -105 31 53 31 52 -31 53 -31 52 0 -105z"/>
<path d="M57 1483 c-54 -86 -57 -96 -57 -223 l0 -120 149 0 148 0 107 185 c58
101 106 187 106 190 0 3 -97 5 -215 5 l-215 0 -23 -37z"/>
<path d="M582 1462 c18 -32 67 -118 108 -190 l75 -132 218 0 c119 0 217 3 217
6 0 3 -48 89 -106 190 l-106 184 -220 0 -219 0 33 -58z"/>
<path d="M1352 1330 l-111 -190 222 2 221 3 58 100 58 100 0 88 0 87 -169 0
-169 0 -110 -190z"/>
<path d="M423 1320 c-57 -99 -103 -184 -103 -190 0 -14 203 -369 211 -370 3 0
54 83 113 185 l106 185 -106 185 c-59 102 -110 185 -113 185 -3 -1 -52 -81
-108 -180z"/>
<path d="M1747 1215 l-48 -85 48 -85 48 -85 3 85 c1 47 1 123 0 170 l-3 85
-48 -85z"/>
<path d="M0 997 l0 -122 38 -65 38 -65 217 -3 c119 -1 217 0 217 3 0 3 -48 89
-106 190 l-107 185 -148 0 -149 0 0 -123z"/>
<path d="M690 988 c-41 -72 -90 -158 -108 -190 l-33 -58 219 0 220 0 106 184
c58 101 106 187 106 190 0 3 -98 6 -217 6 l-218 0 -75 -132z"/>
<path d="M1352 930 l110 -190 169 0 169 0 0 88 0 87 -58 100 -58 100 -221 3
-222 2 111 -190z"/>
<path d="M1207 1079 c-20 -33 -149 -254 -177 -306 l-23 -43 26 -49 c67 -122
183 -314 191 -315 9 -1 216 348 216 364 0 9 -196 350 -210 364 -4 4 -15 -2
-23 -15z"/>
<path d="M0 730 l0 -105 31 53 31 52 -31 53 -31 52 0 -105z"/>
<path d="M57 683 c-54 -86 -57 -96 -57 -223 l0 -120 149 0 148 0 107 185 c58
101 106 187 106 190 0 3 -97 5 -215 5 l-215 0 -23 -37z"/>
<path d="M582 662 c18 -32 67 -118 108 -190 l75 -132 218 0 c119 0 217 3 217
6 0 3 -48 89 -106 190 l-106 184 -220 0 -219 0 33 -58z"/>
<path d="M1352 530 l-111 -190 222 2 221 3 58 100 58 100 0 88 0 87 -169 0
-169 0 -110 -190z"/>
<path d="M423 520 c-57 -99 -103 -184 -103 -190 0 -6 42 -83 92 -171 124 -213
116 -213 244 8 l94 163 -106 185 c-59 102 -110 185 -113 185 -3 -1 -52 -81
-108 -180z"/>
<path d="M1747 415 l-48 -85 48 -85 48 -85 3 85 c1 47 1 123 0 170 l-3 85 -48
-85z"/>
<path d="M0 200 c0 -101 3 -127 20 -160 l20 -40 221 0 221 0 -19 33 c-11 17
-52 89 -92 160 l-74 127 -148 0 -149 0 0 -120z"/>
<path d="M678 166 c-49 -84 -88 -156 -88 -160 0 -3 98 -6 218 -6 l217 1 88
153 c48 85 87 157 87 160 0 3 -98 6 -217 6 l-218 -1 -87 -153z"/>
<path d="M1333 161 l92 -160 188 -1 187 0 0 58 c0 51 -6 67 -58 157 l-58 100
-221 3 -221 2 91 -159z"/>
<path d="M1207 279 c-37 -59 -157 -268 -157 -273 0 -3 79 -6 175 -6 96 0 175
2 175 4 0 6 -161 280 -170 290 -4 4 -15 -2 -23 -15z"/>
<path d="M0 15 c0 -8 4 -15 10 -15 5 0 7 7 4 15 -8 19 -14 19 -14 0z"/>
</g>
</svg>
