<svg xmlns="http://www.w3.org/2000/svg" id="_570_hockey_match_outline" data-name="#570_hockey_match_outline" class="illustration styles_illustrationTablet__1DWOa" viewBox="89.72 76.23 220.53 147.54"><path d="M308.06,162.23v43.58h-65.7V162.23a8.23,8.23,0,0,1,8.23-8.22h49.25A8.22,8.22,0,0,1,308.06,162.23Z" fill="#673119"/><path d="M308.06,206.81h-65.7a1,1,0,0,1-1-1V162.23a9.24,9.24,0,0,1,9.23-9.22h49.25a9.23,9.23,0,0,1,9.22,9.22v43.58A1,1,0,0,1,308.06,206.81Zm-64.7-2h63.7V162.23a7.23,7.23,0,0,0-7.22-7.22H250.59a7.24,7.24,0,0,0-7.23,7.22Z" fill="#093f68"/><path d="M308.06,162.23v1.54L275.21,177.3l-32.85-13.53v-1.54a8.23,8.23,0,0,1,8.23-8.22h49.25A8.22,8.22,0,0,1,308.06,162.23Z" fill="#f56132"/><path d="M275.21,178.3a1,1,0,0,1-.38-.07L242,164.69a1,1,0,0,1-.62-.92v-1.54a9.24,9.24,0,0,1,9.23-9.22h49.25a9.23,9.23,0,0,1,9.22,9.22v1.54a1,1,0,0,1-.62.92l-32.85,13.54A1,1,0,0,1,275.21,178.3Zm-31.85-15.2,31.85,13.12,31.85-13.12v-.87a7.23,7.23,0,0,0-7.22-7.22H250.59a7.24,7.24,0,0,0-7.23,7.22Zm64.7.67h0Z" fill="#093f68"/><path d="M289.61,154a14.52,14.52,0,0,1-28.8,0Z" fill="#fff"/><path d="M275.21,167.69a15.52,15.52,0,0,1-15.39-13.55,1,1,0,0,1,.24-.79,1,1,0,0,1,.75-.34h28.8a1,1,0,0,1,.75.34,1,1,0,0,1,.24.79A15.52,15.52,0,0,1,275.21,167.69ZM262,155a13.52,13.52,0,0,0,26.44,0Z" fill="#093f68"/><path d="M285.35,154a10.22,10.22,0,0,1-20.28,0Z" fill="#ffc9b0"/><path d="M275.21,163.94a11.23,11.23,0,0,1-11.13-9.8,1,1,0,0,1,.24-.79,1,1,0,0,1,.75-.34h20.28a1,1,0,0,1,.75.34,1,1,0,0,1,.24.79A11.23,11.23,0,0,1,275.21,163.94ZM266.28,155a9.23,9.23,0,0,0,17.87,0Z" fill="#093f68"/><polyline points="268.26 155.17 268.26 145.33 281.69 145.33 281.69 155.17" fill="#ffc9b0"/><path d="M281.69,156.17a1,1,0,0,1-1-1v-8.84H269.26v8.84a1,1,0,0,1-2,0v-9.84a1,1,0,0,1,1-1h13.43a1,1,0,0,1,1,1v9.84A1,1,0,0,1,281.69,156.17Z" fill="#093f68"/><path d="M255.13,206.82a1,1,0,0,1-1-1V173.91a1,1,0,1,1,2,0v31.91A1,1,0,0,1,255.13,206.82Z" fill="#093f68"/><path d="M295.76,206.82a1,1,0,0,1-1-1V173.91a1,1,0,1,1,2,0v31.91A1,1,0,0,1,295.76,206.82Z" fill="#093f68"/><path d="M275.69,150.57A24.57,24.57,0,0,1,251.12,126c0-7.49-2.36-18.07,3.59-24,2.2-2.18,5.23-3.29,8.22-4.1a61.39,61.39,0,0,1,26.49-1.24c3.37.58,7.91,1.77,10,4.79,1.63,2.39.86,6.13.86,9V126A24.57,24.57,0,0,1,275.69,150.57Z" fill="#ffc9b0"/><path d="M275.69,151.57A25.6,25.6,0,0,1,250.12,126c0-1.56-.1-3.27-.21-5.07-.43-6.86-.91-14.64,4.09-19.6,2.45-2.42,5.76-3.55,8.67-4.34a62.58,62.58,0,0,1,26.92-1.27c5.4.94,8.88,2.64,10.63,5.22,1.44,2.1,1.27,5,1.12,7.48,0,.72-.08,1.43-.08,2.09V126A25.6,25.6,0,0,1,275.69,151.57ZM279,96.82a60.17,60.17,0,0,0-15.81,2.1c-2.66.72-5.67,1.74-7.79,3.84-4.36,4.31-3.91,11.61-3.51,18,.12,1.83.22,3.57.22,5.19a23.57,23.57,0,0,0,47.14,0V110.51c0-.69,0-1.44.09-2.21.13-2.31.27-4.7-.78-6.23-1.43-2.11-4.49-3.54-9.33-4.38A60.38,60.38,0,0,0,279,96.82Z" fill="#093f68"/><path d="M276.18,133.07a4.16,4.16,0,0,1-2.05-.42,1,1,0,0,1,1-1.72h0a5.14,5.14,0,0,0,2.91-.1c.1,0,.1,0,.12-.07.28-.72-.73-3.13-1.82-4.84a1,1,0,0,1,.31-1.38,1,1,0,0,1,1.38.3c.67,1.06,2.79,4.66,2,6.67a2.11,2.11,0,0,1-1.5,1.26A9.84,9.84,0,0,1,276.18,133.07Z" fill="#093f68"/><circle cx="264.46" cy="125.02" r="2.1" fill="#093f68"/><circle cx="288.12" cy="125.02" r="2.1" fill="#093f68"/><path d="M284.31,121.3a2,2,0,0,1-.34-4l9.86-1.7a2,2,0,0,1,.68,3.94l-9.86,1.71Z" fill="#093f68"/><path d="M269.54,121.3l-.35,0-9.86-1.71a2,2,0,1,1,.68-3.94l9.86,1.7a2,2,0,0,1,1.63,2.32A2,2,0,0,1,269.54,121.3Z" fill="#093f68"/><path d="M268.16,109.12a12.46,12.46,0,0,0,13.92-.36,37,37,0,0,1,4.78-3.3,5.68,5.68,0,0,1,5.55,0,7.83,7.83,0,0,1,2.18,2.71l2.46,4.21a13.9,13.9,0,0,0,2.66,3.59c4.48,3.89,6.72-2.65,6.2-6.37-.59-4.22-2.06-9.11-4.71-12.53s-7.62-4.15-11.57-4.79c-6.13-1-12.36-1.74-18.53-1.07s-12.33,2.86-16.87,7.1-8,12-7.56,18.1c.11,1.51.73,3.39,2.24,3.5,2.81.18,3.83-5.26,4.26-7.21.61-2.75,1-6,3.38-7.5s5.57-.42,7.89,1.18C265.71,107.22,266.9,108.25,268.16,109.12Z" fill="#725858"/><path d="M249.06,120.88h-.22c-2.12-.14-3-2.37-3.17-4.42-.43-6.18,3-14.31,7.88-18.9,5.47-5.12,12.51-6.83,17.44-7.37,6.42-.69,12.83.11,18.8,1.08,4,.65,9.38,1.53,12.2,5.16,3.28,4.24,4.48,10,4.91,13,.36,2.59-.48,6.92-3,8.29-1,.55-2.7.83-4.84-1a14.58,14.58,0,0,1-2.87-3.85l-2.46-4.21a7.28,7.28,0,0,0-1.88-2.38c-1.35-.9-3.23-.54-4.56.1a18.88,18.88,0,0,0-3.08,2.07c-.52.39-1,.78-1.56,1.15a13.46,13.46,0,0,1-15.06.36h0c-.64-.45-1.27-.93-1.89-1.41s-1.2-.93-1.82-1.35c-1-.67-4.33-2.72-6.8-1.17-1.74,1.1-2.23,3.5-2.71,5.83-.08.35-.15.71-.23,1l-.07.34C253.53,115.73,252.42,120.88,249.06,120.88Zm27-29a46,46,0,0,0-4.83.25c-4.64.51-11.22,2.1-16.3,6.84-4.45,4.15-7.63,11.75-7.24,17.31.09,1.23.56,2.51,1.3,2.56,1.81.16,2.81-4.54,3.15-6.07l.07-.35c.08-.34.15-.68.22-1,.54-2.6,1.15-5.56,3.6-7.11s5.74-1,9,1.21c.65.44,1.28.93,1.91,1.42s1.19.92,1.81,1.34a11.45,11.45,0,0,0,12.78-.35c.5-.35,1-.73,1.48-1.1a20,20,0,0,1,3.43-2.28,6.55,6.55,0,0,1,6.54,0,8.75,8.75,0,0,1,2.5,3l2.45,4.21a13,13,0,0,0,2.46,3.34c1,.89,1.89,1.15,2.58.78,1.46-.8,2.27-4.07,2-6.26-.68-4.84-2.32-9.24-4.51-12.06-2.34-3-7.11-3.79-10.94-4.41A82.94,82.94,0,0,0,276,91.92Z" fill="#093f68"/><path d="M285.35,138.77H266.56a1,1,0,0,1,0-2h18.79a1,1,0,0,1,0,2Z" fill="#093f68"/><path d="M306.28,99.76H245.36a22.53,22.53,0,0,1,20.23-22.41h0a21.67,21.67,0,0,1,2.29-.12h15.86a21.67,21.67,0,0,1,2.29.12h0A22.53,22.53,0,0,1,306.28,99.76Z" fill="#f56132"/><path d="M306.28,100.76H245.36a1,1,0,0,1-1-1,23.51,23.51,0,0,1,21.13-23.4h0a22.87,22.87,0,0,1,2.36-.12h15.86a23.21,23.21,0,0,1,2.37.12h0a23.44,23.44,0,0,1,21.13,23.4A1,1,0,0,1,306.28,100.76Zm-59.9-2h58.88A21.44,21.44,0,0,0,286,78.35h0a19.82,19.82,0,0,0-2.19-.12H267.89a19.5,19.5,0,0,0-2.18.12h-.11a21.56,21.56,0,0,0-19.22,20.41Z" fill="#093f68"/><rect x="242.36" y="95.94" width="66.92" height="11.35" rx="3.67" fill="#f56132"/><path d="M305.61,108.28H246a4.68,4.68,0,0,1-4.67-4.67v-4A4.68,4.68,0,0,1,246,94.94h59.58a4.67,4.67,0,0,1,4.67,4.67v4A4.67,4.67,0,0,1,305.61,108.28ZM246,96.94a2.67,2.67,0,0,0-2.67,2.67v4a2.68,2.68,0,0,0,2.67,2.67h59.58a2.68,2.68,0,0,0,2.67-2.67v-4a2.67,2.67,0,0,0-2.67-2.67Z" fill="#093f68"/><path d="M243.58,107.28h7.54a0,0,0,0,1,0,0v21.44a0,0,0,0,1,0,0h0a7.54,7.54,0,0,1-7.54-7.54v-13.9A0,0,0,0,1,243.58,107.28Z" fill="#f56132"/><path d="M251.12,129.72a8.55,8.55,0,0,1-8.54-8.54v-13.9a1,1,0,0,1,1-1h7.54a1,1,0,0,1,1,1v21.44A1,1,0,0,1,251.12,129.72Zm-6.54-21.44v12.9a6.55,6.55,0,0,0,5.54,6.46V108.28Z" fill="#093f68"/><path d="M300.44,107.28H308a0,0,0,0,1,0,0v13.9a7.54,7.54,0,0,1-7.54,7.54h0a0,0,0,0,1,0,0V107.28A0,0,0,0,1,300.44,107.28Z" fill="#f56132"/><path d="M300.44,129.72a1,1,0,0,1-1-1V107.28a1,1,0,0,1,1-1H308a1,1,0,0,1,1,1v13.9A8.55,8.55,0,0,1,300.44,129.72Zm1-21.44v19.36a6.54,6.54,0,0,0,5.54-6.46v-12.9Z" fill="#093f68"/><path d="M286,77.35l-.89,6.08H266.49l-.89-6.08a21.67,21.67,0,0,1,2.29-.12h15.86A21.67,21.67,0,0,1,286,77.35Z" fill="#f56132"/><path d="M285.15,84.43H266.49a1,1,0,0,1-1-.85l-.89-6.08a1,1,0,0,1,.2-.76,1,1,0,0,1,.69-.38,20.89,20.89,0,0,1,2.39-.13h15.86a21.06,21.06,0,0,1,2.4.13,1,1,0,0,1,.68.38,1,1,0,0,1,.2.76l-.89,6.08A1,1,0,0,1,285.15,84.43Zm-17.79-2h16.93l.61-4.17c-.38,0-.76,0-1.15,0H267.89c-.38,0-.77,0-1.14,0Z" fill="#093f68"/><rect x="242.36" y="191.55" width="12.77" height="7.94" fill="#f56132"/><path d="M255.13,200.49H242.36a1,1,0,0,1-1-1v-7.94a1,1,0,0,1,1-1h12.77a1,1,0,0,1,1,1v7.94A1,1,0,0,1,255.13,200.49Zm-11.77-2h10.77v-5.94H243.36Z" fill="#093f68"/><rect x="295.76" y="191.55" width="12.3" height="7.94" fill="#f56132"/><path d="M308.06,200.49h-12.3a1,1,0,0,1-1-1v-7.94a1,1,0,0,1,1-1h12.3a1,1,0,0,1,1,1v7.94A1,1,0,0,1,308.06,200.49Zm-11.3-2h10.3v-5.94h-10.3Z" fill="#093f68"/><path d="M268.26,185.37H262a1,1,0,0,1,0-2h6.24a1,1,0,0,1,0,2Z" fill="#093f68"/><path d="M156.42,162.23v43.58H90.72V162.23A8.23,8.23,0,0,1,99,154H148.2A8.22,8.22,0,0,1,156.42,162.23Z" fill="#673119"/><path d="M156.42,206.81H90.72a1,1,0,0,1-1-1V162.23A9.24,9.24,0,0,1,99,153H148.2a9.24,9.24,0,0,1,9.22,9.22v43.58A1,1,0,0,1,156.42,206.81Zm-64.7-2h63.7V162.23A7.23,7.23,0,0,0,148.2,155H99a7.23,7.23,0,0,0-7.23,7.22Z" fill="#093f68"/><path d="M156.42,162.23v1.54H90.72v-1.54A8.23,8.23,0,0,1,99,154H148.2A8.22,8.22,0,0,1,156.42,162.23Z" fill="#70cc40"/><path d="M156.42,164.77H90.72a1,1,0,0,1-1-1v-1.54A9.24,9.24,0,0,1,99,153H148.2a9.24,9.24,0,0,1,9.22,9.22v1.54A1,1,0,0,1,156.42,164.77Zm-64.7-2h63.7v-.54A7.23,7.23,0,0,0,148.2,155H99a7.23,7.23,0,0,0-7.23,7.22Z" fill="#093f68"/><path d="M138,154a14.52,14.52,0,0,1-28.8,0Z" fill="#fff"/><path d="M123.57,167.69a15.51,15.51,0,0,1-15.39-13.55,1,1,0,0,1,.24-.79,1,1,0,0,1,.75-.34H138a1,1,0,0,1,.75.34,1,1,0,0,1,.24.79A15.52,15.52,0,0,1,123.57,167.69ZM110.35,155a13.52,13.52,0,0,0,26.44,0Z" fill="#093f68"/><path d="M133.71,154a10.22,10.22,0,0,1-20.28,0Z" fill="#ffc9b0"/><path d="M123.57,163.94a11.23,11.23,0,0,1-11.13-9.8,1,1,0,0,1,.24-.79,1,1,0,0,1,.75-.34h20.28a1,1,0,0,1,.75.34,1,1,0,0,1,.24.79A11.23,11.23,0,0,1,123.57,163.94ZM114.63,155a9.23,9.23,0,0,0,17.87,0Z" fill="#093f68"/><polyline points="116.62 155.17 116.62 145.33 130.05 145.33 130.05 155.17" fill="#ffc9b0"/><path d="M130.05,156.17a1,1,0,0,1-1-1v-8.84H117.62v8.84a1,1,0,0,1-2,0v-9.84a1,1,0,0,1,1-1h13.43a1,1,0,0,1,1,1v9.84A1,1,0,0,1,130.05,156.17Z" fill="#093f68"/><path d="M103.49,206.82a1,1,0,0,1-1-1V173.91a1,1,0,0,1,2,0v31.91A1,1,0,0,1,103.49,206.82Z" fill="#093f68"/><path d="M144.12,206.82a1,1,0,0,1-1-1V173.91a1,1,0,1,1,2,0v31.91A1,1,0,0,1,144.12,206.82Z" fill="#093f68"/><path d="M124.05,150.57A24.57,24.57,0,0,1,99.48,126c0-7.49-2.36-18.07,3.58-24,2.21-2.18,5.24-3.29,8.23-4.1a61.34,61.34,0,0,1,26.48-1.24c3.38.58,7.92,1.77,10,4.79,1.64,2.39.87,6.13.87,9V126A24.57,24.57,0,0,1,124.05,150.57Z" fill="#ffc9b0"/><path d="M124.05,151.57A25.6,25.6,0,0,1,98.48,126c0-1.56-.11-3.27-.22-5.07-.42-6.86-.9-14.64,4.1-19.6,2.45-2.42,5.76-3.55,8.67-4.34a62.54,62.54,0,0,1,26.91-1.27c5.4.94,8.88,2.64,10.64,5.22,1.44,2.1,1.27,5,1.12,7.47,0,.73-.08,1.44-.08,2.1V126A25.6,25.6,0,0,1,124.05,151.57Zm3.32-54.75a60.24,60.24,0,0,0-15.82,2.1c-2.66.72-5.66,1.74-7.78,3.84-4.36,4.31-3.91,11.61-3.51,18,.11,1.83.22,3.57.22,5.19a23.57,23.57,0,1,0,47.14,0V110.51c0-.7,0-1.45.08-2.21.14-2.31.28-4.7-.77-6.23-1.44-2.11-4.49-3.54-9.33-4.38A60.38,60.38,0,0,0,127.37,96.82Z" fill="#093f68"/><path d="M124.54,133.07a4.08,4.08,0,0,1-2.05-.42,1,1,0,1,1,1-1.72h0a5.13,5.13,0,0,0,2.91-.1c.09,0,.1,0,.11-.07.29-.72-.72-3.13-1.81-4.84a1,1,0,0,1,.3-1.38,1,1,0,0,1,1.39.3c.66,1.06,2.79,4.66,2,6.67a2.09,2.09,0,0,1-1.5,1.26A9.83,9.83,0,0,1,124.54,133.07Z" fill="#093f68"/><circle cx="112.82" cy="125.02" r="2.1" fill="#093f68"/><circle cx="136.48" cy="125.02" r="2.1" fill="#093f68"/><path d="M107.82,120.77a2,2,0,0,1-.12-4l10-.63a2,2,0,1,1,.25,4l-10,.63Z" fill="#093f68"/><path d="M142.59,120.77h-.13l-10-.63a2,2,0,0,1,.25-4l10,.63a2,2,0,0,1-.13,4Z" fill="#093f68"/><path d="M115.6,110.38a6.72,6.72,0,0,0,8.51-.24c-.28.25,2.77,1.88,3,2a7.9,7.9,0,0,0,4,.2,3.68,3.68,0,0,1,2.93.14,6.62,6.62,0,0,0,4.66.26,6.29,6.29,0,0,0,3.76-3.77c-.55,1.73.72,3.51,2.11,4.69a9.22,9.22,0,0,0,2,1.33,6.58,6.58,0,0,0,6-.17c1.85-1.12,2-3.11,1.67-5.22-.59-4.22-2-9.11-4.71-12.53s-7.62-4.15-11.56-4.79c-6.13-1-12.36-1.74-18.54-1.07s-12.33,2.86-16.86,7.1-8,12-7.56,18.1c.55,7.85,8-.78,8.57-4.51a7,7,0,0,0,11.64-1.81C115.35,110.17,115.48,110.28,115.6,110.38Z" fill="#725858"/><path d="M97,120.58h-.09c-1.17,0-2.61-.79-2.84-4.13-.43-6.18,3-14.31,7.87-18.9,5.48-5.12,12.51-6.83,17.45-7.37,6.42-.69,12.83.11,18.8,1.08,3.95.65,9.37,1.53,12.19,5.16,3.28,4.24,4.49,10,4.91,13,.28,1.93.35,4.68-2.13,6.21a7.58,7.58,0,0,1-7,.22,10.78,10.78,0,0,1-2.21-1.48,8.06,8.06,0,0,1-2.09-2.56,7.27,7.27,0,0,1-2.8,1.82,7.61,7.61,0,0,1-5.31-.25l-.26-.08a2.6,2.6,0,0,0-2-.07l-.18,0a8.77,8.77,0,0,1-4.48-.23,16.82,16.82,0,0,1-2.82-1.58,7.78,7.78,0,0,1-8.49.09,8,8,0,0,1-11.44,2.09C102.83,116.7,99.5,120.58,97,120.58ZM124.4,91.92a46.15,46.15,0,0,0-4.84.25c-4.63.51-11.22,2.1-16.29,6.84-4.45,4.15-7.63,11.75-7.24,17.3,0,.53.21,2.24.91,2.27,1.67,0,5.32-4.36,5.67-6.85a1,1,0,0,1,.7-.82,1,1,0,0,1,1,.3,6,6,0,0,0,10-1.56,1,1,0,0,1,1.61-.31l.3.26a5.71,5.71,0,0,0,7.19-.19h0a1,1,0,0,1,1.42,0,.84.84,0,0,1,.18.28,20.91,20.91,0,0,0,2.49,1.43,6.82,6.82,0,0,0,3.44.15l.18,0a4.18,4.18,0,0,1,3,.13l.26.08a5.68,5.68,0,0,0,4,.27,5.31,5.31,0,0,0,3.16-3.16,1,1,0,0,1,1.9.64c-.5,1.53,1.25,3.15,1.79,3.61a8.43,8.43,0,0,0,1.78,1.2,5.56,5.56,0,0,0,5-.12c1.18-.72,1.52-1.94,1.2-4.23-.67-4.84-2.32-9.24-4.51-12.06-2.33-3-7.1-3.79-10.93-4.41A83.16,83.16,0,0,0,124.4,91.92Z" fill="#093f68"/><path d="M148.34,120.82v6.31a24.44,24.44,0,0,1-48.87,0v-6.31a24.32,24.32,0,0,0,7.16,17.27,23.88,23.88,0,0,0,5.32,4c1.28-4.25,6.22-9.21,12-9.21s10.68,5,12,9.21A24.41,24.41,0,0,0,148.34,120.82Z" fill="#093f68"/><path d="M123.91,152.57a25.44,25.44,0,0,1-25.44-25.44v-6.31a1,1,0,0,1,2,0,23.28,23.28,0,0,0,6.87,16.57,23,23,0,0,0,4.09,3.27c1.88-4.4,6.85-8.74,12.48-8.74s10.59,4.34,12.47,8.74a23.48,23.48,0,0,0,11-19.84,1,1,0,1,1,2,0v6.31A25.46,25.46,0,0,1,123.91,152.57Zm-23-20.83a23.43,23.43,0,0,0,46-.05A25.49,25.49,0,0,1,136.35,143a1,1,0,0,1-.86.05,1,1,0,0,1-.59-.64c-1.23-4.1-5.94-8.5-11-8.5s-9.77,4.4-11,8.5a1,1,0,0,1-.58.64,1,1,0,0,1-.87-.05,25.62,25.62,0,0,1-10.53-11.27Z" fill="#093f68"/><path d="M129.12,142.75c0,1.14-2.53,3.06-5.65,3.06s-5.66-1.92-5.66-3.06,2.53-1.06,5.66-1.06S129.12,141.61,129.12,142.75Z" fill="#ffc9b0"/><path d="M123.47,146.81c-3.59,0-6.66-2.23-6.66-4.06a1.6,1.6,0,0,1,.49-1.17c.9-.9,2.75-.89,5.6-.89H124c2.84,0,4.71,0,5.61.89a1.59,1.59,0,0,1,.48,1.17C130.12,144.58,127.05,146.81,123.47,146.81Zm-4.58-3.9a6.46,6.46,0,0,0,9.15,0,19.48,19.48,0,0,0-4-.22H122.9A19.49,19.49,0,0,0,118.89,142.91Zm9.34.09h0Z" fill="#093f68"/><path d="M154.64,99.76H93.72A22.53,22.53,0,0,1,114,77.35h0a21.67,21.67,0,0,1,2.29-.12h15.86a21.67,21.67,0,0,1,2.29.12h0A22.53,22.53,0,0,1,154.64,99.76Z" fill="#70cc40"/><path d="M154.64,100.76H93.72a1,1,0,0,1-1-1,23.51,23.51,0,0,1,21.13-23.4h0a23.21,23.21,0,0,1,2.37-.12h15.86a23,23,0,0,1,2.36.12h0a23.45,23.45,0,0,1,21.13,23.4A1,1,0,0,1,154.64,100.76Zm-59.9-2h58.88a21.45,21.45,0,0,0-19.28-20.41h-.05a19.64,19.64,0,0,0-2.18-.12H116.25a19.82,19.82,0,0,0-2.19.12H114A21.54,21.54,0,0,0,94.74,98.76Z" fill="#093f68"/><rect x="90.72" y="95.94" width="66.92" height="11.35" rx="3.67" fill="#70cc40"/><path d="M154,108.28H94.39a4.67,4.67,0,0,1-4.67-4.67v-4a4.67,4.67,0,0,1,4.67-4.67H154a4.68,4.68,0,0,1,4.67,4.67v4A4.68,4.68,0,0,1,154,108.28ZM94.39,96.94a2.67,2.67,0,0,0-2.67,2.67v4a2.68,2.68,0,0,0,2.67,2.67H154a2.68,2.68,0,0,0,2.67-2.67v-4A2.67,2.67,0,0,0,154,96.94Z" fill="#093f68"/><path d="M91.94,107.28h7.54a0,0,0,0,1,0,0v21.44a0,0,0,0,1,0,0h0a7.54,7.54,0,0,1-7.54-7.54v-13.9A0,0,0,0,1,91.94,107.28Z" fill="#70cc40"/><path d="M99.48,129.72a8.55,8.55,0,0,1-8.54-8.54v-13.9a1,1,0,0,1,1-1h7.54a1,1,0,0,1,1,1v21.44A1,1,0,0,1,99.48,129.72Zm-6.54-21.44v12.9a6.54,6.54,0,0,0,5.54,6.46V108.28Z" fill="#093f68"/><path d="M148.8,107.28h7.54a0,0,0,0,1,0,0v13.9a7.54,7.54,0,0,1-7.54,7.54h0a0,0,0,0,1,0,0V107.28A0,0,0,0,1,148.8,107.28Z" fill="#70cc40"/><path d="M148.8,129.72a1,1,0,0,1-1-1V107.28a1,1,0,0,1,1-1h7.54a1,1,0,0,1,1,1v13.9A8.55,8.55,0,0,1,148.8,129.72Zm1-21.44v19.36a6.55,6.55,0,0,0,5.54-6.46v-12.9Z" fill="#093f68"/><path d="M134.4,77.35l-.89,6.08H114.85L114,77.35a21.67,21.67,0,0,1,2.29-.12h15.86A21.67,21.67,0,0,1,134.4,77.35Z" fill="#70cc40"/><path d="M133.51,84.43H114.85a1,1,0,0,1-1-.85L113,77.5a1,1,0,0,1,.2-.76,1,1,0,0,1,.68-.38,21.06,21.06,0,0,1,2.4-.13h15.86a20.89,20.89,0,0,1,2.39.13,1,1,0,0,1,.69.38,1,1,0,0,1,.2.76l-.89,6.08A1,1,0,0,1,133.51,84.43Zm-17.8-2h16.93l.61-4.17q-.57,0-1.14,0H116.25c-.39,0-.77,0-1.15,0Z" fill="#093f68"/><rect x="90.72" y="191.55" width="12.77" height="7.94" fill="#70cc40"/><path d="M103.49,200.49H90.72a1,1,0,0,1-1-1v-7.94a1,1,0,0,1,1-1h12.77a1,1,0,0,1,1,1v7.94A1,1,0,0,1,103.49,200.49Zm-11.77-2h10.77v-5.94H91.72Z" fill="#093f68"/><rect x="144.12" y="191.55" width="12.3" height="7.94" fill="#70cc40"/><path d="M156.42,200.49h-12.3a1,1,0,0,1-1-1v-7.94a1,1,0,0,1,1-1h12.3a1,1,0,0,1,1,1v7.94A1,1,0,0,1,156.42,200.49Zm-11.3-2h10.3v-5.94h-10.3Z" fill="#093f68"/><rect x="144.12" y="177.75" width="12.3" height="5.89" fill="#fff"/><path d="M156.42,184.64h-12.3a1,1,0,0,1-1-1v-5.89a1,1,0,0,1,1-1h12.3a1,1,0,0,1,1,1v5.89A1,1,0,0,1,156.42,184.64Zm-11.3-2h10.3v-3.89h-10.3Z" fill="#093f68"/><rect x="90.95" y="177.75" width="12.3" height="5.89" fill="#fff"/><path d="M103.25,184.64H91a1,1,0,0,1-1-1v-5.89a1,1,0,0,1,1-1h12.3a1,1,0,0,1,1,1v5.89A1,1,0,0,1,103.25,184.64Zm-11.3-2h10.3v-3.89H92Z" fill="#093f68"/><path d="M138.58,184.64h-6a1,1,0,0,1,0-2h6a1,1,0,1,1,0,2Z" fill="#093f68"/><path d="M234.14,179.18v43.58h-65.7V179.18a8.23,8.23,0,0,1,8.23-8.22h49.25A8.22,8.22,0,0,1,234.14,179.18Z" fill="#673119"/><path d="M234.14,223.76h-65.7a1,1,0,0,1-1-1V179.18a9.24,9.24,0,0,1,9.23-9.22h49.25a9.24,9.24,0,0,1,9.22,9.22v43.58A1,1,0,0,1,234.14,223.76Zm-64.7-2h63.7V179.18a7.23,7.23,0,0,0-7.22-7.22H176.67a7.23,7.23,0,0,0-7.23,7.22Z" fill="#093f68"/><path d="M234.14,179.18v8.93l-32.85-12.84-32.85,12.84v-8.93a8.23,8.23,0,0,1,8.23-8.22h49.25A8.22,8.22,0,0,1,234.14,179.18Z" fill="#ffbc0e"/><path d="M234.14,189.12a1.15,1.15,0,0,1-.36-.07l-32.49-12.7-32.48,12.7a1,1,0,0,1-.93-.11,1,1,0,0,1-.44-.82v-8.94a9.24,9.24,0,0,1,9.23-9.22h49.25a9.24,9.24,0,0,1,9.22,9.22v8.94a1,1,0,0,1-1,1Zm-32.85-14.84a1.19,1.19,0,0,1,.37.06l31.48,12.31v-7.47a7.23,7.23,0,0,0-7.22-7.22H176.67a7.23,7.23,0,0,0-7.23,7.22v7.47l31.49-12.31A1.09,1.09,0,0,1,201.29,174.28Z" fill="#093f68"/><path d="M215.69,171a14.52,14.52,0,0,1-28.8,0Z" fill="#fff"/><path d="M201.29,184.64a15.52,15.52,0,0,1-15.39-13.55,1,1,0,0,1,.24-.79,1,1,0,0,1,.75-.34h28.8a1,1,0,0,1,.75.34,1,1,0,0,1,.24.79A15.52,15.52,0,0,1,201.29,184.64ZM188.07,172a13.52,13.52,0,0,0,26.44,0Z" fill="#093f68"/><path d="M211.43,171a10.22,10.22,0,0,1-20.28,0Z" fill="#e28362"/><path d="M201.29,180.89a11.23,11.23,0,0,1-11.13-9.8,1,1,0,0,1,.24-.79,1,1,0,0,1,.75-.34h20.28a1,1,0,0,1,.75.34,1,1,0,0,1,.24.79A11.23,11.23,0,0,1,201.29,180.89ZM192.36,172a9.23,9.23,0,0,0,17.87,0Z" fill="#093f68"/><polyline points="194.34 172.12 194.34 162.29 207.77 162.29 207.77 172.12" fill="#e28362"/><path d="M207.77,173.12a1,1,0,0,1-1-1v-8.83H195.34v8.83a1,1,0,0,1-2,0v-9.83a1,1,0,0,1,1-1h13.43a1,1,0,0,1,1,1v9.83A1,1,0,0,1,207.77,173.12Z" fill="#093f68"/><path d="M181.21,223.77a1,1,0,0,1-1-1V190.86a1,1,0,0,1,2,0v31.91A1,1,0,0,1,181.21,223.77Z" fill="#093f68"/><path d="M221.84,223.77a1,1,0,0,1-1-1V190.86a1,1,0,0,1,2,0v31.91A1,1,0,0,1,221.84,223.77Z" fill="#093f68"/><rect x="168.44" y="199.49" width="12.3" height="14.36" fill="#ffbc0e"/><path d="M180.74,214.85h-12.3a1,1,0,0,1-1-1V199.49a1,1,0,0,1,1-1h12.3a1,1,0,0,1,1,1v14.36A1,1,0,0,1,180.74,214.85Zm-11.3-2h10.3V200.49h-10.3Z" fill="#093f68"/><rect x="168.44" y="204.37" width="12.3" height="4.6" fill="#fff"/><path d="M180.74,210h-12.3a1,1,0,0,1-1-1v-4.6a1,1,0,0,1,1-1h12.3a1,1,0,0,1,1,1V209A1,1,0,0,1,180.74,210Zm-11.3-2h10.3v-2.6h-10.3Z" fill="#093f68"/><rect x="221.84" y="199.49" width="12.3" height="14.36" fill="#ffbc0e"/><path d="M234.14,214.85h-12.3a1,1,0,0,1-1-1V199.49a1,1,0,0,1,1-1h12.3a1,1,0,0,1,1,1v14.36A1,1,0,0,1,234.14,214.85Zm-11.3-2h10.3V200.49h-10.3Z" fill="#093f68"/><rect x="221.84" y="204.37" width="12.3" height="4.6" fill="#fff"/><path d="M234.14,210h-12.3a1,1,0,0,1-1-1v-4.6a1,1,0,0,1,1-1h12.3a1,1,0,0,1,1,1V209A1,1,0,0,1,234.14,210Zm-11.3-2h10.3v-2.6h-10.3Z" fill="#093f68"/><path d="M215.69,193.55h-6.93a1,1,0,0,1,0-2h6.93a1,1,0,0,1,0,2Z" fill="#093f68"/><path d="M201.77,167.52A24.57,24.57,0,0,1,177.2,143c0-7.49-2.36-18.07,3.59-23.95,2.2-2.18,5.23-3.28,8.22-4.1a61.51,61.51,0,0,1,26.48-1.24c3.38.58,7.92,1.77,10,4.79,1.63,2.39.86,6.14.86,9V143A24.57,24.57,0,0,1,201.77,167.52Z" fill="#e28362"/><path d="M201.77,168.52A25.6,25.6,0,0,1,176.2,143c0-1.56-.1-3.26-.21-5.06-.43-6.87-.91-14.65,4.09-19.6,2.45-2.42,5.76-3.56,8.67-4.35a62.58,62.58,0,0,1,26.92-1.27c5.4.94,8.87,2.65,10.63,5.22,1.44,2.1,1.27,5,1.12,7.48,0,.72-.08,1.43-.08,2.1V143A25.6,25.6,0,0,1,201.77,168.52Zm3.32-54.75a60.3,60.3,0,0,0-15.82,2.1c-2.66.72-5.66,1.74-7.78,3.84-4.36,4.31-3.91,11.61-3.51,18,.11,1.84.22,3.57.22,5.19a23.57,23.57,0,1,0,47.14,0V127.47c0-.7,0-1.45.09-2.22.13-2.31.28-4.69-.78-6.23-1.44-2.1-4.49-3.54-9.33-4.37A59.38,59.38,0,0,0,205.09,113.77Z" fill="#093f68"/><path d="M203.66,160.41c-5.22,0-10.78-2.84-11.11-3a1,1,0,0,1,.92-1.78c.1,0,10.42,5.33,15,1.28a1,1,0,0,1,1.33,1.49A8.91,8.91,0,0,1,203.66,160.41Z" fill="#093f68"/><path d="M202.26,150a4,4,0,0,1-2-.42,1,1,0,1,1,1-1.72h0a5.1,5.1,0,0,0,2.91-.11c.1,0,.1,0,.11-.07.29-.71-.72-3.12-1.81-4.84a1,1,0,1,1,1.69-1.07c.67,1.05,2.79,4.65,2,6.66a2.11,2.11,0,0,1-1.5,1.26A9.9,9.9,0,0,1,202.26,150Z" fill="#093f68"/><circle cx="190.54" cy="141.97" r="2.1" fill="#093f68"/><circle cx="214.2" cy="141.97" r="2.1" fill="#093f68"/><path d="M196.6,135.63h-.11l-10-.55a2,2,0,0,1,.21-4l10,.55a2,2,0,0,1-.11,4Z" fill="#093f68"/><path d="M210,135.63a2,2,0,0,1-.1-4l10-.55a2,2,0,0,1,.22,4l-10,.55Z" fill="#093f68"/><path d="M195.79,123.42a6.53,6.53,0,0,1-3.28,5.59,34.32,34.32,0,0,0,24.39-5.09,12.54,12.54,0,0,0-2.39,5,42.42,42.42,0,0,0,8.18-1.82c2.48-.82,5.06-2,6.33-4.31,1.81-3.28.12-7.61-2.83-9.93s-6.78-3.07-10.48-3.68c-6.13-1-12.36-1.74-18.53-1.07s-12.33,2.86-16.87,7.1c-2.52,2.35-10.57,14.87-4.67,17.11,2.42.93,8.11-2,10.32-3A43.94,43.94,0,0,0,195.79,123.42Z" fill="#725858"/><path d="M176.78,133.52a4.12,4.12,0,0,1-1.49-.24,4.08,4.08,0,0,1-2.66-3.17c-1-5,4.88-13.64,7-15.61,5.47-5.11,12.51-6.83,17.44-7.36,6.43-.7,12.83.1,18.8,1.08,3.83.62,7.83,1.43,10.94,3.88s5.2,7.37,3.08,11.19c-1.5,2.71-4.47,4-6.89,4.78a44.25,44.25,0,0,1-8.37,1.87,1,1,0,0,1-.86-.32,1,1,0,0,1-.23-.89,12.4,12.4,0,0,1,.64-2.07A35.39,35.39,0,0,1,192.34,130a1,1,0,0,1-.81-.81,1,1,0,0,1,.49-1,5.55,5.55,0,0,0,2.15-2.25,46.62,46.62,0,0,1-7.8,4.39c-.29.12-.62.28-1,.46C182.27,132.17,179.1,133.52,176.78,133.52Zm25.34-24.65a46,46,0,0,0-4.83.25c-4.64.51-11.22,2.1-16.3,6.84-1.91,1.79-7.16,9.84-6.39,13.76a2.08,2.08,0,0,0,1.4,1.69c1.72.65,6.49-1.55,8.53-2.49l1-.47a43.79,43.79,0,0,0,9.61-5.81,1,1,0,0,1,1.62.78,7.51,7.51,0,0,1-1.88,4.91,33.26,33.26,0,0,0,21.44-5.25,1,1,0,0,1,1.34,1.46,11.33,11.33,0,0,0-1.79,3.2,42.37,42.37,0,0,0,6.47-1.57c2.08-.69,4.61-1.75,5.77-3.85,1.61-2.89,0-6.67-2.57-8.65-2.74-2.15-6.3-2.87-10-3.48A84.08,84.08,0,0,0,202.12,108.87Z" fill="#093f68"/><path d="M232.36,116.71H171.44A22.53,22.53,0,0,1,191.67,94.3h0a21.67,21.67,0,0,1,2.29-.12h15.86a21.67,21.67,0,0,1,2.29.12h0A22.53,22.53,0,0,1,232.36,116.71Z" fill="#ffbc0e"/><path d="M232.36,117.71H171.44a1,1,0,0,1-1-1,23.53,23.53,0,0,1,21.13-23.4h0a22.85,22.85,0,0,1,2.36-.13h15.86a23.21,23.21,0,0,1,2.37.13h0a23.44,23.44,0,0,1,21.13,23.4A1,1,0,0,1,232.36,117.71Zm-59.9-2h58.88A21.45,21.45,0,0,0,212.06,95.3H212a19.5,19.5,0,0,0-2.18-.12H194a19.5,19.5,0,0,0-2.18.12h-.11a21.56,21.56,0,0,0-19.22,20.41Z" fill="#093f68"/><rect x="168.44" y="112.89" width="66.92" height="11.35" rx="3.67" fill="#ffbc0e"/><path d="M231.69,125.23H172.11a4.68,4.68,0,0,1-4.67-4.67v-4a4.68,4.68,0,0,1,4.67-4.67h59.58a4.67,4.67,0,0,1,4.67,4.67v4A4.67,4.67,0,0,1,231.69,125.23Zm-59.58-11.34a2.68,2.68,0,0,0-2.67,2.67v4a2.67,2.67,0,0,0,2.67,2.67h59.58a2.67,2.67,0,0,0,2.67-2.67v-4a2.68,2.68,0,0,0-2.67-2.67Z" fill="#093f68"/><path d="M169.66,124.23h7.54a0,0,0,0,1,0,0v21.44a0,0,0,0,1,0,0h0a7.54,7.54,0,0,1-7.54-7.54v-13.9a0,0,0,0,1,0,0Z" fill="#ffbc0e"/><path d="M177.2,146.67a8.55,8.55,0,0,1-8.54-8.54v-13.9a1,1,0,0,1,1-1h7.54a1,1,0,0,1,1,1v21.44A1,1,0,0,1,177.2,146.67Zm-6.54-21.44v12.9a6.54,6.54,0,0,0,5.54,6.46V125.23Z" fill="#093f68"/><path d="M226.52,124.23h7.54a0,0,0,0,1,0,0v13.9a7.54,7.54,0,0,1-7.54,7.54h0a0,0,0,0,1,0,0V124.23A0,0,0,0,1,226.52,124.23Z" fill="#ffbc0e"/><path d="M226.52,146.67a1,1,0,0,1-1-1V124.23a1,1,0,0,1,1-1h7.54a1,1,0,0,1,1,1v13.9A8.55,8.55,0,0,1,226.52,146.67Zm1-21.44v19.36a6.54,6.54,0,0,0,5.54-6.46v-12.9Z" fill="#093f68"/><path d="M212.12,94.3l-.89,6.08H192.57l-.89-6.08a21.67,21.67,0,0,1,2.29-.12h15.86A21.67,21.67,0,0,1,212.12,94.3Z" fill="#ffbc0e"/><path d="M211.23,101.38H192.57a1,1,0,0,1-1-.85l-.89-6.08a1,1,0,0,1,.2-.76,1,1,0,0,1,.69-.38,23.44,23.44,0,0,1,2.39-.13h15.86a23.64,23.64,0,0,1,2.4.13,1,1,0,0,1,.88,1.14l-.89,6.08A1,1,0,0,1,211.23,101.38Zm-17.79-2h16.93l.61-4.16c-.38,0-.77,0-1.15,0H194c-.38,0-.76,0-1.14,0Z" fill="#093f68"/></svg>