<svg xmlns="http://www.w3.org/2000/svg" xmlns:xlink="http://www.w3.org/1999/xlink" viewBox="0 0 400 300" width="406" height="306" class="illustration styles_illustrationTablet__1DWOa"><defs><linearGradient id="linear-gradient" x1="20.68" y1="274.5" x2="41.99" y2="240.09" gradientTransform="matrix(-1, 0, 0, 1, 230.3, 0)" gradientUnits="userSpaceOnUse"><stop offset="0" stop-color="#fff" stop-opacity="0"></stop><stop offset="0.99" stop-color="#754c24"></stop></linearGradient><linearGradient id="linear-gradient-2" x1="304.67" y1="206.78" x2="326.24" y2="183.84" gradientTransform="matrix(-1, 0, 0, 1, 617.41, 0)" gradientUnits="userSpaceOnUse"><stop offset="0" stop-color="#ff734d" stop-opacity="0"></stop><stop offset="1" stop-color="#42210b"></stop></linearGradient></defs><title>PP</title><g style="isolation: isolate;"><g id="Layer_2" data-name="Layer 2"><path d="M194.28,287.7,14.56,181.48C8.84,178.27,3.93,173,9.51,169.53l180.37-104c2.71-1.68,6.82-2.78,9.57-1.18L388.11,173.89c5.72,3.32,6.75,12.6,1,15.93L218,287.53A23.9,23.9,0,0,1,194.28,287.7Z" fill="#e99a53"></path><path d="M182.47,236.25l40.25,22.39-20.3,15.92-25.15-15.25C180.44,257.27,179.28,238.24,182.47,236.25Z" opacity="0.63" fill="url(#linear-gradient)" style="mix-blend-mode: multiply;"></path><polygon points="97.69 89 128.21 71.03 128.21 170.54 97.69 188.83 97.69 89" fill="#673119"></polygon><polygon points="97.69 89 128.21 71.03 128.21 170.54 97.69 188.83 97.69 89" fill="#42210b" opacity="0.47"></polygon><path d="M214.43,58.19a15.55,15.55,0,0,0,3.23-4.93c.39-1.59,1.11-8.12,2-8.44,2.51-.89.14,4.23,1.1,4.06s5-4.75,6.2-5.06,3.15,2.72,2.65,4.53a19,19,0,0,1-3.26,5.22l-9.72,8.94" fill="#f67770"></path><path d="M183.3,169.29a4.49,4.49,0,0,0,.92,3.69c1.39,1.5,6.72,6.22,7.22,7.24s1.21,3.81,0,4.78-3.57,1.07-6.47,0-9.87-5.58-11.16-7,0-15.77,0-15.77,7.47-1.82,10,0Z" fill="#42210b"></path><path d="M163.63,178.88a4.49,4.49,0,0,0,.92,3.69c1.39,1.5,6.72,6.22,7.22,7.24s1.21,3.81,0,4.78-3.57,1.07-6.47,0-9.87-5.58-11.16-7,0-15.77,0-15.77,7.47-1.82,10,0Z" fill="#42210b"></path><path d="M184.21,76.39s3.81,16.91,4.06,32.72-1.62,58.28-1.62,58.28-4.38,4.21-14,2.73V111.18s-3.36,1.25-3.36,3.75-3.07,62.78-3.07,62.78-1.72,3.19-14.31-1.69c0,0-4.3-79.9,4.94-95.39" fill="#e6e6e6"></path><path d="M161.53,78.55c2,.87,7,4.91,10.91,6.42a46.34,46.34,0,0,0,11.73,3.19c.46-.61.92-1.25,1.39-2,11.73-18.34,17.51-32.37,17.14-36.32s-10.35-11.65-16.07-12.62-16.09,1.33-16.09,1.33S164.81,56.12,163,69.65C162.46,73.44,162.46,73.44,161.53,78.55Z" fill="#42210b"></path><path d="M193.82,42.88c1.61,1.22,4.26-3.56,3.72-4.38s-8.87-4.79-10.43-4.83c-3.41-.08-2.56,5.43-2.56,5.43" fill="#42210b"></path><path d="M192.82,17.19c1.74.47,3-2.23,6.52-2.05s6.25,3.6,7.13,5.17,2.73.09,3.46,2.23-1.24,4-.79,5.19a.85.85,0,0,0,.07.15,4.6,4.6,0,0,1-1.78,4.1,13.5,13.5,0,0,1-3.4,1.25l-16.7.68c-1.08-1.91.88-14.13,1.7-15.39A3.13,3.13,0,0,1,192.82,17.19Z" fill="#200904"></path><path d="M205.6,28.22c.3.94-7.79,12.93-11.95,11.54s-6.34-8.77-6-10.52,4.46-9.91,6.42-9.94S203.78,22.51,205.6,28.22Z" fill="#f67770"></path><path d="M205.52,23.62s-.64,3.37-5.61,1.72-5.78-.74-7.12.64c-2.5,2.6-7.5,4.65-4.25-5.18.16-.48,6.54-5.25,10.42-4S205.52,23.62,205.52,23.62Z" fill="#200904"></path><path d="M191.6,27.44s-.28-3.24-2-2.57-2.22,3.9-1.09,5.51" fill="#f67770"></path><path d="M202.69,49.86a70.47,70.47,0,0,1-.42,15.36s13.1-11.87,14.2-11.1,4,5.26,3.53,7.13-17.6,21.56-26.45,19.9-5-21.28-5-21.28" fill="#42210b"></path><polygon points="239.72 127.52 239.72 25.02 115.18 98.36 115.18 202.16 239.72 127.52" fill="#673119"></polygon><polygon points="234.73 62.02 265.25 44.05 265.25 143.56 234.73 161.85 234.73 62.02" fill="#ff9f9f"></polygon><path d="M259,97s-8,.67-9.71,0-7-2.61-7.38-1.06,2.67,2.33,2.67,2.33-5.43,1.36-6.94,1.81-.66,1.86.56,1.65c0,0-3.15,1.42-2.07,2.14a3,3,0,0,0,2.32.33s-1.43,1.17.2,1.89a16.66,16.66,0,0,0,4.43-1s-1.83,1.56-1.24,2,.42.85,5.88-2c0,0,11.4-2.54,13.94-3" fill="#f04900"></path><path d="M299.08,176.11c6.61,2.73,23.66,11.27,34,17A87.24,87.24,0,0,1,322,198.7c-3.81,1.76-7.14,4.24-10.72,6.4-5.69,3.43-12.12,5.75-17.24,10-7.24-6.13-19.28-15.29-25.82-20.47-.23,0-2.47-2.2-2.3-3.55C273.12,187.69,297.63,177.25,299.08,176.11Z" opacity="0.41" fill="url(#linear-gradient-2)"></path><path d="M307.31,185.88l1.58-1,0-17.79-7.81-.28s-.15,7.59-2,9.32-6.41.49-6.86.64-3.52-.74-4.9.68,4.68,5.52,7.9,6.27a20.8,20.8,0,0,0,6.7.25s.7-4.55,1.82-4.1,1.2,5.26,1.2,5.26Z" fill="#673119"></path><path d="M315,117.06c-.11-11.76-1-22.62-10.42-30.82L304,88.39c0-.08,0-.16,0-.24-.09-1-1.8-1.46-2-.27a2.63,2.63,0,0,1,0,.27v.06c0,.39-.09.79-.11,1.18a1,1,0,0,0-1.52.05c-1.84.59-2.58,3.25-2.59,4.91a1,1,0,0,0,2,0,3.57,3.57,0,0,1,.51-2.16l.18-.51v.06l0,.12a3.86,3.86,0,0,0,.07,1.49,1,1,0,0,0,.49.59c.09.38.19.76.29,1.14l-2.7.77-3.86,24.84s.52,54.12,2.16,54.59c11.29,3.28,15.94-2.16,15.94-2.16C313.6,154.52,315.15,135.71,315,117.06Z" fill="#42210b"></path><path d="M285.91,199.6l1.58-1,0-17.79-7.81-.28s-.15,7.59-2,9.32-6.41.49-6.86.64-3.52-.74-4.9.68,4.68,5.52,7.9,6.27a20.8,20.8,0,0,0,6.7.25s.7-4.55,1.82-4.1,1.2,5.26,1.2,5.26Z" fill="#673119"></path><path d="M288.72,94.28s-7.2,26.58-10.13,50.37c-.7,5.71-6.61,39.77-6.61,39.77s9.74,3.56,18.4.77c0,0,10.3-43.46,10.74-44.31s7.39-29,8.19-49.2" fill="#42210b"></path><path d="M287.87,58.91l-4.33.74c-.87.6-7.39,8-7.91,15.46a40.52,40.52,0,0,0,1.83,5.8c.88,2.57,1.83,5.13,2.92,7.62a59.2,59.2,0,0,0,4.05,7.9c.67,1.07,1,1.61,1.78,2.63a5.61,5.61,0,0,0,1.93.16c13.26-1.66,18.43-12.13,18.32-13.22s-6-14.41-9.59-22.31A8.34,8.34,0,0,0,287.87,58.91Z" fill="#673119"></path><path d="M271.23,50.39s3.77,14,9.17,13.1,8.31-9,7.41-11.85S275.74,42.87,271.23,50.39Z" fill="#f04900"></path><path d="M291,34a6.52,6.52,0,0,0-8.43,1c-2,2.23-2.22,5.19-1.56,7.95-3.33-.64-7.17.32-10.58,4,0,0-3.06,4.14-.79,6.3s5.37.36,8.25-.68,2.13,2.49,3.76,5,3,2.23,4.24,1.82,5.49-4.34,2.79-10.53a8.89,8.89,0,0,0-.57-1.09,15.92,15.92,0,0,0,2.06-1.13,8.73,8.73,0,0,0,3.62-3.73A7.58,7.58,0,0,0,291,34Z" fill="#fc9c54"></path><path d="M306.28,111.24c-.64,12.71-4.39,24.89-7.57,37.13s-5.89,24.43-8.21,36.78l1.08-.3q3.53-18.71,8.34-37.15c3.15-12,6.73-24,7.36-36.46C307.32,110.6,306.32,110.6,306.28,111.24Z" fill="#653200"></path><path d="M275.63,75.11s-3.73,11.42-6.87,14.43c-2.2,2.11-11.73,5.36-17.24,7.12a17.77,17.77,0,0,0,3.64,9.73c8.09-1.87,21.22-6.58,24.44-10.4,4.72-5.59,6.87-13.76,6.87-13.76Z" fill="#673119"></path><path d="M163.48,74.18l3.44,3.36s3.06,2.81,2.81,3.92-4.08-1.8-4.93-2.32,1.8,6.46,1.41,7.24-1.23.52-1.68,0,.15,1.71-1.13,1.52-1.54-1.68-1.54-1.68S161,87.77,160,87s-3.37-8.84-2.87-11.07S161.72,72.46,163.48,74.18Z" fill="#f67770"></path><path d="M156.84,76.44s-.95,7,.23,7.42,2.68-2,2.68-2-.94-6-1.54-6.77S156.84,76.44,156.84,76.44Z" fill="#f67770"></path><path d="M170.54,38.57s-19.42,9.11-23.24,13.82S154.46,78,154.46,78l9.3-3.67S157.65,58.65,160,57.8,174.53,53,174.53,53" fill="#42210b"></path><ellipse cx="138.23" cy="123.15" rx="24.09" ry="12.51" transform="translate(-3.7 242.02) rotate(-81.65)" fill="#fff"></ellipse><path d="M163.11,119.93s-8.37-.9-9.34-1.5-3.58-11-4.45-10.87-1.79,3-1.79,4.08,1.38,5.7.78,5.63-2-2.4-2.91-1.89,2.17,6.11,3.41,6.53a31.3,31.3,0,0,0,3.56.81l11,4.53" fill="#ffc9b5"></path><path d="M193.87,115.61s-15.14,5.31-18.51,5.4-17.69-2.1-17.69-2.1-2.79,5-1,7.08c0,0,14.05,4.63,19,4.88s20.24-1.71,22.24-3.71S193.87,115.61,193.87,115.61Z" fill="#688c03"></path><path d="M181.71,241s-3.57-3-7.57-1.87-3.17,4.17-.65,6.05,12.23,8.41,15.22,8.35,3.64-2.47,3.7-4.11a76.22,76.22,0,0,0-.88-7.58" fill="#2c1d1a"></path><path d="M183.93,240.79a.76.76,0,0,1-1,.62,29.17,29.17,0,0,1-3.19-1.22s-3.45,0-1.35,3.45,9.32,4.46,11.55,3.17.74-4.93.74-4.93" fill="#2c1d1a"></path><path d="M173.32,247.72s-3.57-3-7.57-1.87-3.17,4.17-.65,6.05,12.23,8.41,15.22,8.35,3.64-2.47,3.7-4.11a76.22,76.22,0,0,0-.88-7.58" fill="#2c1d1a"></path><path d="M175.54,247.51a.76.76,0,0,1-1,.62,29.17,29.17,0,0,1-3.19-1.22s-3.45,0-1.35,3.45,9.32,4.46,11.55,3.17.74-4.93.74-4.93" fill="#ffc9b5"></path><path d="M171.8,153.79c-1.16,2.63-1.79,40.27-1.35,49.95s5.09,43.77,5.09,43.77,2.65,4,7.1,3.73,3.59-3.87,3.59-3.87,5.69,2.64,8.18-3.16c.92-2.15,5.25-62.15,5.25-69a47.67,47.67,0,0,0-6.52-23.2" fill="#c13d3d"></path><path d="M186.22,247.36s2.7-76.07,2.36-78.3.74,16.68.67,21.85C189.2,194.6,187,242.18,186.22,247.36Z" fill="#6d5854"></path><path d="M171.8,153.79s-3.94-26.93,1.66-32,21.14-8.69,24-6.16-1.45,31.1-4.35,36.4S173.87,155.86,171.8,153.79Z" fill="#8ccc00"></path><path d="M178.88,102c-.13.38-2.89,10.91,1.92,12.39s5.78-4.23,6.26-4.55,2-.84,1.91-2-1.91-1.18-1.91-1.18-.7-3-2.87-4.31S178.88,102,178.88,102Z" fill="#ffc9b5"></path><path d="M183.37,104.92s-4,.07-5.75-1.66a3.38,3.38,0,0,1,.28-5s-1.59-3.18,1.4-4c0,0,.28-2.92,6.25-1.58s11.43,5.56,11.51,11,.48,6.09,2.42,7.35,1.4,6-3.77,6.23-12.22-.26-12.88-2.81,3.26-2.83,3.75-5.38A3.73,3.73,0,0,0,183.37,104.92Z" fill="#2c1d1a"></path><path d="M149.3,136.09s-5.26.29-6.3-.13a32.27,32.27,0,0,0-5.08-1.31s0,0,0,0a7.28,7.28,0,0,0-.74-.13c-.51-.06-1.52-.27-1.81.34-.63,1.29,2.25,1.77,3.28,1.92,0,0,0,0,0,.06-.39.37-6.12,1.27-7,1.41s-1.36,2.83-1.36,2.83c1.13,2.14,4.64,2.28,6.93,2.3s5.38-2,6.13-2,6.45,1.1,7.39.62S149.3,136.09,149.3,136.09Z" fill="#ffc9b5"></path><path d="M173.92,121.92c-2.47,1-4.23,2.92-6.35,4.41-1.53,1.08-3.13,2.21-4.71,3.27a17.72,17.72,0,0,1-5,2.69c-2.85.78-5.79,1-8.69,1.52a4.39,4.39,0,0,0-2,.62c-1.27,1.09-3,6,1.59,9.56a72,72,0,0,0,11.31.05c5-.5,16.2-7.76,19-11.1,1.88-2.27,3-5.74,1.86-8.6a4.87,4.87,0,0,0-4.81-2.9A6.56,6.56,0,0,0,173.92,121.92Z" fill="#8ccc00"></path></g></g></svg>