<svg xmlns="http://www.w3.org/2000/svg" viewBox="0 0 400 300" width="406" height="306" class="illustration styles_illustrationTablet__1DWOa"><g id="_123_process_building_outline" data-name="#123_process_building_outline"><path d="M166.73,173.74c-3.49,3.74-6.73,7.73-10,11.71L141.87,172c-3.67-3.33-11.05-10.23-6.26-15.31a10.43,10.43,0,0,1,2.83-1.78c2.19-1.17,4.39-2.93,6.85-2.53a8.07,8.07,0,0,1,3.92,2.33,54.2,54.2,0,0,1,5.44,5.16c1.39,1.66,1.06,2.56,1.93,4.35s3.17,3.21,4.64,4.54Z" fill="#ffc9b0"></path><path d="M156.75,186.44a1,1,0,0,1-.67-.25l-7.86-7.11-7-6.35c-2.59-2.34-8-7.2-8.16-12a6.29,6.29,0,0,1,1.83-4.71,8.54,8.54,0,0,1,2.51-1.69L138,154l1.31-.75c1.81-1.06,3.86-2.26,6.17-1.89a9.05,9.05,0,0,1,4.43,2.57c.41.37.83.75,1.26,1.12a40,40,0,0,1,4.28,4.15,6.89,6.89,0,0,1,1.48,2.94,8.36,8.36,0,0,0,.58,1.61,11.41,11.41,0,0,0,3,3.08c.49.4,1,.79,1.39,1.16l5.5,5a1,1,0,0,1,.33.7,1,1,0,0,1-.27.73c-3.28,3.52-6.4,7.33-9.42,11l-.52.64a1,1,0,0,1-.7.36Zm-14.21-15.19,7,6.35,7.08,6.4c2.78-3.4,5.65-6.9,8.67-10.2l-4.76-4.31c-.38-.34-.83-.71-1.3-1.08a12.75,12.75,0,0,1-3.57-3.77,9.93,9.93,0,0,1-.7-1.94,4.89,4.89,0,0,0-1.09-2.19,37.87,37.87,0,0,0-4.06-3.93l-1.29-1.14a7.31,7.31,0,0,0-3.41-2.09c-1.6-.26-3.17.67-4.84,1.65-.46.27-.92.54-1.38.78l-.61.32a6.9,6.9,0,0,0-2,1.27,4.38,4.38,0,0,0-1.29,3.26c.16,4,5.31,8.63,7.5,10.62Z" fill="#093f68"></path><path d="M160.89,167.53s15.35,10.31,18.2,11.74c0,0,16.35-19.93,33.59-19.93h18.89c10.93,0,19.78,9.77,19.78,21.83v33.89H195.62V193c-7.74,4.4-12.12,7-15.66,7.79-5,1.15-10.88-2.72-27.13-19.44Z" fill="#fff"></path><path d="M251.35,216.06H195.62a1,1,0,0,1-1-1V194.7c-6.84,3.89-11,6.24-14.43,7-5.65,1.3-11.95-3.12-28.08-19.72a1,1,0,0,1-.15-1.2L160,167a1,1,0,0,1,1.42-.33c.15.1,13.44,9,17.42,11.31a79,79,0,0,1,9.94-9.48c5.82-4.65,14.68-10.19,23.88-10.19h18.89c11.46,0,20.78,10.24,20.78,22.83v33.89A1,1,0,0,1,251.35,216.06Zm-54.73-2h53.73V181.17c0-11.49-8.42-20.83-18.78-20.83H212.68c-16.56,0-32.65,19.37-32.81,19.57a1,1,0,0,1-1.23.26c-2.5-1.26-14.08-9-17.43-11.21l-7.14,12.21c14.77,15.16,21,19.69,25.67,18.62,3.18-.74,7.27-3.06,14-6.91l1.35-.77a1,1,0,0,1,1.49.87Z" fill="#093f68"></path><path d="M219.44,156.32H221a4.41,4.41,0,0,1,4.41,4.41v6a0,0,0,0,1,0,0H215a0,0,0,0,1,0,0v-6A4.41,4.41,0,0,1,219.44,156.32Z" transform="translate(416.09 351.83) rotate(-172.08)" fill="#ffc9b0"></path><path d="M220.91,167.8a6.33,6.33,0,0,1-.76-.05l-1.55-.22h0a5.41,5.41,0,0,1-4.61-6.1l.82-5.91a1,1,0,0,1,.39-.66,1,1,0,0,1,.74-.19l10.28,1.43a1,1,0,0,1,.85,1.12l-.82,5.92a5.41,5.41,0,0,1-5.34,4.66Zm-2-2.25,1.55.22a3.41,3.41,0,0,0,3.85-2.91l.68-4.92-8.3-1.16-.68,4.93a3.4,3.4,0,0,0,2.9,3.84Z" fill="#093f68"></path><ellipse cx="198.17" cy="125.07" rx="8.69" ry="7.78" transform="translate(46.98 304.11) rotate(-82.08)" fill="#ffc9b0"></ellipse><path d="M198,134.74a7,7,0,0,1-1.12-.08A8.31,8.31,0,0,1,191,131a10.42,10.42,0,0,1,1.88-13.49,8.31,8.31,0,0,1,6.58-2c4.79.67,8.09,5.52,7.36,10.81a10.18,10.18,0,0,1-3.45,6.39A8.38,8.38,0,0,1,198,134.74Zm.44-17.35a6.47,6.47,0,0,0-4.18,1.6,8.2,8.2,0,0,0-2.76,5.14h0a8.23,8.23,0,0,0,1.25,5.71,6.23,6.23,0,0,0,9.42,1.31,8.22,8.22,0,0,0,2.76-5.15c.58-4.2-1.95-8-5.65-8.55A5.93,5.93,0,0,0,198.39,117.39ZM190.46,124h0Z" fill="#093f68"></path><path d="M260.62,105.29c-.69,8.66-2.2,23.89-6,31.38-6.53,12.9-20.45,24-33.7,22.17a27.32,27.32,0,0,1-22.83-19.12,33.41,33.41,0,0,1-1.19-14.93s-.41-3.66,2.22-17.33,4.15-20.79,31.15-21.36C251.1,85.67,261.32,96.62,260.62,105.29Z" fill="#ffc9b0"></path><path d="M223.62,160a20.12,20.12,0,0,1-2.84-.19A28.4,28.4,0,0,1,197.14,140a34.59,34.59,0,0,1-1.24-15.26c-.06-.81-.15-5.1,2.24-17.49,2.59-13.46,4.15-21.58,32.11-22.17,15.67-.31,23.55,5.51,26.85,9s4.83,7.41,4.52,11.25h0c-1.27,15.76-3.26,26.14-6.11,31.75C247.69,152.58,234.13,160,223.62,160Zm7.81-72.93h-1.14c-26.34.56-27.62,7.24-30.19,20.55s-2.21,17-2.2,17a1.85,1.85,0,0,1,0,.24A32.62,32.62,0,0,0,199,139.41a26.45,26.45,0,0,0,22,18.44c13.19,1.83,26.68-9.78,32.68-21.63,4-8,5.44-25.32,5.9-31h0c.26-3.27-1.15-6.72-4-9.72C250.59,90.13,241.81,87.09,231.43,87.09Zm29.19,18.2h0Z" fill="#093f68"></path><path d="M210.31,134.47c3.59-.71,13.34-.5,17.94,2.63,6.08,4.14,2.25,9,7.62,7.91,3.73-.74,4.82-.92,7.32-3.81,3.29-3.79,3.21-9.47,4-14.22a14.17,14.17,0,0,1,1.48-4.89,7.15,7.15,0,0,1,7.06-3.29c9.58,1.52,4.19,14,2.73,19.65l-4.16-.58-.35,3.4a31.92,31.92,0,0,1-33.06,17.57,27.32,27.32,0,0,1-22.83-19.12,31.64,31.64,0,0,0,3.79,1c3.66.64,2.2-2.79,5.52-5.08A7.79,7.79,0,0,1,210.31,134.47Z" fill="#725858"></path><path d="M225.44,160.15a33.38,33.38,0,0,1-4.66-.32A28.4,28.4,0,0,1,197.14,140a1,1,0,0,1,.24-1,1,1,0,0,1,1-.25,31.62,31.62,0,0,0,3.66,1c1.32.23,1.44,0,2-1.32a7.88,7.88,0,0,1,2.77-3.6,8.71,8.71,0,0,1,3.29-1.32c3.95-.78,13.84-.51,18.7,2.79a10.23,10.23,0,0,1,4.41,6.25c.49,1.66.55,1.87,2.45,1.5l.15,0c3.53-.7,4.36-.86,6.61-3.45s2.85-6.65,3.33-10.45c.14-1.09.28-2.22.47-3.3a14.86,14.86,0,0,1,1.61-5.22,8.14,8.14,0,0,1,8.07-3.77,7.12,7.12,0,0,1,5.21,3.14c2.49,4,.52,10.45-.92,15.17-.29,1-.56,1.83-.75,2.58a1,1,0,0,1-1.11.74l-3.13-.44-.24,2.37a1.1,1.1,0,0,1-.11.35A32.84,32.84,0,0,1,225.44,160.15ZM199.7,141.24a26.39,26.39,0,0,0,21.35,16.61A30.82,30.82,0,0,0,253,141l.33-3.21a1,1,0,0,1,1.13-.89l3.29.46q.24-.84.54-1.8c1.32-4.36,3.14-10.33,1.14-13.53a5.16,5.16,0,0,0-3.84-2.22,6.17,6.17,0,0,0-6,2.82,13.23,13.23,0,0,0-1.35,4.54c-.18,1-.31,2.08-.45,3.2-.52,4.09-1,8.32-3.81,11.51s-4.07,3.38-7.73,4.1l-.16,0c-3.68.73-4.25-1.2-4.75-2.89a8.24,8.24,0,0,0-3.62-5.17c-4.15-2.83-13.49-3.21-17.19-2.48h0a6.8,6.8,0,0,0-2.54,1,5.84,5.84,0,0,0-2.07,2.77c-.6,1.32-1.35,3-4.18,2.47C201.13,141.59,200.45,141.44,199.7,141.24Zm10.61-6.77h0Z" fill="#093f68"></path><ellipse cx="232.94" cy="125.29" rx="2.81" ry="2.82" transform="translate(76.75 338.74) rotate(-82.08)" fill="#093f68"></ellipse><circle cx="209.24" cy="122.35" r="2.82" fill="#093f68"></circle><path d="M225.11,132.21h0a28.34,28.34,0,0,1-6.92-1,1.82,1.82,0,0,1-1.28-1.32c-.53-2.18,3.11-6.15,4.71-7.76a1,1,0,0,1,1.41,0,1,1,0,0,1,0,1.42c-2.24,2.26-4.17,4.93-4.19,5.78a27.47,27.47,0,0,0,6.29.86,1,1,0,0,1,1,1A1,1,0,0,1,225.11,132.21Zm-6.28-2.76h0Z" fill="#093f68"></path><path d="M242.47,122.72a2,2,0,0,1-1.95-1.53c-.07-.29-.8-2.6-4.23-3-3.9-.5-5.41.91-5.47,1a2,2,0,0,1-2.8.12,2,2,0,0,1-.13-2.85c.28-.31,2.89-3,8.92-2.2,6.33.82,7.56,5.88,7.61,6.09a2,2,0,0,1-1.51,2.4A2.28,2.28,0,0,1,242.47,122.72Z" fill="#093f68"></path><path d="M215.1,117.32a2,2,0,0,1-1.53-.72,8.32,8.32,0,0,0-5-2.5c-2.34-.22-2.88.75-2.9.79a.55.55,0,0,0,0-.1L202,113.33c.54-1.38,2.62-3.61,6.95-3.21a12.31,12.31,0,0,1,7.72,3.91,2,2,0,0,1-1.53,3.29Z" fill="#093f68"></path><path d="M251.82,127.08s8.07-4.07,11.12,3-2.33,17.75-14.05,12.8Z" fill="#ffc9b0"></path><path d="M254.55,145.21a15.55,15.55,0,0,1-6-1.36,1,1,0,0,1-.6-1.11l2.93-15.84a1,1,0,0,1,.53-.71c.18-.09,4.39-2.18,8.17-.8a7.44,7.44,0,0,1,4.31,4.33,11.72,11.72,0,0,1-2.24,12.63A9.69,9.69,0,0,1,254.55,145.21ZM250,142.3c4.16,1.54,7.75,1.07,10.17-1.36A9.82,9.82,0,0,0,262,130.51a5.56,5.56,0,0,0-3.17-3.24c-2.36-.86-5.1.08-6.14.51Z" fill="#093f68"></path><path d="M226.54,143l-10.37-1.57s-.24,8.61,4,9.75S226.54,143,226.54,143Z" fill="#fff"></path><path d="M220.85,152.23a3.67,3.67,0,0,1-1-.14c-4.84-1.3-4.73-9.78-4.71-10.74a1,1,0,0,1,.36-.74,1,1,0,0,1,.79-.22L226.69,142a1,1,0,0,1,.67.43,1,1,0,0,1,.15.79c-.16.68-1.63,6.64-4.72,8.48A3.67,3.67,0,0,1,220.85,152.23Zm-3.67-9.69c.11,2.61.8,7,3.22,7.62a1.66,1.66,0,0,0,1.36-.21c1.66-1,2.92-4.19,3.52-6.18Z" fill="#093f68"></path><line x1="195.62" y1="192.98" x2="195.62" y2="173.97" fill="#673119"></line><path d="M195.62,194a1,1,0,0,1-1-1V174a1,1,0,0,1,2,0v19A1,1,0,0,1,195.62,194Z" fill="#093f68"></path><path d="M227.38,65.6H238.1a27.1,27.1,0,0,1,27.1,27.1v7.84a0,0,0,0,1,0,0H200.28a0,0,0,0,1,0,0V92.7A27.1,27.1,0,0,1,227.38,65.6Z" transform="translate(12.51 -29.04) rotate(7.34)" fill="#673119"></path><path d="M262.71,105.54h-.13l-64.39-8.29a1,1,0,0,1-.66-.39.93.93,0,0,1-.2-.73l1-7.78a28.11,28.11,0,0,1,31.46-24.29l10.63,1.37A28.14,28.14,0,0,1,264.7,96.89l-1,7.78A1,1,0,0,1,262.71,105.54ZM199.44,95.39l62.4,8,.87-6.78a26.12,26.12,0,0,0-22.55-29.22l-10.63-1.37h0A26.09,26.09,0,0,0,200.31,88.6Z" fill="#093f68"></path><rect x="189.61" y="100.35" width="80.26" height="12.13" rx="6.06" transform="translate(15.47 -28.47) rotate(7.34)" fill="#673119"></rect><path d="M263.53,117.83a7,7,0,0,1-.91-.06l-67.57-8.7a7.06,7.06,0,1,1,1.8-14l67.57,8.7a7.07,7.07,0,0,1,6.11,7.91A7.09,7.09,0,0,1,263.53,117.83Zm-.65-2a5.07,5.07,0,0,0,5.66-4.38,5,5,0,0,0-1-3.74,5,5,0,0,0-3.36-1.93L196.6,97a5.07,5.07,0,0,0-1.3,10Z" fill="#093f68"></path><path d="M233,61.58h0a9.85,9.85,0,0,1,9.85,9.85v29.12a0,0,0,0,1,0,0h-19.7a0,0,0,0,1,0,0V71.43A9.85,9.85,0,0,1,233,61.58Z" transform="translate(12.26 -29.09) rotate(7.34)" fill="#673119"></path><path d="M240.28,102.66h-.13l-19.54-2.52a1,1,0,0,1-.86-1.12l3.72-28.88a10.87,10.87,0,0,1,12.15-9.38h0A10.87,10.87,0,0,1,245,72.9l-3.72,28.88A1,1,0,0,1,240.28,102.66Zm-18.42-4.38,17.56,2.26L243,72.64a8.85,8.85,0,0,0-17.56-2.26Z" fill="#093f68"></path><rect x="200.89" y="159.04" width="8.43" height="24.44" fill="#f56132"></rect><path d="M209.32,184.48h-8.43a1,1,0,0,1-1-1V159a1,1,0,0,1,1-1h8.43a1,1,0,0,1,1,1v24.44A1,1,0,0,1,209.32,184.48Zm-7.43-2h6.43V160h-6.43Z" fill="#093f68"></path><rect x="231.34" y="159.34" width="8.43" height="24.13" fill="#f56132"></rect><path d="M239.77,184.48h-8.43a1,1,0,0,1-1-1V159.34a1,1,0,0,1,1-1h8.43a1,1,0,0,1,1,1v24.14A1,1,0,0,1,239.77,184.48Zm-7.43-2h6.43V160.34h-6.43Z" fill="#093f68"></path><rect x="195.62" y="183.47" width="48.84" height="31.97" fill="#f56132"></rect><path d="M244.46,216.44H195.62a1,1,0,0,1-1-1v-32a1,1,0,0,1,1-1h48.84a1,1,0,0,1,1,1v32A1,1,0,0,1,244.46,216.44Zm-47.84-2h46.84v-30H196.62Z" fill="#093f68"></path><rect x="251.41" y="192.51" width="16.13" height="20.73" rx="3.89" transform="translate(467.71 458.08) rotate(-167.23)" fill="#ffc9b0"></rect><path d="M262.13,215a4.43,4.43,0,0,1-1.08-.13L252.89,213a4.89,4.89,0,0,1-3.68-5.85l2.86-12.64a4.88,4.88,0,0,1,5.84-3.68l8.16,1.84a4.9,4.9,0,0,1,3.69,5.85l-2.87,12.64A4.9,4.9,0,0,1,262.13,215Zm-5.3-22.27a2.87,2.87,0,0,0-1.53.45A2.84,2.84,0,0,0,254,195l-2.86,12.64a2.88,2.88,0,0,0,2.17,3.45h0l8.16,1.85a2.87,2.87,0,0,0,3.45-2.17l2.87-12.64a2.91,2.91,0,0,0-2.18-3.46l-8.16-1.84A2.8,2.8,0,0,0,256.83,192.74Z" fill="#093f68"></path><path d="M286.3,183.33l-30.58-15.82a1.73,1.73,0,0,1-.42-2.78l17.75-17.34,21.43-20.94A1.73,1.73,0,0,1,297.4,128l-3.92,24.63-4.68,29.45A1.73,1.73,0,0,1,286.3,183.33Z" fill="#fff"></path><path d="M287.09,184.52a2.63,2.63,0,0,1-1.25-.31h0L255.26,168.4a2.73,2.73,0,0,1-.65-4.39l39.17-38.27a2.73,2.73,0,0,1,4.61,2.38l-8.6,54.09a2.72,2.72,0,0,1-1.46,2A2.76,2.76,0,0,1,287.09,184.52Zm-.34-2.08a.73.73,0,0,0,1.06-.54l8.61-54.09a.72.72,0,0,0-.4-.77.69.69,0,0,0-.84.13L256,165.44a.72.72,0,0,0-.21.64.71.71,0,0,0,.38.54Z" fill="#093f68"></path><path d="M270.27,166h0a1.65,1.65,0,0,1,1.65,1.65v20a0,0,0,0,1,0,0h-3.3a0,0,0,0,1,0,0v-20A1.65,1.65,0,0,1,270.27,166Z" transform="translate(111.46 -104.4) rotate(27.35)" fill="#fff"></path><path d="M266.77,188.19a1,1,0,0,1-.46-.11l-2.93-1.52a1,1,0,0,1-.5-.58,1,1,0,0,1,.07-.76l9.17-17.74a2.66,2.66,0,0,1,1.55-1.3,2.65,2.65,0,0,1,3.16,3.74l-9.17,17.73A1,1,0,0,1,266.77,188.19Zm-1.59-2.94,1.16.6L275.05,169a.67.67,0,0,0,.05-.5.71.71,0,0,0-.32-.38h0a.65.65,0,0,0-.87.28Z" fill="#093f68"></path><path d="M261.92,201.13c2.17-4.2,4.87-7.71,6.65-10.69a2.48,2.48,0,0,0-1-3.46l-4-2.07a2.49,2.49,0,0,0-3.41,1.17c-1.4,3.18-2.71,7.41-4.89,11.61-5.18,10-17.56,13.9-6,19.86S256.74,211.15,261.92,201.13Z" fill="#f56132"></path><path d="M254.09,220.1a12.19,12.19,0,0,1-5.34-1.67c-3.25-1.68-4.92-3.34-5.23-5.23-.44-2.65,1.76-5,4.55-7.88a36,36,0,0,0,6.3-8.09,73.84,73.84,0,0,0,3.3-7.67c.54-1.39,1.05-2.7,1.57-3.88a3.41,3.41,0,0,1,2-1.85A3.54,3.54,0,0,1,264,184l4,2.07a3.49,3.49,0,0,1,1.76,2.15,3.39,3.39,0,0,1-.35,2.71c-.66,1.11-1.44,2.28-2.26,3.52a73.15,73.15,0,0,0-4.35,7.12,35.44,35.44,0,0,0-3,9.82c-.77,4-1.39,7.1-3.8,8.27A4.44,4.44,0,0,1,254.09,220.1Zm8.32-34.47a1.49,1.49,0,0,0-1.34.86c-.5,1.13-1,2.42-1.53,3.79a76.85,76.85,0,0,1-3.39,7.87,37.3,37.3,0,0,1-6.63,8.55c-2.31,2.42-4.31,4.51-4,6.17.2,1.18,1.6,2.46,4.18,3.79s4.43,1.74,5.51,1.22c1.51-.73,2.07-3.57,2.71-6.85A37.3,37.3,0,0,1,261,200.67h0a77.78,77.78,0,0,1,4.46-7.31c.81-1.22,1.58-2.37,2.22-3.44a1.44,1.44,0,0,0,.14-1.13,1.51,1.51,0,0,0-.76-.92l-4-2.07A1.56,1.56,0,0,0,262.41,185.63Z" fill="#093f68"></path><path d="M293.48,152.6a12.59,12.59,0,0,1-4.51-1c-4.36-2,0-8.79-5.92-3.06s-10-1.14-10-1.14l21.43-20.94A1.73,1.73,0,0,1,297.4,128Z" fill="#ffbc0e"></path><path d="M293.49,153.6h-.06a13.29,13.29,0,0,1-4.88-1.11c-2.42-1.13-2.71-3.39-2.87-4.74l0-.19a19.4,19.4,0,0,0-1.91,1.69c-2,1.94-4.08,2.78-6.15,2.5-3.35-.45-5.32-3.72-5.4-3.85a1,1,0,0,1,.16-1.23l21.43-20.93a2.73,2.73,0,0,1,4.61,2.38l-3.92,24.64A1,1,0,0,1,293.49,153.6Zm-7.44-8.33a1.61,1.61,0,0,1,.48.08c.9.32,1,1.29,1.13,2.15.18,1.43.42,2.57,1.73,3.18a10.42,10.42,0,0,0,3.25.85l3.78-23.72a.72.72,0,0,0-.4-.77.69.69,0,0,0-.84.13L274.36,147.5a5.82,5.82,0,0,0,3.5,2.27c1.43.19,2.95-.47,4.5-2C284.27,146,285.25,145.27,286.05,145.27Z" fill="#093f68"></path><rect x="255.83" y="197" width="12.77" height="4.51" rx="2.08" transform="translate(458.23 463.9) rotate(-163.75)" fill="#ffc9b0"></rect><path d="M266.3,203.7a3.24,3.24,0,0,1-.86-.12l-8.27-2.41h0a3.08,3.08,0,0,1-2.09-3.82l.1-.34a3.08,3.08,0,0,1,3.81-2.09l8.27,2.41a3.09,3.09,0,0,1,2.1,3.82l-.1.34A3.08,3.08,0,0,1,266.3,203.7Zm-8.57-4.45,8.27,2.41a1.08,1.08,0,0,0,1.34-.73l.1-.34a1.09,1.09,0,0,0-.74-1.34l-8.27-2.41a1.06,1.06,0,0,0-.82.09,1.08,1.08,0,0,0-.51.64l-.1.34a1.06,1.06,0,0,0,.09.82,1.1,1.1,0,0,0,.64.52Z" fill="#093f68"></path><rect x="254.57" y="201.32" width="12.77" height="4.51" rx="2.08" transform="translate(454.55 472.03) rotate(-163.75)" fill="#ffc9b0"></rect><path d="M265,208a3.24,3.24,0,0,1-.86-.12l-8.27-2.41a3.07,3.07,0,0,1-2.09-3.82l.1-.34a3.08,3.08,0,0,1,3.81-2.09l8.27,2.41a3.08,3.08,0,0,1,2.1,3.81l-.1.34A3.09,3.09,0,0,1,265,208Zm-8.17-6.9a1.06,1.06,0,0,0-1,.77l-.1.34a1.09,1.09,0,0,0,.73,1.34h0l8.27,2.41a1.09,1.09,0,0,0,1.34-.74l.1-.34a1.08,1.08,0,0,0-.74-1.33l-8.27-2.41A1,1,0,0,0,256.87,201.13Z" fill="#093f68"></path><rect x="253.31" y="205.65" width="12.77" height="4.51" rx="2.08" transform="translate(450.86 480.16) rotate(-163.75)" fill="#ffc9b0"></rect><path d="M263.78,212.36a2.9,2.9,0,0,1-.86-.13l-8.27-2.41h0a3.07,3.07,0,0,1-2.09-3.81l.1-.34a3.06,3.06,0,0,1,3.81-2.09l8.27,2.41a3.07,3.07,0,0,1,1.84,1.47,3,3,0,0,1,.25,2.34l-.09.34A3.1,3.1,0,0,1,263.78,212.36Zm-8.57-4.46,8.27,2.41a1.08,1.08,0,0,0,1.34-.73l.09-.34a1,1,0,0,0-.73-1.33l-8.27-2.41a1.06,1.06,0,0,0-.82.09,1,1,0,0,0-.51.64l-.1.34a1.07,1.07,0,0,0,.09.82,1.06,1.06,0,0,0,.64.51Z" fill="#093f68"></path><rect x="252.05" y="209.98" width="12.77" height="4.51" rx="2.08" transform="translate(447.18 488.28) rotate(-163.75)" fill="#ffc9b0"></rect><path d="M262.52,216.68a3.24,3.24,0,0,1-.86-.12l-8.27-2.41a3.07,3.07,0,0,1-1.84-1.47,3.11,3.11,0,0,1-.25-2.35l.1-.33a3.07,3.07,0,0,1,3.81-2.1l8.27,2.41a3.07,3.07,0,0,1,2.09,3.82l-.09.33A3.09,3.09,0,0,1,262.52,216.68Zm-8.17-6.9a1.06,1.06,0,0,0-.52.13,1.07,1.07,0,0,0-.51.65l-.1.33a1.06,1.06,0,0,0,.09.82,1,1,0,0,0,.64.52h0l8.27,2.41a1.08,1.08,0,0,0,1.34-.73l.09-.34a1.06,1.06,0,0,0-.09-.82,1,1,0,0,0-.64-.52l-8.27-2.41A1,1,0,0,0,254.35,209.78Z" fill="#093f68"></path><path d="M220.3,206.94a13.46,13.46,0,0,1-13.45-13.44v-1.08a1,1,0,0,1,1-1h24.89a1,1,0,0,1,1,1v1.08A13.46,13.46,0,0,1,220.3,206.94Zm-11.45-13.52v.08a11.45,11.45,0,0,0,22.89,0v-.08Z" fill="#093f68"></path><rect x="102.57" y="191.36" width="98.18" height="46.98" fill="#673119"></rect><path d="M200.75,239.34H102.57a1,1,0,0,1-1-1v-47a1,1,0,0,1,1-1h98.18a1,1,0,0,1,1,1v47A1,1,0,0,1,200.75,239.34Zm-97.18-2h96.18v-45H103.57Z" fill="#093f68"></path><rect x="192.24" y="213.67" width="105.19" height="24.67" fill="#673119"></rect><path d="M297.43,239.34H192.24a1,1,0,0,1-1-1V213.67a1,1,0,0,1,1-1H297.43a1,1,0,0,1,1,1v24.67A1,1,0,0,1,297.43,239.34Zm-104.19-2H296.43V214.67H193.24Z" fill="#093f68"></path><rect x="102.57" y="169.04" width="28.8" height="22.32" fill="#673119"></rect><path d="M131.38,192.36H102.57a1,1,0,0,1-1-1V169a1,1,0,0,1,1-1h28.81a1,1,0,0,1,1,1v22.32A1,1,0,0,1,131.38,192.36Zm-27.81-2h26.81V170H103.57Z" fill="#093f68"></path><path d="M102.57,213.67c0,.67,98.18,0,98.18,0" fill="#673119"></path><path d="M127,215c-24.52,0-24.76-.24-25.11-.59a1,1,0,0,1-.3-.71,1,1,0,0,1,1.35-.94c3.72.48,71.72.12,97.83-.06h0a1,1,0,0,1,0,2c-.24,0-24.66.16-48.84.25C141.62,215,133.45,215,127,215Zm-23.41-1.3h0Z" fill="#093f68"></path><path d="M152.77,191.36c-.17,0,0,22.31,0,22.31" fill="#673119"></path><path d="M152.77,214.67a1,1,0,0,1-1-1c-.17-22.55-.11-22.61.29-23a1,1,0,0,1,.71-.29,1,1,0,0,1,1,1,.78.78,0,0,1,0,.22c-.09,1.26,0,13.81,0,22.08a1,1,0,0,1-1,1Z" fill="#093f68"></path><path d="M131.38,239.34a1,1,0,0,1-1-1V214a1,1,0,0,1,2,0v24.37A1,1,0,0,1,131.38,239.34Z" fill="#093f68"></path><path d="M131.38,187.16a41.6,41.6,0,0,1,15.68,0c8.39,1.68,16.61,2.35,24.5,1.18s6.38-1,12.42-.67,15.6,1.26,15.6,1.26v2.43h-68.2Z" fill="#ffbc0e"></path><path d="M199.58,192.36h-68.2a1,1,0,0,1-1-1v-4.2a1,1,0,0,1,.77-1,42.1,42.1,0,0,1,16.11,0c9.19,1.84,17.08,2.22,24.15,1.17l.79-.12c6-.89,6.08-.9,9.68-.68l2.15.12c6,.33,15.55,1.25,15.65,1.26a1,1,0,0,1,.9,1v2.43A1,1,0,0,1,199.58,192.36Zm-67.2-2h66.2v-.52c-2.53-.24-9.79-.9-14.66-1.17l-2.17-.13c-3.39-.21-3.39-.21-9.26.67l-.78.12c-7.3,1.08-15.43.7-24.84-1.19a41.38,41.38,0,0,0-14.49-.15Z" fill="#093f68"></path><rect x="125.88" y="143.32" width="47.44" height="20.89" rx="2.11" fill="#673119"></rect><path d="M171.21,165.2H128a3.1,3.1,0,0,1-3.1-3.1V145.42a3.1,3.1,0,0,1,3.1-3.1h43.23a3.1,3.1,0,0,1,3.11,3.1V162.1A3.1,3.1,0,0,1,171.21,165.2ZM128,144.32a1.1,1.1,0,0,0-1.1,1.1V162.1a1.1,1.1,0,0,0,1.1,1.1h43.23a1.11,1.11,0,0,0,1.11-1.1V145.42a1.11,1.11,0,0,0-1.11-1.1Z" fill="#093f68"></path><path d="M248.06,239.34a1,1,0,0,1-1-1V213.67a1,1,0,0,1,2,0v24.67A1,1,0,0,1,248.06,239.34Z" fill="#093f68"></path><path d="M151.26,169s-5.41-9.45-3.3-10,9,8.46,9,8.46" fill="#ffc9b0"></path><path d="M151.26,170a1,1,0,0,1-.87-.5c-1.42-2.48-4.62-8.47-3.75-10.53a1.58,1.58,0,0,1,1.06-.94c1.26-.33,4,.94,10.06,8.82a1,1,0,0,1-1.59,1.22c-3.06-4-6.39-7.43-7.71-8,.1,1.29,1.68,5,3.67,8.45a1,1,0,0,1-.38,1.36A1,1,0,0,1,151.26,170Z" fill="#093f68"></path></g></svg>