<?xml version="1.0" encoding="iso-8859-1"?>
<!-- Generator: Adobe Illustrator 19.0.0, SVG Export Plug-In . SVG Version: 6.00 Build 0)  -->
<svg version="1.1" id="Layer_1" xmlns="http://www.w3.org/2000/svg" xmlns:xlink="http://www.w3.org/1999/xlink" x="0px" y="0px"
	 viewBox="0 0 511.999 511.999" style="enable-background:new 0 0 511.999 511.999;" xml:space="preserve">
<path style="fill:#F9545B;" d="M451.164,323.821c0-75.304-54.066-182.685-125.494-206.275l-28.471-11.405l-28.471,11.405
	c-71.428,23.59-125.494,130.972-125.494,206.275c0,58.288,32.392,109.006,80.155,135.147c-22.994,0-30.227,18.638-30.227,41.628
	h208.072c0-22.99-7.233-41.628-30.223-41.628C418.771,432.827,451.164,382.109,451.164,323.821z"/>
<g>
	<path style="fill:#FC7576;" d="M209.097,68.429c0,31.925-30.04,57.024-74.131,57.024s-74.131-25.099-74.131-57.024
		s30.04-57.024,74.131-57.024S209.097,36.503,209.097,68.429z"/>
	<path style="fill:#FC7576;" d="M395.457,278.202H198.94c-6.467,13.874-10.088,29.33-10.088,45.619
		c0,59.742,48.604,108.346,108.346,108.346s108.346-48.604,108.346-108.346C405.545,307.531,401.924,292.074,395.457,278.202"/>
</g>
<rect x="268.685" y="19.313" style="fill:#FFD37D;" width="57.024" height="98.229"/>
<path style="fill:#000030;" d="M462.569,323.821c0-39.29-14.007-87.215-37.468-128.197c-24.143-42.173-55.133-72.36-87.985-85.966
	V79.834h17.107c6.299,0,11.405-5.107,11.405-11.405c0-6.298-5.106-11.405-11.405-11.405h-17.107V19.313
	c0-6.298-5.106-11.405-11.405-11.405h-57.024c-6.299,0-11.405,5.107-11.405,11.405v37.711H219.42
	c-2.792-14.711-10.987-27.942-23.793-38.036C180.094,6.744,158.55,0,134.966,0c-23.585,0-45.128,6.744-60.661,18.988
	C58.264,31.633,49.43,49.192,49.43,68.429s8.834,36.795,24.875,49.441c15.532,12.244,37.076,18.988,60.661,18.988
	s45.128-6.744,60.66-18.988c12.805-10.094,21.001-23.325,23.793-38.036h37.863v29.824c-32.852,13.606-63.842,43.793-87.985,85.966
	c-23.462,40.983-37.468,88.907-37.468,128.197c0,52.47,24.835,101.287,66.094,132.272c-8.863,7.267-16.166,20.53-16.166,44.503
	c0,6.298,5.106,11.405,11.405,11.405h208.072c6.299,0,11.405-5.107,11.405-11.405c0-23.974-7.302-37.236-16.166-44.503
	C437.733,425.108,462.569,376.29,462.569,323.821z M134.966,114.048c-36.346,0-62.726-19.185-62.726-45.619
	S98.62,22.81,134.966,22.81s62.726,19.185,62.726,45.619S171.312,114.048,134.966,114.048z M280.092,30.718h34.214v75.423h-34.214
	V30.718L280.092,30.718z M365.533,448.962c-4.571,2.501-6.863,7.783-5.571,12.83c1.291,5.048,5.842,8.579,11.051,8.579
	c4.808,0,15.126,0.002,18.038,18.818H205.347c2.913-18.816,13.231-18.818,18.042-18.818c5.21,0,9.758-3.532,11.049-8.579
	c1.291-5.048-1.002-10.329-5.574-12.83c-45.785-25.057-74.226-73.01-74.226-125.143c0-35.491,12.879-79.179,34.454-116.865
	c22.831-39.884,51.723-67.505,81.525-78.005h15.176v137.846h-86.853c-4.433,0-8.464,2.568-10.337,6.586
	c-7.402,15.88-11.155,32.849-11.155,50.438c0,66.03,53.72,119.75,119.75,119.75c24.638,0,48.322-7.456,68.49-21.564
	c19.695-13.775,34.659-32.856,43.275-55.18c2.268-5.876-0.657-12.478-6.533-14.746c-5.878-2.268-12.478,0.656-14.746,6.534
	c-14.348,37.173-50.711,62.147-90.487,62.147c-53.453,0-96.941-43.488-96.941-96.941c0-11.827,2.095-23.306,6.237-34.214h79.299
	v96.941c0,6.298,5.106,11.405,11.405,11.405c6.299,0,11.405-5.107,11.405-11.405v-96.941h79.299
	c4.142,10.909,6.237,22.388,6.237,34.214c0,6.298,5.106,11.405,11.405,11.405c6.299,0,11.405-5.107,11.405-11.405
	c0-17.588-3.753-34.558-11.155-50.438c-1.873-4.018-5.904-6.586-10.337-6.586h-86.853V128.949h15.175
	c29.803,10.5,58.694,38.123,81.526,78.005c21.573,37.686,34.454,81.374,34.454,116.865
	C439.759,375.953,411.317,423.905,365.533,448.962z"/>
<g>
</g>
<g>
</g>
<g>
</g>
<g>
</g>
<g>
</g>
<g>
</g>
<g>
</g>
<g>
</g>
<g>
</g>
<g>
</g>
<g>
</g>
<g>
</g>
<g>
</g>
<g>
</g>
<g>
</g>
</svg>
