<?xml version="1.0" encoding="iso-8859-1"?>
<!-- Generator: Adobe Illustrator 18.0.0, SVG Export Plug-In . SVG Version: 6.00 Build 0)  -->
<!DOCTYPE svg PUBLIC "-//W3C//DTD SVG 1.1//EN" "http://www.w3.org/Graphics/SVG/1.1/DTD/svg11.dtd">
<svg version="1.1" id="Capa_1" xmlns="http://www.w3.org/2000/svg" xmlns:xlink="http://www.w3.org/1999/xlink" x="0px" y="0px"
	 viewBox="0 0 460 460" style="enable-background:new 0 0 460 460;" xml:space="preserve">
<g id="XMLID_1425_">
	<g id="XMLID_1313_">
		<g id="XMLID_24_">
			<path id="XMLID_2570_" style="fill:#3DBCE5;" d="M296.682,255.1l154.255,154.255c11.832,11.832,12.116,30.733,0.633,42.215l0,0
				c-11.482,11.483-30.383,11.199-42.215-0.633L255.1,296.682"/>
		</g>
	</g>
	<path id="XMLID_2579_" style="opacity:0.49;fill:#D0D5D9;" d="M454.588,413.749c-1.156,1.885-2.539,3.666-4.167,5.294l0,0
		c-11.483,11.482-30.383,11.199-42.215-0.634L270.79,280.992l-15.689,15.69l154.255,154.255
		c11.832,11.832,30.733,12.116,42.215,0.634v0C461.718,441.423,462.669,425.485,454.588,413.749z"/>
	<g id="XMLID_1966_">
		<g id="XMLID_25_">
			<path id="XMLID_26_" style="fill:#3C5768;" d="M281.085,48.227c-64.302-64.302-168.556-64.302-232.858,0
				c-64.302,64.302-64.302,168.556,0,232.858c64.302,64.302,168.556,64.302,232.858,0
				C345.387,216.783,345.387,112.529,281.085,48.227z M251.978,251.978c-48.227,48.226-126.417,48.226-174.644,0
				c-48.226-48.227-48.226-126.417,0-174.644c48.227-48.227,126.417-48.227,174.644,0
				C300.204,125.56,300.204,203.751,251.978,251.978z"/>
		</g>
	</g>
	<g id="XMLID_509_" style="opacity:0.68;">
		<path id="XMLID_788_" style="fill:#D0D5D9;" d="M156.711,41.426c-34.197-2.191-69.132,9.773-95.267,35.908
			c-48.226,48.226-48.226,126.417,0,174.644c26.135,26.135,61.07,38.099,95.267,35.908c-28.906-1.852-57.286-13.816-79.377-35.908
			c-48.226-48.227-48.226-126.417,0-174.644C99.425,55.242,127.805,43.278,156.711,41.426z"/>
		<path id="XMLID_838_" style="fill:#D0D5D9;" d="M281.085,48.227C246.913,14.054,201.457-1.957,156.711,0.191
			c39.453,1.894,78.354,17.906,108.484,48.035c64.302,64.302,64.302,168.556,0,232.858c-30.13,30.13-69.031,46.141-108.484,48.035
			c44.746,2.148,90.202-13.863,124.374-48.035C345.387,216.783,345.387,112.529,281.085,48.227z"/>
	</g>
	<g id="XMLID_1346_">
		<g id="XMLID_1791_">
			<polyline id="XMLID_2381_" style="fill:#794C2B;" points="89.435,125.773 106.214,129.968 114.604,142.552 			"/>
		</g>
		<g id="XMLID_1792_">
			<path id="XMLID_2380_" style="fill:#794C2B;" d="M114.611,150.344c-2.518,0-4.988-1.218-6.489-3.47l-6.719-10.078l-13.857-3.464
				c-4.174-1.043-6.713-5.273-5.669-9.447c1.043-4.174,5.275-6.712,9.447-5.669l16.779,4.195c1.88,0.47,3.518,1.624,4.593,3.237
				l8.39,12.585c2.387,3.58,1.42,8.417-2.161,10.804C117.598,149.92,116.096,150.343,114.611,150.344z"/>
		</g>
	</g>
	<g id="XMLID_1345_">
		<g id="XMLID_1789_">
			<polyline id="XMLID_2379_" style="fill:#794C2B;" points="110.409,167.721 89.435,167.721 72.656,184.5 			"/>
		</g>
		<g id="XMLID_1790_">
			<path id="XMLID_2378_" style="fill:#794C2B;" d="M72.656,192.291c-1.994,0-3.988-0.76-5.509-2.282
				c-3.043-3.042-3.043-7.975,0-11.018l16.779-16.779c1.461-1.461,3.442-2.282,5.509-2.282h20.974c4.303,0,7.791,3.488,7.791,7.791
				c0,4.303-3.488,7.791-7.791,7.791H92.662l-14.497,14.497C76.644,191.53,74.65,192.291,72.656,192.291z"/>
		</g>
	</g>
	<g id="XMLID_1341_">
		<g id="XMLID_1787_">
			<polyline id="XMLID_2377_" style="fill:#794C2B;" points="118.799,201.279 97.825,209.669 89.435,226.448 			"/>
		</g>
		<g id="XMLID_1788_">
			<path id="XMLID_2376_" style="fill:#794C2B;" d="M89.429,234.241c-1.171,0-2.36-0.265-3.478-0.824
				c-3.849-1.924-5.408-6.604-3.484-10.452l8.39-16.779c0.853-1.707,2.303-3.041,4.075-3.749l20.974-8.389
				c3.994-1.601,8.529,0.345,10.127,4.34c1.598,3.995-0.345,8.529-4.34,10.127l-18.223,7.29l-7.066,14.13
				C95.038,232.663,92.287,234.241,89.429,234.241z"/>
		</g>
	</g>
	<g id="XMLID_1340_">
		<g id="XMLID_1785_">
			<polyline id="XMLID_2375_" style="fill:#794C2B;" points="235.939,125.773 219.16,129.968 210.77,142.552 			"/>
		</g>
		<g id="XMLID_1786_">
			<path id="XMLID_2374_" style="fill:#794C2B;" d="M210.763,150.344c-1.485,0-2.986-0.424-4.314-1.31
				c-3.58-2.386-4.548-7.223-2.161-10.804l8.389-12.585c1.075-1.612,2.713-2.767,4.593-3.237l16.779-4.195
				c4.172-1.043,8.405,1.494,9.448,5.669c1.043,4.174-1.494,8.404-5.669,9.447l-13.858,3.464l-6.719,10.078
				C215.751,149.125,213.28,150.343,210.763,150.344z"/>
		</g>
	</g>
	<g id="XMLID_1339_">
		<g id="XMLID_1780_">
			<polyline id="XMLID_2373_" style="fill:#794C2B;" points="214.965,167.721 235.939,167.721 252.718,184.5 			"/>
		</g>
		<g id="XMLID_1781_">
			<path id="XMLID_2372_" style="fill:#794C2B;" d="M252.718,192.291c-1.994,0-3.988-0.76-5.509-2.282l-14.496-14.497h-17.747
				c-4.303,0-7.791-3.488-7.791-7.791c0-4.303,3.488-7.791,7.791-7.791h20.974c2.066,0,4.048,0.821,5.509,2.282l16.779,16.779
				c3.042,3.043,3.042,7.976-0.001,11.018C256.705,191.53,254.711,192.291,252.718,192.291z"/>
		</g>
	</g>
	<g id="XMLID_1338_">
		<g id="XMLID_1778_">
			<polyline id="XMLID_2371_" style="fill:#794C2B;" points="206.575,201.279 227.549,209.669 235.939,226.448 			"/>
		</g>
		<g id="XMLID_1779_">
			<path id="XMLID_2370_" style="fill:#794C2B;" d="M235.945,234.241c-2.858,0.001-5.609-1.578-6.974-4.308l-7.065-14.13
				l-18.223-7.29c-3.995-1.598-5.939-6.132-4.34-10.127c1.598-3.996,6.131-5.942,10.127-4.34l20.974,8.389
				c1.772,0.709,3.222,2.043,4.075,3.749l8.389,16.779c1.924,3.849,0.364,8.528-3.484,10.453
				C238.304,233.976,237.115,234.241,235.945,234.241z"/>
		</g>
	</g>
	<g id="XMLID_1349_">
		<path id="XMLID_2369_" style="fill:#A38671;" d="M162.687,93.143c-32.786,0-59.459,32.467-59.459,72.375
			c0,36.692,22.553,67.073,51.668,71.734V116.094c0-5.879,3.488-10.645,7.791-10.645c4.303,0,7.791,4.766,7.791,10.645v121.159
			c29.115-4.662,51.667-35.042,51.667-71.734C222.145,125.61,195.473,93.143,162.687,93.143z"/>
	</g>
	<g id="XMLID_1336_">
		<g id="XMLID_1774_">
			<line id="XMLID_2367_" style="fill:#794C2B;" x1="146.799" y1="86.079" x2="136.207" y2="70.192"/>
		</g>
		<g id="XMLID_1775_">
			<path id="XMLID_2366_" style="fill:#A38671;" d="M146.806,93.871c-2.518,0-4.988-1.218-6.489-3.47l-10.592-15.888
				c-2.387-3.58-1.42-8.417,2.161-10.804c3.58-2.386,8.418-1.42,10.804,2.161l10.592,15.888c2.387,3.58,1.42,8.417-2.161,10.804
				C149.793,93.447,148.291,93.871,146.806,93.871z"/>
		</g>
	</g>
	<g id="XMLID_1335_">
		<g id="XMLID_1772_">
			<line id="XMLID_2365_" style="fill:#794C2B;" x1="178.575" y1="86.079" x2="189.167" y2="70.192"/>
		</g>
		<g id="XMLID_1773_">
			<path id="XMLID_2364_" style="fill:#A38671;" d="M178.568,93.871c-1.485,0-2.986-0.424-4.314-1.31
				c-3.58-2.386-4.548-7.224-2.161-10.804l10.592-15.888c2.386-3.58,7.224-4.548,10.804-2.161c3.58,2.386,4.548,7.224,2.161,10.804
				l-10.592,15.888C183.556,92.653,181.085,93.871,178.568,93.871z"/>
		</g>
	</g>
	<g id="XMLID_819_">
		<path id="XMLID_2363_" style="fill:#794C2B;" d="M162.687,74.026c-23.011,0-40.859,20.714-40.859,38.533
			c0,17.602,16.038,28.975,40.859,28.975c24.82,0,40.858-11.373,40.858-28.975C203.545,94.74,185.698,74.026,162.687,74.026z"/>
	</g>
</g>
<g>
</g>
<g>
</g>
<g>
</g>
<g>
</g>
<g>
</g>
<g>
</g>
<g>
</g>
<g>
</g>
<g>
</g>
<g>
</g>
<g>
</g>
<g>
</g>
<g>
</g>
<g>
</g>
<g>
</g>
</svg>
