<svg xmlns="http://www.w3.org/2000/svg" class="illustration styles_illustrationTablet__1DWOa" viewBox="81.96 96.7 236.08 106.6"><g id="_486_drone_outline" data-name="#486_drone_outline"><path d="M305.39,132a8.81,8.81,0,0,1-8.84,8.84H242L238,152.44a17.9,17.9,0,0,1-16.91,12H178.91a17.89,17.89,0,0,1-16.89-12L158,140.8H103.43a8.84,8.84,0,1,1,0-17.67h43.25c8.72-9.5,29.31-21.41,53.32-21.41s44.6,11.91,53.32,21.41h43.23A8.83,8.83,0,0,1,305.39,132Z" fill="#673119"/><path d="M221.07,165.44H178.91a18.9,18.9,0,0,1-17.83-12.67l-3.84-11H103.43a9.84,9.84,0,0,1,0-19.67h42.81c9.75-10.38,30.58-21.41,53.76-21.41s44,11,53.76,21.41h42.79a9.84,9.84,0,0,1,9.84,9.83,9.83,9.83,0,0,1-9.84,9.84H242.74l-3.82,11A18.91,18.91,0,0,1,221.07,165.44ZM103.43,124.13A7.82,7.82,0,0,0,95.61,132a7.84,7.84,0,0,0,7.82,7.84H158a1,1,0,0,1,1,.67L163,152.11a16.92,16.92,0,0,0,15.95,11.33h42.16a16.93,16.93,0,0,0,16-11.32l4.05-11.65a1,1,0,0,1,.94-.67h54.52a7.83,7.83,0,0,0,5.55-2.3,7.75,7.75,0,0,0,2.29-5.54,7.84,7.84,0,0,0-7.84-7.83H253.32a1,1,0,0,1-.73-.33c-9.34-10.15-29.77-21.08-52.59-21.08s-43.25,10.93-52.59,21.08a1,1,0,0,1-.73.33Z" fill="#093f68"/><rect x="92.29" y="113.84" width="18.26" height="33.83" rx="4.17" fill="#673119"/><path d="M106.38,148.67H96.46a5.18,5.18,0,0,1-5.17-5.17V118a5.18,5.18,0,0,1,5.17-5.17h9.92a5.18,5.18,0,0,1,5.17,5.17V143.5A5.18,5.18,0,0,1,106.38,148.67Zm-9.92-33.83A3.17,3.17,0,0,0,93.29,118V143.5a3.17,3.17,0,0,0,3.17,3.17h9.92a3.17,3.17,0,0,0,3.17-3.17V118a3.17,3.17,0,0,0-3.17-3.17Z" fill="#093f68"/><path d="M101.42,114.84a1,1,0,0,1-1-1V97.7a1,1,0,0,1,2,0v16.14A1,1,0,0,1,101.42,114.84Z" fill="#093f68"/><path d="M119.39,103.22H83.46a1.5,1.5,0,0,1,0-3h35.93a1.5,1.5,0,1,1,0,3Z" fill="#093f68"/><rect x="289.45" y="113.84" width="18.26" height="33.83" rx="4.17" fill="#673119"/><path d="M303.54,148.67h-9.92a5.18,5.18,0,0,1-5.17-5.17V118a5.18,5.18,0,0,1,5.17-5.17h9.92a5.18,5.18,0,0,1,5.17,5.17V143.5A5.18,5.18,0,0,1,303.54,148.67Zm-9.92-33.83a3.17,3.17,0,0,0-3.17,3.17V143.5a3.17,3.17,0,0,0,3.17,3.17h9.92a3.17,3.17,0,0,0,3.17-3.17V118a3.17,3.17,0,0,0-3.17-3.17Z" fill="#093f68"/><path d="M298.58,114.84a1,1,0,0,1-1-1V97.7a1,1,0,1,1,2,0v16.14A1,1,0,0,1,298.58,114.84Z" fill="#093f68"/><path d="M316.54,103.22H280.61a1.5,1.5,0,0,1,0-3h35.93a1.5,1.5,0,0,1,0,3Z" fill="#093f68"/><path d="M242,141.8H158a1,1,0,1,1,0-2H242a1,1,0,1,1,0,2Z" fill="#093f68"/><rect x="193.11" y="164.44" width="13.77" height="8.69" fill="#093f68"/><path d="M206.89,174.13H193.11a1,1,0,0,1-1-1v-8.69a1,1,0,0,1,1-1h13.78a1,1,0,0,1,1,1v8.69A1,1,0,0,1,206.89,174.13Zm-12.78-2h11.78v-6.69H194.11Z" fill="#093f68"/><rect x="179.29" y="173.13" width="41.41" height="25.68" rx="3.06" fill="#f56132"/><path d="M217.65,199.81h-35.3a4.06,4.06,0,0,1-4.06-4.06V176.19a4.06,4.06,0,0,1,4.06-4.06h35.3a4.06,4.06,0,0,1,4.06,4.06v19.56A4.06,4.06,0,0,1,217.65,199.81Zm-35.3-25.68a2.06,2.06,0,0,0-2.06,2.06v19.56a2.06,2.06,0,0,0,2.06,2.06h35.3a2.06,2.06,0,0,0,2.06-2.06V176.19a2.06,2.06,0,0,0-2.06-2.06Z" fill="#093f68"/><circle cx="192.88" cy="185.33" r="7.11" fill="#093f68"/><path d="M192.88,193.44a8.11,8.11,0,1,1,8.11-8.11A8.12,8.12,0,0,1,192.88,193.44Zm0-14.22a6.11,6.11,0,1,0,6.11,6.11A6.12,6.12,0,0,0,192.88,179.22Z" fill="#093f68"/><path d="M213.47,181h-6.58a1,1,0,0,1,0-2h6.58a1,1,0,0,1,0,2Z" fill="#093f68"/><path d="M171.54,122.21h-8.45a1,1,0,0,1,0-2h8.45a1,1,0,0,1,0,2Z" fill="#093f68"/><path d="M181.11,122.21h-5.06a1,1,0,0,1,0-2h5.06a1,1,0,0,1,0,2Z" fill="#093f68"/><path d="M145.26,140.8l-28.59,57.83A2.54,2.54,0,0,0,119,202.3h0a2.54,2.54,0,0,0,2.25-1.36l31.57-60.14Z" fill="#673119"/><path d="M119,203.3a3.54,3.54,0,0,1-3.18-5.11l28.59-57.83a1,1,0,0,1,.9-.56h7.51a1,1,0,0,1,.85.48,1,1,0,0,1,0,1L122.08,201.4A3.52,3.52,0,0,1,119,203.3Zm26.93-61.5-28.32,57.27a1.52,1.52,0,0,0,.08,1.5,1.48,1.48,0,0,0,1.31.73,1.54,1.54,0,0,0,1.36-.83l30.8-58.67Z" fill="#093f68"/><path d="M254.74,140.8l28.59,57.83a2.54,2.54,0,0,1-2.28,3.67h0a2.54,2.54,0,0,1-2.25-1.36L247.23,140.8Z" fill="#673119"/><path d="M281.05,203.3a3.52,3.52,0,0,1-3.13-1.9l-31.57-60.14a1,1,0,0,1,0-1,1,1,0,0,1,.85-.48h7.51a1,1,0,0,1,.9.56l28.59,57.83a3.54,3.54,0,0,1-3.18,5.11Zm-32.16-61.5,30.8,58.67a1.54,1.54,0,0,0,1.36.83,1.48,1.48,0,0,0,1.31-.73,1.52,1.52,0,0,0,.08-1.5L254.12,141.8Z" fill="#093f68"/></g></svg>