<?xml version="1.0" standalone="no"?>
<!DOCTYPE svg PUBLIC "-//W3C//DTD SVG 20010904//EN"
 "http://www.w3.org/TR/2001/REC-SVG-20010904/DTD/svg10.dtd">
<svg version="1.0" xmlns="http://www.w3.org/2000/svg"
 width="512.000000pt" height="512.000000pt" viewBox="0 0 512.000000 512.000000"
 preserveAspectRatio="xMidYMid meet">
<metadata>
Created by potrace 1.11, written by Peter Selinger 2001-2013
</metadata>
<g transform="translate(0.000000,512.000000) scale(0.100000,-0.100000)"
fill="#000000" stroke="none">
<path d="M910 5021 c-91 -28 -161 -96 -190 -186 -10 -30 -14 -158 -15 -535 -1
-272 -3 -497 -4 -500 0 -3 -110 -5 -244 -6 -220 -1 -246 -3 -287 -21 -57 -26
-111 -77 -141 -134 l-24 -44 0 -1565 0 -1565 22 -42 c30 -55 84 -106 141 -134
l47 -23 1430 -2 c787 -1 1433 -2 1438 -3 4 0 7 -39 7 -86 l0 -85 970 0 970 0
0 618 0 618 -87 -1 -88 -2 0 175 0 175 43 12 c74 22 109 44 151 92 76 85 71
-20 71 1583 0 1631 7 1494 -84 1586 -93 92 114 84 -2125 83 -1087 0 -1987 -4
-2001 -8z m3291 -2839 c155 -54 261 -177 294 -340 5 -26 10 -425 6 -502 -1
-14 -54 -15 -438 -15 l-438 0 -2 257 c-2 280 3 313 62 413 32 55 122 137 182
166 103 50 230 58 334 21z"/>
</g>
</svg>
