<?xml version="1.0" encoding="iso-8859-1"?>
<!-- Generator: Adobe Illustrator 18.0.0, SVG Export Plug-In . SVG Version: 6.00 Build 0)  -->
<!DOCTYPE svg PUBLIC "-//W3C//DTD SVG 1.1//EN" "http://www.w3.org/Graphics/SVG/1.1/DTD/svg11.dtd">
<svg version="1.1" id="Capa_1" xmlns="http://www.w3.org/2000/svg" xmlns:xlink="http://www.w3.org/1999/xlink" x="0px" y="0px"
	 viewBox="0 0 304.564 304.564" style="enable-background:new 0 0 304.564 304.564;" xml:space="preserve">
<g>
	<path style="fill:#FDD44B;" d="M194.77,159.453h-59.868l-10.203,109.079c-1.235,7.045-7.956,6.621-8.198,6.598
		c-4.132-0.395-7.163-4.15-6.768-8.283l10.017-104.929L105.499,271.48c0.239,9.984,8.434,17.973,18.473,17.973h66.641
		c10.039,0,18.236-7.669,18.474-17.653L194.77,159.453z"/>
	<g>
		<path style="fill:#84BD93;" d="M124.473,120.225c0.124-0.208,0.262-0.405,0.405-0.599
			C124.734,119.82,124.597,120.017,124.473,120.225z"/>
		<path style="fill:#84BD93;" d="M123.432,123.337c0.045-0.469,0.144-0.919,0.269-1.357
			C123.575,122.418,123.477,122.868,123.432,123.337z"/>
		<path style="fill:#84BD93;" d="M192.815,146.453l-5.442-43h-60.159l-1.896,16.387c-0.025,0.028-0.043-0.335-0.067-0.307
			c1.54-1.769,3.872-3.004,6.378-2.767c4.134,0.394,7.164,4.028,6.77,8.16l-2.061,21.527H192.815z"/>
		<path style="fill:#84BD93;" d="M123.866,121.516c0.096-0.265,0.201-0.524,0.325-0.774
			C124.066,120.992,123.962,121.251,123.866,121.516z"/>
	</g>
	<path style="fill:#EF8829;" d="M192.173,79.453h-69.76c-2.257,0-4.092,2.147-4.092,5s1.836,5,4.092,5h69.76
		c2.257,0,4.093-2.147,4.093-5S194.43,79.453,192.173,79.453z"/>
	<g>
		<path style="fill:#EF8829;" d="M187.998,15.901c0.82,0.253,1.61,0.573,2.38,0.927C189.607,16.474,188.818,16.154,187.998,15.901z"
			/>
		<path style="fill:#EF8829;" d="M190.87,17.066c0.738,0.365,1.458,0.762,2.14,1.215C192.328,17.829,191.609,17.431,190.87,17.066z"
			/>
		<path style="fill:#EF8829;" d="M185.507,15.329c0.815,0.138,1.619,0.311,2.396,0.547
			C187.125,15.641,186.322,15.467,185.507,15.329z"/>
		<path style="fill:#EF8829;" d="M102.758,46.652c0,0.891,0.081,1.762,0.197,2.622C102.839,48.414,102.758,47.543,102.758,46.652z"
			/>
		<path style="fill:#EF8829;" d="M195.399,20.162c1.288,1.177,2.423,2.518,3.361,3.999
			C197.821,22.679,196.689,21.338,195.399,20.162z"/>
		<path style="fill:#EF8829;" d="M182.242,15.034c0.891,0,1.762,0.08,2.621,0.197C184.004,15.115,183.133,15.034,182.242,15.034z"/>
		<path style="fill:#EF8829;" d="M193.055,18.308c0.723,0.483,1.405,1.02,2.056,1.592C194.459,19.328,193.779,18.79,193.055,18.308z
			"/>
		<path style="fill:#EF8829;" d="M107.624,59.52c-0.572-0.652-1.109-1.334-1.592-2.057C106.514,58.187,107.052,58.868,107.624,59.52
			z"/>
		<path style="fill:#EF8829;" d="M107.886,59.808c1.176,1.289,2.516,2.42,3.996,3.359C110.402,62.23,109.062,61.096,107.886,59.808z
			"/>
		<path style="fill:#EF8829;" d="M199.887,26.423c-2.411-1.065-4.82-1.97-7.621-1.97h-8.461c0.009,0,0.022,0.014,0.022-0.13
			c0,1.984-0.803,4.07-2.195,5.473c-1.403,1.403-3.338,2.28-5.322,2.28c-1.975,0-3.909-0.764-5.313-2.167
			c-1.402-1.403-2.204-3.621-2.204-5.605c0,0.144,0.013,0.149,0.022,0.149h-9.035c0.009,0,0.022,0.014,0.022-0.13
			c0,1.984-0.802,4.07-2.204,5.473c-1.404,1.403-3.338,2.28-5.313,2.28c-1.984,0-3.919-0.764-5.322-2.167
			c-1.393-1.403-2.195-3.621-2.195-5.605c0,0.144,0.013,0.149,0.022,0.149h-9.033c0.008,0,0.021,0.014,0.021-0.13
			c0,1.984-0.811,4.07-2.205,5.473c-1.404,1.403-3.338,2.28-5.322,2.28c-1.974,0-3.909-0.764-5.312-2.167
			c-0.573-0.572-1.016-1.23-1.374-1.947c0.043,0.085,0.371,0.191,0.417,0.275c-5.343,3.496-8.576,9.533-8.576,16.381v12.056
			c0,2.8,0.29,5.461,1.355,7.871c-0.811-0.358-1.743-0.659-2.491-1.119c2.976,1.831,6.309,3.026,10.053,3.026h59.921
			c10.787,0,21.162-9.015,21.162-19.801V34.597C203.404,30.852,199.528,25.611,199.887,26.423z"/>
		<path style="fill:#EF8829;" d="M121.095,26.804c-0.047-0.155-0.104-0.307-0.142-0.466
			C120.991,26.498,121.047,26.648,121.095,26.804z"/>
		<path style="fill:#EF8829;" d="M104.553,54.787c-0.355-0.77-0.674-1.561-0.928-2.381
			C103.878,53.227,104.198,54.016,104.553,54.787z"/>
		<path style="fill:#EF8829;" d="M103.601,52.315c-0.237-0.778-0.409-1.583-0.548-2.399
			C103.192,50.732,103.365,51.536,103.601,52.315z"/>
		<path style="fill:#EF8829;" d="M106.007,57.423c-0.453-0.683-0.851-1.405-1.217-2.145
			C105.155,56.018,105.554,56.739,106.007,57.423z"/>
	</g>
	<path style="fill:#3F2D20;" d="M152.283,32.152c1.975,0,3.909-0.802,5.313-2.205c1.402-1.403,2.204-3.338,2.204-5.322
		c0-1.975-0.802-3.909-2.204-5.313c-1.394-1.393-3.338-2.195-5.313-2.195c-1.984,0-3.919,0.802-5.322,2.195
		c-1.393,1.403-2.195,3.338-2.195,5.313c0,1.984,0.802,3.919,2.195,5.322C148.364,31.351,150.299,32.152,152.283,32.152z"/>
	<path style="fill:#3F2D20;" d="M176.309,32.152c1.984,0,3.919-0.802,5.322-2.205c1.393-1.403,2.196-3.338,2.196-5.322
		c0-1.975-0.803-3.919-2.196-5.313c-1.403-1.393-3.338-2.195-5.322-2.195c-1.975,0-3.919,0.802-5.313,2.195
		c-1.402,1.394-2.204,3.338-2.204,5.313c0,1.984,0.802,3.919,2.204,5.322C172.399,31.351,174.334,32.152,176.309,32.152z"/>
	<path style="fill:#3F2D20;" d="M128.249,32.152c1.984,0,3.918-0.802,5.321-2.205c1.394-1.403,2.205-3.338,2.205-5.322
		c0-1.975-0.811-3.909-2.205-5.313c-1.403-1.393-3.338-2.195-5.321-2.195c-1.974,0-3.919,0.802-5.312,2.195
		c-1.404,1.394-2.205,3.338-2.205,5.313c0,1.984,0.801,3.919,2.205,5.322C124.34,31.351,126.275,32.152,128.249,32.152z"/>
	<path style="fill:#3F2D20;" d="M202.164,101.621c5.47-3.369,9.137-9.396,9.137-16.279c0-5.211-2.1-9.938-5.493-13.392
		c6.78-6.319,11.032-15.32,11.032-25.298V34.596C216.84,15.52,201.319,0,182.242,0h-59.921c-19.078,0-34.597,15.52-34.597,34.596
		v12.056c0,9.979,4.252,18.979,11.033,25.298c-3.392,3.454-5.493,8.181-5.493,13.392c0,6.883,3.667,12.91,9.136,16.279
		c0,0-21.963,169.107-21.963,169.43c0,18.479,15.034,33.512,33.513,33.512h76.664c18.479,0,33.513-15.033,33.513-33.512
		C224.126,270.728,202.164,101.621,202.164,101.621z M190.614,289.529H113.95c-10.039,0-18.235-8.048-18.474-18.032l14.318-110.133
		h10.005l-10.066,105.398c-0.396,4.133,2.635,7.803,6.767,8.197c0.243,0.024,6.963,0.277,8.198-6.768l10.203-106.827h59.868
		l14.318,110.133C208.85,281.481,200.653,289.529,190.614,289.529z M102.758,34.596c0-10.786,8.776-19.562,19.563-19.562h59.921
		c10.787,0,19.563,8.776,19.563,19.562v12.056c0,10.786-8.776,19.562-19.563,19.562h-59.921c-10.787,0-19.563-8.776-19.563-19.562
		V34.596z M112.391,81.248h79.782c2.257,0,4.093,1.836,4.093,4.093c0,2.257-1.836,4.093-4.093,4.093h-79.782
		c-2.256,0-4.092-1.836-4.092-4.093C108.299,83.085,110.135,81.248,112.391,81.248z M131.629,116.569
		c-4.122-0.389-7.802,2.636-8.196,6.768l-2.196,22.993h-9.487l5.442-41.861h70.182l5.442,41.861h-56.477l2.06-21.564
		C138.793,120.634,135.762,116.964,131.629,116.569z"/>
</g>
<g>
</g>
<g>
</g>
<g>
</g>
<g>
</g>
<g>
</g>
<g>
</g>
<g>
</g>
<g>
</g>
<g>
</g>
<g>
</g>
<g>
</g>
<g>
</g>
<g>
</g>
<g>
</g>
<g>
</g>
</svg>
