<svg id="Layer_1" data-name="Layer 1" xmlns="http://www.w3.org/2000/svg" xmlns:xlink="http://www.w3.org/1999/xlink" viewBox="0 0 400 300" width="406" height="306" class="illustration styles_illustrationTablet__1DWOa"><defs><linearGradient id="linear-gradient" x1="182.8" y1="235.24" x2="228.13" y2="189.91" gradientUnits="userSpaceOnUse"><stop offset="0" stop-opacity="0"></stop><stop offset="1" stop-color="#f15a24"></stop></linearGradient><linearGradient id="linear-gradient-2" x1="259.78" y1="219.84" x2="308.03" y2="171.59" xlink:href="#linear-gradient"></linearGradient></defs><title>1</title><path d="M91.67,217.78l99.05,57.33a13.61,13.61,0,0,0,13.57,0L332.84,201.7a7.82,7.82,0,0,0,.05-13.56l-96.27-56a10.17,10.17,0,0,0-10.17,0L91.69,209.29A4.9,4.9,0,0,0,91.67,217.78Z" fill="#8ea3ff"></path><polyline points="204.86 207.69 165.46 229.03 182.38 240.65 223.02 218.57" fill="url(#linear-gradient)"></polyline><polyline points="281.6 192.75 242.19 214.09 259.12 225.7 301.72 201.22" fill="url(#linear-gradient-2)"></polyline><path d="M112.44,112.06v73.31a4.09,4.09,0,0,0,6.13,3.55l102.08-58.7a4.09,4.09,0,0,0,2.05-3.55V52.38a4.09,4.09,0,0,0-6.13-3.55L115.3,107.12A5.69,5.69,0,0,0,112.44,112.06Z" fill="#673119"></path><path d="M112.44,112.06v73.31a4.09,4.09,0,0,0,6.13,3.55l102.08-58.7a4.09,4.09,0,0,0,2.05-3.55V52.38a4.09,4.09,0,0,0-6.13-3.55L115.3,107.12A5.69,5.69,0,0,0,112.44,112.06Z" opacity="0.18"></path><path d="M174.72,64.43V122a3.21,3.21,0,0,0,4.82,2.79L259.72,78.7a3.21,3.21,0,0,0,1.61-2.79V17.56a3.21,3.21,0,0,0-4.82-2.79L177,60.56A4.47,4.47,0,0,0,174.72,64.43Z" fill="#673119"></path><ellipse cx="87.34" cy="139.09" rx="20.03" ry="12.75" transform="translate(-76.79 145.18) rotate(-60)" fill="#f2696a"></ellipse><path d="M97.7,143.27s6,7.53,4.54,8-8.88-1-8.88-1" fill="#f2696a"></path><path d="M215.32,115.54a27.4,27.4,0,0,1,8,11.69c2.8,7.73-4.2,20.38-4.2,20.38L208.19,139" fill="#ff8f6f"></path><path d="M216.52,217.85l3-1.64-.75-4.22s-4.4.41-4.79,2" fill="#003b94"></path><path d="M215.41,217.78c-.67-.41-1.36-.77-2-1.14-1.71-.93-4.18-1.9-5.23-3.66a2,2,0,0,1,.14-2.3c1.56-1.87,4.94,1.21,6.67-.87.34-.41.5-6.92.5-6.92l6.59,1.78s1.12,13.08,1,13.89-2.39,1.58-2.39,1.58a5.84,5.84,0,0,1-1.9-.74c-.69-.5-.07-6.64-.94-5.78s-1.27,4.22-1.27,4.22A4.53,4.53,0,0,1,215.41,217.78Z" fill="#673119"></path><path d="M203.9,224.17l3-1.64-.75-4.22s-4.4.41-4.79,2" fill="#003b94"></path><path d="M202.79,224.11c-.67-.41-1.36-.77-2-1.14-1.71-.93-4.18-1.9-5.23-3.66a2,2,0,0,1,.14-2.3c1.56-1.87,4.94,1.21,6.67-.87.34-.41.5-6.92.5-6.92l6.59,1.78s1.12,13.08,1,13.89-2.39,1.58-2.39,1.58a5.84,5.84,0,0,1-1.9-.74c-.69-.5-.07-6.64-.94-5.78s-1.27,4.22-1.27,4.22A4.53,4.53,0,0,1,202.79,224.11Z" fill="#673119"></path><path d="M225.38,181.66l1.91,26s-3.09,4.27-13.47,1.89h0l-.1-17.51" fill="#3e2928"></path><path d="M213.36,186.8c.22,2.24,0,26.91,0,26.91s-2.87,5.37-15.37,0l.18-21" fill="#3e2928"></path><path d="M226.35,190.24c-.85.58-1.15-2.44-2-1.92a50.63,50.63,0,0,1-10.25,4.52l-.08,0a.7.7,0,0,0-.95.35,54.13,54.13,0,0,1-6.72,1.52c-2.92.47-5.33-1.69-8.32-1.85,0-11.47-.06-44.14,4.83-51L217.26,137c.07,1.19,7,9.24,6.84,19-.19,11.05,1.25,21.49,1.49,24.94C225.64,181.57,226.32,189.61,226.35,190.24Z" fill="#3e2928"></path><path d="M201.49,128.64l1.33,13.16s10.78.44,15.43-2.77V127.86" fill="#ff8f6f"></path><path d="M187.78,120l1.1,1.5a36.11,36.11,0,0,1-1.55-3.75c-.31-.88,1.09-1.22,1.4-.35l.16.45q-.2-.7-.38-1.4a.72.72,0,0,1,1.4-.35,37.51,37.51,0,0,0,1.09,3.59,25.64,25.64,0,0,1-.51-3.18c-.09-.92,1.35-.88,1.44,0a22.85,22.85,0,0,0,.65,3.6q0-.62.11-1.23a.73.73,0,0,1,.3-.52c0-.16.09-.32.14-.48a.72.72,0,0,1,1.41.22l.09,5.44a6.48,6.48,0,0,0,1,1.55,25.15,25.15,0,0,0-2,1.57,20.73,20.73,0,0,0-1.64,1.57q-.69-.86-1.34-1.76a.78.78,0,0,1-.14-.15q-1.94-2.86-4-5.63C186,119.94,187.24,119.24,187.78,120Z" fill="#ffb5a9"></path><path d="M208.33,116.64s-5.09,1.37-7.15,4.67a58.22,58.22,0,0,0-3.41,7L194,122.5s-4.56,1.4-6.38,3.65c0,0,5.42,11.84,10.14,12.85s9.72-7,9.72-7,1,3.33.83-.22" fill="#ff8f6f"></path><path d="M205.09,129.29a10.32,10.32,0,0,0,3.22-4.59c.61-2.08-.16-3.91-.87-5.84a18.83,18.83,0,0,1-1.33-6c-.06-2,.17-4.05.31-6.07a.58.58,0,0,0,0-.26c.68-2.28,2.07-4.21,4.82-4.45,7.11-.61,7.51,7.27,7.46,10.47s-.39,5.37,2,6.71,4.06,4.85,1.81,7.69-.23,1.8,1.27,4.33,1.11,5.67-2,6.81-17.39-1-18.71-2.33a2.73,2.73,0,0,1-.67-1.93A7.5,7.5,0,0,1,205.09,129.29Z" fill="#007f68"></path><path d="M278.32,173.1s-2.9,24.92,10.28,29.74,20.24-7.72,20.44-29.74" fill="#06577a"></path><ellipse cx="293.68" cy="173.1" rx="15.36" ry="8.88" fill="#f2696a"></ellipse><path d="M297.62,153.35s-6-8.71-3.4-14.72c0,0,2.17-3.87,5.24-4.48,0,0-.31,8.25,2.77,7.2s0-8.64,0-8.64,3.23-4.37,6.76-4.23,0,7.72,2.46,6.46.15-7.71,2.92-8.48a58.06,58.06,0,0,1,7.68-1.23s2.61,7.53,0,8.6-6.45,1.44-4.61,3.1,7.07-.25,7.07-.25.33,4.24-1.45,6.07-12.22-2.22-10.38,1.42,8.76,1.82,8.76,1.82-3.53,5.05-7.68,7.35S297.62,153.35,297.62,153.35Z" fill="#8ccc00"></path><path d="M299,175.14s-4.35-4.3-3.5-8c0,0,.82-2.43,2.5-3.1,0,0,.71,4.72,2.34,3.79s-.92-4.9-.92-4.9,1.37-2.83,3.39-3.12.82,4.38,2.09,3.41-.74-4.39.75-5.12a33.54,33.54,0,0,1,4.23-1.52s2.29,4,.92,4.88-3.51,1.51-2.29,2.25,4-.89,4-.89.64,2.37-.18,3.6-7.18,0-5.74,1.91,5.17.1,5.17.1a16.35,16.35,0,0,1-3.58,5C306.08,175.17,299,175.14,299,175.14Z" fill="#8ccc00"></path><path d="M283,165.85s-10.58.41-14.24-5c0,0-2.1-3.91-1-6.83,0,0,6.8,4.69,7.56,1.54s-7.28-4.64-7.28-4.64-2-5.07.06-8,6.51,4.15,6.77,1.4-6.42-4.27-5.58-7a58.06,58.06,0,0,1,3.09-7.14s7.75,1.84,7.26,4.62-2.25,6.22.14,5.55,3.59-6.09,3.59-6.09,3.75,2,4.34,4.48-8.44,9.12-4.38,9.52,6.24-6.41,6.24-6.41,2.36,5.69,2.08,10.43S283,165.85,283,165.85Z" fill="#8ccc00"></path><path d="M319.75,128.57q-1.68,1.42-3.38,2.9c.12-1.2.26-2.39.45-3.58.1-.63-.86-.9-1-.27q-.38,2.39-.58,4.8c-3,2.6-5.91,5.32-8.65,8.21a35.69,35.69,0,0,1-.18-6.11c0-.64-1-.64-1,0a36.71,36.71,0,0,0,.3,7.06,69.17,69.17,0,0,0-4.92,5.94,19.81,19.81,0,0,1-3.43-8c-.12-.63-1.08-.36-1,.27a20.49,20.49,0,0,0,3.69,8.47.51.51,0,0,0,.1.09c-4.4,6.23-7.42,13.22-7.68,21.32,0,.64,1,.64,1,0,.25-7.8,3.14-14.56,7.36-20.59a38.56,38.56,0,0,0,12.39,1.21c.64,0,.64-1,0-1a37.78,37.78,0,0,1-11.77-1.09,72.53,72.53,0,0,1,7-8.09l.09,0c2.33.21,4.67.41,7,.5a8.55,8.55,0,0,0,4.35-.5c.58-.29.07-1.15-.5-.86-1.62.81-3.87.38-5.6.28-1.48-.09-3-.21-4.44-.34,3.57-3.53,7.38-6.81,11.07-9.94C321,128.86,320.24,128.16,319.75,128.57Z" fill="#06577a"></path><path d="M288.77,148a.5.5,0,0,0-1-.27,17.71,17.71,0,0,1-6.42,9.22q-1.7-4.72-3.11-9.53a29.87,29.87,0,0,0,5.87-8.28c.28-.58-.59-1.09-.86-.5a29.1,29.1,0,0,1-5.33,7.67c-1-3.68-2-7.39-2.74-11.15-.13-.63-1.09-.36-1,.27q1.59,7.7,3.94,15.2a23.45,23.45,0,0,1-5.46-1.78c-.58-.27-1.09.59-.5.86a24.53,24.53,0,0,0,6.31,2h0c1.05,3.29,2.24,6.54,3.5,9.76a24.18,24.18,0,0,1-8.7-1.92c-.59-.25-1.1.61-.5.86a25.51,25.51,0,0,0,9.59,2.07q2.41,6,5.3,11.83c.29.58,1.15.07.86-.5A156.06,156.06,0,0,1,281.74,158h0A18.81,18.81,0,0,0,288.77,148Z" fill="#06577a"></path><path d="M306.87,161l-2.75,4.61a8.62,8.62,0,0,1-.87-1.44c-.28-.58-1.14-.07-.86.5a9.53,9.53,0,0,0,1.15,1.82l0,0-3,5a2,2,0,0,1-.61-1.2c-.08-.63-1.08-.64-1,0a3.15,3.15,0,0,0,1.1,2.06l-3.73,6.26a.5.5,0,0,0,.86.5l4.92-8.25a7.47,7.47,0,0,0,2.43-.37c.61-.2.35-1.17-.27-1a6.65,6.65,0,0,1-1.55.29l5-8.36A.5.5,0,0,0,306.87,161Z" fill="#06577a"></path><polygon points="187.63 63.68 187.63 114.26 254.29 75.93 254.29 25.31 187.63 63.68" fill="#fff"></polygon><path d="M187.63,114.26l16-35.31a7.24,7.24,0,0,1,9.53-3.63L221,78.8l15.28-25.73a5,5,0,0,1,7.29-1.44l10.76,8.1v16.2Z" fill="#8ccc00"></path><polygon points="135.02 109.4 160.87 94.44 160.87 151.32 135.02 167.09 135.02 109.4" fill="#fff" opacity="0.52"></polygon><path d="M77.36,188.07v20.35a1.92,1.92,0,0,0,2.9,1.66l49.67-29a1.92,1.92,0,0,0,1-1.66v-20a1.92,1.92,0,0,0-2.89-1.67L78.33,186.41A1.92,1.92,0,0,0,77.36,188.07Z" fill="#673119"></path><path d="M84.58,191.31A37.45,37.45,0,0,1,89,188.81q4.82-2.63,9.66-5.22,10.54-5.66,21.1-11.26l4.91-2.61c1.14-.6.13-2.33-1-1.73-11.55,6.13-23.11,12.26-34.6,18.51a45.94,45.94,0,0,0-5.5,3.08c-1,.76,0,2.5,1,1.73Z" fill="#f2f2f2"></path><path d="M84.58,199.83A37.45,37.45,0,0,1,89,197.34q4.82-2.63,9.66-5.22,10.54-5.66,21.1-11.26l4.91-2.61c1.14-.6.13-2.33-1-1.73-11.55,6.13-23.11,12.26-34.6,18.51a45.94,45.94,0,0,0-5.5,3.08c-1,.76,0,2.5,1,1.73Z" fill="#f2f2f2"></path><path d="M78.38,141.55c2.81-2.06,6.46-3.37,9.57-4.89q4.36-2.13,8.73-4.22c1.16-.55.15-2.28-1-1.73q-4.37,2.09-8.73,4.22c-3.12,1.52-6.76,2.83-9.57,4.89-1,.75,0,2.49,1,1.73Z" fill="#f2f2f2"></path><path d="M78.54,149.2c2.92-2.17,6.53-3.69,9.72-5.4q4.43-2.38,8.88-4.73c1.14-.6.13-2.33-1-1.73q-4.45,2.35-8.88,4.73c-3.19,1.71-6.8,3.23-9.72,5.4-1,.76,0,2.5,1,1.73Z" fill="#f2f2f2"></path></svg>