<?xml version="1.0" encoding="iso-8859-1"?>
<!-- Generator: Adobe Illustrator 18.0.0, SVG Export Plug-In . SVG Version: 6.00 Build 0)  -->
<!DOCTYPE svg PUBLIC "-//W3C//DTD SVG 1.1//EN" "http://www.w3.org/Graphics/SVG/1.1/DTD/svg11.dtd">
<svg version="1.1" id="Capa_1" xmlns="http://www.w3.org/2000/svg" xmlns:xlink="http://www.w3.org/1999/xlink" x="0px" y="0px"
	 viewBox="0 0 423.483 423.483" style="enable-background:new 0 0 423.483 423.483;" xml:space="preserve">
<g>
	<g id="XMLID_70_">
		<g>
			<path style="fill:#FCF4DE;" d="M423.235,79.001v265.49l-82.92-83.92c6.66-2.08,13.33-4.21,16.45-9.6
				c4.81-8.32-1.76-20.48-1.76-30.79s6.57-22.47,1.76-30.79c-4.97-8.59-18.96-8.91-27.55-13.88c-0.28-0.16-0.55-0.33-0.83-0.51
				L423.235,79.001z"/>
			<path style="fill:#88C9B3;" d="M423.235,79.001l-94.85,96c-7.97-5.09-14.99-16.39-24.95-16.39c-10.31,0-17.46,12.09-25.78,16.9
				c-8.59,4.97-22.58,5.29-27.55,13.88c-4.81,8.32,1.76,20.48,1.76,30.79c0,10.3-6.57,22.47-1.76,30.79
				c0.39,0.68,0.84,1.31,1.34,1.89l-39.7,40.18l-80.33-81.29L0.255,79.001H423.235z"/>
			<path style="fill:#E5DCC6;" d="M340.315,260.571l82.92,83.92H0.255l131.16-132.74l80.33,81.29l39.7-40.18
				c5.81,6.78,18.3,7.41,26.21,11.99c8.32,4.81,15.47,16.9,25.78,16.9c10.3,0,17.46-12.09,25.78-16.9
				C332.415,263.001,336.365,261.791,340.315,260.571z"/>
			<path style="fill:#C65C05;" d="M251.445,252.861c-0.5-0.58-0.95-1.21-1.34-1.89c-4.81-8.32,1.76-20.49,1.76-30.79
				c0-10.31-6.57-22.47-1.76-30.79c4.97-8.59,18.96-8.91,27.55-13.88c8.32-4.81,15.47-16.9,25.78-16.9
				c9.96,0,16.98,11.3,24.95,16.39c0.28,0.18,0.55,0.35,0.83,0.51c8.59,4.97,22.58,5.29,27.55,13.88
				c4.81,8.32-1.76,20.48-1.76,30.79s6.57,22.47,1.76,30.79c-3.12,5.39-9.79,7.52-16.45,9.6c-3.95,1.22-7.9,2.43-11.1,4.28
				c-8.32,4.81-15.48,16.9-25.78,16.9c-10.31,0-17.46-12.09-25.78-16.9C269.745,260.271,257.255,259.641,251.445,252.861z
				 M334.115,220.181c0-16.95-13.73-30.69-30.68-30.69c-16.95,0-30.69,13.74-30.69,30.69s13.74,30.69,30.69,30.69
				C320.385,250.871,334.115,237.131,334.115,220.181z"/>
			<path style="fill:#E77200;" d="M303.435,189.491c16.95,0,30.68,13.74,30.68,30.69s-13.73,30.69-30.68,30.69
				c-16.95,0-30.69-13.74-30.69-30.69S286.485,189.491,303.435,189.491z"/>
			<polygon style="fill:#FCF4DE;" points="0.255,79.001 131.415,211.751 0.255,344.491 			"/>
		</g>
		<g>
		</g>
	</g>
</g>
<g>
</g>
<g>
</g>
<g>
</g>
<g>
</g>
<g>
</g>
<g>
</g>
<g>
</g>
<g>
</g>
<g>
</g>
<g>
</g>
<g>
</g>
<g>
</g>
<g>
</g>
<g>
</g>
<g>
</g>
</svg>
