<svg id="Layer_1" data-name="Layer 1" xmlns="http://www.w3.org/2000/svg" xmlns:xlink="http://www.w3.org/1999/xlink" viewBox="0 0 400 300" width="406" height="306" class="illustration styles_illustrationTablet__1DWOa"><defs><linearGradient id="linear-gradient" x1="131.08" y1="267.3" x2="146.2" y2="248.65" gradientUnits="userSpaceOnUse"><stop offset="0.01" stop-color="#fff" stop-opacity="0"></stop><stop offset="1" stop-color="#00a99d"></stop></linearGradient><linearGradient id="linear-gradient-2" x1="253.76" y1="241.45" x2="279.18" y2="203.32" xlink:href="#linear-gradient"></linearGradient><linearGradient id="linear-gradient-3" x1="46.42" y1="205.7" x2="69" y2="171.84" xlink:href="#linear-gradient"></linearGradient></defs><title>91-100</title><path d="M141.11,57.08,128,57.66s-12.71-2.49-14.83-1.22c-1.88,1.12-10.12,3.72-9.51,5s7.86-.74,7.86-.74-2.93,1.35-1.69,2.28,5.7-2.13,7.09-1.67,27.26,1.88,27.26,1.88" fill="#faa590"></path><path d="M127.25,61.4a20.35,20.35,0,0,1-10.33-.88c-.61-.21-.87.75-.27,1a21.35,21.35,0,0,0,10.86.88C128.15,62.26,127.88,61.29,127.25,61.4Z" fill="#faa590"></path><path d="M191.66,35.19s10.4,4.11,10.57,11.61,1.56,8.72,7.47,10.46,11.7,3,12,7.32S211.79,72.94,206.14,75,182.8,59.08,183.92,52.09" fill="#e8601c"></path><path d="M13.9,193.09,197.81,299.27a18,18,0,0,0,18.13-.1l146.22-86.61a4.65,4.65,0,0,0,0-8C329.66,185.82,192.69,106.9,170.41,94.26a6.06,6.06,0,0,0-6.06,0L13.87,182.61A6.06,6.06,0,0,0,13.9,193.09Z" fill="#daf2e9"></path><path d="M152.78,273.27,96.56,242.16,150.48,211,210,237.71,168.74,262C162.42,265.89,159,269.26,152.78,273.27Z" opacity="0.48" fill="url(#linear-gradient)"></path><polygon points="325.47 216.73 265.97 190.07 212.05 221.18 268.76 251.96 325.47 216.73" opacity="0.48" fill="url(#linear-gradient-2)"></polygon><path d="M47.86,211.69l-30-18.31,50.63-26.49,33.07,11.17L63.17,201.84C56.85,205.68,54.08,207.68,47.86,211.69Z" opacity="0.48" fill="url(#linear-gradient-3)"></path><polyline points="290.04 132.02 296.95 135.71 278.09 153.47 261.46 158.69 255.92 151.18" fill="#ffe8bc"></polyline><polyline points="264 154.91 257.59 151.26 290.04 132.02 289.28 131.58 255.92 151.18 255.92 201.24 263.19 205.38 265.97 202.49" fill="#005b66"></polyline><polyline points="264 154.91 257.59 151.26 290.04 132.02 289.28 131.58 255.92 151.18 255.92 201.24 263.19 205.38 265.97 202.49" fill="#1371a5" opacity="0.42"></polyline><polygon points="296.95 135.71 263.19 155.38 263.19 205.38 297.48 184.89 296.95 135.71" fill="#005b66"></polygon><polygon points="264.47 152.1 266.53 153.4 266.53 164.06 267.84 162.39 268.76 163.43 268.76 152.14 266.83 150.75 264.47 152.1" fill="#e85858"></polygon><polyline points="299.68 137.78 306.59 141.46 287.73 159.22 271.1 164.45 265.56 156.94" fill="#ffe8bc"></polyline><polyline points="273.64 160.67 267.23 157.02 299.68 137.78 298.92 137.34 265.56 156.94 265.56 207 272.83 211.14 275.61 208.24" fill="#005b66"></polyline><polyline points="273.64 160.67 267.23 157.02 299.68 137.78 298.92 137.34 265.56 156.94 265.56 207 272.83 211.14 275.61 208.24" fill="#1371a5" opacity="0.42"></polyline><polygon points="306.59 141.46 272.83 161.14 272.83 211.14 307.12 190.65 306.59 141.46" fill="#005b66"></polygon><polygon points="274.11 157.85 276.17 159.16 276.17 169.82 277.48 168.14 278.4 169.18 278.4 157.89 276.47 156.51 274.11 157.85" fill="#e85858"></polygon><polyline points="310.38 143.04 317.28 146.72 298.42 164.48 281.79 169.71 276.26 162.2" fill="#ffe8bc"></polyline><polyline points="284.34 165.93 277.92 162.28 310.38 143.04 309.61 142.6 276.26 162.2 276.26 212.26 283.53 216.4 286.31 213.5" fill="#005b66"></polyline><polyline points="284.34 165.93 277.92 162.28 310.38 143.04 309.61 142.6 276.26 162.2 276.26 212.26 283.53 216.4 286.31 213.5" fill="#1371a5" opacity="0.42"></polyline><polygon points="317.28 146.72 283.53 166.4 283.53 216.4 317.82 195.91 317.28 146.72" fill="#005b66"></polygon><polygon points="284.81 163.12 286.87 164.42 286.87 175.08 288.18 173.41 289.1 174.44 289.1 163.16 287.17 161.77 284.81 163.12" fill="#e85858"></polygon><path d="M278.15,213.8c-.12,0-1.23-.44-.3-1.15a19.14,19.14,0,0,1,1.93-1.32" fill="#e27825"></path><path d="M278.15,207.94s.93,3.44,0,5.28l12.65,7.43,12.51,7.24v-5.35" fill="#ffe8bc"></path><path d="M277.73,207.41q0,.36.09.72l25.49,14.42v5.35L277.84,213c0,.21,0,.42,0,.63L304.29,229v-7.29Z" fill="#e27825"></path><path d="M277.87,207.5l26.28,15L341,200.89l-25.72-14.75a2.54,2.54,0,0,0-2.56,0l-34.9,20.68A.38.38,0,0,0,277.87,207.5Z" fill="#fdba45"></path><path d="M304.29,229s36.86-21.71,36.75-21.81,0-6.28,0-6.28l-36.88,21.65Z" fill="#e27825"></path><path d="M277.87,206.84a.94.94,0,0,0-.38.67c0,.45.43.67.6.76" fill="#fdba45"></path><path d="M278.25,204c-.12,0-1.23-.44-.3-1.15a19.14,19.14,0,0,1,1.93-1.32" fill="#e27825"></path><path d="M278.25,198.12s.93,3.44,0,5.28l12.65,7.43,12.51,7.24v-5.35" fill="#ffe8bc"></path><path d="M277.83,197.58q0,.36.09.72l25.49,14.42v5.35l-25.47-14.85c0,.21,0,.42,0,.63l26.46,15.31v-7.29Z" fill="#e27825"></path><path d="M278,197.68l26.28,15,36.88-21.65-25.72-14.75a2.54,2.54,0,0,0-2.56,0L278,197A.38.38,0,0,0,278,197.68Z" fill="#fdba45"></path><path d="M304.39,219.16s36.86-21.71,36.75-21.81,0-6.28,0-6.28l-36.88,21.65Z" fill="#e27825"></path><path d="M278,197a.94.94,0,0,0-.38.67c0,.45.43.67.6.76" fill="#fdba45"></path><path d="M278.25,193.94c-.12,0-1.23-.44-.3-1.15a19.14,19.14,0,0,1,1.93-1.32" fill="#e27825"></path><path d="M278.25,188.08s.93,3.44,0,5.28l12.65,7.43L303.41,208v-5.35" fill="#ffe8bc"></path><path d="M277.83,187.54q0,.36.09.72l25.49,14.42V208l-25.47-14.85c0,.21,0,.42,0,.63l26.46,15.31v-7.29Z" fill="#e27825"></path><path d="M278,187.64l26.28,15L341.14,181l-25.72-14.75a2.54,2.54,0,0,0-2.56,0L278,187A.38.38,0,0,0,278,187.64Z" fill="#fdba45"></path><path d="M304.39,209.12s36.86-21.71,36.75-21.81,0-6.28,0-6.28l-36.88,21.65Z" fill="#e27825"></path><path d="M278,187a.94.94,0,0,0-.38.67c0,.45.43.67.6.76" fill="#fdba45"></path><path d="M115.51,231.14c-.25,0-2.5-.9-.61-2.35a39,39,0,0,1,3.94-2.69" fill="#9a433a"></path><path d="M115.51,219.2s1.89,7,0,10.75l25.75,15.14,25.47,14.74V248.94" fill="#ffe8bc"></path><path d="M114.66,218.11q.09.73.18,1.46l51.9,29.37v10.89l-51.85-30.24c0,.43,0,.86,0,1.29L168.74,262V247.2Z" fill="#9a433a"></path><path d="M114.95,218.3l53.52,30.63,75.1-44.09-52.37-30a5.16,5.16,0,0,0-5.2,0L114.94,217A.78.78,0,0,0,114.95,218.3Z" fill="#f26250"></path><path d="M168.74,262s75-44.2,74.82-44.41,0-12.79,0-12.79l-75.1,44.09Z" fill="#9a433a"></path><path d="M114.94,217a1.91,1.91,0,0,0-.78,1.36c-.09.91.88,1.36,1.22,1.55" fill="#f26250"></path><ellipse cx="176.9" cy="211.39" rx="24.64" ry="7.85" fill="#9a433a"></ellipse><path d="M221.86,103.59s5.09-4.88,8.95-4.83,10.65,1,11.16-1.26-6.44-5.73-9.12-6.61-11,4.08-11.57,3.17,5.12-5,5.12-5-3.79-1.53-3.92-1.31-6.69,7.68-7.91,11.18S221.86,103.59,221.86,103.59Z" fill="#1a1a1a"></path><path d="M172.9,177.32s-.23,7.09-3,9.78-8.38,6.78-7.15,8.77,8.67-.41,11.21-1.67,5-10.66,6.1-10.43-.14,7.23-.14,7.23,3.8-1.56,3.74-1.83-.59-10.24-2.18-13.61S172.9,177.32,172.9,177.32Z" fill="#1a1a1a"></path><path d="M258,39,229.64,18.59a10.82,10.82,0,0,0-5.68,7.1l28.35,20.42C254.2,43.73,256.14,41.41,258,39Z" fill="#fddf33"></path><ellipse cx="226.83" cy="22.17" rx="4.55" ry="2.52" transform="translate(76.25 193.25) rotate(-54.23)" fill="#fddf33"></ellipse><ellipse cx="255.17" cy="42.59" rx="4.55" ry="2.52" transform="translate(71.46 224.73) rotate(-54.23)" fill="#fccd35"></ellipse><path d="M240.19,31.62c.46-1.81-1.79-2.29-3-2.31a4.41,4.41,0,0,0-4.64,2.94c-1.26,3.39-.66,6.91-2.67,10.17-.38.61.53,1.28.91.66a13.16,13.16,0,0,0,.89-1.73c-.21.68-.42,1.37-.61,2.06a.59.59,0,0,0,.07.48l-.19.64a.58.58,0,0,0,.72.73l-.35.61a.56.56,0,0,0,.91.66l.06-.08c.18.35.67.53.92.11a46.4,46.4,0,0,1,3.42-5.22A8.35,8.35,0,0,0,238.63,38a4.59,4.59,0,0,0-2.08-4.79C238,33.25,239.83,33,240.19,31.62Z" fill="#faa590"></path><path d="M158.07,52.87c-6.55,1.2-21.87,1.5-32.07,1.55a97.52,97.52,0,0,0-2.05,22.16c10.33,1.36,26.76,2.28,39.51-2.83l17-22.07A97.83,97.83,0,0,0,158.07,52.87Z" fill="#1a1a1a"></path><path d="M178.91,51.54c.05.44-25.35,61.14-26.13,104.39,0,0,22.38-21.23,34.62-31.26" fill="#1a1a1a"></path><path d="M172,89.48c.09-.93-.8-35.8,7.59-37.44S198.72,58,198.79,62.2,191.41,91.71,185.5,91.8,172,89.48,172,89.48Z" fill="#005b66"></path><path d="M172,77.66c-2.25,2.64-16.52,42.37-16.57,52.11S171.94,177.4,174,178.19s6.33-1.31,7.1-3.16-9.45-40.66-9.45-40.66,13.45-31.48,11.5-39.08S172,77.66,172,77.66Z" fill="#005b66"></path><path d="M179.57,89.25c-.2.8.73,35.61,4.3,40s12.33,5.7,16.75,1.69,23.17-27.49,20.92-29a9.41,9.41,0,0,0-7.14-1.57c-2.71.35-19.25,18.94-19.25,18.94s.4-36.17-3.15-39.95" fill="#005b66"></path><path d="M188.67,53.25s-6.55,43.3.31,55.81a115.06,115.06,0,0,0,16.81,22.53s19.11-7.3,20.58-9.73-21.76-23.24-23-29.6.92-28.25-2.41-31.38S188.67,53.25,188.67,53.25Z" fill="#1a1a1a"></path><path d="M188.67,53.25s15.24,6.64,20.06,5.69,21.07-17.28,22.22-18.56c0,0,12.85,11.76,13.8,16.31,0,0-18.86,19.6-26.72,22.09s-21.73-.35-21.73-.35" fill="#1a1a1a"></path><path d="M163.88,107.31c5.06-19,10.66-37.92,20-55.23-8.72-1.69-12,.37-12,.37-12.66,8.94-37.44,85-37.44,85,.29,7,14.28,16,17.58,18.08C155.06,139.24,159.63,123.24,163.88,107.31Z" fill="#303030"></path><path d="M181.91,38.47s-2.77,11.29.75,13.81,11.11-2.67,12.45-7.94S185.64,32.52,181.91,38.47Z" fill="#faa590"></path><path d="M189.08,41.61s-.47,3.79.72,5.19-3.39,5.95,3.63,8.38,4.62-12.45,3.07-13.56" fill="#e8601c"></path><ellipse cx="189.08" cy="40.14" rx="2.41" ry="7.57" transform="translate(112.96 217.82) rotate(-78.79)" fill="#1a1a1a"></ellipse><polyline points="181.66 38.67 183.25 31.75 197.94 34.22 196.5 41.62" fill="#1a1a1a"></polyline><polygon points="174.78 28.97 190.06 39.9 207.13 32.24 191.17 20.9 174.78 28.97" fill="#1a1a1a"></polygon><path d="M191.67,31.09l6.69,6L197,43.32s-1.17.68-1.62,3.48a4.8,4.8,0,0,0,3.4.34,3.81,3.81,0,0,0-1.38-3.8L198.78,37l-6.86-6.26S191.61,30.66,191.67,31.09Z" fill="#fedb26"></path><path d="M53.52,117.86S56.9,148,74.18,150.42s24.18-25.32,23.59-32.57" fill="#fdba45"></path><path d="M97.8,175.59S94.42,145.42,77.14,143,53,168.35,53.56,175.59" fill="#fdba45"></path><ellipse cx="75.66" cy="175.59" rx="22.12" ry="6.24" fill="#fdba45"></ellipse><ellipse cx="75.66" cy="119.87" rx="22.12" ry="6.24" fill="#486b11"></ellipse><polygon points="53.54 119.87 53.54 117.86 54.83 118.45 53.54 119.87" fill="#486b11"></polygon><path d="M97.78,117.86s0,2,0,2l-1,.81v-1.81" fill="#486b11"></path><ellipse cx="75.66" cy="117.86" rx="22.12" ry="6.24" fill="#577f22"></ellipse><path d="M58.46,131.36s5.28,12.35,10.68,14.28,12,2.07,17.11-2.76a27.51,27.51,0,0,0,6.95-11.52,9.68,9.68,0,0,0-11.19,1c-5.53,4.63-6.43,5.66-10.42,3S61.8,129.17,58.46,131.36Z" fill="#d68b13"></path><path d="M57.94,174.05s10.48-19,17.72-17.86,17.53,18.66,17.53,18.66S75.66,181.83,57.94,174.05Z" fill="#d68b13"></path><path d="M306.35,83.4s9.35,27.11,8.93,27.45-5.21-3.51-5.64-3.3a42.42,42.42,0,0,0-3.13,4.3l-8.7-26.74" fill="#e8601c"></path><path d="M291.46,80.86l-5.14,25.32s6.06-5,6-4.51.8,6,.8,6L300.41,82" fill="#e8601c"></path><ellipse cx="299.6" cy="74.82" rx="12.41" ry="15.9" transform="translate(-6.45 33.71) rotate(-6.37)" fill="#eab41b"></ellipse><ellipse cx="297.98" cy="75" rx="12.41" ry="15.9" transform="translate(-6.48 33.53) rotate(-6.37)" fill="#fccd35"></ellipse></svg>