<?xml version="1.0" encoding="iso-8859-1"?>
<!-- Generator: Adobe Illustrator 19.0.0, SVG Export Plug-In . SVG Version: 6.00 Build 0)  -->
<svg version="1.1" id="Layer_1" xmlns="http://www.w3.org/2000/svg" xmlns:xlink="http://www.w3.org/1999/xlink" x="0px" y="0px"
	 viewBox="0 0 512.002 512.002" style="enable-background:new 0 0 512.002 512.002;" xml:space="preserve">
<circle style="fill:#D8DBBA;" cx="256.001" cy="256.001" r="256.001"/>
<path style="fill:#B7BA91;" d="M256,346.349c85.187,0,163.248,12.712,223.886,33.849C436.193,458.804,352.316,512.001,256,512.001
	S75.807,458.804,32.114,380.198C92.752,359.075,170.813,346.349,256,346.349z"/>
<g>
	<path style="fill:#333333;" d="M256.26,43.447h4.697v8.902h11.661v4.697h-11.661v44.703h-4.697V57.047h-11.661V52.35h11.661V43.447
		z"/>
	<path style="fill:#333333;" d="M225.197,232.488h66.823v-78.907h16.139l-49.537-63.642l-49.537,63.642h16.139v78.907
		L225.197,232.488L225.197,232.488z"/>
</g>
<rect x="239.327" y="164.41" style="fill:#FFF000;" width="38.548" height="40.703"/>
<g>
	<path style="fill:#333333;" d="M331.207,173.625h4.697v8.902h11.661v4.697h-11.661v44.703h-4.697v-44.703h-11.661v-4.697h11.661
		V173.625z M180.848,173.625h4.697v8.902h11.661v4.697h-11.661v44.703h-4.697v-44.703h-11.661v-4.697h11.661V173.625z"/>
	<path style="fill:#333333;" d="M300.457,247.712v7.387l7.032-7.387H300.457z M366.271,345.134v63.382H150.209v-63.382h-0.178
		v-61.047h-27.582l60.583-63.642l18.392,19.32l56.828-59.982l56.828,59.982l18.392-19.32l60.583,63.642h-27.582v61.047h-0.178
		H366.271z M216.021,255.113v-7.387h-7.032L216.021,255.113z"/>
</g>
<path style="fill:#FFF000;" d="M199.472,361.791L199.472,361.791c9.243,0,16.808,7.564,16.808,16.808v27.663h-33.63V378.6
	c0-9.243,7.564-16.808,16.808-16.808H199.472z M258.594,354.2L258.594,354.2c9.243,0,16.808,7.564,16.808,16.808v35.255h-33.63
	v-35.255c0-9.243,7.564-16.808,16.808-16.808H258.594z M317.716,361.791L317.716,361.791c9.243,0,16.808,7.564,16.808,16.808v27.663
	h-33.63V378.6c0-9.243,7.564-16.808,16.808-16.808H317.716z"/>
<g>
	<path style="fill:#333333;" d="M125.768,386.41l2.922-3.495l2.922,3.495v21.915h-5.83V386.41H125.768z M388.294,386.41l2.922-3.495
		l2.922,3.495v21.915h-5.83V386.41H388.294z M375.173,386.41l2.922-3.495l2.922,3.495v21.915h-5.83V386.41H375.173z M362.051,386.41
		l2.922-3.495l2.922,3.495v21.915h-5.83V386.41H362.051z M348.93,386.41l2.922-3.495l2.922,3.495v21.915h-5.83V386.41H348.93z
		 M335.808,386.41l2.922-3.495l2.922,3.495v21.915h-5.83V386.41H335.808z M322.687,386.41l2.922-3.495l2.922,3.495v21.915h-5.83
		V386.41H322.687z M309.565,386.41l2.922-3.495l2.922,3.495v21.915h-5.83V386.41H309.565z M296.444,386.41l2.922-3.495l2.922,3.495
		v21.915h-5.83V386.41H296.444z M283.322,386.41l2.922-3.495l2.922,3.495v21.915h-5.83V386.41H283.322z M270.2,386.41l2.922-3.495
		l2.922,3.495v21.915h-5.83V386.41H270.2z M257.079,386.41l2.922-3.495l2.922,3.495v21.915h-5.83V386.41H257.079z M243.957,386.41
		l2.922-3.495l2.922,3.495v21.915h-5.83V386.41H243.957z M230.836,386.41l2.922-3.495l2.922,3.495v21.915h-5.83V386.41H230.836z
		 M217.714,386.41l2.922-3.495l2.922,3.495v21.915h-5.83V386.41H217.714z M204.593,386.41l2.922-3.495l2.922,3.495v21.915h-5.83
		V386.41H204.593z M191.471,386.41l2.922-3.495l2.922,3.495v21.915h-5.83V386.41H191.471z M178.349,386.41l2.922-3.495l2.922,3.495
		v21.915h-5.83V386.41H178.349z M165.228,386.41l2.922-3.495l2.922,3.495v21.915h-5.83V386.41H165.228z M152.106,386.41l2.922-3.495
		l2.922,3.495v21.915h-5.83V386.41H152.106z M138.985,386.41l2.922-3.495l2.922,3.495v21.915h-5.83V386.41H138.985z"/>
	<rect x="117.56" y="394.02" style="fill:#333333;" width="284.781" height="4.56"/>
</g>
<g>
	<path style="fill:#FFF000;" d="M320.625,284.823h26.393v36.17h-26.393V284.823z"/>
	<path style="fill:#FFF000;" d="M170.184,284.823h26.393v36.17h-26.393L170.184,284.823L170.184,284.823z"/>
	<path style="fill:#FFF000;" d="M258.608,281.437L258.608,281.437c9.243,0,16.808,7.564,16.808,16.808v35.678h-33.63v-35.678
		c0-9.243,7.564-16.808,16.808-16.808L258.608,281.437L258.608,281.437z"/>
	<path style="fill:#FFF000;" d="M258.24,230.808c8.984,0,16.262,7.278,16.262,16.262h-32.538c0-8.984,7.278-16.262,16.262-16.262
		H258.24z"/>
</g>
<path style="fill:#333333;" d="M258.24,230.808c0.259,0,0.505,0.014,0.765,0.014v12.602c0.327,0.054,0.628,0.151,0.929,0.273
	l5.64-11.142c0.464,0.232,0.901,0.492,1.338,0.765l-5.68,11.21c0.273,0.246,0.505,0.519,0.71,0.819l9.858-7.251
	c0.287,0.424,0.546,0.874,0.792,1.324l-10.008,7.359c0.027,0.095,0.041,0.191,0.054,0.287h-0.451h-1.502l-0.014-0.027v-0.014v-0.014
	l0,0V247v-0.014v-0.014v-0.014v-0.014l0,0v-0.014v-0.014v-0.014v-0.014v-0.014l0,0v-0.014v-0.014v-0.014v-0.014v-0.014l0,0v-0.014
	v-0.014v-0.014v-0.014v-0.014l0,0v-0.014v-0.014v-0.014v-0.014l0,0l0,0v-0.014v-0.014v-0.014v-0.014l0,0l0,0v-0.014v-0.014v-0.014
	v-0.014v-0.014v-0.014v-0.014v-0.014l-0.014-0.014v-0.014l-0.014-0.014v-0.014v-0.014l0,0v-0.014v-0.014v-0.014v-0.014l-0.014-0.014
	l0,0v-0.014v-0.014v-0.014v-0.014l-0.014-0.027l-0.014-0.014v-0.014v-0.014l0,0c-0.027-0.054-0.068-0.095-0.095-0.137l0,0
	c-0.014-0.027-0.041-0.054-0.054-0.082l-0.014-0.027l-0.014-0.014l-0.014-0.014l-0.014-0.014l-0.014-0.014
	c-0.027-0.027-0.054-0.068-0.082-0.095l-0.014-0.014l-0.014-0.014l-0.014-0.014l-0.014-0.014l-0.014-0.014l-0.014-0.014
	l-0.014-0.014l-0.014-0.014l-0.014-0.014l-0.014-0.014l-0.014-0.014l-0.014-0.014l-0.014-0.014l-0.014-0.014l-0.014-0.014l0,0
	l-0.014-0.014l-0.014-0.014l0,0l-0.027-0.014l0,0c-0.014-0.014-0.041-0.027-0.054-0.041l-0.027-0.014l-0.027-0.014l-0.014-0.014
	l-0.027-0.014l0,0l-0.027-0.014l-0.027-0.014l0,0l-0.027-0.014l-0.027-0.014l0,0l-0.027-0.014l-0.027-0.014l0,0l-0.027-0.014
	l-0.041-0.027l0,0l-0.027-0.014l-0.027-0.014l0,0l-0.027-0.014l-0.027-0.014l0,0l-0.027-0.014l0,0l-0.014-0.014l-0.027-0.014h-0.014
	l-0.014-0.014l-0.027-0.014h-0.014l-0.014-0.014l-0.027-0.014h-0.014l-0.014-0.014l-0.027-0.014h-0.014l-0.014-0.014l-0.027-0.014
	h-0.014h-0.014l-0.027-0.014c-0.027-0.014-0.041-0.014-0.068-0.027h-0.014h-0.014h-0.014h-0.014l0,0h-0.014h-0.014h-0.014h-0.014
	l0,0h-0.014h-0.014h-0.014h-0.014h-0.014l0,0h-0.014h-0.014h-0.014l0,0h-0.014h-0.014h-0.027h-0.014l0,0h-0.014h-0.014h-0.014
	h-0.014l0,0h-0.014h-0.027h-0.014l0,0h-0.014l-0.041-0.014l0,0l0,0h-0.014h-0.041l0,0h-0.027h-0.014h-0.014h-0.014h-0.014h-0.014
	h-0.014h-0.014h-0.014l0,0h-0.014h-0.014h-0.014h-0.014l0,0h-0.014h-0.027h-0.014l0,0h-0.014h-0.014h-0.014h-0.014h-0.014l0,0
	h-0.014h-0.014h-0.014h-0.014h-0.014h-0.014h-0.014h-0.014l0,0h-0.014h-0.014h-0.014h-0.014h-0.014l0,0h-0.014h-0.014h-0.014h0.022
	l0,0h-0.014h-0.014h-0.014h-0.014l0,0h-0.014h-0.014h-0.014h-0.014h-0.014h-0.014h-0.014h-0.014h-0.014h-0.014l0,0h-0.027h-0.014
	h-0.014l0,0h-0.014h-0.014h-0.027l0,0h-0.014l0,0h-0.014h-0.014h-0.014h-0.014l0,0h-0.014h-0.014h-0.014h-0.014l0,0h-0.014h-0.014
	h-0.014h-0.014h-0.014l0,0h-0.014h-0.014h-0.014l0,0h-0.027l0,0h-0.014h-0.014h-0.014l0,0h-0.014h-0.014h-0.014h-0.014l0,0h-0.014
	h-0.014h-0.014h-0.014l-0.068,0.027l-0.027,0.014h-0.014h-0.014l-0.027,0.014l-0.014,0.014h-0.014l-0.027,0.014l0,0l-0.014,0.014
	l-0.027,0.014l-0.014,0.014h-0.014l-0.027,0.014l-0.014,0.014h-0.014l-0.027,0.014l-0.014,0.014l0,0l-0.027,0.014l-0.027,0.014
	l-0.027,0.014l0,0c-0.041,0.014-0.068,0.041-0.109,0.054l-0.027,0.014c-0.027,0.014-0.054,0.027-0.082,0.054l0,0
	c-0.068,0.041-0.137,0.095-0.205,0.151l-0.014,0.014c-0.041,0.041-0.082,0.068-0.137,0.109l-0.014,0.014l-0.014,0.014l-0.014,0.014
	c-0.054,0.054-0.095,0.109-0.151,0.164l-0.014,0.014c-0.014,0.014-0.027,0.041-0.041,0.054l-0.014,0.027
	c-0.027,0.027-0.041,0.054-0.054,0.082l0,0c-0.027,0.041-0.068,0.095-0.095,0.137l0,0v0.014v0.014l-0.014,0.014l-0.014,0.027v0.014
	v0.014v0.014v0.014l0,0l-0.014,0.014v0.014v0.014v0.014v0.014l0,0v0.014v0.014v0.014l-0.014,0.014l-0.014,0.014v0.014v0.014v0.014
	v0.014v0.014v0.014v0.014v0.014l0,0l0,0v0.014v0.014v0.014v0.014l0,0l0,0v0.014v0.014v0.014v0.014l0,0v0.014v0.014v0.014v0.014
	v0.014l0,0v0.014v0.014l-0.014,0.027v0.014l0,0v0.014v0.014v0.014v0.014v0.014l0,0v0.014l0,0c-0.014,0.027-0.014,0.054-0.027,0.082
	h-1.502h-0.451c0.014-0.095,0.041-0.191,0.054-0.287l-10.008-7.359c0.246-0.451,0.505-0.901,0.792-1.324l9.858,7.251
	c0.205-0.3,0.437-0.573,0.71-0.819l-5.68-11.21c0.437-0.273,0.874-0.532,1.338-0.765l5.64,11.142c0.3-0.122,0.6-0.219,0.929-0.273
	v-12.602c0.259-0.014,0.505-0.014,0.765-0.014L258.24,230.808z"/>
<path style="fill:#FFF000;" d="M258.608,136.883c7.291,0,13.204,5.913,13.204,13.204h-26.407
	C245.404,142.794,251.317,136.883,258.608,136.883z"/>
<g>
	<path style="fill:#333333;" d="M258.608,136.883c0.205,0,0.424,0,0.628,0.014v10.24c0.259,0.041,0.519,0.122,0.751,0.219
		l4.575-9.053c0.368,0.191,0.737,0.396,1.079,0.614l-4.602,9.107c0.219,0.191,0.41,0.424,0.573,0.669l8.002-5.885
		c0.232,0.355,0.451,0.71,0.641,1.079l-8.124,5.981c0.014,0.082,0.041,0.151,0.054,0.232h-0.355h-1.216l-0.014-0.027v-0.014v-0.014
		l0,0v-0.014v-0.014v-0.014v-0.014v-0.014l0,0v-0.014v-0.014v-0.014v-0.014v-0.014l0,0v-0.014v-0.014v-0.014v-0.014l0,0l0,0v-0.014
		v-0.014v-0.014v-0.014l0,0l0,0v-0.014v-0.014v-0.014v-0.014l0,0l0,0v-0.014v-0.014v-0.014v-0.014l0,0l0,0v-0.014v-0.014v-0.014
		v-0.014v-0.014v-0.014v-0.014v-0.014l-0.014-0.014v-0.014v-0.014v-0.014v-0.014l0,0l0,0v-0.014v-0.014v-0.014v-0.014l0,0l0,0
		v-0.014v-0.014v-0.014l-0.014-0.027v-0.014v-0.014v-0.014l0,0c-0.027-0.041-0.054-0.082-0.082-0.109l0,0
		c-0.014-0.027-0.027-0.041-0.041-0.068l-0.014-0.014l-0.014-0.014l-0.014-0.014l-0.014-0.014l-0.014-0.014
		c-0.027-0.027-0.041-0.054-0.068-0.068l-0.014-0.014l-0.014-0.014l-0.014-0.014l-0.014-0.014l-0.014-0.014l-0.014-0.014v-0.014
		l-0.014-0.014l-0.014-0.014l-0.014-0.014l-0.014-0.014l-0.014-0.014l-0.014-0.014l-0.014-0.014l-0.014-0.014l0,0l-0.014-0.014
		l-0.014-0.014l0,0l-0.014-0.014l0,0c-0.014-0.014-0.027-0.027-0.041-0.041l-0.014-0.014l-0.014-0.014l-0.014-0.014l-0.014-0.014
		l0,0l-0.014-0.014l-0.014-0.014l0,0l-0.014-0.014l-0.014-0.014l0,0l-0.014-0.014l-0.014-0.014l0,0l-0.014-0.014l-0.027-0.014l0,0
		l-0.014-0.014l-0.014-0.014l0,0l-0.014-0.014l-0.014-0.014l0,0l-0.014-0.014l0,0l-0.014-0.014l-0.014-0.014l0,0l-0.014-0.014
		l-0.014-0.014h-0.014h-0.014l-0.014-0.014h-0.014l-0.014-0.014l-0.027-0.014h-0.014h-0.014l-0.014-0.014h-0.014h-0.014
		l-0.014-0.014c-0.014,0-0.041-0.014-0.054-0.014h-0.014h-0.014h-0.014l0,0l0,0h-0.014h-0.014h-0.014h-0.014l0,0h-0.014h-0.014
		h-0.014h-0.014h-0.014l0,0h-0.014h-0.014h-0.014h-0.014l0,0h-0.014h-0.014h-0.014l0,0h-0.014h-0.014h-0.014h-0.014l0,0h-0.014
		h-0.014h-0.014l0,0l0,0l-0.041-0.014l0,0l0,0h-0.014h-0.027l0,0h-0.014h-0.014h-0.014l0,0l0,0h-0.014h-0.014h-0.014h-0.014l0,0
		h-0.014h-0.014h-0.014h-0.014l0,0h-0.014h-0.027h-0.014l0,0l0,0h-0.014H258.8h-0.014h-0.014l0,0h-0.014h-0.014h-0.014h-0.014
		h-0.014h-0.014h-0.014h-0.014l0,0h-0.014h-0.014h-0.014h-0.014h-0.014l0,0h-0.014h-0.014h-0.014h-0.014l0,0h-0.014h-0.014h-0.014
		h-0.014l0,0h-0.014h-0.014h-0.014h-0.014l0,0l0,0h-0.014h-0.014h-0.014h-0.014l0,0h-0.027h-0.014h-0.014l0,0h-0.014h-0.014h-0.014
		l0,0l0,0l0,0h-0.014h-0.014h-0.014h-0.014l0,0h-0.014h-0.014h-0.014h-0.014l0,0h-0.014h-0.014h-0.014h-0.014l0,0h-0.014h-0.014
		h-0.014h-0.014l0,0h0.047l0,0h-0.014h-0.014h-0.014l0,0h-0.014h-0.014h-0.014h-0.014l0,0l0,0h-0.014h-0.014h-0.014l-0.054,0.014
		l-0.014,0.014h-0.014h-0.014l-0.014,0.014h-0.014h-0.014l-0.014,0.014l0,0l-0.014,0.014l-0.014,0.014h-0.014l0,0l-0.014,0.014
		l-0.014,0.014l0,0l-0.014,0.014l-0.014,0.014l0,0l-0.014,0.014l-0.014,0.014l-0.014,0.014l0,0
		c-0.027,0.014-0.054,0.027-0.082,0.041l-0.014,0.014c-0.027,0.014-0.041,0.027-0.068,0.041l0,0
		c-0.054,0.041-0.109,0.068-0.164,0.122l-0.014,0.014c-0.041,0.027-0.068,0.054-0.109,0.095l-0.014,0.014l-0.014,0.014l-0.014,0.014
		c-0.041,0.041-0.082,0.082-0.122,0.137l-0.014,0.014c-0.014,0.014-0.027,0.027-0.041,0.041l-0.014,0.014
		c-0.014,0.027-0.027,0.041-0.054,0.068l0,0c-0.027,0.041-0.054,0.082-0.082,0.109l0,0v0.014v0.014v0.014l-0.014,0.027v0.014v0.014
		v0.014l0,0l0,0v0.014v0.014v0.014v0.014l0,0l0,0v0.014v0.014v0.014v0.014l-0.014,0.014v0.014v0.014v0.014v0.014v0.014v0.014v0.014
		v0.014l0,0l0,0v0.014v0.014v0.014v0.014l0,0l0,0v0.014v0.014v0.014v0.014l0,0l0,0v0.014v0.014v0.014v0.014l0,0l0,0v0.014
		l-0.014,0.014v0.014l0,0v0.014v0.014v0.014v0.014v0.014l0,0v0.014l0,0c-0.014,0.027-0.014,0.041-0.027,0.068h-1.216h-0.355
		c0.014-0.082,0.027-0.151,0.054-0.232l-8.124-5.981c0.191-0.368,0.41-0.724,0.641-1.079l8.002,5.885
		c0.164-0.246,0.355-0.464,0.573-0.669l-4.602-9.107c0.355-0.219,0.71-0.424,1.092-0.614l4.575,9.053
		c0.246-0.095,0.492-0.178,0.751-0.219v-10.24c0.205-0.014,0.41-0.014,0.628-0.014L258.608,136.883z"/>
	<path style="fill:#333333;" d="M270.761,322.496l1.516-1.816l1.516,1.816v11.415h-3.045v-11.415H270.761z M263.919,322.496
		l1.516-1.816l1.516,1.816v11.415h-3.045v-11.415H263.919z M257.079,322.496l1.516-1.816l1.516,1.816v11.415h-3.045v-11.415H257.079
		z M250.238,322.496l1.516-1.816l1.516,1.816v11.415h-3.045v-11.415H250.238z M243.398,322.496l1.516-1.816l1.516,1.816v11.415
		h-3.045v-11.415H243.398z"/>
	<path style="fill:#333333;" d="M241.787,326.469h33.63v2.376h-33.63V326.469z"/>
	<path style="fill:#333333;" d="M178.199,284.823h1.256v7.278h7.878v-7.278h1.256v7.278h8.002v1.352h-8.002v6.145h8.002v1.352
		h-8.002v6.145h8.002v1.365h-8.002v6.145h8.002v1.352h-8.002v5.011h-1.256v-5.011h-7.878v5.011h-1.256v-5.011h-8.002v-1.352h8.002
		v-6.145h-8.002v-1.365h8.002v-6.145h-8.002v-1.352h8.002v-6.145h-8.002v-1.352h8.002V284.823z M179.456,293.467v6.145h7.878v-6.145
		H179.456z M179.456,300.976v6.145h7.878v-6.145H179.456z M179.456,308.486v6.145h7.878v-6.145H179.456z"/>
	<path style="fill:#333333;" d="M328.626,284.823h1.256v7.278h7.878v-7.278h1.256v7.278h8.002v1.352h-8.002v6.145h8.002v1.352
		h-8.002v6.145h8.002v1.365h-8.002v6.145h8.002v1.352h-8.002v5.011h-1.256v-5.011h-7.878v5.011h-1.256v-5.011h-8.002v-1.352h8.002
		v-6.145h-8.002v-1.365h8.002v-6.145h-8.002v-1.352h8.002v-6.145h-8.002v-1.352h8.002V284.823z M329.882,293.467v6.145h7.878v-6.145
		H329.882z M329.882,300.976v6.145h7.878v-6.145H329.882z M329.882,308.486v6.145h7.878v-6.145H329.882z"/>
	<path style="fill:#333333;" d="M246.238,164.409h1.079v7.729h6.8v-7.729h1.079v7.729h6.827v-7.729h1.079v7.729h6.8v-7.729h1.079
		v7.729h6.908v1.448h-6.908v6.527h6.908v1.448h-6.908v6.527h6.908v1.448h-6.908v6.527h6.908v1.448h-6.908v5.325h-1.079v-5.325h-6.8
		v5.325h-1.079v-5.325h-6.827v5.325h-1.079v-5.325h-6.8v5.325h-1.079v-5.325h-6.908v-1.448h6.908v-6.527h-6.908v-1.448h6.908v-6.527
		h-6.908v-1.433h6.908v-6.527h-6.908v-1.448h6.908v-7.729L246.238,164.409L246.238,164.409z M262.022,173.57h-6.827v6.527h6.827
		V173.57z M255.195,181.531v6.527h6.827v-6.527H255.195z M262.022,189.491h-6.827v6.527h6.827V189.491z M269.9,173.557v6.527h-6.8
		v-6.527H269.9z M269.9,181.518v6.527h-6.8v-6.527H269.9z M269.9,189.477v6.527h-6.8v-6.527H269.9z M247.316,173.543v6.527h6.8
		v-6.527H247.316z M247.316,181.504v6.527h6.8v-6.527H247.316z M247.316,189.464v6.527h6.8v-6.527H247.316z"/>
	<path style="fill:#333333;" d="M339.344,133.278l-25.328,5.284c6.254-0.368,15.784,4.848,16.262,8.807
		c6.691-0.86,6.595,0.929,9.967,3.892c6.186-1.994,11.332,1.789,12.234,2.703c2.198,2.24,3.208,3.714,4.819,3.783
		c2.089,0.082,3.168-2.43,5.243-3.96c2.608-1.925,6.308-2.963,10.063-2.745c3.059-2.908,5.284-5.667,11.456-3.249
		c0.464-3.96,9.708-9.599,15.948-9.23l-24.195-5.257c-1.379,4.916-10.199,18.461-13.026,4.575c0,0,0.997-0.833-0.683-3.632
		c-1.694-2.799-3.345,2.349-3.345,2.349c-0.641,0.041-1.188,0.014-1.461,0.259c-0.273-0.246-0.833-0.205-1.461-0.259
		c0,0-1.652-5.148-3.345-2.349c-1.693,2.799-0.683,3.632-0.683,3.632c-2.786,13.667-10.923,0.819-12.453-4.615L339.344,133.278z"/>
</g>
<path style="fill:#FFFF00;" d="M361.286,137.619l-3.291,2.649c0,0,1.243,0.997,2.622,0.451c1.379-0.546,0.656-3.1,0.656-3.1H361.286
	z"/>
<path style="fill:#FFBA00;" d="M361.286,137.619l-3.291,2.649c0,0,0.014,0.014,0.041,0.027l3.086-2.062
	c0.246,0.806,0.191,1.516-0.109,2.226C361.861,139.626,361.286,137.619,361.286,137.619z"/>
<path style="fill:#FFFF00;" d="M353.299,137.619l3.291,2.649c0,0-1.256,0.997-2.635,0.451
	C352.575,140.173,353.299,137.619,353.299,137.619z"/>
<path style="fill:#FFBA00;" d="M353.299,137.619l3.291,2.649c0,0-0.014,0.014-0.041,0.027l-3.086-2.062
	c-0.246,0.806-0.191,1.516,0.109,2.226C352.74,139.626,353.299,137.619,353.299,137.619z"/>
<path style="fill:#333333;" d="M84.027,210.314l-30.422,22.979c8.097-4.424,24.085-3.481,27.212,1.502
	c8.37-5.353,9.367-2.908,15.729-1.092c6.991-6.54,16.234-4.765,18.01-4.097c4.342,1.611,6.622,2.922,8.807,1.994
	c2.84-1.202,2.69-5.229,4.492-8.575c2.267-4.219,6.54-7.919,11.675-9.981c2.253-5.789,3.468-10.883,13.217-11.537
	c-1.87-5.584,6.881-18.897,15.443-22.338l-35.555,8.234c1.256,7.427-1.98,31.009-14.473,14.31c0,0,0.819-1.748-3.195-4.397
	c-4.014-2.662-2.976,5.243-2.976,5.243c-0.833,0.464-1.584,0.765-1.789,1.256c-0.532-0.151-1.229,0.246-2.116,0.587
	c0,0-5.448-5.816-5.94-1.024c-0.492,4.779,1.379,5.257,1.379,5.257c4.888,19.962-14.05,7.974-19.498,1.693L84.027,210.314
	L84.027,210.314z"/>
<path style="fill:#FFFF00;" d="M115.991,202.285l-2.717,5.598c0,0,2.294,0.546,3.782-1.065
	C118.544,205.22,115.991,202.285,115.991,202.285z"/>
<path style="fill:#FFBA00;" d="M115.991,202.285l-2.717,5.598c0,0,0.027,0,0.068,0.014l2.799-4.697
	c0.833,0.915,1.216,1.898,1.27,3.045C117.998,204.606,115.991,202.285,115.991,202.285z"/>
<path style="fill:#FFFF00;" d="M105.355,207.309l6.049,1.461c0,0-1.038,2.116-3.222,2.253c-2.184,0.137-2.827-3.7-2.827-3.7V207.309
	z"/>
<path style="fill:#FFBA00;" d="M105.355,207.309l6.049,1.461c0,0-0.014,0.027-0.041,0.068l-5.407-0.819
	c0.191,1.229,0.697,2.143,1.543,2.908C105.86,210.341,105.355,207.309,105.355,207.309z"/>
<path style="fill:#9C9E7B;" d="M167.808,496.38c55.135-22.229-9.954-19.799-8.138-40.689c1.543-17.709,42.655-9.886,85.365-22.201
	c42.724-12.316,3.236-24.536,3.236-24.536c40.075-1.256,71.671,22.488,37.617,36.333c-34.053,13.859-27.322,20.017,11.934,27.704
	c13.422,2.635,30.817,11.838,47.884,22.816c-27.923,10.445-58.153,16.166-89.721,16.166c-30.995,0-60.706-5.516-88.192-15.607
	L167.808,496.38z"/>
<g>
</g>
<g>
</g>
<g>
</g>
<g>
</g>
<g>
</g>
<g>
</g>
<g>
</g>
<g>
</g>
<g>
</g>
<g>
</g>
<g>
</g>
<g>
</g>
<g>
</g>
<g>
</g>
<g>
</g>
</svg>
