<?xml version="1.0" encoding="iso-8859-1"?>
<!-- Generator: Adobe Illustrator 19.0.0, SVG Export Plug-In . SVG Version: 6.00 Build 0)  -->
<svg version="1.1" id="Layer_1" xmlns="http://www.w3.org/2000/svg" xmlns:xlink="http://www.w3.org/1999/xlink" x="0px" y="0px"
	 viewBox="0 0 512 512" style="enable-background:new 0 0 512 512;" xml:space="preserve">
<g>
	<polygon style="fill:#E57E25;" points="0,494.345 141.241,494.345 141.241,406.069 0,406.069 	"/>
	<g>
		<polygon style="fill:#F3D55B;" points="17.655,229.517 52.966,229.517 52.966,194.207 17.655,194.207 		"/>
		<polygon style="fill:#F3D55B;" points="88.276,229.517 123.586,229.517 123.586,194.207 88.276,194.207 		"/>
		<polygon style="fill:#F3D55B;" points="158.897,229.517 194.207,229.517 194.207,194.207 158.897,194.207 		"/>
		<polygon style="fill:#F3D55B;" points="229.517,229.517 264.828,229.517 264.828,194.207 229.517,194.207 		"/>
	</g>
	<polygon style="fill:#4FBA6F;" points="0,406.069 141.241,406.069 141.241,317.793 0,317.793 	"/>
	<path style="fill:#F0C419;" d="M282.483,317.79H0V247.17c0-9.755,7.901-17.655,17.655-17.655h247.172
		c9.754,0,17.655,7.901,17.655,17.655V317.79z"/>
	<g>
		<polygon style="fill:#F49853;" points="247.172,52.966 282.483,52.966 282.483,17.655 247.172,17.655 		"/>
		<polygon style="fill:#F49853;" points="317.793,52.966 353.103,52.966 353.103,17.655 317.793,17.655 		"/>
		<polygon style="fill:#F49853;" points="388.414,52.966 423.724,52.966 423.724,17.655 388.414,17.655 		"/>
		<polygon style="fill:#F49853;" points="459.034,52.966 494.345,52.966 494.345,17.655 459.034,17.655 		"/>
	</g>
	<path style="fill:#E57E25;" d="M512,141.239H229.517V70.618c0-9.754,7.901-17.655,17.655-17.655h247.172
		c9.754,0,17.655,7.901,17.655,17.655V141.239z"/>
	<polygon style="fill:#F0C419;" points="370.759,317.793 512,317.793 512,229.517 370.759,229.517 	"/>
	<polygon style="fill:#E57E25;" points="370.759,406.069 512,406.069 512,317.793 370.759,317.793 	"/>
	<polygon style="fill:#DF4D60;" points="370.759,494.345 512,494.345 512,406.069 370.759,406.069 	"/>
	<polygon style="fill:#4FBA6F;" points="370.759,229.517 512,229.517 512,141.241 370.759,141.241 	"/>
</g>
<g>
</g>
<g>
</g>
<g>
</g>
<g>
</g>
<g>
</g>
<g>
</g>
<g>
</g>
<g>
</g>
<g>
</g>
<g>
</g>
<g>
</g>
<g>
</g>
<g>
</g>
<g>
</g>
<g>
</g>
</svg>
