<svg xmlns="http://www.w3.org/2000/svg" xmlns:xlink="http://www.w3.org/1999/xlink" viewBox="0 0 400 300" width="406" height="306" class="illustration styles_illustrationTablet__1DWOa"><defs><linearGradient id="linear-gradient" x1="237.19" y1="228.99" x2="223.9" y2="206.71" gradientUnits="userSpaceOnUse"><stop offset="0" stop-color="#fff" stop-opacity="0"></stop><stop offset="0.99" stop-color="#ffa86a"></stop></linearGradient><linearGradient id="linear-gradient-2" x1="319.36" y1="212.9" x2="312.53" y2="201.18" xlink:href="#linear-gradient"></linearGradient><linearGradient id="linear-gradient-3" x1="145.38" y1="178.59" x2="141.67" y2="172.21" xlink:href="#linear-gradient"></linearGradient><linearGradient id="linear-gradient-4" x1="175.92" y1="142.15" x2="172.2" y2="135.77" xlink:href="#linear-gradient"></linearGradient></defs><g style="isolation: isolate;"><g id="Layer_2" data-name="Layer 2"><path d="M21.5,156.14,157.11,77.28a6.41,6.41,0,0,1,6.41,0L366.31,193.33a6.41,6.41,0,0,1,0,11.12L236.65,279.32a20.93,20.93,0,0,1-20.93,0L21.52,167.24A6.41,6.41,0,0,1,21.5,156.14Z" fill="#568e50"></path><path d="M218.52,251.57c31-20.46,48.88-22.48,77.69-43.63-18.25-9.51-49.27-28-60.54-35.07l-76.78,44.84,58.17,33.88Z" opacity="0.63" fill="url(#linear-gradient)" style="mix-blend-mode: multiply;"></path><polygon points="102.59 186.55 169.9 224.63 248.49 178.86 248.49 148.09 169.9 193.85 102.59 155.38 102.59 186.55" fill="#a0d700"></polygon><polygon points="102.59 155.38 182.69 109.43 248.49 148.09 169.9 193.85 102.59 155.38" fill="#cbed4f"></polygon><polygon points="169.9 193.85 169.9 224.63 248.49 178.86 248.49 148.09 169.9 193.85" fill="#93bc00"></polygon><polyline points="120.75 114.3 120.75 145.03 188.18 183.4 217.99 166.19 217.99 135.07" fill="#fc934c"></polyline><polygon points="187.5 153.08 248.49 117.03 182.21 79.78 120.75 114.3 187.5 153.08" fill="#f9a66e"></polygon><polygon points="187.5 153.08 187.5 183.4 248.49 148.09 248.49 117.03 187.5 153.08" fill="#ef7929"></polygon><path d="M319,216.23c9.33-6.16,8.3-3,17-9.37-5.5-2.86-22-13.16-25.37-15.28l-19.48,7.57,17.52,10.2C308.83,209.36,318.9,216.23,319,216.23Z" opacity="0.63" fill="url(#linear-gradient-2)" style="mix-blend-mode: multiply;"></path><polyline points="291.94 183.34 291.94 195.69 311.91 195.69 311.91 183.34" fill="#005b66"></polyline><ellipse cx="301.93" cy="183.34" rx="9.98" ry="4.91" fill="#005b66"></ellipse><ellipse cx="301.93" cy="183.34" rx="9.98" ry="4.91" opacity="0.73"></ellipse><ellipse cx="301.93" cy="196.17" rx="9.98" ry="4.91" fill="#005b66"></ellipse><path d="M313.11,154.64c-2.11-.86-5-3.73-7.58-3.64a29.84,29.84,0,0,0-1.54,7.58,68.75,68.75,0,0,0-.29,12.65q.09,1.41.23,2.81a2.24,2.24,0,0,0,.22.79q0,4.89,0,9.77a.31.31,0,0,0,.62,0q0-4.7,0-9.4a13.86,13.86,0,0,0,2.86-1.32,9.73,9.73,0,0,0,4-5.05c1.61-4.49.59-9.5,2.12-13.94C313.56,154.81,313.33,154.73,313.11,154.64Z" fill="#297600"></path><path d="M308.79,147.29a7.83,7.83,0,0,0-2.85,2.92,4.89,4.89,0,0,0-.45.87l-.09.19h0a13.05,13.05,0,0,0-.48,1.55A1.93,1.93,0,0,1,306,152a2.64,2.64,0,0,1,1.67-.15,7,7,0,0,1,1.53.81c.71.43,1.4.91,2.1,1.36,3.31,2.1,7.71,2.32,10.27-.75,0-.12.06-.24.09-.37C322,150.79,316.11,143,308.79,147.29Z" fill="#5fad00"></path><path d="M320.08,154.55l.41-.27a.28.28,0,0,0-.08-.24,19.41,19.41,0,0,0-6.88-5.08,11.79,11.79,0,0,0-6.14-.6c-.22.26-.42.53-.62.8a10.67,10.67,0,0,1,7.07.59,19.77,19.77,0,0,1,6.15,4.73A.3.3,0,0,0,320.08,154.55Z" fill="#297600"></path><path d="M286.57,159a8.34,8.34,0,0,0-4.46,8c.24,5.89,9.94.14,12.52-4.83s3,2.12,3,2.12" fill="#297600"></path><path d="M295.3,157a17.58,17.58,0,0,0-5.39.75,13.07,13.07,0,0,0-3.35,1.31,10.81,10.81,0,0,0,1.94,1,5.9,5.9,0,0,1,3.14,2.25,4.48,4.48,0,0,1,.37.89c.59,1.94.08,4.29.88,6.24a5.57,5.57,0,0,0,4.72,3.81c2.74.17,4-2.46,4.53-4.73s1.28-5.38.42-7.71C301.55,158.07,297.89,157.09,295.3,157Z" fill="#5fad00"></path><path d="M298.91,166.16c-1.15-3.72-3.58-7.23-7.14-8.88h-.13l-.17.05-.65.17c4.15,1.54,6.76,5.63,7.82,9.81,1.36,5.35.9,11.14.92,16.61a.29.29,0,0,0,.57,0C300.11,178.09,300.65,171.82,298.91,166.16Z" fill="#297600"></path><path d="M145.21,180.4c5.08-3.35,4.52-1.63,9.24-5.1-3-1.56-12-7.16-13.81-8.32L130,171.11l9.53,5.55C139.65,176.66,145.13,180.41,145.21,180.4Z" opacity="0.63" fill="url(#linear-gradient-3)" style="mix-blend-mode: multiply;"></path><path d="M175.75,144c5.08-3.35,4.52-1.63,9.24-5.1-3-1.56-12-7.16-13.81-8.32l-10.6,4.12,9.53,5.55C170.19,140.22,175.67,144,175.75,144Z" opacity="0.63" fill="url(#linear-gradient-4)" style="mix-blend-mode: multiply;"></path><rect x="195.59" y="96.3" width="4.47" height="17.32" transform="translate(395.65 209.91) rotate(-180)" fill="#005b66"></rect><path d="M175.61,118.49a1.65,1.65,0,0,1-.08-1c.41-1.78,3-2.06,4.47-2.46l5.67-1.58,4.88-1.33c.28-.07,1.76-.7,2-.54L180,104a1.78,1.78,0,0,1-.48-2.62,2,2,0,0,1,2.54-.55l14.4,7.41h1.36l7.39-8.34a2.62,2.62,0,0,1,3.15-.6,2.19,2.19,0,0,1,.72,3.32l-6.5,8.14L219.72,112a2,2,0,0,1,1.79,2.26,1.86,1.86,0,0,1-2,1.56l-18.37-1.75,2.52,8.13a2.36,2.36,0,0,1-2,3l-.14,0a3.73,3.73,0,0,1-4-2.59L195,114.61l-17.22,4.87A1.85,1.85,0,0,1,175.61,118.49Z" fill="#005b66"></path><path d="M219.72,112l-17.14-1.29,6.5-8.14a2.19,2.19,0,0,0-.72-3.32,2.62,2.62,0,0,0-3.15.6l-5.15,5.82V96.3h-4.47v11.44l-13.53-7a2,2,0,0,0-2.54.55A1.78,1.78,0,0,0,180,104l12.57,7.6c-.26-.16-1.74.47-2,.54l-4.88,1.33L180,115c-1.42.4-4.06.68-4.47,2.46a1.65,1.65,0,0,0,.08,1,1.85,1.85,0,0,0,2.18,1L195,114.61l2.52,8.07a3.73,3.73,0,0,0,4,2.59l.14,0a2.36,2.36,0,0,0,2-3l-2.52-8.13,18.37,1.75a1.86,1.86,0,0,0,2-1.56A2,2,0,0,0,219.72,112Z" opacity="0.59"></path><path d="M197.4,64.47s1-33,1-40.78,5-10.36,8.58-10.52,15,6.31,22,11.17,5.22,10.52,5.22,10.52-4.21,35.76-5.5,42.07-9.4,8.53-9.4,8.53l-4.55,1.16" fill="#005b66"></path><path d="M197.4,64.47s1-33,1-40.78,5-10.36,8.58-10.52,15,6.31,22,11.17,5.22,10.52,5.22,10.52-4.21,35.76-5.5,42.07-9.4,8.53-9.4,8.53l-4.55,1.16" opacity="0.49"></path><path d="M179.69,63.36l1.55,10.87-3.53,2.24S175.31,62.6,175.31,61" fill="#005b66"></path><path d="M218.69,88.74s3.65-2.89,4.94-9.2,5.5-42.07,5.5-42.07,1.69-5.66-5.22-10.52-18.4-11.33-22-11.17-8.59,2.75-8.58,10.52-1,40.78-1,40.78" fill="#005b66"></path><path d="M173.53,76.47c0,2.9-.22,4.26,0,7.16S175,88,177.06,89.71c3.93,3.23,12.53,8.66,12.53,8.66s5.69,4.57,12.64,1.89c4.84-1.86,12.21-6.64,16.25-9.37a6.58,6.58,0,0,0,2.89-5.45V81.68" fill="#005b66"></path><path d="M219.54,78.71l-20.3-12.2a9.63,9.63,0,0,0-9.63-.17l-13.94,7.73a4.16,4.16,0,0,0-.38,7l16.24,11.48a13.38,13.38,0,0,0,14.56.58l13.44-8A3.77,3.77,0,0,0,219.54,78.71Z" fill="#005b66"></path><path d="M209.43,96.63s-3.45-.37-4.31-2.2-3-16.86-3-16.86l6,1.24" fill="#005b66"></path><path d="M208.64,80.08s1.61,12.3,3,13.35S220.84,88,220.84,88l1.78-15.88,2.31-1.21s-1.46,15.93-2,17.8-11.55,8.54-13.47,7.89-4.31-17.94-4.31-17.94" fill="#005b66"></path><path d="M224.89,69.21l0,1.72a2,2,0,0,1-1,1.78L208,81.34a2,2,0,0,1-2.07-.1l-3-2a2,2,0,0,1-.87-1.65V75.94" fill="#005b66"></path><path d="M224.17,67.23,222,65.53a2,2,0,0,0-2.09-.18L203.18,74a2,2,0,0,0-.13,3.4l2.08,1.29a3,3,0,0,0,3,.11l15.78-8.28A2,2,0,0,0,224.17,67.23Z" fill="#005b66"></path><path d="M179.69,63.36l1.55,10.87-3.53,2.24S175.31,62.6,175.31,61"></path><path d="M217.47,86.39s4.86-.55,6.16-6.86,5.5-42.07,5.5-42.07,1.69-5.66-5.22-10.52-18.4-11.33-22-11.17-8.59,2.75-8.58,10.52-1,40.78-1,40.78" opacity="0.22"></path><path d="M173.53,76.47c0,2.9-.22,4.26,0,7.16S175,88,177.06,89.71c3.93,3.23,12.53,8.66,12.53,8.66s5.69,4.57,12.64,1.89c4.84-1.86,12.21-6.64,16.25-9.37a6.58,6.58,0,0,0,2.89-5.45V81.68" opacity="0.28"></path><path d="M219.54,78.71l-20.3-12.2a9.63,9.63,0,0,0-9.63-.17l-13.94,7.73a4.16,4.16,0,0,0-.38,7l16.24,11.48a13.38,13.38,0,0,0,14.56.58l13.44-8A3.77,3.77,0,0,0,219.54,78.71Z" fill="#005b66"></path><path d="M209.43,96.63s-3.45-.37-4.31-2.2-3-16.86-3-16.86l6,1.24" fill="#005b66"></path><path d="M208.64,80.08s1.61,12.3,3,13.35S220.84,88,220.84,88l1.78-15.88,2.31-1.21s-1.46,15.93-2,17.8-11.55,8.54-13.47,7.89-4.31-17.94-4.31-17.94" fill="#005b66"></path><path d="M209.43,96.63s-3.45-.37-4.31-2.2-3-16.86-3-16.86l6,1.24"></path><path d="M208.64,80.08s1.61,12.3,3,13.35S220.84,88,220.84,88l1.78-15.88,2.31-1.21s-1.46,15.93-2,17.8-11.55,8.54-13.47,7.89-4.31-17.94-4.31-17.94"></path><path d="M224.89,69.21l0,1.72a2,2,0,0,1-1,1.78L208,81.34a2,2,0,0,1-2.07-.1l-3-2a2,2,0,0,1-.87-1.65V75.94" fill="#005b66"></path><path d="M224.17,67.23,222,65.53a2,2,0,0,0-2.09-.18L203.18,74a2,2,0,0,0-.13,3.4l2.08,1.29a3,3,0,0,0,3,.11l15.78-8.28A2,2,0,0,0,224.17,67.23Z" fill="#005b66"></path><g opacity="0.28"><path d="M224.89,69.21l0,1.72a2,2,0,0,1-1,1.78L208,81.34a2,2,0,0,1-2.07-.1l-3-2a2,2,0,0,1-.87-1.65V75.94"></path><path d="M224.17,67.23,222,65.53a2,2,0,0,0-2.09-.18L203.18,74a2,2,0,0,0-.13,3.4l2.08,1.29a3,3,0,0,0,3,.11l15.78-8.28A2,2,0,0,0,224.17,67.23Z"></path></g><path d="M198.08,52.62l0,1.72a2,2,0,0,1-1,1.78l-15.84,8.63a2,2,0,0,1-2.07-.1l-3-2a2,2,0,0,1-.87-1.65V59.34" fill="#005b66"></path><path d="M197.36,50.64l-2.22-1.7a2,2,0,0,0-2.09-.18L176.36,57.4a2,2,0,0,0-.13,3.4l2.08,1.29a3,3,0,0,0,3,.11l15.78-8.28A2,2,0,0,0,197.36,50.64Z" fill="#005b66"></path><g opacity="0.28"><path d="M198.08,52.62l0,1.72a2,2,0,0,1-1,1.78l-15.84,8.63a2,2,0,0,1-2.07-.1l-3-2a2,2,0,0,1-.87-1.65V59.34"></path><path d="M197.36,50.64l-2.22-1.7a2,2,0,0,0-2.09-.18L176.36,57.4a2,2,0,0,0-.13,3.4l2.08,1.29a3,3,0,0,0,3,.11l15.78-8.28A2,2,0,0,0,197.36,50.64Z"></path></g><path d="M172.58,131.17a31.44,31.44,0,0,0-5.35-.07s-.32-5.85-.22-6h-4.32s-1.31,8.56-1.4,9.42c-.16,1.57,1.72,2.26,2.16,2.25a7.68,7.68,0,0,0,.93-.27,13,13,0,0,1,0-2.48c.06-.37.17-.63.54-.73a5.92,5.92,0,0,1,2.52.5c.78.23,1.55.5,2.33.73,1.85-.74,3.42-1.47,3.58-1.82C173.75,131.82,174.13,131.65,172.58,131.17Z" fill="#ffb3a6"></path><path d="M174,131.6l-.09-.13c-.31-.37-1.2-.43-1.62-.48a21.11,21.11,0,0,0-5.1.12s4.09-.13,4.17.61a1.93,1.93,0,0,1-.58,1.62c-1.84,1.32-4.3-.6-5.86-1.48L162,130.22l-.45,2.46a18.49,18.49,0,0,0-.36,3.41c.17.37,1.88,1.51,2.28,1.36s1.66-.74,1.66-.74l.08-3s2.4,1.35,3.62,1.17C169.79,134.72,174.94,133.12,174,131.6Z" fill="#56403d"></path><path d="M159.45,118.86l-.34,6.67a16.26,16.26,0,0,0,10.38,1.13c.72-3.83,2.08-11.47,1.93-14-.2-3.47.54-7.1-4.11-9.39-3.57-1.75-14.46,2.47-14.46,2.47l-8.19,14C155.13,123.86,159.45,118.86,159.45,118.86Z" fill="#999a1c"></path><path d="M138.38,168.22c-.67-.31-1.66-.6-2.08-1.27a4.07,4.07,0,0,1-.21-2.41q.08-1.15.24-2.28a.38.38,0,0,1-.11-.29,13.78,13.78,0,0,1,.21-1.86l-3.1-.63a56.74,56.74,0,0,0-1.92,5.82c0,.62,2.58,5,4.06,5.42s5.82-.44,6.24-1l0-.05C140.6,169.22,139.49,168.74,138.38,168.22Z" fill="#ffb3a6"></path><path d="M134.3,165.67s1.1,5.28,1.66,5.68,7.06-1,6.24-2.25c-.52-.83-4.32-1.21-4.64-1.35,0,0,1.93.86,1.89,1.18s-2.67,1.22-2.77,1-2.37-5-2.37-5l-2.48-1.18-2.61,4.48,1.71,1s.4,1.49.58,1.5a20.89,20.89,0,0,0,1.92-2.46,7,7,0,0,0,.43,1.93c.24.21,2.14,2.15,3.23.93l-1.55-2.16" fill="#56403d"></path><path d="M152.22,116.39c2-6.55,2.05-5.38,3.36-10.79l-13.11-3.44c-6.68,10-12.89,58.37-12.89,58.37s6.47,5.21,12.07,3.61c0,0,7.57-39.89,7.59-39.93C150.34,121.49,150.38,121,152.22,116.39Z" fill="#999a1c"></path><path d="M150.14,121.86a13.81,13.81,0,0,1-5.49-2.17l-.71,30Z" fill="#7a770e"></path><path d="M149.19,85.09s-7.25-16.34-8.08-17.38,1-6.35-.15-6.29-2.5,2.71-2.5,2.71-5-3.61-6.77-2.49,5.58,8.57,5.58,8.57l6.11,20.24" fill="#ffb3a6"></path><path d="M161.88,81.76s16.51-6.84,17.83-7,3.66-5.29,4.44-4.46,0,3.69,0,3.69,6.1.82,6.62,2.86-9.95,2.37-9.95,2.37L162.4,89.65" fill="#ffb3a6"></path><polyline points="149.42 80.01 143.94 75.15 140.3 87.07 144.86 93.77" fill="#ffd400"></polyline><path d="M158,82.91h-.51c-2.63,0-5.55-3.58-5.55-3.58s-1-8.2-5.62-1.6c-3.49,4.93-4.41,18.91-4.65,25.67a13.53,13.53,0,0,0,6.6,2.1,28,28,0,0,0,4.57.22,6.77,6.77,0,0,0,2.7-.69l2-10.92A110.67,110.67,0,0,1,158,82.91Z" fill="#ffd400"></path><path d="M155.24,70.39s4.49,6.29,1.27,8.67-6.41-.38-6.82-1.15S148.46,70.84,155.24,70.39Z" fill="#ffb3a6"></path><path d="M155.36,69.34a7.41,7.41,0,0,0-6.2,0,9,9,0,0,0-4.36,3.13,3,3,0,0,0-1.6-.3,3.16,3.16,0,0,0-2.86,2.38,2.73,2.73,0,0,0,1.51,3,3.45,3.45,0,0,0,2.62-.13l0,.16c.3,1.26-.82,2.08-1.14,3.23a2.56,2.56,0,0,0,0,1.62c.2.52.83,1,.89,1.56a2.58,2.58,0,0,1-.41,1.22,5.71,5.71,0,0,0-.45,1.27,12.91,12.91,0,0,0,8.59-.4,14.41,14.41,0,0,0,7.33-5.39,2.14,2.14,0,0,0-.64-.66,8,8,0,0,0-1.63-.58c-.81-.33-.22-1.75-.35-2.46-.22-1.21-1.18-1.59-2.24-1.87-.77-.2-.87-.64-1-1.39a2.83,2.83,0,0,1,.11-1.75,1,1,0,0,0,.61-.22,5.26,5.26,0,0,1,1.13-.7.87.87,0,0,0,.37-1.15A.71.71,0,0,0,155.36,69.34Z" fill="#56403d"></path><path d="M153.06,72.42a13.81,13.81,0,0,0,3.15-1.63c0-.11-.27-4.38-7.56-1.87s-2.48,11-2.48,11" fill="#56403d"></path><path d="M154.68,79.91s11.21-1.53,13.7-1.2l.71,8.46-14.41,8.5" fill="#ffd400"></path></g></g></svg>