<svg xmlns="http://www.w3.org/2000/svg" class="illustration styles_illustrationTablet__1DWOa" viewBox="119.98 62.65 149.22 174.7"><g id="_138_password_outline" data-name="#138_password_outline"><rect x="141.41" y="63.65" width="118.53" height="172.71" rx="13.27" fill="#673119"/><path d="M246.68,237.35h-92a14.28,14.28,0,0,1-14.27-14.26V76.91a14.28,14.28,0,0,1,14.27-14.26h92A14.29,14.29,0,0,1,261,76.91V223.09A14.29,14.29,0,0,1,246.68,237.35Zm-92-172.7a12.28,12.28,0,0,0-12.27,12.26V223.09a12.28,12.28,0,0,0,12.27,12.26h92A12.28,12.28,0,0,0,259,223.09V76.91a12.28,12.28,0,0,0-12.27-12.26Z" fill="#093f68"/><rect x="141.41" y="78.31" width="118.53" height="138.54" fill="#093f68"/><path d="M260,217.86H141.41a1,1,0,0,1-1-1V78.31a1,1,0,0,1,1-1H260a1,1,0,0,1,1,1V216.86A1,1,0,0,1,260,217.86Zm-117.54-2H259V79.31H142.41Z" fill="#093f68"/><rect x="120.98" y="96.83" width="124.52" height="94.42" rx="4.7" fill="#fff"/><path d="M240.81,192.25H125.68a5.71,5.71,0,0,1-5.7-5.7v-85a5.71,5.71,0,0,1,5.7-5.7H240.81a5.71,5.71,0,0,1,5.7,5.7v85A5.71,5.71,0,0,1,240.81,192.25ZM125.68,97.83a3.7,3.7,0,0,0-3.7,3.7v85a3.7,3.7,0,0,0,3.7,3.7H240.81a3.7,3.7,0,0,0,3.7-3.7v-85a3.7,3.7,0,0,0-3.7-3.7Z" fill="#093f68"/><path d="M174.68,127.21a1,1,0,0,1-1-.79l-2.15-9.92a11.15,11.15,0,0,1,21.79-4.72,1,1,0,0,1-2,.42,9.14,9.14,0,0,0-16.62-3,9.05,9.05,0,0,0-1.25,6.89l2.15,9.92a1,1,0,0,1-.77,1.18A.76.76,0,0,1,174.68,127.21Z" fill="#093f68"/><path d="M168.91,124.29h28.85a0,0,0,0,1,0,0v16a9.18,9.18,0,0,1-9.18,9.18h-10.5a9.18,9.18,0,0,1-9.18-9.18v-16a0,0,0,0,1,0,0Z" fill="#673119"/><path d="M188.59,150.46h-10.5a10.2,10.2,0,0,1-10.18-10.18v-16a1,1,0,0,1,1-1h28.86a1,1,0,0,1,1,1v16A10.2,10.2,0,0,1,188.59,150.46Zm-18.68-25.17v15a8.19,8.19,0,0,0,8.18,8.18h10.5a8.19,8.19,0,0,0,8.18-8.18v-15Z" fill="#093f68"/><circle cx="183.51" cy="133.01" r="2.96" fill="#093f68"/><path d="M183.51,137a4,4,0,1,1,4-4A4,4,0,0,1,183.51,137Zm0-5.91a2,2,0,1,0,2,2A2,2,0,0,0,183.51,131.05Z" fill="#093f68"/><path d="M183.51,144a1,1,0,0,1-1-1v-8.87a1,1,0,1,1,2,0V143A1,1,0,0,1,183.51,144Z" fill="#093f68"/><path d="M253,122.69a16,16,0,0,1,13.54,22.84,15.65,15.65,0,0,1-15.85,8.95,15.43,15.43,0,0,1-12.92-9.11c-.24-.49-.52-.77-1.08-.69a9.21,9.21,0,0,1-6.26-1.51l-.12-.07a.82.82,0,0,0-1,.06c-1,.67-2,1.28-2.91,2a1,1,0,0,1-1.37,0c-.91-.66-1.87-1.24-2.79-1.88a.78.78,0,0,0-1,0c-1,.68-2,1.3-3,2a.77.77,0,0,1-1.24-.14c-.51-.59-1.11-1.11-1.65-1.68a.61.61,0,0,0-.93-.09c-.92.64-1.87,1.24-2.79,1.88a.79.79,0,0,1-1.08,0q-3.12-2.36-6.27-4.67c-.45-.33-.5-.56-.07-1q2.87-2.81,5.66-5.67a2.1,2.1,0,0,1,1.66-.69c8.24,0,16.48,0,24.72,0a1.23,1.23,0,0,0,1.31-.85c2.85-6.24,7.81-9.37,14.59-9.75Zm.5,10.68a5.25,5.25,0,1,0,0,10.49,5.25,5.25,0,0,0,0-10.49Z" fill="#ffbc0e"/><path d="M252.28,155.57a16.85,16.85,0,0,1-1.73-.09,16.39,16.39,0,0,1-13.72-9.67c0-.06-.05-.11-.07-.14a10.22,10.22,0,0,1-6.91-1.66l0,0c-.49.34-.92.62-1.35.9s-1,.69-1.54,1.05a2,2,0,0,1-2.56,0c-.49-.36-1-.7-1.52-1l-1.18-.79c-.44.31-.85.57-1.25.84-.55.36-1.1.72-1.64,1.11a1.75,1.75,0,0,1-2.58-.29c-.28-.31-.58-.61-.88-.9l-.57-.57c-.43.29-.83.56-1.24.82s-.91.61-1.36.92a1.78,1.78,0,0,1-2.26,0q-3.1-2.35-6.25-4.66a1.66,1.66,0,0,1-.77-1.2,1.63,1.63,0,0,1,.59-1.3c2.08-2,3.93-3.89,5.65-5.65a3.11,3.11,0,0,1,2.36-1h11.89l12.85,0a.87.87,0,0,0,.25,0h0a.74.74,0,0,0,.14-.23c2.95-6.46,8.15-9.93,15.45-10.34a.48.48,0,0,1,.12,0l.32,0,.53,0h0a16,16,0,0,1,12.44,6.45A16.37,16.37,0,0,1,267.4,146,16.68,16.68,0,0,1,252.28,155.57Zm-15.45-11.91a2,2,0,0,1,1.8,1.27,14.48,14.48,0,0,0,12.12,8.56,14.68,14.68,0,0,0,14.84-8.38,14.3,14.3,0,0,0-1.73-15.75,14.13,14.13,0,0,0-11-5.67l-.57,0h-.25c-6.56.38-11,3.38-13.69,9.17a2.18,2.18,0,0,1-2.2,1.43h0l-12.84,0H211.45a1.11,1.11,0,0,0-.93.38c-1.64,1.69-3.4,3.45-5.38,5.39q3,2.18,5.88,4.39c.49-.34.93-.63,1.37-.91l1.39-.94a1.59,1.59,0,0,1,2.23.23l.69.69c.32.31.64.63.94,1,.54-.4,1.1-.76,1.66-1.13l1.26-.85a1.76,1.76,0,0,1,2.17,0l1.2.8c.54.36,1.09.71,1.61,1.1,0,0,.07,0,.08.06l.12-.08c.53-.38,1.07-.74,1.61-1.1s.87-.57,1.3-.87a1.83,1.83,0,0,1,2.13-.1l.15.08a8.11,8.11,0,0,0,5.6,1.36Zm-19.35.86Zm36,.34A6.34,6.34,0,0,1,249,143a6.12,6.12,0,0,1-1.82-4.39,6.28,6.28,0,0,1,6.25-6.22h0a6.14,6.14,0,0,1,4.4,1.79,6.28,6.28,0,0,1-4.37,10.7Zm0-10.49a4.28,4.28,0,0,0-4.25,4.24,4.13,4.13,0,0,0,1.24,3,4.35,4.35,0,0,0,3.05,1.29h0a4.17,4.17,0,0,0,4.19-4.24,4.24,4.24,0,0,0-1.23-3,4.19,4.19,0,0,0-3-1.21Zm0-1h0Z" fill="#093f68"/><path d="M221.24,182.91h-76a9.6,9.6,0,0,1-9.58-9.59v-7.54a9.6,9.6,0,0,1,9.58-9.59h76a9.6,9.6,0,0,1,9.58,9.59v7.54A9.6,9.6,0,0,1,221.24,182.91Zm-76-24.72a7.59,7.59,0,0,0-7.58,7.59v7.54a7.6,7.6,0,0,0,7.58,7.59h76a7.6,7.6,0,0,0,7.58-7.59v-7.54a7.59,7.59,0,0,0-7.58-7.59Z" fill="#dfeaef"/><path d="M151.49,177a1,1,0,0,1-1-1V163.11a1,1,0,0,1,2,0V176A1,1,0,0,1,151.49,177Z" fill="#093f68"/><path d="M145.89,173.71a1,1,0,0,1-.87-.5,1,1,0,0,1,.38-1.37l11.2-6.33a1,1,0,0,1,1,1.75l-11.21,6.32A1,1,0,0,1,145.89,173.71Z" fill="#093f68"/><path d="M157.09,173.71a1,1,0,0,1-.49-.13l-11.2-6.32a1,1,0,0,1-.38-1.37,1,1,0,0,1,1.36-.38l11.21,6.33a1,1,0,0,1-.5,1.87Z" fill="#093f68"/><path d="M172.66,177a1,1,0,0,1-1-1V163.11a1,1,0,0,1,2,0V176A1,1,0,0,1,172.66,177Z" fill="#093f68"/><path d="M167.06,173.71a1,1,0,0,1-.5-1.87l11.21-6.33a1,1,0,0,1,1,1.75l-11.2,6.32A1,1,0,0,1,167.06,173.71Z" fill="#093f68"/><path d="M178.26,173.71a1,1,0,0,1-.49-.13l-11.21-6.32a1,1,0,0,1,1-1.75l11.2,6.33a1,1,0,0,1-.49,1.87Z" fill="#093f68"/><path d="M193.83,177a1,1,0,0,1-1-1V163.11a1,1,0,0,1,2,0V176A1,1,0,0,1,193.83,177Z" fill="#093f68"/><path d="M188.23,173.71a1,1,0,0,1-.88-.51,1,1,0,0,1,.38-1.36l11.21-6.33a1,1,0,0,1,1,1.75l-11.2,6.32A1,1,0,0,1,188.23,173.71Z" fill="#093f68"/><path d="M199.43,173.71a1,1,0,0,1-.49-.13l-11.21-6.32a1,1,0,1,1,1-1.75l11.2,6.33a1,1,0,0,1-.49,1.87Z" fill="#093f68"/><path d="M215,177a1,1,0,0,1-1-1V163.11a1,1,0,0,1,2,0V176A1,1,0,0,1,215,177Z" fill="#093f68"/><path d="M209.4,173.71a1,1,0,0,1-.88-.51,1,1,0,0,1,.38-1.36l11.21-6.33a1,1,0,0,1,1.36.38,1,1,0,0,1-.38,1.37l-11.2,6.32A1,1,0,0,1,209.4,173.71Z" fill="#093f68"/><path d="M220.6,173.71a1,1,0,0,1-.49-.13l-11.21-6.32a1,1,0,0,1,1-1.75l11.2,6.33a1,1,0,0,1,.38,1.36A1,1,0,0,1,220.6,173.71Z" fill="#093f68"/><path d="M200.68,231.28a5.07,5.07,0,1,1,5.07-5.07A5.08,5.08,0,0,1,200.68,231.28Zm0-8.13a3.07,3.07,0,1,0,3.07,3.06A3.07,3.07,0,0,0,200.68,223.15Z" fill="#093f68"/><path d="M211.51,72.15H195.94a1,1,0,0,1,0-2h15.57a1,1,0,0,1,0,2Z" fill="#093f68"/><path d="M192.28,72.15h-2.43a1,1,0,0,1,0-2h2.43a1,1,0,0,1,0,2Z" fill="#093f68"/><path d="M161.86,119.06a1,1,0,0,1-.63-.22l-5.7-4.59a1,1,0,0,1-.15-1.41,1,1,0,0,1,1.4-.15l5.7,4.59a1,1,0,0,1,.16,1.41A1,1,0,0,1,161.86,119.06Z" fill="#dfeaef"/><path d="M159,125.29a.83.83,0,0,1-.22,0l-7.51-1.65a1,1,0,1,1,.43-2l7.51,1.65a1,1,0,0,1-.21,2Z" fill="#dfeaef"/><path d="M152.51,135.17a1,1,0,0,1-.3-2l6.5-2a1,1,0,0,1,1.25.66,1,1,0,0,1-.66,1.25l-6.49,2A1,1,0,0,1,152.51,135.17Z" fill="#dfeaef"/></g></svg>