<svg xmlns="http://www.w3.org/2000/svg" xmlns:xlink="http://www.w3.org/1999/xlink" viewBox="0 0 400 300" width="406" height="306" class="illustration styles_illustrationTablet__1DWOa"><defs><linearGradient id="linear-gradient" x1="142.34" y1="230.25" x2="113.13" y2="262.51" gradientUnits="userSpaceOnUse"><stop offset="0" stop-color="#8c6239"></stop><stop offset="1" stop-color="#fff"></stop></linearGradient><linearGradient id="linear-gradient-2" x1="257.43" y1="170.12" x2="192.18" y2="242.18" xlink:href="#linear-gradient"></linearGradient></defs><g style="isolation: isolate;"><g id="Layer_2" data-name="Layer 2"><ellipse cx="196.5" cy="225.11" rx="140.11" ry="54.12" fill="#e29d64"></ellipse><path d="M125.93,269.27l25.64-16.92-24.85-19.58L90.81,254.86C93,256.32,123.82,267.75,125.93,269.27Z" fill="url(#linear-gradient)" style="mix-blend-mode: multiply;"></path><path d="M213.62,271.72l72.44-45L202,178.51l-67.69,39.32C140.37,222,207.68,267.43,213.62,271.72Z" fill="url(#linear-gradient-2)" style="mix-blend-mode: multiply;"></path><path d="M186.2,243.16c-.41-.56-1.75-2.86-2.19-3.39L160.8,99.69s10.13,1.38,11.49-2.18l24.63,139.24c-.28,2.12-.47,4.24-.63,6.37l-7.78,3A12.85,12.85,0,0,0,186.2,243.16Z" fill="#ece3d4"></path><path d="M184,239.76s8.68,3.36,13-3.71l-.63,24.45Z" fill="#e8ca9a"></path><path d="M196.33,260.5l.37-13.28s-2.17,3.42-7.28,1.66Z" fill="#7f252b"></path><ellipse cx="166.55" cy="98.6" rx="5.85" ry="3.3" transform="translate(-15.48 32.83) rotate(-10.76)" fill="#ece3d4"></ellipse><ellipse cx="166.55" cy="98.6" rx="5.85" ry="3.3" transform="translate(-15.48 32.83) rotate(-10.76)" opacity="0.6"></ellipse><path d="M130.46,245.95l-5-1.37.78-6S131.65,239.44,130.46,245.95Z" fill="#42210b"></path><path d="M123.72,228.39S122,248.79,122.44,249s5.23.65,5.23.29S128,240,128,240s2.39,3.94,2.5,5.91c0,0,5.69-3.24,6.75-5.84s-2.43-13.49-3.76-14.08" fill="#fdf2d6"></path><path d="M142.72,256.64l-5.61-5.95,3.65-4.63S144.19,253.57,142.72,256.64Z" fill="#42210b"></path><path d="M134.39,233l-2.62,24.47s4.23,1.43,5,1.32a15.87,15.87,0,0,0,3-1.43l.94-8.17s2.43,2.43,2,7.39c0-.34,3.87-1.62,4.37-1.85a29,29,0,0,0,4.48-2.44c1.49-1,7-5.59,4-7.41-2.52-1.54-10.72-.81-10.72-.81L144.78,234" fill="#fdf2d6"></path><path d="M124.6,145.37a.58.58,0,0,0-.59-.71,18.82,18.82,0,0,1,2.75-6l23.69-2.79S155.21,152.79,157,182c1.42,22.62-9.68,56.26-9.68,56.26s-11.49,2.91-17-2.76l.22-4.87a58,58,0,0,1-8.54-.7C119.19,201.8,121.35,173.32,124.6,145.37Z" fill="#ba5038"></path><path d="M129.7,234.16l3-21c.95-6.68,2.4-13.55,2.44-20.32s-2.29-12.84-3.41-19.3a75.55,75.55,0,0,1-.81-18.93c.12-1.47,2.23-1.48,2.12,0a73.46,73.46,0,0,0,1.29,21.13c1.32,6.21,3.17,12.09,2.9,18.55s-1.56,13-2.47,19.48l-3,21C131.53,236.24,129.49,235.61,129.7,234.16Z" fill="#42210b"></path><path d="M154.62,126.66c.73-.8,1.48-1.58,2.23-2.35l.06-.09a66.13,66.13,0,0,1,6.49-6.86l3-6.49v0a1,1,0,0,1,1.67-.3c.79.68.07,3.56-.23,4.41s.24-.68-.11.32c-.06.17-.24.93-.39,1a14.08,14.08,0,0,1,5.81-1.5,1.07,1.07,0,0,1,.91,1.59,3,3,0,0,1-.87.82l.22,0c1.4-.19,2.47.41,2.06,2a1.05,1.05,0,0,1-.19.38.89.89,0,0,1-.65.63l.07.18a1.38,1.38,0,0,1,.54,1.14,1.56,1.56,0,0,1-1.7,1.41l-.51.08c.21,1.41-1.06,2.16-2.41,2.4-1.52.27-3,.4-4.52.66l-2.83,3.55c-.76,1-1.84,3.12-3.14,3.37s-1.9-1.79-.56-2c-.28.05.18-.27.28-.41.25-.33.51-.64.78-1a9.35,9.35,0,0,1-2.55,2.26,1.07,1.07,0,0,1-1.55-1.19,14,14,0,0,1,.89-2.35,1.15,1.15,0,0,1-.4-.61l-.11.1a1.08,1.08,0,0,1-.7.24l-.16.17C155.2,129.17,153.71,127.67,154.62,126.66Z" fill="#fe6162"></path><path d="M134.33,101.39s13.66-1.24,16.88,6,1.63,17.46,1.63,17.46l8.33-6.36s4.1,5,4.6,8-7.78,12.24-16.09,14.3-23.34,2.66-25.7-2.36-2.53-20.13.23-25.95S134.33,101.39,134.33,101.39Z" fill="#fab965"></path><path d="M146.44,88.64s.69,10-2.36,12.34S136,99.47,136,99.47" fill="#fe6162"></path><path d="M143.94,83.62a9.73,9.73,0,0,1,3,4c2.52,6.31-4.27,14.15-10.33,15.37l-3.15-1s-4.16-6.13-4.16-9.57a12.68,12.68,0,0,1,3.55-8.92C136.1,80.51,140.73,81.1,143.94,83.62Z" fill="#1a1a1a"></path><path d="M136.64,103s11.36,32.72,2.8,38.14-25.26.48-22-7.63,16-31.5,16-31.5" fill="#1a1a1a"></path><polyline points="198.65 27.3 205.87 25.64 285.67 71.31 284.35 227.5 281.37 229.15" fill="#ba5038"></polyline><polygon points="198.65 27.3 197.74 181.42 281.37 229.15 281.37 73.77 198.65 27.3" fill="#fab965"></polygon><polygon points="201.6 35.65 201.6 179.24 277.57 221.04 277.57 78.33 201.6 35.65" fill="#fdf2d6"></polygon><polyline points="268.79 104.32 268.79 197.52 211.91 167.99 211.91 89.24" fill="#e8c880"></polyline><path d="M207.67,66.74l61.89,32.93s2.37,66.73-13.94,84.37L200,154.3S219.18,108.27,207.67,66.74Z" fill="#ece3d4"></path><line x1="217.31" y1="88.92" x2="261.92" y2="110.42" fill="none" stroke="#fff" stroke-miterlimit="10"></line><line x1="217.31" y1="98.42" x2="261.92" y2="119.92" fill="none" stroke="#fff" stroke-miterlimit="10"></line><line x1="217.31" y1="108.74" x2="261.92" y2="130.24" fill="none" stroke="#fff" stroke-miterlimit="10"></line><line x1="217.31" y1="118.24" x2="261.92" y2="139.74" fill="none" stroke="#fff" stroke-miterlimit="10"></line><line x1="217.31" y1="125.74" x2="261.92" y2="147.24" fill="none" stroke="#fff" stroke-miterlimit="10"></line><line x1="217.31" y1="134.7" x2="261.92" y2="156.2" fill="none" stroke="#fff" stroke-miterlimit="10"></line><path d="M214.39,83.44l-4.84,7.3c-.69-.72-1.36-1.46-2-2.24-1.22-1.5-3.59.36-2.36,1.87a39.75,39.75,0,0,0,3.49,3.74,1.34,1.34,0,0,0,1.39.21,1.28,1.28,0,0,0,1.13-.63l5.6-8.45C217.87,83.64,215.47,81.82,214.39,83.44Z" fill="#7f252b"></path><path d="M213.62,97.45l-4.84,7.3c-.69-.72-1.36-1.46-2-2.24-1.22-1.5-3.59.36-2.36,1.87a39.75,39.75,0,0,0,3.49,3.74,1.34,1.34,0,0,0,1.39.21,1.28,1.28,0,0,0,1.13-.63l5.6-8.45C217.1,97.64,214.69,95.82,213.62,97.45Z" fill="#7f252b"></path><path d="M213.62,111.45l-4.84,7.3c-.69-.72-1.36-1.46-2-2.24-1.22-1.5-3.59.36-2.36,1.87a39.75,39.75,0,0,0,3.49,3.74,1.34,1.34,0,0,0,1.39.21,1.28,1.28,0,0,0,1.13-.63l5.6-8.45C217.1,111.64,214.69,109.83,213.62,111.45Z" fill="#7f252b"></path></g></g></svg>