<?xml version="1.0" encoding="iso-8859-1"?>
<!-- Generator: Adobe Illustrator 18.1.1, SVG Export Plug-In . SVG Version: 6.00 Build 0)  -->
<svg version="1.1" id="Capa_1" xmlns="http://www.w3.org/2000/svg" xmlns:xlink="http://www.w3.org/1999/xlink" x="0px" y="0px"
	 viewBox="0 0 199.101 199.101" style="enable-background:new 0 0 199.101 199.101;" xml:space="preserve">
<g>
	<g>
		<path style="fill:#010002;" d="M7.554,170.56l33.731-58.779l12.562,7.172c1.958,1.12,4.842,0.315,5.955-1.614
			c0.469-0.82,0.687-1.789,0.573-2.312l-0.172-35.721c-0.007-2.333-2.065-4.313-4.502-4.313c-0.73,0-1.446,0.197-2.061,0.558
			L22.674,93.625c-1.331,0.787-2.154,2.237-2.154,3.776c0,1.56,0.845,3.01,2.197,3.786l12.791,7.29L0.729,169.075
			c-0.727,1.256-0.916,2.72-0.54,4.137c0.379,1.396,1.288,2.562,2.541,3.296c0.823,0.469,1.768,0.719,2.67,0.719
			c0.125,0,0.261,0,0.404-0.014l74.766-0.075l-0.007-6.657L7.554,170.56z M29.478,97.376l24.079-14.068l0.165,27.908L29.478,97.376z
			"/>
		<path style="fill:#010002;" d="M198.256,166.759l-37.453-64.831l-5.783,3.328l36.526,63.206l-67.751,0.011l-0.043-14.448
			c0-2.412-1.954-4.366-4.363-4.366c-0.938,0-1.89,0.308-2.301,0.669l-30.889,17.941c-1.292,0.755-2.086,2.205-2.086,3.79
			c0,1.578,0.816,3.021,2.112,3.776l31.086,17.83c0.673,0.379,1.417,0.58,2.176,0.58c0.752,0,1.503-0.2,2.18-0.591
			c1.349-0.777,2.183-2.226,2.183-3.79l-0.039-14.72l69.859-0.011c1.439,0,2.799-0.565,3.837-1.582
			c1.031-1.024,1.596-2.401,1.596-3.862C199.112,168.549,198.761,167.382,198.256,166.759z M117.181,185.892L93.002,172.02
			l24.1-14.033L117.181,185.892z"/>
		<path style="fill:#010002;" d="M97.827,12.743l33.795,58.718l-12.522,7.247c-1.002,0.591-1.729,1.528-2.033,2.67
			c-0.293,1.134-0.132,2.301,0.44,3.289c0.458,0.809,1.217,1.5,1.714,1.657l30.95,17.841c0.623,0.351,1.328,0.533,2.047,0.533
			c2.441,0,4.502-1.976,4.502-4.323l-0.036-35.878c-0.014-1.532-0.848-2.97-2.19-3.747c-1.303-0.744-3.053-0.748-4.373,0
			l-12.73,7.387L102.536,7.583c-0.716-1.263-1.89-2.165-3.318-2.559c-1.381-0.351-2.881-0.143-4.112,0.558
			c-0.991,0.58-1.807,1.446-2.104,2.205L55.489,72.564l5.755,3.364L97.827,12.743z M125.863,82.499l24.161-13.979l0.032,27.886
			L125.863,82.499z"/>
	</g>
</g>
<g>
</g>
<g>
</g>
<g>
</g>
<g>
</g>
<g>
</g>
<g>
</g>
<g>
</g>
<g>
</g>
<g>
</g>
<g>
</g>
<g>
</g>
<g>
</g>
<g>
</g>
<g>
</g>
<g>
</g>
</svg>
