<?xml version="1.0" encoding="iso-8859-1"?>
<!-- Generator: Adobe Illustrator 19.0.0, SVG Export Plug-In . SVG Version: 6.00 Build 0)  -->
<svg version="1.1" id="Capa_1" xmlns="http://www.w3.org/2000/svg" xmlns:xlink="http://www.w3.org/1999/xlink" x="0px" y="0px"
	 viewBox="0 0 60 60" style="enable-background:new 0 0 60 60;" xml:space="preserve">
<g>
	<g>
		<path fill="#673119" d="M19,4h-4V1c0-0.6-0.4-1-1-1H6C5.4,0,5,0.4,5,1v3H1C0.4,4,0,4.4,0,5v50c0,0.6,0.4,1,1,1h4v3c0,0.6,0.4,1,1,1h8
			c0.6,0,1-0.4,1-1v-3h4c0.6,0,1-0.4,1-1V5C20,4.4,19.6,4,19,4z M18,54h-4h-4v2h3v2H7v-3c0-0.6-0.4-1-1-1H2V6h4h4V4H7V2h6v3
			c0,0.6,0.4,1,1,1h4V54z"/>
		<rect fill="#673119" x="4" y="8" width="2" height="32"/>
		<rect fill="#673119" x="4" y="42" width="2" height="6"/>
		<rect fill="#673119" x="22" y="54" width="34" height="2"/>
		<rect fill="#673119" x="22" y="4" width="34" height="2"/>
		<path fill="#673119" d="M54,41V19c0-5.5-4.5-10-10-10H22v2h22c4.4,0,8,3.6,8,8v22c0,4.4-3.6,8-8,8H22v2h22C49.5,51,54,46.5,54,41z"/>
		<rect fill="#673119" x="44" y="32" width="2" height="2"/>
		<rect fill="#673119" x="40" y="25" width="2" height="2"/>
		<rect fill="#673119" x="45" y="19" width="2" height="2"/>
		<rect fill="#673119" x="39" y="15" width="2" height="2"/>
		<rect fill="#673119" x="26" y="15" width="2" height="2"/>
		<rect fill="#673119" x="32" y="21" width="2" height="2"/>
		<rect fill="#673119" x="25" y="26" width="2" height="2"/>
		<rect fill="#673119" x="33" y="30" width="2" height="2"/>
		<rect fill="#673119" x="36" y="38" width="2" height="2"/>
		<rect fill="#673119" x="44" y="42" width="2" height="2"/>
		<rect fill="#673119" x="28" y="44" width="2" height="2"/>
		<rect fill="#673119" x="26" y="37" width="2" height="2"/>
		<rect fill="#673119" x="58" y="54" width="2" height="2"/>
		<rect fill="#673119" x="58" y="4" width="2" height="2"/>
	</g>
</g>
<g>
</g>
<g>
</g>
<g>
</g>
<g>
</g>
<g>
</g>
<g>
</g>
<g>
</g>
<g>
</g>
<g>
</g>
<g>
</g>
<g>
</g>
<g>
</g>
<g>
</g>
<g>
</g>
<g>
</g>
</svg>
