<svg xmlns="http://www.w3.org/2000/svg" xmlns:xlink="http://www.w3.org/1999/xlink" id="Layer_1" data-name="Layer 1" class="illustration styles_illustrationTablet__1DWOa" viewBox="58.3 68.85 309.53 198.74"><defs><linearGradient id="linear-gradient" x1="170.88" y1="239.37" x2="283.27" y2="126.98" gradientUnits="userSpaceOnUse"><stop offset="0" stop-opacity="0"/><stop offset="1" stop-color="#999"/></linearGradient><linearGradient id="linear-gradient-2" x1="94.07" y1="202.59" x2="130.39" y2="179.44" gradientUnits="userSpaceOnUse"><stop offset="0" stop-opacity="0"/><stop offset="1" stop-color="#f15a24"/></linearGradient><linearGradient id="linear-gradient-3" x1="161.09" y1="153.92" x2="182.88" y2="133.95" xlink:href="#linear-gradient-2"/></defs><title>1</title><polygon points="58.3 193.54 187.79 267.59 367.83 163.64 237.5 90.08 58.3 193.54" fill="#77b844"/><polygon points="111.87 224.14 291.18 120.49 367.64 163.64 187.6 267.59 111.87 224.14" fill="#ddd"/><path d="M271.67,131.4c4.79,1.44,16.81,7.33,19.92,24.13l-21.85-14.08Z" fill="#673119"/><polyline points="232.34 168.85 135.06 231.13 169.86 248.89 263.44 190.87" fill="url(#linear-gradient)"/><path d="M271.67,131.4c4.79,1.44,16.81,7.33,19.92,24.13l-21.85-14.08Z" fill="#1d2728" opacity="0.55"/><path d="M252.71,193.39s-6-1.21-6-3,6.65-2.46,6.65-2.46" fill="#1d2728"/><ellipse cx="255.06" cy="175.86" rx="16.81" ry="9.63" transform="translate(-24.77 308.82) rotate(-60)" fill="#1d2728"/><ellipse cx="261.11" cy="178.83" rx="16.81" ry="9.63" transform="translate(-24.32 315.54) rotate(-60)" fill="#707473"/><ellipse cx="261.58" cy="179.62" rx="9.24" ry="5.29" transform="translate(-24.77 316.35) rotate(-60)" fill="#ddd"/><path d="M288.6,168s3.51-9.1,2.79-12.13-7.32-13.74-19.63-14.63-34.37,20.16-34.37,20.16-4.72,21.29-11.14,25.28-16.91,5.41-16.91,5.41,6.91,11.26,14.94,10,62.82-33.37,62.82-33.37" fill="#673119"/><path d="M209.34,192.11c-1.2.12,4.33,7.53,13.18,3.57s17.32-9,18.64-16.19-3.77-18.07-3.77-18.07l-12-3.58,1.3,22.78S222.33,190.79,209.34,192.11Z" fill="#673119"/><path d="M209.34,192.11c-1.2.12,7.09,9.46,15.94,5.51s16.1-10.35,15.88-18.12c-.2-7.27-3.77-18.07-3.77-18.07l-12-3.58,1.3,22.78S222.33,190.79,209.34,192.11Z" fill="#1d2728" opacity="0.55"/><path d="M284.75,152.05c-4.52-4.81-11.93-4.77-17.8-2.81-12.65,4.23-27.11,17-23.81,31.77a46.87,46.87,0,0,0,1.89,4.9l4.61.78,39-18.73,1.32-5.79C290.53,159.49,286.49,153.91,284.75,152.05Z" fill="#673119"/><path d="M284.75,152.05c-4.52-4.81-11.93-4.77-17.8-2.81-12.65,4.23-27.11,17-23.81,31.77a46.87,46.87,0,0,0,1.89,4.9l4.61.78,39-18.73,1.32-5.79C290.53,159.49,286.49,153.91,284.75,152.05Z" fill="#1d2728" opacity="0.55"/><path d="M288,157a.72.72,0,0,1-.18-.17c-12.36-17.32-39.7,4.32-40.29,20.3,0,.86,1.21,10,1.61,9.83l39.47-19,1.32-5.79A31.31,31.31,0,0,0,288,157Z" fill="#673119"/><path d="M288,157a.72.72,0,0,1-.18-.17c-12.36-17.32-39.7,4.32-40.29,20.3,0,.86,1.21,10,1.61,9.83l39.47-19,1.32-5.79A31.31,31.31,0,0,0,288,157Z" fill="#fff" opacity="0.4"/><path d="M247.52,153.52,275,140.62s2.14-2.49-.46-6.77l-28.27,13.41Z" fill="#394b4c"/><path d="M244.6,137.71c3.6-1.8,7.06-3.88,10.7-5.61,2.9-1.38,6.32-3.05,9.6-3,3.81.11,11.44,2.7,10,7.84-.66,2.26-5.12,4.07-7.07,5.11-2.81,1.49-5.69,2.85-8.58,4.17q-5.43,2.48-11,4.75" fill="#1d2728"/><path d="M214.89,196.34l.21,1.47s1,1.37,4.46,1a24.91,24.91,0,0,0,7.48-2.49c.44-.17,4.2-1.44,4.6-1.75s0-1.49,0-1.49" fill="#663d29"/><path d="M224.47,186.83s-1,4.44-2.16,5.11-4.43,2.6-6.73,3.66,1.64,2.89,6.06,1.54a85.23,85.23,0,0,0,10-4l-.73-7.34" fill="#663d29"/><path d="M227.57,190.06a5.07,5.07,0,0,0-3.63-.92c-.27,0-.28.47,0,.43a4.72,4.72,0,0,1,3.41.86C227.57,190.6,227.79,190.22,227.57,190.06Z" fill="#ddd"/><path d="M227,191.26a4.91,4.91,0,0,0-3.51-.92c-.27,0-.28.47,0,.43a4.55,4.55,0,0,1,3.29.86C227,191.8,227.2,191.42,227,191.26Z" fill="#ddd"/><path d="M202.11,192.62l.21,1.47s1,1.37,4.46,1a24.91,24.91,0,0,0,7.48-2.49c.44-.17,4.2-1.44,4.6-1.75s0-1.49,0-1.49" fill="#663d29"/><path d="M211.69,183.11s-1,4.44-2.16,5.11-4.43,2.6-6.73,3.66,1.64,2.89,6.06,1.54a85.23,85.23,0,0,0,10-4l-.73-7.34" fill="#663d29"/><path d="M214.79,186.34a5.07,5.07,0,0,0-3.63-.92c-.27,0-.28.47,0,.43a4.72,4.72,0,0,1,3.41.86C214.8,186.87,215,186.5,214.79,186.34Z" fill="#ddd"/><path d="M214.2,187.54a4.91,4.91,0,0,0-3.51-.92c-.27,0-.28.47,0,.43a4.55,4.55,0,0,1,3.29.86C214.21,188.08,214.42,187.7,214.2,187.54Z" fill="#ddd"/><path d="M234.84,138.18s2.81,3.06-1.53,9.23-12.95,15-12.95,15l-1.12,19.43a10,10,0,0,1-11.11.51S206,158.23,207.27,155s18.37-18.62,18.37-18.62" fill="#1e7000"/><path d="M227.08,143.3s-10.33-27.84-5.65-33.13,13.57-7.32,19.31-1.88,10.24,32.9,9.57,36.07S234.4,147.22,227.08,143.3Z" fill="#f15b21"/><path d="M250.3,144.35s2.81,3.06-1.53,9.23-15.35,10.95-15.35,10.95l2,24.18a12.54,12.54,0,0,1-12,0s-4.2-26.06-2.9-29.25S236.4,142.6,236.4,142.6" fill="#1e7000"/><path d="M100.72,218.39l19.26-29-8.75-7.55-41.71,16.4C75.62,202.43,94.17,214.84,100.72,218.39Z" fill="url(#linear-gradient-2)"/><path d="M166.66,167.46l14.72-22.19-6.69-5.77L142.81,152C147.48,155.26,161.65,164.75,166.66,167.46Z" fill="url(#linear-gradient-3)"/><path d="M182.93,144.17v-36H175.1v36.29C177.81,145.27,180.66,145.39,182.93,144.17Z" fill="#a83f1e"/><path d="M179.81,108.29v36.85a7.89,7.89,0,0,0,3.12-.87v-36Z" fill="#7f2b14"/><path d="M189.92,111.55c4.87-.23,11.11-2,9.28-7.41-1.08-3.21-4.4-6-6.52-8.58s-4.33-5.36-6.69-7.85c2,.08,6.93.15,8.12-1.18S185.12,74,181,69.68a2.61,2.61,0,0,0-3.53-.26c-4.85,3.86-17.24,14.14-15.51,17.1,1,1.79,3.15,2.41,5,2.57-4.46,4.47-9.54,10.05-10.05,16-.45,5.16,4.83,5.85,9.75,5.58-3.4,4.13-12.62,15.9-10.52,19.48,1.11,1.89,4.69,2.51,6.81,2.93a67.62,67.62,0,0,0,14,1.35,43,43,0,0,0,13.87-2.09,19.43,19.43,0,0,0,6.77-3.72c2.16-2,1-4.2-.45-6.25C194.72,118.8,192.32,115.17,189.92,111.55Z" fill="#228c44"/><path d="M186,87.71a42.73,42.73,0,0,1-7.39.84l20.92,17.2s.56-2-3.14-6.09S186,87.71,186,87.71Z" fill="#0d5b23"/><path d="M189.92,111.55H177.75l19.88,17.07a3,3,0,0,0,.87-3.93C197.17,122.38,189.92,111.55,189.92,111.55Z" fill="#0d5b23"/><path d="M121.33,191.1v-56.2H109.09v56.7C113.32,192.82,117.77,193,121.33,191.1Z" fill="#a83f1e"/><path d="M116.45,135v57.56a12.32,12.32,0,0,0,4.88-1.36V135Z" fill="#7f2b14"/><path d="M132.23,140.15c7.61-.37,17.35-3.1,14.5-11.58-1.69-5-6.87-9.43-10.19-13.4s-6.76-8.38-10.46-12.27c3.15.13,10.83.23,12.68-1.84s-14-19.51-20.39-26.32a4.07,4.07,0,0,0-5.52-.4c-7.58,6-26.93,22.1-24.23,26.72,1.63,2.79,4.92,3.76,7.88,4-7,7-14.9,15.71-15.7,25-.7,8.06,7.54,9.14,15.23,8.72-5.31,6.45-19.72,24.84-16.43,30.42,1.73,2.94,7.33,3.92,10.63,4.58a105.64,105.64,0,0,0,21.8,2.1c7.28-.08,14.77-.81,21.67-3.27,3.67-1.3,7.68-3.1,10.57-5.81,3.38-3.18,1.49-6.56-.7-9.76C139.73,151.47,136,145.81,132.23,140.15Z" fill="#228c44"/><path d="M126.09,102.9a66.76,66.76,0,0,1-11.54,1.31l32.68,26.87s.87-3.12-4.9-9.52S126.09,102.9,126.09,102.9Z" fill="#0d5b23"/><path d="M132.23,140.15h-19l31,26.67s3.43-2.51,1.36-6.13S132.23,140.15,132.23,140.15Z" fill="#0d5b23"/><ellipse cx="186.5" cy="138.57" rx="2.5" ry="3.88" fill="#1d2728"/><path d="M206.45,143a5.75,5.75,0,0,1,0-2.12l-20-6.15v7.76s18.09,6,18.6,5.27a39.94,39.94,0,0,0,1.77-4.24A.71.71,0,0,1,206.45,143Z" fill="#1d2728"/><ellipse cx="205.57" cy="144.23" rx="3.6" ry="2.32" transform="translate(18.2 311.42) rotate(-76.8)" fill="#1d2728"/><path d="M215.87,140.62s1.7,6.61,0,9.87-8.6,4.56-8.6,4.56l-2.14-4v-7.54Z" fill="#673119"/><path d="M215.87,140.62s1.7,6.61,0,9.87-8.6,4.56-8.6,4.56l-2.14-4v-7.54Z" fill="#1d2728" opacity="0.55"/><path d="M195.32,146.51s-2.1-6.74,0-8.41,11.83-2.18,11.83-2.18,8.55,2.62,8.72,4.7-8.34,1.9-9,3.77-1.72,6.62-1.72,6.62Z" fill="#673119"/><path d="M195.32,146.51s-2.1-6.74,0-8.41,11.83-2.18,11.83-2.18,8.55,2.62,8.72,4.7-8.34,1.9-9,3.77-1.72,6.62-1.72,6.62Z" fill="#673119"/><ellipse cx="211.84" cy="147.83" rx="2.5" ry="3.88" fill="#1d2728"/><path d="M231.3,152.21a5.75,5.75,0,0,1,0-2.12l-20-6.15v7.76s18.09,6,18.6,5.27a39.94,39.94,0,0,0,1.77-4.24A.71.71,0,0,1,231.3,152.21Z" fill="#1d2728"/><ellipse cx="230.43" cy="153.48" rx="3.6" ry="2.32" transform="translate(28.37 342.75) rotate(-76.8)" fill="#1d2728"/><path d="M237.91,131.54,224,143.5s-7.2.89-7.35,1.62,1.77.74,1.77.74-3,3.55-1.14,5.61,5.95,2.22,6.72,1.92.69-4.14,2.43-4.58l2.05-1.33s15.34-7.68,17.26-12-1.6-19.38-1.6-19.38a9.57,9.57,0,0,0-9.45,1.46C232.18,119.53,237.91,131.54,237.91,131.54Z" fill="#fee7d7"/><path d="M211.35,122.84,195.7,134.22s-7.2.89-7.35,1.62,1.77.74,1.77.74-3,3.55-1.14,5.61,5.95,2.22,6.72,1.92.69-4.14,2.43-4.58l2.05-1.33s19.43-10.22,21.35-14.5S225.28,110,225.28,110s.89-3.41-3.85.22C218.92,112.09,211.35,122.84,211.35,122.84Z" fill="#fee7d7"/><path d="M232.39,118.15l2.3,8.56s12.61-2.17,12.44-2.85-1.29-9.89-5.76-12.31S232.39,118.15,232.39,118.15Z" fill="#f15b21"/><path d="M217.82,108.32s-3,3.3-5.75,12l10.42,5.63,8-14.34A16,16,0,0,0,217.82,108.32Z" fill="#f15b21"/><path d="M229.75,108.31l3.09-.63s7-3.85,3.83-12.84-10.66-9.38-17-5.89-6.38,19.1,1.77,21.22" fill="#673119"/><path d="M217.93,100.43s.11,11.43,5.61,11.12,6.8-4.39,6.8-4.39,1-5.45-1.39-8.24C228.57,98.47,217.93,100.43,217.93,100.43Z" fill="#fde1cc"/><path d="M217.19,99.44s9.53-.56,13.35.91l.44-1.5s-10-2.35-15.9,0Z" fill="#1d2728"/><path d="M215.08,98.85s-3.6,3.23-1.17,3.81c8,1.89,16.63-2.3,16.63-2.3S225.71,96.64,215.08,98.85Z" fill="#1d2728"/><path d="M178.88,232.94s-5.84-2.29-7-3.66,3.21-27.25,11.26-27.82,11.77.5,14.26,3.93" fill="#1d2728"/><path d="M186.23,185A32.23,32.23,0,0,1,184.87,175c-.07-6-.4-12.26.51-18.32.68-4.53,2.36-10,7.91-10,9.81,0,21.78,11.64,21.78,17.06s-5.14,19.55-4,28.22c1.05,8.22,11.27,9.93,16.06,9.36,0,0-9,5.73-12.36,5.73-1.7,0-3.68-1.43-5.09-2.22-2.81-1.58-5.53-3.33-8.21-5.13-4-2.69-8.27-5.18-11.65-8.68A15.66,15.66,0,0,1,186.23,185Z" fill="#673119"/><ellipse cx="181.24" cy="215.42" rx="16.81" ry="9.63" transform="translate(-95.94 264.66) rotate(-60)" fill="#1d2728"/><ellipse cx="187.28" cy="218.39" rx="16.81" ry="9.63" transform="translate(-95.49 271.39) rotate(-60)" fill="#707473"/><ellipse cx="187.75" cy="219.18" rx="9.24" ry="5.29" transform="translate(-95.94 272.19) rotate(-60)" fill="#ddd"/><path d="M193.18,199.51l-6.52,17.7s.22,2.64,2.71,1.82l8.06-19Z" fill="#1d2728"/><path d="M191.28,186.87a19,19,0,0,0-11.1,4.09,14.28,14.28,0,0,0-1.36,1.3,31.2,31.2,0,0,0-5.84,10.6,3.15,3.15,0,0,0,.89,3.19,13.5,13.5,0,0,0,7,3.48,3.48,3.48,0,0,0,3.58-1.73c1.4-2.56,4.64-6.87,10.45-6.24,8.2.88,11.82,1.57,11.91,1.57s1.3-6.05-6.07-14.31A23.83,23.83,0,0,0,191.28,186.87Z" fill="#673119"/><path d="M191.28,186.87a19,19,0,0,0-11.1,4.09,14.28,14.28,0,0,0-1.36,1.3,31.2,31.2,0,0,0-5.84,10.6,3.15,3.15,0,0,0,.89,3.19,13.5,13.5,0,0,0,7,3.48,3.48,3.48,0,0,0,3.58-1.73c1.4-2.56,4.64-6.87,10.45-6.24,8.2.88,11.82,1.57,11.91,1.57s1.06-8-6.07-14.31A23.83,23.83,0,0,0,191.28,186.87Z" fill="#1d2728" opacity="0.55"/><circle cx="195.32" cy="162.94" r="5.43" transform="translate(-58.05 140.49) rotate(-34.77)" fill="#1d2728" opacity="0.55"/><path d="M226,139.51a241.87,241.87,0,0,1-5.76-24.09c-.12-.63-1.08-.36-1,.27a241.86,241.86,0,0,0,5.76,24.09A.5.5,0,0,0,226,139.51Z" fill="#a83f1e"/><path d="M245.68,124.38l-10.25,2.12q-1.72-5.12-3-10.36a.5.5,0,0,0-1,.27q1.35,5.47,3.17,10.81a.51.51,0,0,0,.62.35L246,125.35C246.58,125.22,246.31,124.25,245.68,124.38Z" fill="#a83f1e"/></svg>