<?xml version="1.0" encoding="iso-8859-1"?>
<!-- Generator: Adobe Illustrator 19.0.0, SVG Export Plug-In . SVG Version: 6.00 Build 0)  -->
<svg version="1.1" id="Layer_1" xmlns="http://www.w3.org/2000/svg" xmlns:xlink="http://www.w3.org/1999/xlink" x="0px" y="0px"
	 viewBox="0 0 512 512" style="enable-background:new 0 0 512 512;" xml:space="preserve">
<rect x="8.477" y="58.896" style="fill:#B27214;" width="495.049" height="394.199"/>
<rect x="46.373" y="96.804" style="fill:#B8E6FF;" width="419.245" height="318.395"/>
<path style="fill:#9AD14B;" d="M46.381,293.839c22.593-6.069,46.362-9.302,70.876-9.302c63.701,0,122.288,21.845,168.693,58.46
	c28.773,22.703,64.296,35.371,100.947,35.472c0.255,0.001,0.511,0.001,0.766,0.001c27.091,0,53.267-3.956,77.963-11.314V415.2
	H46.381V293.839z"/>
<path style="fill:#2BA5F7;" d="M269.566,415.2c25.742-25.742,97.404-38.03,97.404-38.03l-0.006,0.002
	c-16.309-2.08-32.189-6.646-47.096-13.461l0.006-0.001c-145.752-3.446-188.195,51.49-188.195,51.49H269.566z"/>
<circle style="fill:#9AD14B;" cx="118.866" cy="224.87" r="26.317"/>
<circle style="fill:#F7B239;" cx="378.885" cy="173.987" r="36.619"/>
<g>
	<path style="fill:#333333;" d="M503.523,50.424H8.477C3.795,50.424,0,54.22,0,58.901v394.198c0,4.681,3.795,8.477,8.477,8.477
		h495.047c4.683,0,8.477-3.795,8.477-8.477V58.901C512,54.22,508.205,50.424,503.523,50.424z M457.148,360.75
		c-22.546,6.13-45.888,9.245-69.485,9.245l-0.743-0.001c-34.345-0.095-68.339-12.045-95.72-33.65
		c-47.338-37.35-103.799-58.012-163.854-60.094v-17.633c15.101-3.795,26.317-17.482,26.317-33.745
		c0-19.186-15.608-34.794-34.794-34.794s-34.794,15.608-34.794,34.794c0,16.263,11.216,29.95,26.317,33.745v17.537
		c-18.771,0.452-37.382,2.753-55.541,6.868V105.276h402.295V360.75H457.148z M118.87,242.713c-9.837,0-17.841-8.003-17.841-17.841
		c0-9.837,8.003-17.841,17.841-17.841s17.841,8.003,17.841,17.841C136.711,234.709,128.708,242.713,118.87,242.713z M54.852,300.434
		c20.316-4.92,41.275-7.419,62.405-7.419c59.965,0,116.482,19.585,163.442,56.638c2.529,1.996,5.114,3.909,7.741,5.755
		c-106.191,3.796-149.514,39.992-160.531,51.317H54.852V300.434z M306.79,372.031c3.677,0,7.447,0.046,11.272,0.125
		c4.013,1.778,8.089,3.401,12.218,4.867c-1.57,0.443-3.161,0.903-4.776,1.383c-27.31,8.127-47.212,17.645-59.273,28.315H154.791
		C176.483,392.424,222.24,372.031,306.79,372.031z M330.164,394.709c17.49-5.216,32.922-8.208,37.113-8.981
		c6.499,0.783,13.043,1.199,19.601,1.217l0.784,0.001c23.553,0,46.873-2.917,69.485-8.667v28.443H297.865
		C306.817,402.485,317.644,398.444,330.164,394.709z M462.113,88.323H49.887L28.942,67.378h454.117L462.113,88.323z M37.899,100.311
		V411.69l-20.945,20.945V79.366L37.899,100.311z M49.887,423.677h412.226l20.945,20.945H28.94L49.887,423.677z M474.101,411.689
		V100.311l20.945-20.945v353.268L474.101,411.689z"/>
	<path style="fill:#333333;" d="M378.885,219.083c24.866,0,45.096-20.23,45.096-45.096s-20.23-45.096-45.096-45.096
		c-24.866,0-45.096,20.23-45.096,45.096C333.789,198.853,354.019,219.083,378.885,219.083z M378.885,145.845
		c15.518,0,28.143,12.625,28.143,28.143s-12.625,28.143-28.143,28.143s-28.143-12.625-28.143-28.143
		C350.742,158.469,363.367,145.845,378.885,145.845z"/>
	<path style="fill:#333333;" d="M410.013,260.128c-7.074,0-13.516,2.757-18.31,7.252c-4.793-4.495-11.236-7.252-18.31-7.252
		c-4.683,0-8.477,3.795-8.477,8.477c0,4.681,3.794,8.477,8.477,8.477c5.422,0,9.833,4.411,9.833,9.833
		c0,4.681,3.794,8.477,8.477,8.477s8.477-3.795,8.477-8.477c0-5.422,4.411-9.833,9.833-9.833c4.682,0,8.477-3.795,8.477-8.477
		C418.49,263.923,414.696,260.128,410.013,260.128z"/>
</g>
<g>
</g>
<g>
</g>
<g>
</g>
<g>
</g>
<g>
</g>
<g>
</g>
<g>
</g>
<g>
</g>
<g>
</g>
<g>
</g>
<g>
</g>
<g>
</g>
<g>
</g>
<g>
</g>
<g>
</g>
</svg>
