<svg id="Layer_1" data-name="Layer 1" xmlns="http://www.w3.org/2000/svg" xmlns:xlink="http://www.w3.org/1999/xlink" viewBox="0 0 612.52 514.03" width="406" height="306" class="illustration styles_illustrationTablet__1DWOa"><defs><linearGradient id="linear-gradient" x1="442.46" y1="90.13" x2="107.72" y2="603.61" gradientUnits="userSpaceOnUse"><stop offset="0" stop-color="#010101" stop-opacity="0"></stop><stop offset="0.95" stop-color="#010101"></stop></linearGradient><linearGradient id="linear-gradient-2" x1="478.5" y1="264.48" x2="503.42" y2="371.18" xlink:href="#linear-gradient"></linearGradient><linearGradient id="linear-gradient-3" x1="297.75" y1="185.58" x2="264.17" y2="483.49" xlink:href="#linear-gradient"></linearGradient><linearGradient id="linear-gradient-4" x1="289.82" y1="169.23" x2="275.38" y2="279.72" gradientUnits="userSpaceOnUse"><stop offset="0" stop-color="#fff" stop-opacity="0"></stop><stop offset="0.95" stop-color="#fff"></stop></linearGradient><linearGradient id="linear-gradient-5" x1="115.89" y1="170.54" x2="452.9" y2="170.54" xlink:href="#linear-gradient"></linearGradient><linearGradient id="linear-gradient-6" x1="140.46" y1="154.11" x2="172.77" y2="154.11" xlink:href="#linear-gradient-4"></linearGradient><linearGradient id="linear-gradient-7" x1="173.73" y1="157.28" x2="235.05" y2="157.28" xlink:href="#linear-gradient-4"></linearGradient><linearGradient id="linear-gradient-8" x1="217.97" y1="167.18" x2="342.24" y2="167.18" xlink:href="#linear-gradient-4"></linearGradient><linearGradient id="linear-gradient-9" x1="306.64" y1="156.91" x2="357.15" y2="156.91" xlink:href="#linear-gradient-4"></linearGradient><linearGradient id="linear-gradient-10" x1="234.36" y1="131.58" x2="329.64" y2="131.58" xlink:href="#linear-gradient-4"></linearGradient><linearGradient id="linear-gradient-11" x1="234.36" y1="142.41" x2="306.64" y2="142.41" xlink:href="#linear-gradient-4"></linearGradient><linearGradient id="linear-gradient-12" x1="298.67" y1="105.5" x2="275.2" y2="139.45" xlink:href="#linear-gradient-4"></linearGradient><linearGradient id="linear-gradient-13" x1="340.54" y1="195.7" x2="188.33" y2="347.37" xlink:href="#linear-gradient-4"></linearGradient><linearGradient id="linear-gradient-14" x1="352.3" y1="225.93" x2="188.04" y2="389.13" xlink:href="#linear-gradient-4"></linearGradient><linearGradient id="linear-gradient-15" x1="182.44" y1="233.11" x2="392.46" y2="663.02" xlink:href="#linear-gradient"></linearGradient><linearGradient id="linear-gradient-16" x1="140.18" y1="237.26" x2="333.73" y2="527.59" gradientTransform="translate(10.02 -5.99) rotate(1.59)" xlink:href="#linear-gradient"></linearGradient><linearGradient id="linear-gradient-17" x1="195.14" y1="324.47" x2="354.39" y2="597.46" gradientTransform="translate(10.13 -5.88) rotate(1.59)" xlink:href="#linear-gradient"></linearGradient><linearGradient id="linear-gradient-18" x1="158.6" y1="356.06" x2="273.07" y2="356.06" gradientTransform="translate(9.98 -5.86) rotate(1.59)" xlink:href="#linear-gradient"></linearGradient><linearGradient id="linear-gradient-19" x1="177.63" y1="351.89" x2="259.83" y2="351.89" gradientTransform="translate(9.87 -5.95) rotate(1.59)" xlink:href="#linear-gradient"></linearGradient><linearGradient id="linear-gradient-20" x1="198.57" y1="348.68" x2="256.73" y2="348.68" gradientTransform="translate(9.78 -6.2) rotate(1.59)" xlink:href="#linear-gradient"></linearGradient><linearGradient id="linear-gradient-21" x1="342.24" y1="265.39" x2="375.31" y2="265.39" xlink:href="#linear-gradient"></linearGradient><linearGradient id="linear-gradient-22" x1="141.09" y1="172.06" x2="130.61" y2="284" xlink:href="#linear-gradient"></linearGradient><linearGradient id="linear-gradient-23" x1="358.15" y1="358.49" x2="382.52" y2="358.49" xlink:href="#linear-gradient"></linearGradient><linearGradient id="linear-gradient-24" x1="367.93" y1="167.85" x2="429.58" y2="167.85" xlink:href="#linear-gradient-4"></linearGradient><linearGradient id="linear-gradient-25" x1="540.96" y1="251.87" x2="376.3" y2="371.75" xlink:href="#linear-gradient"></linearGradient></defs><title>camera 1</title><path d="M64.36,161.59c-28.89,24.79-53.23,60.24-46,96.52,7.09,35.67,42.49,61.53,50.45,97,7.23,32.21-9.44,67.14,2.66,98,9.42,24,34.28,39.58,59.44,49.1C183,522,243,522.44,295.51,503.52c55.47-20,103-60.61,161.76-68.45,24.27-3.23,48.91-.58,73.39.49,32.13,1.39,69.62-2.62,87-28.23,9.44-13.9,10.65-31.25,11.33-47.76,1-24.49,1.43-49.38-5.26-73.06-11.06-39.15-41.33-76.45-31.53-115.89,4.73-19.08,18.65-35.8,20.18-55.35,1.94-24.73-16.58-46.91-37.62-61.68a181.7,181.7,0,0,0-87.51-31.81c-58.58-5.28-116.18,5.74-172.92-9.56-96.42-26-163.16,9.94-198.25,46.58C97.13,78.6,85.79,143.2,64.36,161.59Z" transform="translate(-17.06 -3.35)" fill="#521e09" opacity="0.24" style="isolation: isolate;"></path><polygon points="312.81 42.51 503.69 83.44 463.87 244.75 274.92 202.34 312.81 42.51" fill="#fff"></polygon><rect x="324.28" y="81.56" width="169.54" height="98.04" transform="translate(22.75 -91.94) rotate(12.99)" fill="#521e09" opacity="0.24" style="isolation: isolate;"></rect><path d="M329.87,45.86,342,49.05l36.83,98s65,4.33,68.25,5.95,33,2.71,50.92,23.84l-17,71.22-41.47-7.85L358.75,204.5Z" transform="translate(-17.06 -3.35)" fill="url(#linear-gradient)"></path><polygon points="116.36 61.95 305.94 15.36 340.61 177.86 152.11 222.28 116.36 61.95" fill="#fff"></polygon><rect x="156.9" y="57.89" width="169.54" height="98.04" transform="translate(-34.85 53.39) rotate(-12.92)" fill="#521e09" opacity="0.24" style="isolation: isolate;"></rect><path d="M579.71,261.31c-10.6-12.17-27.5-19.06-43.38-16.15-13.44,2.46-24.72,11.19-36.74,17.69-39,21.1-89.94,17.81-125.89-8.13a176.44,176.44,0,0,0,8.77,59.94c1.36,4.14,3,8.41,6.26,11.3,3,2.61,6.9,3.77,10.73,4.71A159.12,159.12,0,0,0,520.75,311c10.71-6.75,23.4-15.16,34.94-9.92,4.5,2,7.91,5.93,10.69,10A65.66,65.66,0,0,1,577.09,356c-.34,2.61,7.62-1.93,8.23-2.41,3.21-2.49,4.18-7.85,5.15-11.45,2.7-10,2.4-21.49,3.11-31.74C594.79,292.77,591.76,275.16,579.71,261.31Z" transform="translate(-17.06 -3.35)" fill="#521e09"></path><path d="M579.71,261.31c-10.6-12.17-27.5-19.06-43.38-16.15-13.44,2.46-24.72,11.19-36.74,17.69-39,21.1-89.94,17.81-125.89-8.13a176.44,176.44,0,0,0,8.77,59.94c1.36,4.14,3,8.41,6.26,11.3,3,2.61,6.9,3.77,10.73,4.71A159.12,159.12,0,0,0,520.75,311c10.71-6.75,23.4-15.16,34.94-9.92,4.5,2,7.91,5.93,10.69,10A65.66,65.66,0,0,1,577.09,356c-.34,2.61,7.62-1.93,8.23-2.41,3.21-2.49,4.18-7.85,5.15-11.45,2.7-10,2.4-21.49,3.11-31.74C594.79,292.77,591.76,275.16,579.71,261.31Z" transform="translate(-17.06 -3.35)" fill="url(#linear-gradient-2)"></path><path d="M462.57,365.58c-6.34,22.35-40.82,22.66-40.82,22.66L111.87,356.42l3.23-192.68L456,177Z" transform="translate(-17.06 -3.35)" fill="#521e09"></path><path d="M462.57,365.58c-6.34,22.35-40.82,22.66-40.82,22.66L111.87,356.42l3.23-192.68L456,177Z" transform="translate(-17.06 -3.35)" fill="url(#linear-gradient-3)"></path><circle cx="371.54" cy="357.29" r="17.86" fill="#521e09"></circle><path d="M114.57,215.42s10.44,11.63,24.88,11.23,265.76,21.87,265.76,21.87,45.11-1.62,51.6-14.8L456,177,115.12,163.75Z" transform="translate(-17.06 -3.35)" fill="#521e09"></path><path d="M114.57,215.42s10.44,11.63,24.88,11.23,265.76,21.87,265.76,21.87,45.11-1.62,51.6-14.8L456,177,115.12,163.75Z" transform="translate(-17.06 -3.35)" fill="url(#linear-gradient-4)"></path><line x1="438.9" y1="173.66" x2="445.51" y2="362.23" fill="#521e09"></line><path d="M463,377.66c-5.12,24-41.25,24.28-41.25,24.28L111.64,370.12l.23-13.7,309.88,31.82s34.48-.31,40.82-22.66Z" transform="translate(-17.06 -3.35)" fill="#521e09"></path><path d="M446.36,185.23a32.78,32.78,0,0,1-25,8.38L119.19,165.94a3.63,3.63,0,0,1-1-7l21.88-8.5a46,46,0,0,1,21-2.92L444.1,171.12c10.57.25,9.84,8.12,6.92,9.87Z" transform="translate(-17.06 -3.35)" fill="#521e09"></path><path d="M446.36,185.23a32.78,32.78,0,0,1-25,8.38L119.19,165.94a3.63,3.63,0,0,1-1-7l21.88-8.5a46,46,0,0,1,21-2.92L444.1,171.12c10.57.25,9.84,8.12,6.92,9.87Z" transform="translate(-17.06 -3.35)" fill="url(#linear-gradient-5)"></path><path d="M172.58,157.9c.07,2.8-6.87,5.25-15.52,5.49s-15.72-1.82-15.8-4.61c0-.88-1.54-8.27-.34-9,2.62-1.64,9.52-4.78,15.44-4.94s13.11,1.81,15.76,3.35C173.27,148.83,172.55,157.06,172.58,157.9Z" transform="translate(-17.06 -3.35)" fill="#521e09"></path><path d="M172.58,157.9c.07,2.8-6.87,5.25-15.52,5.49s-15.72-1.82-15.8-4.61c0-.88-1.54-8.27-.34-9,2.62-1.64,9.52-4.78,15.44-4.94s13.11,1.81,15.76,3.35C173.27,148.83,172.55,157.06,172.58,157.9Z" transform="translate(-17.06 -3.35)" fill="url(#linear-gradient-6)"></path><ellipse cx="156.5" cy="149.86" rx="15.66" ry="5.06" transform="translate(-21.17 1.06) rotate(-1.59)" fill="#521e09"></ellipse><path d="M233.64,161.53c.09,3.34-13,6.42-29.34,6.87s-29.59-1.88-29.68-5.22c0-1.14-2.23-11.49.42-12.48,5.11-1.9,17.18-4.27,27.91-4.57s25.78,1.86,31,3.48C236.63,150.44,233.6,160.4,233.64,161.53Z" transform="translate(-17.06 -3.35)" fill="#521e09"></path><path d="M233.64,161.53c.09,3.34-13,6.42-29.34,6.87s-29.59-1.88-29.68-5.22c0-1.14-2.23-11.49.42-12.48,5.11-1.9,17.18-4.27,27.91-4.57s25.78,1.86,31,3.48C236.63,150.44,233.6,160.4,233.64,161.53Z" transform="translate(-17.06 -3.35)" fill="url(#linear-gradient-7)"></path><ellipse cx="205.08" cy="151.13" rx="29.52" ry="6.05" transform="translate(-21.18 2.41) rotate(-1.59)" fill="#521e09"></ellipse><path d="M218,179.67l33.45-37.78,72.29,7.75,18.53,42.83S224,187.09,218,179.67Z" transform="translate(-17.06 -3.35)" fill="#521e09"></path><path d="M218,179.67l33.45-37.78,72.29,7.75,18.53,42.83S224,187.09,218,179.67Z" transform="translate(-17.06 -3.35)" fill="url(#linear-gradient-8)"></path><polygon points="329.16 124.71 306.64 146.28 325.18 189.12 357.15 156.98 329.16 124.71" fill="#521e09"></polygon><polygon points="329.16 124.71 306.64 146.28 325.18 189.12 357.15 156.98 329.16 124.71" fill="url(#linear-gradient-9)"></polygon><polygon points="234.36 138.54 260.31 116.87 329.64 122.34 306.64 146.28 234.36 138.54" fill="#521e09"></polygon><polygon points="234.36 138.54 260.31 116.87 329.64 122.34 306.64 146.28 234.36 138.54" fill="url(#linear-gradient-10)"></polygon><line x1="306.64" y1="146.28" x2="234.36" y2="138.54" fill="url(#linear-gradient-11)"></line><polygon points="267.98 113.4 247.21 132.77 305.37 139.46 324.86 119.41 312.93 119.02 305.57 127.35 267.35 123.17 277.03 114.23 267.98 113.4" fill="#521e09"></polygon><polygon points="267.98 111.1 247.21 130.46 305.37 137.15 324.86 117.11 312.93 116.72 305.57 125.05 267.35 120.87 277.03 111.93 267.98 111.1" fill="url(#linear-gradient-12)"></polygon><polygon points="200.91 176.32 174.98 373.92 307.3 386.13 350.22 339.94 326.12 190.54 200.91 176.32" fill="#521e09"></polygon><polygon points="200.91 176.32 174.98 373.92 309.6 385.04 351.03 339.4 326.12 190.54 200.91 176.32" fill="url(#linear-gradient-13)"></polygon><path d="M211,230.44s45.36-25.1,85.64-8.89,72,57.06,62.24,133.74c0,0-18.48-164.21-148.54-119.41Z" transform="translate(-17.06 -3.35)" fill="url(#linear-gradient-14)"></path><path d="M148.59,286.83,215.67,233s46.68-16.47,77,3.27,65.67,42.61,66.17,119L291.59,425S235.51,479,165.06,439.79,121.73,314.67,148.59,286.83Z" transform="translate(-17.06 -3.35)" fill="#521e09"></path><path d="M151.3,282.5,215.67,233s46.68-16.47,77,3.27,65.67,42.61,66.17,119L291.59,425S235.51,479,165.06,439.79,124.44,310.34,151.3,282.5Z" transform="translate(-17.06 -3.35)" fill="url(#linear-gradient-15)"></path><ellipse cx="219.18" cy="356.69" rx="100.65" ry="98.52" transform="translate(-26.9 2.88) rotate(-1.59)" fill="#521e09"></ellipse><ellipse cx="220.24" cy="357.34" rx="90.85" ry="86.89" transform="translate(-26.91 2.91) rotate(-1.59)" fill="url(#linear-gradient-16)"></ellipse><ellipse cx="216.58" cy="361.22" rx="66.5" ry="66.51" transform="translate(-27.02 2.81) rotate(-1.59)" fill="url(#linear-gradient-17)"></ellipse><ellipse cx="215.84" cy="356.06" rx="57.23" ry="57.24" transform="translate(-26.88 2.79) rotate(-1.59)" fill="url(#linear-gradient-18)"></ellipse><ellipse cx="218.73" cy="351.89" rx="41.1" ry="41.11" transform="translate(-26.76 2.87) rotate(-1.59)" fill="url(#linear-gradient-19)"></ellipse><ellipse cx="224.03" cy="351.12" rx="34.86" ry="34.87" transform="matrix(1, -0.03, 0.03, 1, -26.74, 3.01)" fill="#521e09"></ellipse><ellipse cx="227.65" cy="348.68" rx="29.08" ry="29.08" transform="translate(-26.67 3.11) rotate(-1.59)" fill="url(#linear-gradient-20)"></ellipse><path d="M347.87,186.9l27.44,136s-.53,20.06-5.38,21l-27.69-151.4Z" transform="translate(-17.06 -3.35)" fill="url(#linear-gradient-21)"></path><polygon points="117.07 186.42 160.66 190.08 160.56 206.21 116.56 202.15 117.07 186.42" fill="url(#linear-gradient-22)"></polygon><path d="M138.25,191.89s16.63,8.41,36.14,3.67l.33,11.91s-27,3.53-36.66-3Z" transform="translate(-17.06 -3.35)" fill="#521e09"></path><circle cx="355.86" cy="214.18" r="7.04" fill="#521e09"></circle><circle cx="370.34" cy="358.49" r="12.19" fill="url(#linear-gradient-23)"></circle><circle cx="365" cy="360.3" r="11.19" fill="#521e09"></circle><path d="M428.87,175.66c.09,3.28-13.29,6.33-29.88,6.79s-30.13-1.83-30.22-5.12c0-1.24-2.36-18.54.86-19.58a124.45,124.45,0,0,1,28.55-4.54c9.3-.26,23.3,2.14,28.85,3.31C431.38,157.43,428.83,174.21,428.87,175.66Z" transform="translate(-17.06 -3.35)" fill="#521e09"></path><path d="M428.87,175.66c.09,3.28-13.29,6.33-29.88,6.79s-30.13-1.83-30.22-5.12c0-1.24-2.36-18.54.86-19.58a124.45,124.45,0,0,1,28.55-4.54c9.3-.26,23.3,2.14,28.85,3.31C431.38,157.43,428.83,174.21,428.87,175.66Z" transform="translate(-17.06 -3.35)" fill="url(#linear-gradient-24)"></path><ellipse cx="398.34" cy="159.17" rx="30.06" ry="5.96" transform="translate(-21.33 7.79) rotate(-1.59)" fill="#521e09"></ellipse><path d="M447.2,211.69c6.22,4.93,13.09,9.14,18.48,15,8,8.68,12.12,20.33,14,32s1.84,23.54,2.62,35.32a239.87,239.87,0,0,0,7.25,44.71c4.41,16.95,12,35,27.81,42.56,7.47,3.59,15.93,4.39,24.2,4.92,8.72.57,17.61.89,26.06-1.32s16.54-7.31,20.42-15.15c2.41-4.86,3-10.38,3.53-15.79a365,365,0,0,0,1.22-45.7c-3.35,6.26-6.77,12.61-11.71,17.71s-32.65,36.47-54.93-12.11c-7.42-16.18-9.1-33.64-9.68-51.43-.62-19.15-5.06-38.38-14.51-55.05-9.78-17.23-32.17-41.8-54.26-40-9.1.75-12.79,6.08-14.4,14.56C430.91,194.68,437.51,204,447.2,211.69Z" transform="translate(-17.06 -3.35)" fill="#521e09"></path><path d="M447.2,211.69c6.22,4.93,13.09,9.14,18.48,15,8,8.68,12.12,20.33,14,32s1.84,23.54,2.62,35.32a239.87,239.87,0,0,0,7.25,44.71c4.41,16.95,12,35,27.81,42.56,7.47,3.59,15.93,4.39,24.2,4.92,8.72.57,17.61.89,26.06-1.32s16.54-7.31,20.42-15.15c2.41-4.86,3-10.38,3.53-15.79a365,365,0,0,0,1.22-45.7c-3.35,6.26-6.77,12.61-11.71,17.71s-32.65,36.47-54.93-12.11c-7.42-16.18-9.1-33.64-9.68-51.43-.62-19.15-5.06-38.38-14.51-55.05-9.78-17.23-32.17-41.8-54.26-40-9.1.75-12.79,6.08-14.4,14.56C430.91,194.68,437.51,204,447.2,211.69Z" transform="translate(-17.06 -3.35)" fill="url(#linear-gradient-25)"></path><path d="M447.56,205.55c6.22,4.93,13.09,9.14,18.48,15,8,8.68,12.12,20.33,14,32s1.84,23.54,2.62,35.33a241.56,241.56,0,0,0,7.25,44.7c4.41,16.95,12,35,27.81,42.56,7.47,3.59,15.93,4.39,24.2,4.93,8.72.56,17.61.88,26.06-1.33s16.54-7.31,20.42-15.14c2.41-4.87,3.05-10.39,3.53-15.8a365,365,0,0,0,1.22-45.7c-3.35,6.26-6.77,12.61-11.71,17.71s-32.65,36.47-54.93-12.11c-7.42-16.18-9.1-33.64-9.68-51.43-.62-19.15-5.06-38.37-14.51-55-9.77-17.24-32.17-41.8-54.26-40-9.1.75-12.79,6.08-14.4,14.56C431.27,188.54,437.87,197.87,447.56,205.55Z" transform="translate(-17.06 -3.35)" fill="#521e09"></path></svg>