<?xml version="1.0" encoding="iso-8859-1"?>
<!-- Generator: Adobe Illustrator 19.0.0, SVG Export Plug-In . SVG Version: 6.00 Build 0)  -->
<svg version="1.1" id="Layer_1" xmlns="http://www.w3.org/2000/svg" xmlns:xlink="http://www.w3.org/1999/xlink" x="0px" y="0px"
	 viewBox="0 0 512 512" style="enable-background:new 0 0 512 512;" xml:space="preserve">
<g>
	<path style="fill:#FFBA00;" d="M341.334,402.724c-0.002-26.977-19.395-49.409-44.997-54.157H256L235.102,512h127.13
		l-20.898-109.272C341.334,402.727,341.334,402.725,341.334,402.724z"/>
	<path style="fill:#FFBA00;" d="M467.003,348.566h-40.336L405.768,512H512V402.728C512,375.748,492.606,353.314,467.003,348.566z"/>
	<path style="fill:#FFBA00;" d="M170.695,401.483c-0.009,0.414-0.028,0.825-0.028,1.242c-0.001-26.977-19.395-49.411-44.997-54.158
		H85.334L64.436,512h127.13l-20.898-109.272C170.666,402.311,170.685,401.898,170.695,401.483z"/>
	<polygon style="fill:#FFBA00;" points="201.303,256.003 174.058,240.501 201.561,192.163 156.511,192.163 210.671,96.977 
		237.916,112.479 210.413,160.816 255.463,160.816 	"/>
</g>
<polygon style="fill:#FF8E00;" points="301.328,256.003 274.083,240.501 301.587,192.163 256.536,192.163 310.696,96.977 
	337.941,112.479 310.438,160.816 355.489,160.816 "/>
<path style="fill:#9BD6FF;" d="M344.098,57.494h-6.985C337.113,25.741,311.373,0,279.62,0c-8.423,0-16.412,1.829-23.62,5.083
	l-20.898,122.553h108.996c19.369,0,35.071-15.702,35.071-35.071C379.169,73.196,363.468,57.494,344.098,57.494z"/>
<path style="fill:#C4EAFF;" d="M256,5.067c-7.871,3.554-14.802,8.823-20.308,15.338c-5.722-2.951-12.208-4.628-19.089-4.628
	c-23.039,0-41.717,18.678-41.717,41.717h-6.985c-19.369,0-35.071,15.702-35.071,35.071s15.702,35.071,35.071,35.071H256V5.067z"/>
<g>
	<path style="fill:#FDE09C;" d="M85.334,348.566H44.997C19.394,353.314,0,375.749,0,402.728V512h85.334V348.566z"/>
	<path style="fill:#FDE09C;" d="M256,348.566h-40.336c-25.603,4.748-44.997,27.183-44.997,54.161V512H256V348.566z"/>
	<path style="fill:#FDE09C;" d="M426.666,348.566H386.33c-25.603,4.748-44.997,27.183-44.997,54.161V512h85.334V348.566z"/>
</g>
<path style="fill:#FF7D3C;" d="M85.334,269.613l-20.898,49.785l20.898,49.785c27.495,0,49.785-22.29,49.785-49.785
	C135.119,291.903,112.829,269.613,85.334,269.613z"/>
<path style="fill:#FFB995;" d="M85.334,269.613L85.334,269.613c-27.495,0-49.785,22.29-49.785,49.785
	c0,27.495,22.29,49.785,49.785,49.785l0,0V269.613z"/>
<path style="fill:#FF7D3C;" d="M256,269.613l-20.898,49.785L256,369.183c27.495,0,49.785-22.29,49.785-49.785
	C305.785,291.903,283.495,269.613,256,269.613z"/>
<path style="fill:#FFB995;" d="M256,269.613L256,269.613c-27.495,0-49.785,22.29-49.785,49.785c0,27.495,22.29,49.785,49.785,49.785
	l0,0V269.613z"/>
<path style="fill:#FF7D3C;" d="M426.666,269.613l-20.898,49.785l20.898,49.785c27.495,0,49.785-22.29,49.785-49.785
	C476.452,291.903,454.163,269.613,426.666,269.613z"/>
<path style="fill:#FFB995;" d="M426.666,269.613L426.666,269.613c-27.495,0-49.785,22.29-49.785,49.785
	c0,27.495,22.29,49.785,49.785,49.785l0,0V269.613z"/>
<g>
</g>
<g>
</g>
<g>
</g>
<g>
</g>
<g>
</g>
<g>
</g>
<g>
</g>
<g>
</g>
<g>
</g>
<g>
</g>
<g>
</g>
<g>
</g>
<g>
</g>
<g>
</g>
<g>
</g>
</svg>
