<?xml version="1.0" encoding="iso-8859-1"?>
<!-- Generator: Adobe Illustrator 19.0.0, SVG Export Plug-In . SVG Version: 6.00 Build 0)  -->
<svg version="1.1" id="Layer_1" xmlns="http://www.w3.org/2000/svg" xmlns:xlink="http://www.w3.org/1999/xlink" x="0px" y="0px"
	 viewBox="0 0 512.001 512.001" style="enable-background:new 0 0 512.001 512.001;" xml:space="preserve">
<g>
	<path style="fill:#00969B;" d="M63.409,258.795c-24.547,0-44.444,19.899-44.444,44.444l0,0c0,24.545,19.899,44.444,44.444,44.444
		h17.508v-88.888L63.409,258.795L63.409,258.795z"/>
	<path style="fill:#00969B;" d="M448.591,258.795h-17.508v88.888h17.508c24.545,0,44.444-19.899,44.444-44.444l0,0
		C493.035,278.693,473.137,258.795,448.591,258.795z"/>
</g>
<path style="fill:#00D8DE;" d="M443.279,166.521l-0.015-0.085c-0.053-0.094-0.105-0.183-0.158-0.277
	c-1.081-8.85-2.738-17.522-4.999-25.95c-21.573-80.374-94.923-99.148-182.106-99.148l0,0c-87.183,0-160.533,18.773-182.106,99.148
	l-0.155,0.564c-2.19,8.253-3.795,16.741-4.851,25.396c-0.053,0.093-0.105,0.182-0.158,0.275c-0.83,7.174-1.281,14.463-1.281,21.861
	v158.353c0,65.82,47.977,120.426,110.865,130.777h155.369v-11.45c0,0.005,0,0.011,0,0.015v11.436
	c62.888-10.353,110.865-64.957,110.865-130.777V188.306C444.55,180.935,444.111,173.668,443.279,166.521z"/>
<g>
	<circle style="fill:#1E252B;" cx="166.059" cy="300.091" r="16.831"/>
	<circle style="fill:#1E252B;" cx="345.949" cy="300.091" r="16.831"/>
</g>
<path style="fill:#3C3A41;" d="M256,169.022c0,0,122.924-117.605,187.264-2.342c-1.073-9.261-2.795-18.324-5.158-27.128
	C416.533,59.178,343.183,0,256,0l0,0C168.817,0,95.467,59.176,73.894,139.551l-0.155,0.564c-2.29,8.629-3.958,17.507-5.009,26.575
	C133.069,51.411,256,169.022,256,169.022z"/>
<g>
	<path style="opacity:0.3;fill:#20272E;enable-background:new    ;" d="M312.82,423.574c-5.523,0-10.929,1.107-16.071,3.292
		l-14.056,5.969c-4.388-1.906-9.172-2.918-14.105-2.918h-25.175c-4.933,0-9.717,1.013-14.105,2.918l-14.055-5.969
		c-5.142-2.185-10.549-3.292-16.071-3.292c-22.645,0-41.068,18.439-41.068,41.103v7.736c6.528,2.172,13.267,3.883,20.202,5.024
		h155.369v-11.45c0,0.005,0,0.011,0,0.015v11.436c6.935-1.142,13.674-2.851,20.202-5.024v-7.735
		C353.887,442.013,335.465,423.574,312.82,423.574z"/>
	<path style="fill:#20272E;" d="M315.259,332.436c0,32.728-26.532,59.259-59.259,59.259s-59.259-26.532-59.259-59.259H315.259z"/>
</g>
<g>
	<path style="fill:#FFFFFF;" d="M221.619,332.436v15.735c0,5.578,4.521,10.101,10.101,10.101s10.101-4.522,10.101-10.101v-15.735
		l0,0H221.619L221.619,332.436z"/>
	<path style="fill:#FFFFFF;" d="M270.179,332.436v15.735c0,5.578,4.521,10.101,10.101,10.101s10.101-4.522,10.101-10.101v-15.735
		l0,0H270.179L270.179,332.436z"/>
</g>
<g>
	<path style="fill:#FF3C63;" d="M231.608,500.016v-44.255l-24.253-10.3c-13.77-5.848-29.041,4.257-29.041,19.217v26.423
		c0,14.96,15.271,25.065,29.041,19.217L231.608,500.016L231.608,500.016z"/>
	<path style="fill:#FF3C63;" d="M304.645,445.461l-24.253,10.3v44.255l24.253,10.3c13.77,5.848,29.041-4.257,29.041-19.217v-26.423
		C333.685,449.718,318.414,439.612,304.645,445.461z"/>
</g>
<path style="fill:#FF738D;" d="M268.587,450.118h-25.176c-8.385,0-15.182,6.797-15.182,15.182v25.175
	c0,8.385,6.797,15.182,15.182,15.182h25.175c8.385,0,15.182-6.797,15.182-15.182V465.3
	C283.771,456.915,276.974,450.118,268.587,450.118z"/>
<path style="opacity:0.3;fill:#20272E;enable-background:new    ;" d="M448.591,258.795h-4.042v-70.49
	c0-7.371-0.439-14.638-1.271-21.784l-0.015-0.085c-0.013-0.026-0.028-0.05-0.043-0.075c-1.076-9.15-2.78-18.108-5.115-26.809
	C416.533,59.178,343.183,0,256,0l0,0v505.659h12.588c4.769,0,9.021-2.203,11.803-5.643l24.253,10.3
	c13.77,5.848,29.041-4.257,29.041-19.217v-13.663c62.56-10.298,110.345-64.394,110.842-129.752h4.065
	c24.545,0,44.444-19.899,44.444-44.444l0,0C493.035,278.693,473.137,258.795,448.591,258.795z"/>
<g>
</g>
<g>
</g>
<g>
</g>
<g>
</g>
<g>
</g>
<g>
</g>
<g>
</g>
<g>
</g>
<g>
</g>
<g>
</g>
<g>
</g>
<g>
</g>
<g>
</g>
<g>
</g>
<g>
</g>
</svg>
