<svg xmlns="http://www.w3.org/2000/svg" xmlns:xlink="http://www.w3.org/1999/xlink" viewBox="0 0 400 300" width="406" height="306" class="illustration styles_illustrationTablet__1DWOa"><defs><linearGradient id="linear-gradient" x1="183.4" y1="275.98" x2="324.51" y2="182.32" gradientUnits="userSpaceOnUse"><stop offset="0" stop-color="#fff" stop-opacity="0"></stop><stop offset="0.99" stop-color="#754c24"></stop></linearGradient><linearGradient id="linear-gradient-2" x1="291.54" y1="156.37" x2="279.81" y2="139.31" xlink:href="#linear-gradient"></linearGradient><linearGradient id="linear-gradient-3" x1="240.87" y1="220.99" x2="226.83" y2="200.57" xlink:href="#linear-gradient"></linearGradient><linearGradient id="linear-gradient-4" x1="274.54" y1="199.23" x2="260.5" y2="178.81" xlink:href="#linear-gradient"></linearGradient><linearGradient id="linear-gradient-5" x1="51.9" y1="190.04" x2="73.81" y2="175.99" xlink:href="#linear-gradient"></linearGradient></defs><title>PP_</title><g style="isolation: isolate;"><g id="Layer_2" data-name="Layer 2"><path d="M195.24,288.6,22.74,186.65c-5.49-3.08-10.2-8.15-4.85-11.46L191,75.41c2.6-1.61,6.54-2.66,9.18-1.13L381.28,179.37c5.49,3.19,6.48,12.1,1,15.29L218,288.44A22.94,22.94,0,0,1,195.24,288.6Z" fill="#4aa4e8"></path><path d="M293.17,174.61s.84,8.65.37,9.58a19.9,19.9,0,0,1-4.19,4.66c-1.68,1.3-3.82,3.54-1.49,4.75s9.4-4.28,10.15-4.66.74-9.68.74-9.68" fill="#473e39"></path><path d="M305.08,179.61s.84,8.65.37,9.58a19.9,19.9,0,0,1-4.19,4.66c-1.68,1.3-3.82,3.54-1.49,4.75s9.4-4.28,10.15-4.66.74-9.68.74-9.68" fill="#473e39"></path><path d="M311.25,142.51c.18,3.95.15,7.93-.06,12.06a1,1,0,0,0,.33.86c-.21,13.55-.5,33.06-.5,33.37,0,.48-4.26,2.91-7.17-1.6l-3.47-32.55-.3,30s-4.73,2.7-7.57-2.21L290.39,137Z" fill="#847066"></path><path d="M296.29,167.91s.84,8.65.37,9.58a19.9,19.9,0,0,1-4.19,4.66c-1.68,1.3-3.82,3.54-1.49,4.75s9.4-4.28,10.15-4.66.74-9.68.74-9.68" fill="#473e39"></path><path d="M303.23,176.48l2-36.53,1.45,34.32c1.74-1.13,3.45-2.29,5.09-3.54.84-4.63,1.78-9.24,2.67-13.86.23-7.42.87-14.84.14-22.23l-21.1-4.26,2.12,45.43a10.58,10.58,0,0,0,5.36,2.2Q302.08,177.22,303.23,176.48Z" fill="#847066"></path><path d="M236.15,198.33s-.84,8.65-.37,9.58a19.9,19.9,0,0,0,4.19,4.66c1.68,1.3,3.82,3.54,1.49,4.75s-9.4-4.28-10.15-4.66-.74-9.68-.74-9.68" fill="#473e39"></path><path d="M224.23,203.33s-.84,8.65-.37,9.58a19.9,19.9,0,0,0,4.19,4.66c1.68,1.3,3.82,3.54,1.49,4.75s-9.4-4.28-10.15-4.66-.74-9.68-.74-9.68" fill="#473e39"></path><path d="M217.74,168.27a88,88,0,0,0,.39,10,1,1,0,0,1-.33.86c.21,13.55.5,33.06.5,33.37,0,.48,4.26,2.91,7.17-1.6l1.72-40.66,2,38.06a10.49,10.49,0,0,0,7.57-2.21l2.12-45.43Z" fill="#847066"></path><polyline points="176.76 253.15 215.25 275.73 332.05 204.56 293.76 183.1" opacity="0.63" fill="url(#linear-gradient)" style="mix-blend-mode: multiply;"></polyline><path d="M201.68,226.61s-.84,8.65-.37,9.58a19.9,19.9,0,0,0,4.19,4.66c1.68,1.3,3.82,3.54,1.49,4.75s-9.4-4.28-10.15-4.66-.74-9.68-.74-9.68" fill="#473e39"></path><path d="M189.76,231.61s-.84,8.65-.37,9.58a19.9,19.9,0,0,0,4.19,4.66c1.68,1.3,3.82,3.54,1.49,4.75s-9.4-4.28-10.15-4.66-.74-9.68-.74-9.68" fill="#473e39"></path><path d="M183.6,194.52c-.18,3.95-.15,7.93.06,12.06a1,1,0,0,1-.33.86c.21,13.55.5,33.06.5,33.37,0,.48,4.26,2.91,7.17-1.6l1.72-40.66,2,38.06a10.49,10.49,0,0,0,7.57-2.21L204.45,189Z" fill="#847066"></path><rect x="142.34" y="102.86" width="5.95" height="44.2" rx="2.34" ry="2.34" fill="#42210b"></rect><rect x="175.95" y="209.5" width="5.95" height="44.23" rx="2.34" ry="2.34" fill="#42210b"></rect><rect x="211.29" y="228.97" width="5.95" height="46.76" rx="2.34" ry="2.34" fill="#42210b"></rect><rect x="326.99" y="160.21" width="5.95" height="46.76" rx="2.34" ry="2.34" fill="#42210b"></rect><polygon points="334.07 160.96 334.07 165.15 332.08 166.73 331.3 161.94 334.07 160.96" fill="#f2cec9"></polygon><path d="M332.71,162.76,182.76,75c-13.28,9-26.72,17.82-40.18,26.58v5l103.9,58.36a2.74,2.74,0,0,1,0,4.76L177.76,210l-2-1.19v4.5a3.91,3.91,0,0,0,0,.41v.59h.09a3.85,3.85,0,0,0,2,2.64l34,17.31a5.64,5.64,0,0,0,5.38-.14L332.7,167.5A2.74,2.74,0,0,0,332.71,162.76Z" fill="#ff8080"></path><path d="M332.71,162.76,182.76,75c-13.28,9-26.72,17.82-40.18,26.58v5l103.9,58.36a2.74,2.74,0,0,1,0,4.76L177.76,210l-2-1.19v4.5a3.91,3.91,0,0,0,0,.41v.59h.09a3.85,3.85,0,0,0,2,2.64l34,17.31a5.64,5.64,0,0,0,5.38-.14L332.7,167.5A2.74,2.74,0,0,0,332.71,162.76Z" fill="#606060" opacity="0.61"></path><path d="M332.71,158.57,187.86,73.81a3.29,3.29,0,0,0-3.52.12c-13.8,9.4-27.76,18.56-41.76,27.66v.79l103.9,58.36a2.74,2.74,0,0,1,0,4.76l-68.85,40.36a3.93,3.93,0,0,0,.21,6.9l34,17.31a5.64,5.64,0,0,0,5.38-.14L332.7,163.31A2.74,2.74,0,0,0,332.71,158.57Z" fill="#ff8080"></path><path d="M237.42,105.93V31.72L225.87,35.2l-.25,64C229.51,101.53,233.56,103.58,237.42,105.93Z" fill="#f7cf91"></path><path d="M237.42,105.93V31.72l-3.53,1v71.14Q235.67,104.87,237.42,105.93Z" fill="#deab7c"></path><polygon points="155.16 59.65 170.3 67.32 241.17 25.77 225.57 17.45 155.16 59.65" fill="#f7cf91"></polygon><polygon points="170.3 72.36 241.37 30.6 241.37 25.77 170.3 67.32 170.3 72.36" fill="#eda421"></polygon><polygon points="158.74 64.02 158.45 157.55 166.76 162.11 170.3 159.94 170.3 67.32 158.74 64.02" fill="#f7cf91"></polygon><polygon points="166.76 162.11 166.76 67.32 170.3 69.25 170.3 159.94 166.76 162.11" fill="#deab7c"></polygon><circle cx="168.05" cy="57.13" r="3.48" transform="translate(40.11 180.16) rotate(-62.65)" fill="#e05342"></circle><path d="M164.64,57.77s.29,1.79,3.42,1.88,3.35-1.56,3.35-1.56a3,3,0,0,1,.14,1.66c-.2.83-1.15,1.78-3.49,1.78a4.09,4.09,0,0,1-3.42-1.59A2.5,2.5,0,0,1,164.64,57.77Z" fill="#3a3935"></path><circle cx="199.47" cy="34" r="6.3" transform="translate(77.64 195.56) rotate(-62.65)" fill="#e05342"></circle><path d="M193.3,35.16c0,.06.53,3.23,6.18,3.4,5.9.18,6.06-2.82,6.06-2.82a5.45,5.45,0,0,1,.25,3c-.37,1.5-2.08,3.23-6.3,3.23a7.4,7.4,0,0,1-6.18-2.88C192.22,37.42,193.3,35.16,193.3,35.16Z" fill="#3a3935"></path><circle cx="228.25" cy="22.9" r="3.48" transform="translate(103.05 215.12) rotate(-62.65)" fill="#f7cf91"></circle><path d="M224.83,23.54s.29,1.79,3.42,1.88,3.35-1.56,3.35-1.56a3,3,0,0,1,.14,1.66c-.2.83-1.15,1.78-3.49,1.78a4.09,4.09,0,0,1-3.42-1.59A2.5,2.5,0,0,1,224.83,23.54Z" fill="#f7cf91"></path><polygon points="155.16 59.65 155.16 65 170.3 72.36 170.3 67.32 155.16 59.65" fill="#eda421"></polygon><circle cx="224.63" cy="25.31" r="3.48" transform="translate(98.96 213.21) rotate(-62.65)" fill="#e05342"></circle><path d="M221.22,25.95s.29,1.79,3.42,1.88S228,26.27,228,26.27a3,3,0,0,1,.14,1.66c-.2.83-1.15,1.78-3.49,1.78a4.09,4.09,0,0,1-3.42-1.59A2.5,2.5,0,0,1,221.22,25.95Z" fill="#3a3935"></path><path d="M284.36,136.43l-14.22,8.31,12.34,7.19,14.18-7.61C292.57,141.67,288.49,139,284.36,136.43Z" opacity="0.63" fill="url(#linear-gradient-2)" style="mix-blend-mode: multiply;"></path><polyline points="286.83 124.85 286.83 140.28 274.8 147.16 261.21 139.13 261.21 123.7" fill="#ffad4a"></polyline><polygon points="286.83 124.85 272.87 116.9 261.21 123.7 274.8 131.73 286.83 124.85" fill="#fd9"></polygon><polygon points="274.8 131.73 274.8 147.16 261.21 139.13 261.21 123.7 274.8 131.73" fill="#ffc36c"></polygon><polygon points="282.47 127.12 268.52 119.22 265.58 120.94 279.43 128.86 279.43 138.32 282.47 136.73 282.47 127.12" fill="#ad5802"></polygon><path d="M232.27,197.12l-17,9.94,14.77,8.6,17-9.11C242.09,203.39,237.21,200.21,232.27,197.12Z" opacity="0.63" fill="url(#linear-gradient-3)" style="mix-blend-mode: multiply;"></path><polyline points="208.09 185.09 208.09 202.97 222.04 210.96 237.79 201.65 237.79 183.76" fill="#ffad4a"></polyline><polygon points="208.09 185.09 224.28 175.88 237.79 183.76 222.04 193.07 208.09 185.09" fill="#fd9"></polygon><polygon points="222.04 193.07 222.04 210.96 237.79 201.65 237.79 183.76 222.04 193.07" fill="#ffc36c"></polygon><polygon points="213.16 187.72 229.32 178.57 232.73 180.56 216.68 189.74 216.68 200.7 213.16 198.86 213.16 187.72" fill="#ad5802"></polygon><path d="M265.94,175.36l-17,9.94,14.77,8.6,17-9.11C275.76,181.63,270.88,178.45,265.94,175.36Z" opacity="0.63" fill="url(#linear-gradient-4)" style="mix-blend-mode: multiply;"></path><polyline points="241.76 163.33 241.76 181.22 255.71 189.19 271.46 179.89 271.46 162" fill="#ffad4a"></polyline><polygon points="241.76 163.33 257.95 154.12 271.46 162 255.71 171.31 241.76 163.33" fill="#fd9"></polygon><polygon points="255.71 171.31 255.71 189.19 271.46 179.89 271.46 162 255.71 171.31" fill="#ffc36c"></polygon><polygon points="246.83 165.97 262.99 156.81 266.4 158.8 250.35 167.98 250.35 178.94 246.83 177.1 246.83 165.97" fill="#ad5802"></polygon><path d="M244.93,131.42s4.41,9.37,6.08,11.3,8,10.65,8,10.65,3.26,2.38,2.55,3.08-3-1.67-3-1.67l-4.48.26s-7-8.54-8.54-10.38-5.79-10.21-5.79-10.21" fill="#f3ae83"></path><path d="M220.11,151.1a1.31,1.31,0,0,1,0,.24,87.26,87.26,0,0,0-2.33,16.93c7.47,2.8,16.41-.89,22.43-6.86Z" fill="#847066"></path><path d="M228.07,119.9s-7.85,1.91-9.64,8,2.39,28.49,2.39,28.49,12.6,4.77,21-3.36c0,0,0-31.31-4.69-33.82C233.59,117.33,228.07,119.9,228.07,119.9Z" fill="#a2c609"></path><path d="M236.58,119s6.63,2.25,9.47,13.63a50.38,50.38,0,0,1-6.36,3.51" fill="#a2c609"></path><path d="M241.11,133.59l-2.31-1.91c0-10.24-6.17-14-6.17-14l-.65.58c4.59,4.63,5.47,12.86,5.07,13.17s-7.14,2.05-7.14,2.05a22.34,22.34,0,0,0-.58-4,20.72,20.72,0,0,0-1.08-3.28,18.84,18.84,0,0,0-1.3-2.52,14.84,14.84,0,0,0-1.25-1.75,1.6,1.6,0,0,0-.74-.62c-.08,0-.31-.1-.38-.07a17.17,17.17,0,0,0-1.67,1c3.87.31,5.41,11.59,5.41,11.59s-2,.16-1.26,5.54-6.73,14.9-6.73,14.9l2.09,25.36,18.87-11.06Z" fill="#473e39"></path><path d="M225.53,144l-5.72-9.36.22,2.71a.48.48,0,0,1,.05.13c.57,2.85,1.15,8.38,1.31,9.21l1,4.69,3.6-5.16Z" fill="#89a000"></path><path d="M228.07,137.55s2.25,6.44,4,8.23,10.63,10.95,10.95,11.05,5.69.95,5.37,2-3.47.53-3.47.53,5.05,4,4,5.37-8.42-1.79-8.95-3.26-1.42-3.67-1.42-3.67-12.14-8.44-13.41-10.12-4.22-8.84-4.22-8.84S224,135.54,228.07,137.55Z" fill="#f3ae83"></path><path d="M218.89,135.34s3.18,7.84,3.39,8,7-2.91,7.86-3l-3.64-8.89" fill="#a2c609"></path><path d="M230,122.52a5.17,5.17,0,0,0,3.18-.12v-5.28l-6.33-.93.41,4.83A6.35,6.35,0,0,0,230,122.52Z" fill="#eaa37d"></path><path d="M236.55,109.67c.21.26-1,11.08-3.4,10.86s-6.57-3.12-6.61-7.34S233.61,106,236.55,109.67Z" fill="#f3ae83"></path><path d="M232.95,104.85c-6.16-.7-8.91,3.46-8.87,6.3s.9,7.28,2.37,7.34a1.27,1.27,0,0,0,.6-.14,11.58,11.58,0,0,1,.72-3.12c-.38-.69-1-1.93-.18-2.49a.76.76,0,0,1,1.2.26,1.52,1.52,0,0,1,1.6-1.38s5.66,1.35,7.23.38S239.11,105.55,232.95,104.85Z" fill="#4c2e22"></path><path d="M230.38,101.61c-3.76.31-7.39,2.27-8.32,6s.3,5.16,2.25,5.71c0,0,6.08-7,13.39-4.95.53.15.61-2.08.62-2.36a3.41,3.41,0,0,0-2.11-3.52A11.92,11.92,0,0,0,230.38,101.61Z" fill="#e0d6cd"></path><path d="M224.31,113.36l-.68-.24s5.35-7.9,14.52-5.46l-.25.88a12.37,12.37,0,0,0-7.87.65A19.35,19.35,0,0,0,224.31,113.36Z" fill="#ccb09a"></path><path d="M210.77,158s4.41,9.37,6.08,11.3,8,10.65,8,10.65,3.26,2.38,2.55,3.08-3-1.67-3-1.67l-4.48.26s-7-8.54-8.54-10.38S205.61,161,205.61,161" fill="#f3ae83"></path><path d="M185.95,177.63a1.31,1.31,0,0,1,0,.24,87.26,87.26,0,0,0-2.33,16.93c7.47,2.8,16.41-.89,22.43-6.86Z" fill="#847066"></path><path d="M193.91,146.43s-7.85,1.91-9.64,8,2.39,28.49,2.39,28.49,12.6,4.77,21-3.36c0,0,0-31.31-4.69-33.82C199.43,143.86,193.91,146.43,193.91,146.43Z" fill="#a2c609"></path><path d="M202.42,145.51s6.63,2.25,9.47,13.63a50.38,50.38,0,0,1-6.36,3.51" fill="#a2c609"></path><path d="M207,160.12l-2.31-1.91c0-10.24-6.17-14-6.17-14l-.65.58c4.59,4.63,5.47,12.86,5.07,13.17s-7.14,2.05-7.14,2.05a22.34,22.34,0,0,0-.58-4,20.72,20.72,0,0,0-1.08-3.28,18.84,18.84,0,0,0-1.3-2.52,14.84,14.84,0,0,0-1.25-1.75,1.6,1.6,0,0,0-.74-.62c-.08,0-.31-.1-.38-.07a17.17,17.17,0,0,0-1.67,1c3.87.31,5.41,11.59,5.41,11.59s-2,.16-1.26,5.54-6.73,14.9-6.73,14.9V200.9c-.51.53,21.36-12.52,21.36-12.52Z" fill="#473e39"></path><path d="M191.37,170.53l-5.72-9.36.22,2.71a.48.48,0,0,1,.05.13c.57,2.85,1.15,8.38,1.31,9.21l1,4.69,3.6-5.16Z" fill="#89a000"></path><path d="M193.91,164.09s2.25,6.44,4,8.23,10.63,10.95,10.95,11.05,5.69.95,5.37,2-3.47.53-3.47.53,5.05,4,4,5.37-8.42-1.79-8.95-3.26-1.42-3.67-1.42-3.67-12.14-8.44-13.41-10.12-4.22-8.84-4.22-8.84S189.87,162.07,193.91,164.09Z" fill="#f3ae83"></path><path d="M184.73,161.87s3.18,7.84,3.39,8,7-2.91,7.86-3L192.33,158" fill="#a2c609"></path><path d="M195.86,149.05a5.17,5.17,0,0,0,3.18-.12v-5.28l-6.33-.93.41,4.83A6.35,6.35,0,0,0,195.86,149.05Z" fill="#eaa37d"></path><path d="M202.39,136.2c.21.26-1,11.08-3.4,10.86s-6.57-3.12-6.61-7.34S199.45,132.56,202.39,136.2Z" fill="#f3ae83"></path><path d="M198.79,131.38c-6.16-.7-8.91,3.46-8.87,6.3s.9,7.28,2.37,7.34a1.27,1.27,0,0,0,.6-.14,11.58,11.58,0,0,1,.72-3.12c-.38-.69-1-1.93-.18-2.49a.76.76,0,0,1,1.2.26,1.52,1.52,0,0,1,1.6-1.38s5.66,1.35,7.23.38S204.95,132.09,198.79,131.38Z" fill="#f99900"></path><path d="M196.22,128.14c-3.76.31-7.39,2.27-8.32,6s.3,5.16,2.25,5.71c0,0,6.08-7,13.39-4.95.53.15.61-2.08.62-2.36a3.41,3.41,0,0,0-2.11-3.52A11.92,11.92,0,0,0,196.22,128.14Z" fill="#e0d6cd"></path><path d="M190.15,139.89l-.68-.24s5.35-7.9,14.52-5.46l-.25.88a12.37,12.37,0,0,0-7.87.65A19.35,19.35,0,0,0,190.15,139.89Z" fill="#ccb09a"></path><path d="M307.77,82.7s.75,2.52,4,6.78,5.61,5.42,4.7,9.31-8.7-.12-12.6-.49-4.75-6.39-4.26-9.25" fill="#8e4228"></path><path d="M287.15,100.76s-4.41,9.37-6.08,11.3-8,10.65-8,10.65-3.26,2.38-2.55,3.08,3-1.67,3-1.67l4.48.26s7-8.54,8.54-10.38,5.79-10.21,5.79-10.21" fill="#ffc8a9"></path><path d="M291.91,130.75l20.27-10.42a170,170,0,0,1,2.61,17.13C307.23,140.58,298,136.84,291.91,130.75Z" fill="#847066"></path><path d="M304,89.24s7.85,1.91,9.64,8-2.39,28.49-2.39,28.49-12.6,4.77-21-3.36c0,0,0-31.31,4.69-33.82C298.49,86.67,304,89.24,304,89.24Z" fill="#a2c609"></path><path d="M295.5,88.32s-6.63,2.25-9.47,13.63a50.38,50.38,0,0,0,6.36,3.51" fill="#a2c609"></path><path d="M290.9,105l2.37-4c0-10.24,6.17-14,6.17-14l.65.58c-4.59,4.63-5.47,12.86-5.07,13.17s7.14,2.05,7.14,2.05a22.34,22.34,0,0,1,.58-4,20.72,20.72,0,0,1,1.08-3.28,18.84,18.84,0,0,1,1.3-2.52,14.84,14.84,0,0,1,1.25-1.75,1.6,1.6,0,0,1,.74-.62c.08,0,.31-.1.38-.07a17.17,17.17,0,0,1,1.67,1c-3.87.31-5.41,11.59-5.41,11.59s2,.16,1.26,5.54,6.73,14.9,6.73,14.9l.94,23.24L290,134Z" fill="#473e39"></path><path d="M298.54,86.47v0a1.1,1.1,0,0,1,.32.57c.39,1.64.71,3.29,1,4.94a4.78,4.78,0,0,0,1.85-.16,6.35,6.35,0,0,0,2.73-1.5l.41-4.83Z" fill="#f9b495"></path><path d="M295.53,79c-.21.26,1,11.08,3.4,10.86s6.57-3.12,6.61-7.34S298.47,75.37,295.53,79Z" fill="#ffc8a9"></path><path d="M306.55,113.34l5.72-9.36-.22,2.71a.48.48,0,0,0-.05.13c-.57,2.85-1.15,8.38-1.31,9.21l-1,4.69-3.6-5.16Z" fill="#89a000"></path><path d="M304,106.89s-2.25,6.44-4,8.23S289.34,126.07,289,126.18s-5.69.95-5.37,2,3.47.53,3.47.53-5.05,4-4,5.37,8.42-1.79,8.95-3.26,1.42-3.67,1.42-3.67,12.14-8.44,13.41-10.12,4.22-8.84,4.22-8.84S308.05,104.88,304,106.89Z" fill="#ffc8a9"></path><path d="M313.19,104.68s-3.18,7.84-3.39,8-7-2.91-7.86-3l3.64-8.89" fill="#a2c609"></path><path d="M308,80.49c0-2.83-2.71-7-8.87-6.3a6.53,6.53,0,0,0-4.36,2c0,.44-.06.87-.06,1.3a.47.47,0,0,0-.19.37,8.69,8.69,0,0,0,.42,4,.4.4,0,0,0,.18.3c.67.86,2,.73,3,.64.76-.07,1.51-.21,2.26-.34,1.14-.2,2.33-.63,3.14,1a6,6,0,0,1,.23,1.79,5.64,5.64,0,0,0,1.16,3.31c.42.49,1.12-.22.71-.71l-.05-.07h.07C307.1,87.77,308,83.32,308,80.49Z" fill="#8e4228"></path><path d="M301,72.31c3.77-.11,7.6,1.44,8.94,5.08s.27,5.17-1.61,5.92c0,0-6.82-6.25-13.86-3.43-.51.2-.83-2-.88-2.28a3.41,3.41,0,0,1,1.7-3.73A11.92,11.92,0,0,1,301,72.31Z" fill="#e0d6cd"></path><path d="M308.33,83.32,309,83s-6.19-7.25-15-3.82l.35.85a12.37,12.37,0,0,1,7.89-.23A19.35,19.35,0,0,1,308.33,83.32Z" fill="#ccb09a"></path><path d="M58.59,199.3l38.95-22.09-24.46-13.9L33.85,185.17C42.14,189.8,50.36,194.57,58.59,199.3Z" opacity="0.63" fill="url(#linear-gradient-5)" style="mix-blend-mode: multiply;"></path><polyline points="68.26 153.14 68.26 172.57 99.69 172.57 99.69 153.14" fill="#f8997c"></polyline><ellipse cx="83.98" cy="153.14" rx="15.72" ry="7.73" fill="#dd654a"></ellipse><ellipse cx="83.98" cy="173.33" rx="15.72" ry="7.73" fill="#f8997c"></ellipse><path d="M101.57,108c-3.32-1.36-7.92-5.87-11.93-5.73-1.52,3.74-2,8.12-2.43,11.93a108.22,108.22,0,0,0-.45,19.91q.14,2.21.37,4.42a3.52,3.52,0,0,0,.35,1.25q0,7.69,0,15.38a.49.49,0,0,0,1,0q0-7.4,0-14.79a21.81,21.81,0,0,0,4.5-2.08,15.32,15.32,0,0,0,6.33-8c2.54-7.06.93-14.95,3.34-21.94C102.27,108.23,101.92,108.11,101.57,108Z" fill="#297600"></path><path d="M94.78,96.39A12.32,12.32,0,0,0,90.29,101a7.7,7.7,0,0,0-.7,1.36l-.14.3h0a20.55,20.55,0,0,0-.76,2.44,3,3,0,0,1,1.67-1.32,4.16,4.16,0,0,1,2.63-.24,11,11,0,0,1,2.41,1.28c1.12.68,2.2,1.44,3.31,2.14,5.21,3.31,12.14,3.65,16.16-1.17.05-.19.1-.38.14-.58C115.59,101.9,106.3,89.7,94.78,96.39Z" fill="#5fad00"></path><path d="M112.55,107.83c.21-.15.43-.29.65-.43a.45.45,0,0,0-.13-.37c-3.15-3.23-6.53-6.4-10.83-8a18.56,18.56,0,0,0-9.67-.95c-.35.4-.67.83-1,1.26,3.5-1.17,7.94-.44,11.12.92,3.8,1.62,6.83,4.53,9.67,7.45A.47.47,0,0,0,112.55,107.83Z" fill="#297600"></path><path d="M59.79,114.86a13.13,13.13,0,0,0-7,12.59c.37,9.28,15.65.22,19.71-7.61s4.69,3.34,4.69,3.34" fill="#297600"></path><path d="M73.54,111.63a27.67,27.67,0,0,0-8.48,1.18,20.58,20.58,0,0,0-5.27,2.06,17,17,0,0,0,3.05,1.63c1.92.77,3.93,1.74,4.94,3.54a7,7,0,0,1,.59,1.4c.93,3.05.13,6.75,1.38,9.82s3.82,5.78,7.42,6c4.31.26,6.28-3.87,7.13-7.45s2-8.46.66-12.14C83.38,113.37,77.62,111.82,73.54,111.63Z" fill="#5fad00"></path><path d="M79.21,126.1c-1.81-5.86-5.64-11.39-11.25-14h-.21l-.26.08c-.34.1-.68.18-1,.26,6.53,2.42,10.63,8.86,12.31,15.45,2.14,8.42,1.42,17.53,1.44,26.14a.45.45,0,0,0,.9,0C81.11,144.87,82,135,79.21,126.1Z" fill="#297600"></path></g></g></svg>