<svg xmlns="http://www.w3.org/2000/svg" class="illustration styles_illustrationTablet__1DWOa" viewBox="125.45 64.54 152.55 170.92"><g id="_488_dna_outline" data-name="#488_dna_outline"><path d="M129,235.46h-.28a3.51,3.51,0,0,1-3.21-3.78c1-12.66,5.27-19.81,18.17-30.61,5.4-4.52,13.09-8.83,21.23-13.41,11.82-6.63,24-13.49,30.89-21.68,4-4.78,11.66-17.69-3.43-34.51-7.85-8.75-19.94-15.07-31.63-21.19-7.72-4-15-7.86-20.53-12.15-14.62-11.37-14-29.48-13.92-30.24a3.5,3.5,0,0,1,7,.32h0c0,.15-.49,15.29,11.22,24.4,5,3.9,12,7.57,19.47,11.47,11.68,6.1,24.91,13,33.6,22.71,4.87,5.43,19.53,24.63,3.59,43.68-7.68,9.18-20.47,16.35-32.83,23.3-7.85,4.41-15.27,8.57-20.17,12.67-12.55,10.51-14.9,16.22-15.68,25.81A3.51,3.51,0,0,1,129,235.46Z" fill="#093f68"/><path d="M204.85,235.46a3.5,3.5,0,0,1-3.48-3.22c-.78-9.59-3.13-15.3-15.69-25.81-4.9-4.1-12.31-8.26-20.16-12.67-12.37-6.95-25.16-14.12-32.83-23.3-15.94-19.05-1.29-38.25,3.59-43.68,8.69-9.68,21.92-16.61,33.59-22.71,7.44-3.9,14.46-7.57,19.47-11.47,11.71-9.11,11.23-24.25,11.23-24.4a3.5,3.5,0,0,1,7-.32c0,.76.71,18.87-13.92,30.24-5.51,4.29-12.8,8.11-20.52,12.15-11.7,6.12-23.79,12.44-31.63,21.19-5,5.6-15.43,20.18-3.44,34.51,6.86,8.19,19.08,15.05,30.89,21.68,8.15,4.58,15.84,8.89,21.24,13.41,12.89,10.8,17.14,17.95,18.16,30.61a3.51,3.51,0,0,1-3.2,3.78Z" fill="#093f68"/><path d="M173.77,134.59H137.22a3.5,3.5,0,0,1,0-7h36.55a3.5,3.5,0,0,1,0,7Z" fill="#093f68"/><path d="M187.51,153.5H129.07a3.5,3.5,0,0,1,0-7h58.44a3.5,3.5,0,0,1,0,7Z" fill="#093f68"/><path d="M175.33,173.4H136.87a3.5,3.5,0,0,1,0-7h38.46a3.5,3.5,0,0,1,0,7Z" fill="#093f68"/><path d="M182.76,223.22H132a3.5,3.5,0,0,1,0-7h50.79a3.5,3.5,0,0,1,0,7Z" fill="#093f68"/><path d="M200.2,85.35H143.93a3.5,3.5,0,0,1,0-7H200.2a3.5,3.5,0,0,1,0,7Z" fill="#093f68"/><rect x="228.09" y="147.97" width="9.7" height="42.04" transform="translate(-51.27 214.21) rotate(-45)" fill="#673119"/><path d="M244.38,188.28a1,1,0,0,1-.71-.29l-29.73-29.73a1,1,0,0,1-.29-.7,1,1,0,0,1,.29-.71L220.8,150a1,1,0,0,1,1.41,0l29.73,29.73a1,1,0,0,1,.3.71,1,1,0,0,1-.3.7L245.08,188A1,1,0,0,1,244.38,188.28Zm-28.32-30.72,28.32,28.31,5.44-5.44-28.31-28.32Z" fill="#093f68"/><rect x="247.63" y="168.15" width="14.77" height="45.83" rx="5.41" transform="translate(-60.41 236.28) rotate(-45)" fill="#673119"/><path d="M266,211.25a6.37,6.37,0,0,1-4.53-1.88l-24.76-24.76a6.4,6.4,0,0,1,0-9.06l2.79-2.79a6.41,6.41,0,0,1,9.06,0l24.76,24.75a6.42,6.42,0,0,1,0,9.07h0l-2.79,2.79A6.37,6.37,0,0,1,266,211.25Zm-22-38.37a4.4,4.4,0,0,0-3.12,1.29L238.12,177a4.42,4.42,0,0,0,0,6.24L262.88,208a4.41,4.41,0,0,0,6.23,0l2.8-2.8a4.42,4.42,0,0,0,0-6.23l-24.76-24.76A4.4,4.4,0,0,0,244,172.88Zm28.58,33h0Z" fill="#093f68"/><circle cx="210.32" cy="146.37" r="31.99" fill="#673119"/><path d="M210.32,179.35A33,33,0,1,1,233.65,123h0a33,33,0,0,1-23.33,56.31Zm0-64a31,31,0,1,0,21.91,9.06A30.9,30.9,0,0,0,210.32,115.39Z" fill="#093f68"/><circle cx="210.32" cy="146.37" r="22.62" fill="#fff"/><path d="M210.32,170A23.62,23.62,0,1,1,227,129.66h0A23.63,23.63,0,0,1,210.32,170Zm0-45.24a21.62,21.62,0,1,0,15.29,6.33A21.53,21.53,0,0,0,210.32,124.75Z" fill="#093f68"/><path d="M221.61,103.16a1,1,0,0,1-.92-.62,1,1,0,0,1,.54-1.3l14.23-5.86a1,1,0,1,1,.76,1.85L222,103.09A1,1,0,0,1,221.61,103.16Z" fill="#093f68"/><path d="M257.78,154a1,1,0,0,1-.55-1.84l9.34-6a1,1,0,0,1,1.08,1.68l-9.33,6A1,1,0,0,1,257.78,154Z" fill="#093f68"/><path d="M234.46,198.13h-.08l-10.46-.85a1,1,0,0,1,.16-2l10.46.84a1,1,0,0,1-.08,2Z" fill="#093f68"/><path d="M242.31,230.88a1,1,0,0,1-.62-.22,1,1,0,0,1-.16-1.4l6.26-7.89a1,1,0,1,1,1.57,1.25l-6.26,7.88A1,1,0,0,1,242.31,230.88Z" fill="#093f68"/><path d="M224.74,224a4.71,4.71,0,1,1,4.71-4.71A4.71,4.71,0,0,1,224.74,224Zm0-7.41a2.71,2.71,0,1,0,2.71,2.7A2.71,2.71,0,0,0,224.74,216.57Z" fill="#093f68"/><path d="M206.61,192.06a4.71,4.71,0,1,1,4.71-4.7A4.71,4.71,0,0,1,206.61,192.06Zm0-7.41a2.71,2.71,0,1,0,2.71,2.71A2.71,2.71,0,0,0,206.61,184.65Z" fill="#093f68"/><path d="M270.82,132.16a4.71,4.71,0,1,1,4.71-4.71A4.71,4.71,0,0,1,270.82,132.16Zm0-7.42a2.71,2.71,0,1,0,2.71,2.71A2.72,2.72,0,0,0,270.82,124.74Z" fill="#093f68"/><path d="M257.77,92.07a4.71,4.71,0,1,1,4.71-4.71A4.71,4.71,0,0,1,257.77,92.07Zm0-7.42a2.71,2.71,0,1,0,2.71,2.71A2.71,2.71,0,0,0,257.77,84.65Z" fill="#093f68"/><path d="M273.29,177.5a4.47,4.47,0,0,1-.89-.08,4.71,4.71,0,0,1-3-2,4.71,4.71,0,0,1,4.78-7.27,4.71,4.71,0,0,1,3.74,5.51h0A4.71,4.71,0,0,1,273.29,177.5Zm0-7.41a2.72,2.72,0,0,0-2.66,2.2,2.75,2.75,0,0,0,.42,2,2.71,2.71,0,0,0,4.48-3,2.63,2.63,0,0,0-1.73-1.13A2.21,2.21,0,0,0,273.28,170.09Zm3.64,3.4h0Z" fill="#093f68"/><path d="M221,88.36a4.71,4.71,0,1,1,4.71-4.71A4.72,4.72,0,0,1,221,88.36ZM221,81a2.71,2.71,0,1,0,2.71,2.7A2.71,2.71,0,0,0,221,81Z" fill="#093f68"/><path d="M248.54,118.89a1,1,0,0,1-.75-.34l-6.19-7a1,1,0,0,1,.09-1.41,1,1,0,0,1,1.41.09l6.19,7a1,1,0,0,1-.09,1.41A1,1,0,0,1,248.54,118.89Z" fill="#093f68"/></g></svg>