<svg xmlns="http://www.w3.org/2000/svg" class="illustration styles_illustrationTablet__1DWOa" viewBox="90.86 52.94 164.54 207.08"><g id="_361_factory_worker_outline" data-name="#361_factory_worker_outline"><path d="M181.79,170.85H220.4a34,34,0,0,1,34,34V244.7a0,0,0,0,1,0,0H147.77a0,0,0,0,1,0,0V204.86A34,34,0,0,1,181.79,170.85Z" fill="#673119"/><path d="M254.42,245.7H147.77a1,1,0,0,1-1-1V204.86a35.05,35.05,0,0,1,35-35H220.4a35.05,35.05,0,0,1,35,35V244.7A1,1,0,0,1,254.42,245.7Zm-105.65-2H253.42V204.86a33.05,33.05,0,0,0-33-33H181.79a33.05,33.05,0,0,0-33,33Z" fill="#093f68"/><path d="M168.58,245.7a1,1,0,0,1-1-1V192.22a1,1,0,0,1,2,0V244.7A1,1,0,0,1,168.58,245.7Z" fill="#093f68"/><path d="M233.61,245.7a1,1,0,0,1-1-1V192.22a1,1,0,0,1,2,0V244.7A1,1,0,0,1,233.61,245.7Z" fill="#093f68"/><rect x="193.2" y="155.07" width="15.78" height="15.78" fill="#ffc9b0"/><path d="M209,171.85H193.2a1,1,0,0,1-1-1V155.07a1,1,0,0,1,1-1H209a1,1,0,0,1,1,1v15.78A1,1,0,0,1,209,171.85Zm-14.78-2H208V156.07H194.2Z" fill="#093f68"/><path d="M238.53,116.59c2.15-2.81,2.74-7.13,3.38-10.45a99.82,99.82,0,0,0,2.17-16A33.16,33.16,0,0,0,241,74.39,10.94,10.94,0,0,0,242,58c1.34,1.33-3.74,5.45-4.61,5.86-2.9,1.34-6.41,1.18-9.44.44-5.49-1.35-10.34-4.52-15.57-6.66a51.44,51.44,0,0,0-27.85-2.91,34.26,34.26,0,0,0-12.67,5.15c-1.68,1.06-3.13,1.61-4.19,3.38-.66,1.11-3.1,7-2,8.17-3.91-4-8.21.07-8.44,4.47a78.64,78.64,0,0,0,.46,14.39c.41,3.12,1,6.2,1.68,9.28l1.5,7.25c.75,3.59,1.05,8.81,5,9.94s8.28.58,12.34.64l21.26.32c9,0,18,.27,26.94.41,3.36,0,9.51,1.46,11.75-1.16Z" fill="#093f68"/><path d="M233.06,119.53c-1.34,0-2.71-.12-4-.24-1-.08-1.87-.17-2.61-.18-3,0-6-.11-9-.17-5.88-.12-12-.24-17.93-.24l-21.28-.32c-1.07,0-2.16,0-3.25,0a31.35,31.35,0,0,1-9.35-.72c-4-1.14-4.79-5.56-5.43-9.12-.1-.55-.19-1.08-.3-1.58l-1.5-7.25c-.63-3-1.28-6.2-1.69-9.35a80,80,0,0,1-.47-14.57c.16-3,2-5.79,4.37-6.71a4.79,4.79,0,0,1,3.88.19,26.06,26.06,0,0,1,2.31-6.59,8.77,8.77,0,0,1,3.53-3.11c.32-.19.65-.38,1-.59a35,35,0,0,1,13-5.29,52.66,52.66,0,0,1,28.41,3c1.93.79,3.82,1.73,5.65,2.63a48,48,0,0,0,9.78,4,13.56,13.56,0,0,0,8.77-.37c.84-.4,4.13-3.33,4.26-4.33a1,1,0,0,1,1.49-1.33,11.94,11.94,0,0,1-.48,17.39,34.59,34.59,0,0,1,2.82,15.48,99.35,99.35,0,0,1-2.19,16.19l-.2,1.1c-.59,3.15-1.31,7.07-3.36,9.76h0l-.33.41C237.68,119.14,235.43,119.53,233.06,119.53Zm-33.48-2.83c6,0,12,.12,17.94.24,3,.06,6,.13,9,.17.81,0,1.76.1,2.76.19,3,.28,6.82.62,8.21-1,.09-.1.17-.21.26-.32h0c1.76-2.31,2.41-5.82,3-8.91l.21-1.12a98.86,98.86,0,0,0,2.15-15.86,32,32,0,0,0-3-15.25,1,1,0,0,1,.28-1.24,9.94,9.94,0,0,0,2.22-13.31,17.45,17.45,0,0,1-4.79,4.45c-3.47,1.61-7.4,1.16-10.1.51a50.74,50.74,0,0,1-10.19-4.14c-1.8-.88-3.66-1.8-5.52-2.56a50.44,50.44,0,0,0-27.29-2.85,33,33,0,0,0-12.32,5c-.35.22-.7.43-1,.62a6.92,6.92,0,0,0-2.82,2.42c-.83,1.39-2.49,6.14-2.08,7a1,1,0,0,1,0,1.38,1,1,0,0,1-1.44,0h0A3.33,3.33,0,0,0,161.36,71c-1.64.62-3,2.75-3.08,4.94a77.87,77.87,0,0,0,.45,14.21c.4,3.08,1.05,6.19,1.67,9.21l1.5,7.24c.11.52.21,1.07.31,1.64.56,3.17,1.2,6.75,4,7.55a29.6,29.6,0,0,0,8.75.64c1.1,0,2.23-.06,3.34,0l21.26.32Z" fill="#093f68"/><ellipse cx="168.58" cy="125.38" rx="11.16" ry="15.3" fill="#ffc9b0"/><path d="M168.58,141.68c-6.71,0-12.16-7.31-12.16-16.3s5.45-16.31,12.16-16.31,12.15,7.32,12.15,16.31S175.28,141.68,168.58,141.68Zm0-30.61c-5.6,0-10.16,6.42-10.16,14.31s4.56,14.3,10.16,14.3,10.15-6.42,10.15-14.3S174.18,111.07,168.58,111.07Z" fill="#093f68"/><ellipse cx="233.61" cy="125.38" rx="11.16" ry="15.3" fill="#ffc9b0"/><path d="M233.61,141.68c-6.7,0-12.15-7.31-12.15-16.3s5.45-16.31,12.15-16.31,12.16,7.32,12.16,16.31S240.31,141.68,233.61,141.68Zm0-30.61c-5.6,0-10.15,6.42-10.15,14.31s4.55,14.3,10.15,14.3,10.16-6.42,10.16-14.3S239.21,111.07,233.61,111.07Z" fill="#093f68"/><path d="M223,83.86a12.71,12.71,0,0,1,12.72,12.71V131a33.1,33.1,0,0,1-33.1,33.11h-3A33.11,33.11,0,0,1,166.47,131V96.57a12.71,12.71,0,0,1,12.71-12.71Z" fill="#ffc9b0"/><path d="M202.62,165.08h-3A34.15,34.15,0,0,1,165.47,131V96.57a13.73,13.73,0,0,1,13.71-13.71H223a13.73,13.73,0,0,1,13.72,13.71V131A34.14,34.14,0,0,1,202.62,165.08ZM179.18,84.86a11.72,11.72,0,0,0-11.71,11.71V131a32.15,32.15,0,0,0,32.11,32.11h3A32.14,32.14,0,0,0,234.72,131V96.57A11.73,11.73,0,0,0,223,84.86Z" fill="#093f68"/><path d="M189.74,99.56H174.47a1.59,1.59,0,0,1,0-3.18h15.27a1.59,1.59,0,1,1,0,3.18Z" fill="#093f68"/><path d="M227.71,99.56H212.45a1.59,1.59,0,1,1,0-3.18h15.26a1.59,1.59,0,0,1,0,3.18Z" fill="#093f68"/><rect x="156.57" y="98.51" width="89.46" height="10.21" rx="3.78" fill="#673119"/><path d="M242.25,109.72H160.36a4.79,4.79,0,0,1-4.79-4.78v-2.65a4.79,4.79,0,0,1,4.79-4.78h81.89a4.79,4.79,0,0,1,4.78,4.78v2.65A4.79,4.79,0,0,1,242.25,109.72ZM160.36,99.51a2.79,2.79,0,0,0-2.79,2.78v2.65a2.79,2.79,0,0,0,2.79,2.78h81.89a2.78,2.78,0,0,0,2.78-2.78v-2.65a2.78,2.78,0,0,0-2.78-2.78Z" fill="#093f68"/><path d="M218.93,155.07H183.68a9.22,9.22,0,0,1-9.1-7.71l-9.24-55.43a9.6,9.6,0,0,1,9.57-10.28H227.7a9.6,9.6,0,0,1,9.57,10.28L228,147.36A9.22,9.22,0,0,1,218.93,155.07Z" fill="#673119"/><path d="M218.93,156.07H183.68a10.21,10.21,0,0,1-10.09-8.55L164.35,92.1a10.59,10.59,0,0,1,10.56-11.45H227.7A10.6,10.6,0,0,1,238.27,92L229,147.52A10.21,10.21,0,0,1,218.93,156.07Zm-44-73.42a8.59,8.59,0,0,0-8.58,9.21l9.23,55.33a8.21,8.21,0,0,0,8.12,6.88h35.25a8.19,8.19,0,0,0,8.11-6.88l9.25-55.42a8.62,8.62,0,0,0-8.59-9.12Z" fill="#093f68"/><rect x="175.78" y="98.51" width="51.04" height="20.42" rx="8.85" fill="#fff"/><path d="M218,119.93H184.63a9.86,9.86,0,0,1-9.85-9.85v-2.72a9.86,9.86,0,0,1,9.85-9.85H218a9.85,9.85,0,0,1,9.84,9.85v2.72A9.85,9.85,0,0,1,218,119.93ZM184.63,99.51a7.86,7.86,0,0,0-7.85,7.85v2.72a7.86,7.86,0,0,0,7.85,7.85H218a7.85,7.85,0,0,0,7.84-7.85v-2.72A7.85,7.85,0,0,0,218,99.51Z" fill="#093f68"/><circle cx="188.73" cy="111.14" r="3.01" fill="#093f68"/><circle cx="213.88" cy="111.14" r="3.01" fill="#093f68"/><path d="M191.74,106.29h-9.28a1.59,1.59,0,0,1,0-3.18h9.28a1.59,1.59,0,1,1,0,3.18Z" fill="#093f68"/><path d="M220.15,106.29h-9.28a1.59,1.59,0,0,1,0-3.18h9.28a1.59,1.59,0,0,1,0,3.18Z" fill="#093f68"/><path d="M203.25,119.53a1,1,0,0,1-1-.79,57.89,57.89,0,0,0-1.9-5.77,1,1,0,1,1,1.87-.72,58,58,0,0,1,2,6.08,1,1,0,0,1-.77,1.18A.71.71,0,0,1,203.25,119.53Z" fill="#093f68"/><rect x="168.58" y="202.4" width="65.04" height="42.3" fill="#fff"/><path d="M233.61,245.7h-65a1,1,0,0,1-1-1V202.4a1,1,0,0,1,1-1h65a1,1,0,0,1,1,1v42.3A1,1,0,0,1,233.61,245.7Zm-64-2h63V203.4h-63Z" fill="#093f68"/><path d="M142.88,210.07l6-1.89-11.79-33.62c-2.6-6.21-5.72-7-13.1-8.4a56,56,0,0,0-9.59-.88l-.33,4.95s14.41-.2,17,6.22Z" fill="#fff"/><path d="M142.88,211.07a1,1,0,0,1-.94-.67l-11.78-33.62c-1.89-4.7-12.21-5.61-16-5.55a1.13,1.13,0,0,1-.74-.31,1,1,0,0,1-.27-.76l.33-4.95a1,1,0,0,1,1-.93,56.7,56.7,0,0,1,9.78.9c7.58,1.41,11,2.32,13.85,9l11.8,33.67a1,1,0,0,1-.64,1.28l-6,1.89A1,1,0,0,1,142.88,211.07Zm-27.7-41.83c3.53.1,14.46.88,16.85,6.84l11.48,32.74,4.12-1.29-11.44-32.64c-2.36-5.62-5-6.38-12.35-7.75a55.53,55.53,0,0,0-8.46-.85Z" fill="#093f68"/><path d="M146.22,207H160.8a0,0,0,0,1,0,0v44.19A6.79,6.79,0,0,1,154,258h-1a6.79,6.79,0,0,1-6.79-6.79V207A0,0,0,0,1,146.22,207Z" transform="translate(369.48 408.49) rotate(162.61)" fill="#f56132"/><path d="M154.17,260a1,1,0,0,1-.95-.71L140,217.13a7.8,7.8,0,0,1,5.11-9.77l.95-.3a7.8,7.8,0,0,1,9.77,5.11L169,254.34a1,1,0,0,1-.07.76,1,1,0,0,1-.59.49L154.47,260A1,1,0,0,1,154.17,260Zm-5.76-51.3a5.75,5.75,0,0,0-1.74.27l-.95.3a5.8,5.8,0,0,0-3.8,7.26l12.91,41.21,12-3.76-12.9-41.21a5.84,5.84,0,0,0-5.52-4.07Z" fill="#093f68"/><rect x="112.27" y="162.48" width="5.65" height="9.91" rx="1.62" transform="translate(226.94 337.05) rotate(-178.89)" fill="#fff"/><path d="M116.24,173.4h-.06l-2.4,0h0a2.63,2.63,0,0,1-2.57-2.68l.13-6.65a2.6,2.6,0,0,1,.8-1.84,2.74,2.74,0,0,1,1.87-.74l2.4.05a2.64,2.64,0,0,1,2.58,2.67l-.13,6.66a2.61,2.61,0,0,1-.81,1.84A2.56,2.56,0,0,1,116.24,173.4Zm-2.42-2,2.4,0a.58.58,0,0,0,.45-.17.61.61,0,0,0,.19-.44l.13-6.65a.63.63,0,0,0-.61-.64l-2.4-.05h0a.63.63,0,0,0-.62.62l-.13,6.65a.63.63,0,0,0,.61.64Z" fill="#093f68"/><path d="M112.34,164.05s-2.17-3-8.74-2.92c-6.73.1-11.72,5.57-11.72,5.57a17,17,0,0,0,10.67,5.42c6.68.54,9.66-1.42,9.66-1.42Z" fill="#ffbc0e"/><path d="M104.81,173.22c-.73,0-1.51,0-2.34-.1a17.91,17.91,0,0,1-11.36-5.77,1,1,0,0,1,0-1.32c.21-.24,5.36-5.8,12.44-5.9s9.47,3.19,9.57,3.33a1,1,0,0,1,.19.61l-.13,6.65a1,1,0,0,1-.45.82C112.64,171.61,110.14,173.22,104.81,173.22Zm-11.52-6.5a15.86,15.86,0,0,0,9.34,4.4c4.8.39,7.58-.57,8.59-1l.11-5.67c-.63-.64-2.79-2.35-7.72-2.29S94.81,165.33,93.29,166.72Z" fill="#093f68"/><path d="M99,166.73s4.19,3.18,12.2.27C111.18,167,105.24,162,99,166.73Z" fill="#fff"/><rect x="139.75" y="223.69" width="18.06" height="7.13" rx="3.01" transform="translate(358.66 399.66) rotate(162.61)" fill="#ffc9b0"/><path d="M143.19,233.59a3.9,3.9,0,0,1-1.85-.46,4,4,0,0,1-2-2.35l-.33-1.06a4,4,0,0,1,2.63-5l11.48-3.59a3.93,3.93,0,0,1,3.06.27,4,4,0,0,1,2,2.35l.33,1.07a4,4,0,0,1-2.63,5l-11.48,3.6-.3-1,.3,1A4.22,4.22,0,0,1,143.19,233.59Zm11.16-10.68a2.08,2.08,0,0,0-.6.09l-11.49,3.6a2,2,0,0,0-1.18,1,2,2,0,0,0-.13,1.53l.33,1.06a2,2,0,0,0,2.52,1.32l11.48-3.6a2,2,0,0,0,1.32-2.52l-.33-1.06a2,2,0,0,0-1-1.18A2,2,0,0,0,154.35,222.91Z" fill="#093f68"/><rect x="141.79" y="230.21" width="18.06" height="7.13" rx="3.01" transform="translate(364.6 411.8) rotate(162.61)" fill="#ffc9b0"/><path d="M145.24,240.11a4,4,0,0,1-3.83-2.81l-.33-1.06a4,4,0,0,1,2.63-5l11.49-3.6a4,4,0,0,1,5,2.63l.33,1.06a4,4,0,0,1-2.63,5l-11.48,3.6h0A3.84,3.84,0,0,1,145.24,240.11Zm.9-1.13h0Zm10.25-9.54a2.08,2.08,0,0,0-.6.09l-11.48,3.59a2,2,0,0,0-1.32,2.52l.33,1.07a2,2,0,0,0,2.52,1.31l11.49-3.59a2,2,0,0,0,1.31-2.52l-.33-1.06A2,2,0,0,0,156.39,229.44Z" fill="#093f68"/><rect x="143.83" y="236.73" width="18.06" height="7.13" rx="3.01" transform="translate(370.54 423.94) rotate(162.61)" fill="#ffc9b0"/><path d="M147.28,246.64a4,4,0,0,1-3.82-2.81l-.34-1.06a4,4,0,0,1,2.63-5l11.49-3.6a4,4,0,0,1,5,2.63l.34,1.06a4,4,0,0,1-2.63,5l-11.49,3.59A3.86,3.86,0,0,1,147.28,246.64ZM158.44,236a2.08,2.08,0,0,0-.6.09l-11.49,3.6a2,2,0,0,0-1.32,2.52l.33,1.06a2.07,2.07,0,0,0,1,1.18,2,2,0,0,0,1.53.14l11.49-3.6a2,2,0,0,0,1.32-2.52l-.34-1.06A2,2,0,0,0,158.44,236Z" fill="#093f68"/><rect x="145.87" y="243.26" width="18.06" height="7.13" rx="3.01" transform="translate(376.48 436.08) rotate(162.61)" fill="#ffc9b0"/><path d="M149.33,253.16a4,4,0,0,1-3.83-2.81l-.33-1.06a4,4,0,0,1,2.62-5l11.49-3.6a4,4,0,0,1,5,2.63l.33,1.06a4,4,0,0,1-2.63,5L150.52,253A4.09,4.09,0,0,1,149.33,253.16Zm11.15-10.68a1.8,1.8,0,0,0-.6.1l-11.49,3.59a2,2,0,0,0-1.31,2.52l.33,1.06a2,2,0,0,0,1,1.18,2,2,0,0,0,1.54.14l11.48-3.6a2,2,0,0,0,1.32-2.51l-.33-1.07A2,2,0,0,0,160.48,242.48Z" fill="#093f68"/><rect x="160.52" y="219.15" width="7.35" height="25.94" rx="3.67" transform="matrix(-0.95, 0.3, -0.3, -0.95, 390.25, 404.58)" fill="#ffc9b0"/><path d="M167,245.67a4.7,4.7,0,0,1-4.47-3.27L157,224.65a4.67,4.67,0,0,1,6.62-5.54,4.61,4.61,0,0,1,2.29,2.74l5.56,17.75a4.68,4.68,0,0,1-3.06,5.86A4.78,4.78,0,0,1,167,245.67Zm-5.56-25.09a2.72,2.72,0,0,0-.8.12,2.68,2.68,0,0,0-1.76,3.35l5.56,17.75a2.65,2.65,0,0,0,1.31,1.57,2.68,2.68,0,0,0,2,.18h0a2.67,2.67,0,0,0,1.75-3.35L164,222.45a2.67,2.67,0,0,0-2.55-1.87Z" fill="#093f68"/><path d="M222.46,245.7H179.73a1,1,0,0,1-1-1V218.46a1,1,0,0,1,1-1h42.73a1,1,0,0,1,1,1V244.7A1,1,0,0,1,222.46,245.7Zm-41.73-2h40.73V219.46H180.73Z" fill="#093f68"/><path d="M176.66,168.94H188a0,0,0,0,1,0,0v33.18a5.66,5.66,0,0,1-5.66,5.66h0a5.66,5.66,0,0,1-5.66-5.66V168.94a0,0,0,0,1,0,0Z" fill="#fff"/><path d="M182.32,208.77a6.66,6.66,0,0,1-6.66-6.66V168.94a1,1,0,0,1,1-1H188a1,1,0,0,1,1,1v33.17A6.66,6.66,0,0,1,182.32,208.77Zm-4.66-38.83v32.17a4.66,4.66,0,0,0,9.32,0V169.94Z" fill="#093f68"/><path d="M213.1,168.94h11.32a0,0,0,0,1,0,0v33.18a5.66,5.66,0,0,1-5.66,5.66h0a5.66,5.66,0,0,1-5.66-5.66V168.94a0,0,0,0,1,0,0Z" fill="#fff"/><path d="M218.76,208.77a6.66,6.66,0,0,1-6.66-6.66V168.94a1,1,0,0,1,1-1h11.32a1,1,0,0,1,1,1v33.17A6.66,6.66,0,0,1,218.76,208.77Zm-4.66-38.83v32.17a4.66,4.66,0,0,0,9.32,0V169.94Z" fill="#093f68"/></g></svg>