<svg xmlns="http://www.w3.org/2000/svg" viewBox="0 0 400 300" width="406" height="306" class="illustration styles_illustrationTablet__1DWOa"><g id="_381_the_great_wall_outline" data-name="#381_the_great_wall_outline"><path d="M293.85,150a93.88,93.88,0,0,1-77.58,92.45,95.47,95.47,0,0,1-28.39.63A93.27,93.27,0,0,1,149.28,229l-.27-.18a93.88,93.88,0,0,1-42.4-69.54,91.23,91.23,0,0,1-.46-9.25,93.85,93.85,0,0,1,187.7,0Z" fill="#fff"></path><path d="M200,244.85a95.82,95.82,0,0,1-12.25-.78,93.67,93.67,0,0,1-39-14.26l-.21-.14a94.84,94.84,0,0,1-42.92-70.32c-.3-3-.46-6.17-.46-9.35a93.77,93.77,0,0,1,9.14-40.65,94.86,94.86,0,1,1,127.53,125.8,94.16,94.16,0,0,1-25.38,8.29A97.13,97.13,0,0,1,200,244.85Zm0-187.7a93.32,93.32,0,0,0-83.91,53.06,92.87,92.87,0,0,0,18.25,105.43A93.13,93.13,0,0,0,149.55,228l.09.06.19.12a91.6,91.6,0,0,0,38.18,14,94.86,94.86,0,0,0,28.09-.63,92.88,92.88,0,0,0,75.81-78.22A92.91,92.91,0,0,0,200,57.15Z" fill="#093f68"></path><polygon points="176.76 105.2 176.76 176.54 244.93 134.17 176.76 105.2" fill="#673119"></polygon><path d="M176.76,177.54a.91.91,0,0,1-.48-.13,1,1,0,0,1-.52-.87V105.2a1,1,0,0,1,.45-.83,1,1,0,0,1,.94-.09l68.17,29a1,1,0,0,1,.6.85,1,1,0,0,1-.47.92l-68.16,42.37A1,1,0,0,1,176.76,177.54Zm1-70.83v68l65-40.4Z" fill="#093f68"></path><path d="M217.6,165.92a37.37,37.37,0,0,1-6.69,7.24,73.35,73.35,0,0,1-8.4,6,57.58,57.58,0,0,1-12.74,5.48,19.92,19.92,0,0,1-8.37.71c-1.05-.12-6.6-.84-6.93-2,1.4,4.89,2.72,9.95,2.14,15-1.08,9.4-8.39,16.75-15.66,22.8-2.77,2.31-7.57,7.2-11.31,7.61a3.32,3.32,0,0,1-.63,0,93.88,93.88,0,0,1-42.4-69.54,14,14,0,0,1,6.44-1.66,10.57,10.57,0,0,1,15.12-11.05,10.24,10.24,0,0,1,3.38-7.66,20.39,20.39,0,0,1,7.46-4.2,19.48,19.48,0,0,1,8.25-1.29,9.66,9.66,0,0,1,7.14,3.94,15.78,15.78,0,0,1,18.86-.75c1.56-2.68,3.36-5.43,6.14-6.8s6.77-.72,8,2.1a9.62,9.62,0,0,1,18,5.05c6.58-1.42,13.48,3.44,15.65,9.82S221.42,160.37,217.6,165.92Z" fill="#70cc40"></path><path d="M149.25,229.8h-.33a1,1,0,0,1-.45-.16,94.83,94.83,0,0,1-42.86-70.28,1,1,0,0,1,.54-1,15.07,15.07,0,0,1,5.81-1.72,11.55,11.55,0,0,1,15.26-11.56,11.57,11.57,0,0,1,3.64-6.92,20.93,20.93,0,0,1,7.82-4.42,20.05,20.05,0,0,1,8.68-1.34,11,11,0,0,1,7.22,3.52,16.79,16.79,0,0,1,18.36-.76c1.47-2.42,3.29-4.93,6-6.28a8.08,8.08,0,0,1,6.07-.36,6.23,6.23,0,0,1,2.42,1.57,10.61,10.61,0,0,1,19,5.67c6.48-.72,13.3,3.84,15.63,10.67,2.11,6.18.75,13.68-3.64,20.06h0a38,38,0,0,1-6.86,7.43A72.38,72.38,0,0,1,203,180a59,59,0,0,1-13,5.58,20.78,20.78,0,0,1-8.79.75,29.24,29.24,0,0,1-5.21-1c1.18,4.38,2,8.71,1.53,13.09-1.13,9.87-8.73,17.4-16,23.46-.49.41-1.05.91-1.66,1.45-2.87,2.54-6.8,6-10.18,6.38A3.84,3.84,0,0,1,149.25,229.8Zm-41.58-70a93,93,0,0,0,41.65,68l.23,0c2.73-.3,6.38-3.53,9-5.89.63-.56,1.2-1.06,1.71-1.49,7-5.81,14.25-13,15.31-22.14.54-4.78-.68-9.62-2.1-14.58v-.05a1,1,0,0,1,1.87-.67c.55.45,3.3,1.09,6.13,1.42a19,19,0,0,0,8-.67A57.33,57.33,0,0,0,202,178.33a71.5,71.5,0,0,0,8.28-5.93,36,36,0,0,0,6.52-7.05c4-5.85,5.29-12.69,3.38-18.28-2.11-6.2-8.74-10.4-14.49-9.16a1,1,0,0,1-1.21-1,8.62,8.62,0,0,0-16.14-4.53,1,1,0,0,1-1.78-.08,3.64,3.64,0,0,0-2.19-1.88,5.93,5.93,0,0,0-4.51.27c-2.57,1.27-4.3,4-5.72,6.4a1,1,0,0,1-.65.48,1,1,0,0,1-.79-.17,14.86,14.86,0,0,0-17.63.7,1,1,0,0,1-.79.23,1,1,0,0,1-.69-.44,8.67,8.67,0,0,0-6.41-3.49,18.13,18.13,0,0,0-7.82,1.23,19.19,19.19,0,0,0-7.1,4,9.24,9.24,0,0,0-3.07,6.89,1,1,0,0,1-.45.89,1,1,0,0,1-1,.06,9.57,9.57,0,0,0-13.69,10,1,1,0,0,1-1,1.15A12.78,12.78,0,0,0,107.67,159.84Zm109.93,6.08h0Z" fill="#093f68"></path><polygon points="176.76 105.2 231.35 134.16 265.36 134.16 207.77 105.36 176.76 105.2" fill="#673119"></polygon><path d="M265.36,135.16h-34a1,1,0,0,1-.47-.12l-54.59-28.95a1,1,0,0,1-.5-1.13,1,1,0,0,1,1-.76h0l31,.16a1,1,0,0,1,.45.1l57.59,28.81a1,1,0,0,1-.45,1.89Zm-33.76-2h29.53l-53.6-26.8-26.71-.14Z" fill="#093f68"></path><polygon points="265.36 134.16 265.36 168.64 202.66 237.73 172.41 203.82 265.36 134.16" fill="#673119"></polygon><path d="M202.66,238.73h0a1,1,0,0,1-.74-.33l-30.25-33.92a1,1,0,0,1-.25-.76,1,1,0,0,1,.4-.7l92.94-69.66a1,1,0,0,1,1.6.8v34.48a1,1,0,0,1-.26.67L203.41,238.4A1,1,0,0,1,202.66,238.73ZM173.89,204l28.78,32.27,61.69-68V136.16Z" fill="#093f68"></path><path d="M292.9,163.38a93.89,93.89,0,0,1-76.63,79.07c-5.84-3.27-10.69-8.44-12.24-14.89-1.82-7.56-.92-14.74,3.43-21.23,2.25-3.35,5.49-6.21,9.41-7.17-.39-3.34-.37-6.86,1.11-9.88s4.72-5.38,8.05-4.91a22.36,22.36,0,0,1,6.49-12,15.59,15.59,0,0,1,15.77-2.79,9.69,9.69,0,0,1,17.85-5.46,8.54,8.54,0,0,1,6.51-6.49c3.2-.55,6.77,1.56,7.41,4.74a5.65,5.65,0,0,1,10,2.74C289.91,164.25,291.33,163.69,292.9,163.38Z" fill="#70cc40"></path><path d="M216.27,243.45a1,1,0,0,1-.49-.13c-6.7-3.75-11.22-9.26-12.72-15.53-2-8.14-.76-15.55,3.57-22a17.92,17.92,0,0,1,9.16-7.34,18,18,0,0,1,1.29-9.59,9.39,9.39,0,0,1,8.1-5.53h.07a23.12,23.12,0,0,1,6.6-11.65,16.61,16.61,0,0,1,15.51-3.42,10.67,10.67,0,0,1,18.43-6.13,9.25,9.25,0,0,1,6.69-5.43,7.76,7.76,0,0,1,8,4,6.61,6.61,0,0,1,9.95,2.48,8.43,8.43,0,0,1,2.27-.72,1,1,0,0,1,1.18,1.12,94.91,94.91,0,0,1-77.45,79.92Zm8.9-58.14c-2.73,0-5.18,2.12-6.29,4.41s-1.48,5.33-1,9.32a1,1,0,0,1-.75,1.09,15.48,15.48,0,0,0-8.82,6.76c-4,6-5.11,12.85-3.29,20.44,1.33,5.53,5.5,10.65,11.45,14.07a92.89,92.89,0,0,0,75.23-76.65,2,2,0,0,0-.64.36,1,1,0,0,1-2,.18h0a4.65,4.65,0,0,0-8.21-2.25,1,1,0,0,1-1,.34,1,1,0,0,1-.74-.77c-.51-2.55-3.5-4.43-6.26-4a7.53,7.53,0,0,0-5.71,5.73,1,1,0,0,1-1.81.31,8.69,8.69,0,0,0-16,4.9,1,1,0,0,1-.43.84,1,1,0,0,1-.94.11,14.5,14.5,0,0,0-14.73,2.61c-3.76,3.34-5.44,8.06-6.18,11.43a1,1,0,0,1-1.12.77A5.94,5.94,0,0,0,225.17,185.31ZM291,165Z" fill="#093f68"></path><polygon points="265.36 134.16 194.5 196.13 133.63 196.13 231.35 134.16 265.36 134.16" fill="#673119"></polygon><path d="M194.5,197.12H133.63a1,1,0,0,1-.53-1.84l97.71-62a1,1,0,0,1,.54-.16h34a1,1,0,0,1,.66,1.75l-70.86,62A1,1,0,0,1,194.5,197.12Zm-57.42-2h57l68.58-60H231.64Z" fill="#093f68"></path><polygon points="138.82 141.15 189.31 141.15 194.5 196.13 133.63 196.13 138.82 141.15" fill="#673119"></polygon><path d="M194.5,197.12H133.63a1,1,0,0,1-1-1.09l5.18-55a1,1,0,0,1,1-.91h50.49a1,1,0,0,1,1,.91l5.19,55a1,1,0,0,1-.26.77A1,1,0,0,1,194.5,197.12Zm-59.77-2H193.4l-5-53H139.73Z" fill="#093f68"></path><polygon points="189.23 124.33 189.23 141.15 138.9 141.15 138.9 124.33 148.47 124.33 148.47 132.12 159.22 132.12 159.22 124.33 168.91 124.33 168.91 132.12 179.67 132.12 179.67 124.33 189.23 124.33" fill="#673119"></polygon><path d="M189.23,142.15H138.9a1,1,0,0,1-1-1V124.33a1,1,0,0,1,1-1h9.57a1,1,0,0,1,1,1v6.79h8.75v-6.79a1,1,0,0,1,1-1h9.69a1,1,0,0,1,1,1v6.79h8.76v-6.79a1,1,0,0,1,1-1h9.56a1,1,0,0,1,1,1v16.82A1,1,0,0,1,189.23,142.15Zm-49.33-2h48.33V125.33h-7.56v6.79a1,1,0,0,1-1,1H168.91a1,1,0,0,1-1-1v-6.79h-7.69v6.79a1,1,0,0,1-1,1H148.47a1,1,0,0,1-1-1v-6.79H139.9Z" fill="#093f68"></path><path d="M164.37,160.93h0a10.14,10.14,0,0,1,10.14,10.14v25.06a0,0,0,0,1,0,0H154.24a0,0,0,0,1,0,0V171.07a10.14,10.14,0,0,1,10.14-10.14Z" fill="#093f68"></path><path d="M174.51,197.12H154.24a1,1,0,0,1-1-1V171.07a11.14,11.14,0,1,1,22.27,0v25.05A1,1,0,0,1,174.51,197.12Zm-19.27-2h18.27V171.07a9.14,9.14,0,1,0-18.27,0Z" fill="#093f68"></path><polygon points="234.25 103.44 262.46 103.44 265.36 134.16 231.35 134.16 234.25 103.44" fill="#673119"></polygon><path d="M265.36,135.16h-34a1,1,0,0,1-.74-.33,1,1,0,0,1-.26-.76l2.9-30.72a1,1,0,0,1,1-.91h28.21a1,1,0,0,1,1,.91l2.9,30.72a1,1,0,0,1-.26.76A1,1,0,0,1,265.36,135.16Zm-32.91-2h31.81l-2.71-28.72H235.16Z" fill="#093f68"></path><polygon points="262.42 94.04 262.42 103.44 234.29 103.44 234.29 94.04 239.64 94.04 239.64 98.39 245.65 98.39 245.65 94.04 251.06 94.04 251.06 98.39 257.07 98.39 257.07 94.04 262.42 94.04" fill="#673119"></polygon><path d="M262.42,104.44H234.29a1,1,0,0,1-1-1V94a1,1,0,0,1,1-1h5.35a1,1,0,0,1,1,1V97.4h4V94a1,1,0,0,1,1-1h5.41a1,1,0,0,1,1,1V97.4h4V94a1,1,0,0,1,1-1h5.35a1,1,0,0,1,1,1v9.4A1,1,0,0,1,262.42,104.44Zm-27.13-2h26.13V95h-3.35V98.4a1,1,0,0,1-1,1h-6a1,1,0,0,1-1-1V95h-3.41V98.4a1,1,0,0,1-1,1h-6a1,1,0,0,1-1-1V95h-3.35Z" fill="#093f68"></path><path d="M248.53,114.49h0a5.66,5.66,0,0,1,5.66,5.66v14a0,0,0,0,1,0,0H242.86a0,0,0,0,1,0,0v-14a5.66,5.66,0,0,1,5.66-5.66Z" fill="#093f68"></path><path d="M254.19,135.16H242.86a1,1,0,0,1-1-1v-14a6.67,6.67,0,1,1,13.33,0v14A1,1,0,0,1,254.19,135.16Zm-10.33-2h9.33v-13a4.67,4.67,0,1,0-9.33,0Z" fill="#093f68"></path><polygon points="179.41 77.14 205.18 77.14 207.83 105.2 176.76 105.2 179.41 77.14" fill="#673119"></polygon><path d="M207.83,106.2H176.76a1,1,0,0,1-.74-.32,1,1,0,0,1-.25-.77l2.64-28.06a1,1,0,0,1,1-.91h25.77a1,1,0,0,1,1,.91l2.64,28.06a1,1,0,0,1-.25.77A1,1,0,0,1,207.83,106.2Zm-30-2h28.87l-2.46-26.06h-24Z" fill="#093f68"></path><polygon points="205.14 68.56 205.14 77.14 179.45 77.14 179.45 68.56 184.33 68.56 184.33 72.53 189.82 72.53 189.82 68.56 194.76 68.56 194.76 72.53 200.26 72.53 200.26 68.56 205.14 68.56" fill="#673119"></polygon><path d="M205.14,78.14H179.45a1,1,0,0,1-1-1V68.56a1,1,0,0,1,1-1h4.88a1,1,0,0,1,1,1v3h3.49v-3a1,1,0,0,1,1-1h5a1,1,0,0,1,1,1v3h3.49v-3a1,1,0,0,1,1-1h4.88a1,1,0,0,1,1,1v8.58A1,1,0,0,1,205.14,78.14Zm-24.69-2h23.69V69.56h-2.88v3a1,1,0,0,1-1,1h-5.49a1,1,0,0,1-1-1v-3h-3v3a1,1,0,0,1-1,1h-5.49a1,1,0,0,1-1-1v-3h-2.88Z" fill="#093f68"></path><path d="M192.45,87.24h0a5.17,5.17,0,0,1,5.17,5.17V105.2a0,0,0,0,1,0,0H187.28a0,0,0,0,1,0,0V92.41a5.17,5.17,0,0,1,5.17-5.17Z" fill="#093f68"></path><path d="M197.62,106.2H187.28a1,1,0,0,1-1-1V92.41a6.17,6.17,0,0,1,12.34,0V105.2A1,1,0,0,1,197.62,106.2Zm-9.34-2h8.34V92.41a4.17,4.17,0,0,0-8.34,0Z" fill="#093f68"></path><path d="M241.38,234.25a93.36,93.36,0,0,1-41.38,9.6,95,95,0,0,1-12.12-.77l-54.25-47H194.5l26.42,21.48Z" fill="#673119"></path><path d="M200,244.85a95.82,95.82,0,0,1-12.25-.78,1,1,0,0,1-.52-.23l-54.25-47a1,1,0,0,1,.65-1.76H194.5a1,1,0,0,1,.63.22L242,233.47a1,1,0,0,1,.36.89,1,1,0,0,1-.55.79A93.74,93.74,0,0,1,200,244.85Zm-11.69-2.72a94.56,94.56,0,0,0,11.69.72A91.85,91.85,0,0,0,239.53,234l-45.38-36.9H136.31Z" fill="#093f68"></path><path d="M187.88,243.08a93.59,93.59,0,0,1-54.25-26.73V196.13Z" fill="#673119"></path><path d="M187.88,244.08h-.13a95.18,95.18,0,0,1-54.83-27,1,1,0,0,1-.29-.71V196.13a1,1,0,0,1,1.65-.76l54.25,46.95a1,1,0,0,1-.65,1.76Zm-53.25-28.15a93.24,93.24,0,0,0,50,25.66l-50-43.27Z" fill="#093f68"></path></g></svg>