<?xml version="1.0" encoding="iso-8859-1"?>
<!-- Generator: Adobe Illustrator 19.0.0, SVG Export Plug-In . SVG Version: 6.00 Build 0)  -->
<svg version="1.1" id="Layer_1" xmlns="http://www.w3.org/2000/svg" xmlns:xlink="http://www.w3.org/1999/xlink" x="0px" y="0px"
	 viewBox="0 0 495.2 495.2" style="enable-background:new 0 0 495.2 495.2;" xml:space="preserve">
<path style="fill:#4A514F;" d="M382,134.4C382,60,322,0,247.6,0S113.2,60,113.2,134.4c0,48.8,25.6,91.2,64,115.2l-38.4,245.6h217.6
	L318,249.6C356.4,225.6,382,183.2,382,134.4z"/>
<path style="fill:#1A1E1E;" d="M356.4,494.4L318,248.8c38.4-24,64-66.4,64-114.4C382,60,322,0,247.6,0S113.2,60,113.2,134.4"/>
<path style="fill:#F7F6ED;" d="M247.6,197.6c58.4,0,106.4-30.4,116-70.4l0,0l0,0l0,0l0,0c-9.6-40-57.6-70.4-116-70.4
	s-106.4,30.4-116,70.4l0,0l0,0l0,0l0,0C141.2,167.2,189.2,197.6,247.6,197.6z"/>
<path style="fill:#C9C6B1;" d="M135.6,127.2h-4l0,0l0,0l0,0c9.6,40,57.6,70.4,116,70.4s106.4-30.4,116-70.4l0,0l0,0l0,0h-4"/>
<circle style="fill:#00A1AD;" cx="247.6" cy="130.4" r="55.2"/>
<path style="fill:#027F89;" d="M247.6,76c30.4,0,55.2,24.8,55.2,55.2s-24.8,55.2-55.2,55.2"/>
<circle style="fill:#5E6664;" cx="247.6" cy="130.4" r="24"/>
<path style="fill:#2F423F;" d="M264.4,113.6c9.6,9.6,9.6,24.8,0,34.4s-24.8,9.6-34.4,0"/>
<g>
	<circle style="fill:#FFFFFF;" cx="232.4" cy="112.8" r="12"/>
	<circle style="fill:#FFFFFF;" cx="265.2" cy="146.4" r="5.6"/>
</g>
<g>
</g>
<g>
</g>
<g>
</g>
<g>
</g>
<g>
</g>
<g>
</g>
<g>
</g>
<g>
</g>
<g>
</g>
<g>
</g>
<g>
</g>
<g>
</g>
<g>
</g>
<g>
</g>
<g>
</g>
</svg>
