<svg xmlns="http://www.w3.org/2000/svg" viewBox="0 0 400 300" width="406" height="306" class="illustration styles_illustrationTablet__1DWOa"><g id="_224_social_media_outline" data-name="#224_social_media_outline"><path d="M269.07,145.65H130.93a7.53,7.53,0,0,0-7.53,7.52v64.66a7.53,7.53,0,0,0,7.53,7.52H237.51l16.94,13.06a1.27,1.27,0,0,0,2-1V225.35h12.58a7.53,7.53,0,0,0,7.53-7.52V153.17A7.53,7.53,0,0,0,269.07,145.65Z" fill="#673119"></path><path d="M255.22,239.68a2.32,2.32,0,0,1-1.39-.48l-16.66-12.85H130.93a8.54,8.54,0,0,1-8.53-8.52V153.17a8.54,8.54,0,0,1,8.53-8.52H269.07a8.54,8.54,0,0,1,8.53,8.52v64.66a8.54,8.54,0,0,1-8.53,8.52H257.49V237.4a2.26,2.26,0,0,1-1.27,2A2.23,2.23,0,0,1,255.22,239.68Zm-124.29-93a6.53,6.53,0,0,0-6.53,6.52v64.66a6.54,6.54,0,0,0,6.53,6.52H237.51a1,1,0,0,1,.61.21l16.94,13.06a.27.27,0,0,0,.28,0,.27.27,0,0,0,.15-.25V225.35a1,1,0,0,1,1-1h12.58a6.54,6.54,0,0,0,6.53-6.52V153.17a6.53,6.53,0,0,0-6.53-6.52Z" fill="#093f68"></path><path d="M163.38,202.33c-.74-.68-1.46-1.37-2.2-2L155,194.82a51.08,51.08,0,0,1-4-3.78,13.88,13.88,0,0,1-2.71-4.06,12.64,12.64,0,0,1-.83-3.21,17.39,17.39,0,0,1-.15-3,8.06,8.06,0,0,1,5.46-7.44,8.44,8.44,0,0,1,9,2.15,9.91,9.91,0,0,1,1.53,1.94l.1.15.12-.19a9.87,9.87,0,0,1,3.84-3.61,8.33,8.33,0,0,1,4.52-.9,8.13,8.13,0,0,1,7.52,6.81,12.48,12.48,0,0,1,.07,3,13.58,13.58,0,0,1-.54,3.16,12.32,12.32,0,0,1-2.31,4.27,31,31,0,0,1-3.56,3.59c-1.9,1.68-3.82,3.32-5.71,5-1.29,1.15-2.56,2.34-3.84,3.51Z" fill="#fff"></path><path d="M163.38,203.33a1,1,0,0,1-.68-.26l-.7-.66c-.5-.46-1-.92-1.49-1.36l-5.29-4.66-.92-.82a52.72,52.72,0,0,1-4.09-3.85,14.86,14.86,0,0,1-2.89-4.36,13.42,13.42,0,0,1-.9-3.46,17.77,17.77,0,0,1-.16-3.14,9,9,0,0,1,6.15-8.35,9.39,9.39,0,0,1,10,2.38,12,12,0,0,1,.93,1.05,10.45,10.45,0,0,1,3.51-2.93,9.34,9.34,0,0,1,5.05-1,9.11,9.11,0,0,1,5.31,2.15,9,9,0,0,1,3.11,5.49,13.58,13.58,0,0,1,.09,3.23,15.12,15.12,0,0,1-.58,3.37,13,13,0,0,1-2.5,4.62,31.5,31.5,0,0,1-3.67,3.71c-.85.76-1.72,1.51-2.58,2.26L168,199.47c-.89.79-1.76,1.6-2.64,2.41l-1.3,1.2A1,1,0,0,1,163.38,203.33Zm-7.69-29.48a8.66,8.66,0,0,0-2.66.46,7.06,7.06,0,0,0-4.77,6.53,16.83,16.83,0,0,0,.14,2.8,11.28,11.28,0,0,0,.77,3,12.54,12.54,0,0,0,2.52,3.77,50.84,50.84,0,0,0,3.92,3.7l.93.81,5.3,4.67c.52.46,1,.93,1.53,1.4l0,0,.61-.56q1.32-1.23,2.67-2.43c1-.93,2.09-1.84,3.14-2.76l2.57-2.25a30.55,30.55,0,0,0,3.44-3.47,11.25,11.25,0,0,0,2.13-3.93,12.9,12.9,0,0,0,.51-2.93,12.07,12.07,0,0,0-.07-2.75,7.14,7.14,0,0,0-6.61-6,7.2,7.2,0,0,0-4,.79,8.76,8.76,0,0,0-3.46,3.26l-.1.15a1,1,0,0,1-.85.48h0a1,1,0,0,1-.85-.44l-.11-.16a9,9,0,0,0-1.37-1.75A7.6,7.6,0,0,0,155.69,173.85Z" fill="#093f68"></path><path d="M198.37,180.64l-5.3,4.67-3.18-3.66,8.63-7.29h5.23v26.46h-5.38Z" fill="#fff"></path><path d="M203.75,201.82h-5.38a1,1,0,0,1-1-1v-18l-3.64,3.21a1,1,0,0,1-1.42-.09l-3.18-3.66a1,1,0,0,1-.24-.74,1,1,0,0,1,.35-.68l8.64-7.29a1,1,0,0,1,.64-.24h5.23a1,1,0,0,1,1,1v26.46A1,1,0,0,1,203.75,201.82Zm-4.38-2h3.38V175.36h-3.86l-7.58,6.4,1.85,2.14,4.55-4a1,1,0,0,1,1.08-.16,1,1,0,0,1,.58.91Z" fill="#093f68"></path><path d="M211,187.59a27.05,27.05,0,0,1,.43-4.78,13.72,13.72,0,0,1,1.53-4.41,9,9,0,0,1,3-3.23,10.05,10.05,0,0,1,9.71,0,9,9,0,0,1,3,3.23,14,14,0,0,1,1.54,4.41,26.84,26.84,0,0,1,0,9.57,14,14,0,0,1-1.54,4.41,9,9,0,0,1-3,3.23,10.05,10.05,0,0,1-9.71,0,9,9,0,0,1-3-3.23,13.72,13.72,0,0,1-1.53-4.41A27.16,27.16,0,0,1,211,187.59Zm5.6,0c0,.7,0,1.54.1,2.51a12.35,12.35,0,0,0,.5,2.8,6,6,0,0,0,1.25,2.28,3.47,3.47,0,0,0,4.73,0,5.77,5.77,0,0,0,1.27-2.28,12.36,12.36,0,0,0,.51-2.8c.06-1,.09-1.81.09-2.51s0-1.53-.09-2.5a12.26,12.26,0,0,0-.51-2.8,5.77,5.77,0,0,0-1.27-2.28,3.45,3.45,0,0,0-4.73,0,6,6,0,0,0-1.25,2.28,12.25,12.25,0,0,0-.5,2.8C216.6,186.06,216.57,186.9,216.57,187.59Z" fill="#fff"></path><path d="M220.8,202.27a9.69,9.69,0,0,1-5.41-1.41,10.14,10.14,0,0,1-3.33-3.59,15.1,15.1,0,0,1-1.65-4.72,28.12,28.12,0,0,1,0-9.91,15.07,15.07,0,0,1,1.65-4.73,10.2,10.2,0,0,1,3.33-3.58,11.06,11.06,0,0,1,10.81,0,10.23,10.23,0,0,1,3.34,3.58,15.27,15.27,0,0,1,1.64,4.72,27.56,27.56,0,0,1,0,9.92,15.09,15.09,0,0,1-1.64,4.72,10.17,10.17,0,0,1-3.34,3.59A9.66,9.66,0,0,1,220.8,202.27Zm0-27.35a7.78,7.78,0,0,0-4.31,1.08,8.28,8.28,0,0,0-2.69,2.89,13.29,13.29,0,0,0-1.42,4.09,26.12,26.12,0,0,0,0,9.22,13.35,13.35,0,0,0,1.42,4.1,8.25,8.25,0,0,0,2.69,2.88,9,9,0,0,0,8.61,0,8.16,8.16,0,0,0,2.69-2.88,12.93,12.93,0,0,0,1.42-4.1,25.51,25.51,0,0,0,0-9.22,12.87,12.87,0,0,0-1.42-4.09,8.16,8.16,0,0,0-2.68-2.89A7.78,7.78,0,0,0,220.8,174.92Zm0,22.19a4,4,0,0,1-3.12-1.26,7,7,0,0,1-1.47-2.66,13.63,13.63,0,0,1-.54-3c-.06-1-.1-1.84-.1-2.57s0-1.59.1-2.56a13.82,13.82,0,0,1,.54-3,7,7,0,0,1,1.47-2.65,4,4,0,0,1,3.12-1.27,4,4,0,0,1,3.09,1.26,6.94,6.94,0,0,1,1.49,2.66,13.46,13.46,0,0,1,.54,3c.07,1,.1,1.85.1,2.56s0,1.56-.1,2.57a13.27,13.27,0,0,1-.54,3,6.91,6.91,0,0,1-1.49,2.67A4,4,0,0,1,220.8,197.11Zm0-17a2,2,0,0,0-1.63.61,5,5,0,0,0-1,1.9,10.81,10.81,0,0,0-.46,2.57c-.07.94-.1,1.76-.1,2.44s0,1.51.1,2.44a10.89,10.89,0,0,0,.46,2.58,5,5,0,0,0,1,1.9,2,2,0,0,0,1.63.6,2.08,2.08,0,0,0,1.62-.61,5,5,0,0,0,1.05-1.89,11.52,11.52,0,0,0,.46-2.58c.06-.95.09-1.77.09-2.44s0-1.48-.09-2.44a11.54,11.54,0,0,0-.46-2.57,5,5,0,0,0-1.05-1.9A2.08,2.08,0,0,0,220.8,180.07Z" fill="#093f68"></path><path d="M233.09,187.59a27.05,27.05,0,0,1,.43-4.78,14.22,14.22,0,0,1,1.53-4.41,9.14,9.14,0,0,1,3-3.23,10.07,10.07,0,0,1,9.72,0,9.14,9.14,0,0,1,3,3.23,14.22,14.22,0,0,1,1.53,4.41,26.84,26.84,0,0,1,0,9.57,14.22,14.22,0,0,1-1.53,4.41,9.14,9.14,0,0,1-3,3.23,10.07,10.07,0,0,1-9.72,0,9.14,9.14,0,0,1-3-3.23,14.22,14.22,0,0,1-1.53-4.41A27.16,27.16,0,0,1,233.09,187.59Zm5.61,0c0,.7,0,1.54.09,2.51a11.83,11.83,0,0,0,.51,2.8,5.86,5.86,0,0,0,1.25,2.28,3,3,0,0,0,2.37.93,3.07,3.07,0,0,0,2.36-.93,5.9,5.9,0,0,0,1.27-2.28,12.35,12.35,0,0,0,.5-2.8c.06-1,.09-1.81.09-2.51s0-1.53-.09-2.5a12.25,12.25,0,0,0-.5-2.8,5.9,5.9,0,0,0-1.27-2.28,3,3,0,0,0-2.36-.94,3,3,0,0,0-2.37.94,5.86,5.86,0,0,0-1.25,2.28,11.74,11.74,0,0,0-.51,2.8C238.73,186.06,238.7,186.9,238.7,187.59Z" fill="#fff"></path><path d="M242.92,202.27a9.69,9.69,0,0,1-5.41-1.41,10.14,10.14,0,0,1-3.33-3.59,14.84,14.84,0,0,1-1.64-4.72,27.51,27.51,0,0,1,0-9.91,14.9,14.9,0,0,1,1.64-4.73,10.2,10.2,0,0,1,3.33-3.58,11.08,11.08,0,0,1,10.82,0,10.2,10.2,0,0,1,3.33,3.58,15,15,0,0,1,1.64,4.73,27.51,27.51,0,0,1,0,9.91,14.84,14.84,0,0,1-1.64,4.72,10.14,10.14,0,0,1-3.33,3.59A9.69,9.69,0,0,1,242.92,202.27Zm0-27.35a7.78,7.78,0,0,0-4.31,1.08,8.16,8.16,0,0,0-2.68,2.89,12.79,12.79,0,0,0-1.42,4.09,25.51,25.51,0,0,0,0,9.22,12.85,12.85,0,0,0,1.42,4.1,8.13,8.13,0,0,0,2.68,2.88,9.07,9.07,0,0,0,8.62,0,8.13,8.13,0,0,0,2.68-2.88,13.2,13.2,0,0,0,1.43-4.1,26.12,26.12,0,0,0,0-9.22,13.14,13.14,0,0,0-1.43-4.09,8.16,8.16,0,0,0-2.68-2.89A7.78,7.78,0,0,0,242.92,174.92Zm0,22.19a4,4,0,0,1-3.12-1.26,7.08,7.08,0,0,1-1.46-2.66,13.09,13.09,0,0,1-.55-3c-.06-1-.09-1.84-.09-2.57s0-1.59.09-2.56a13.27,13.27,0,0,1,.55-3,7.11,7.11,0,0,1,1.46-2.65,4.44,4.44,0,0,1,6.21,0A6.94,6.94,0,0,1,247.5,182a13.27,13.27,0,0,1,.55,3c.06,1,.09,1.85.09,2.56s0,1.58-.09,2.57a13.28,13.28,0,0,1-.55,3,6.91,6.91,0,0,1-1.49,2.67A4,4,0,0,1,242.92,197.11Zm0-17a2.06,2.06,0,0,0-1.63.61,5,5,0,0,0-1,1.9,11.43,11.43,0,0,0-.46,2.57c-.06.94-.09,1.76-.09,2.44s0,1.51.09,2.44a11.52,11.52,0,0,0,.46,2.58,5,5,0,0,0,1,1.9,2.06,2.06,0,0,0,1.63.6,2.08,2.08,0,0,0,1.62-.61,4.76,4.76,0,0,0,1.05-1.89,11,11,0,0,0,.46-2.58c.06-.94.09-1.76.09-2.44s0-1.49-.09-2.44a11,11,0,0,0-.46-2.57,4.87,4.87,0,0,0-1.05-1.9A2.08,2.08,0,0,0,242.92,180.07Z" fill="#093f68"></path><path d="M226.87,134.67s1.9,7.44,0,10-13.24,4.79-26,2v-12Z" fill="#093f68"></path><path d="M212.61,148.93a56.33,56.33,0,0,1-11.92-1.3,1,1,0,0,1-.79-1v-12a1,1,0,0,1,1-1h26a1,1,0,0,1,1,.75c.2.81,2,8-.17,10.82C226.18,147.2,220.34,148.93,212.61,148.93Zm-10.71-3.09c12.11,2.44,22.63.23,24.17-1.81,1.07-1.42.62-5.59,0-8.36H201.9Z" fill="#093f68"></path><path d="M217.6,65.17s4-1.34,7.85,3.36c6.33,7.8,3.27,18.93,5.7,28.07,1,3.79,2.82,7.41,3,11.32.38,7-4.66,13.46-11.05,16.23s-13.79,2.33-20.47.36c-3.87-1.14-7.71-2.86-10.42-5.84-2.86-3.15-4.18-7.45-4.48-11.69a57.06,57.06,0,0,1,1-12.69c1.21-7.93,1.69-16.72,5.32-24C198.94,61.77,212,57.85,217.6,65.17Z" fill="#725858"></path><path d="M213.12,127.11a38.79,38.79,0,0,1-10.74-1.64c-4.88-1.44-8.44-3.45-10.87-6.13-3.47-3.82-4.49-8.79-4.74-12.29a58.38,58.38,0,0,1,1-12.91c.24-1.59.46-3.22.67-4.86.87-6.62,1.77-13.47,4.74-19.41a19.52,19.52,0,0,1,15-9.51,11.52,11.52,0,0,1,9.8,3.71c1.47-.22,4.95-.21,8.24,3.83,4.2,5.18,4.46,11.69,4.72,18a49.74,49.74,0,0,0,1.17,10.46c.33,1.24.76,2.5,1.18,3.72a29.26,29.26,0,0,1,1.88,7.8c.39,7-4.4,14.06-11.64,17.2A26.16,26.16,0,0,1,213.12,127.11Zm-3.89-64.78-.9,0A17.37,17.37,0,0,0,195,70.81c-2.8,5.6-3.68,12.27-4.53,18.73-.21,1.66-.43,3.3-.67,4.91a56.71,56.71,0,0,0-1,12.46c.23,3.18,1.15,7.69,4.23,11.09,2.18,2.4,5.44,4.21,10,5.55,5.18,1.52,12.81,2.71,19.79-.32,6.49-2.81,10.79-9.08,10.45-15.25a27.61,27.61,0,0,0-1.78-7.26c-.43-1.26-.88-2.55-1.22-3.86A50,50,0,0,1,229,86c-.26-6.25-.5-12.15-4.29-16.81-3.29-4.06-6.62-3.08-6.76-3a1,1,0,0,1-1.1-.34A9.24,9.24,0,0,0,209.23,62.33Z" fill="#093f68"></path><path d="M195.06,107.44h32a0,0,0,0,1,0,0v18.4a8.84,8.84,0,0,1-8.84,8.84H203.9a8.84,8.84,0,0,1-8.84-8.84v-18.4a0,0,0,0,1,0,0Z" transform="translate(422.11 242.11) rotate(-180)" fill="#f56132"></path><path d="M227.05,135.67h-32a1,1,0,0,1-1-1v-18.4a9.84,9.84,0,0,1,9.84-9.83h14.31a9.84,9.84,0,0,1,9.84,9.83v18.4A1,1,0,0,1,227.05,135.67Zm-31-2h30v-17.4a7.84,7.84,0,0,0-7.84-7.83H203.9a7.84,7.84,0,0,0-7.84,7.83Z" fill="#093f68"></path><path d="M218.35,125.88a51.44,51.44,0,0,1,5.54,1.6c2.77,1,4.59,4.3,1.69,6.38a5.64,5.64,0,0,1-4.27.77c-3.48-.61-7-2.87-10.18-4.35-1.79-.82-2.93-.69-4.84-.46a2.08,2.08,0,0,1-.93,0,.7.7,0,0,1-.51-.69c.06-.57,1-.74,1-1.31a34.49,34.49,0,0,1-4.38,1.09c-1.51.24-2.2-1.2-1.16-2.38a4.72,4.72,0,0,1,1.93-1.15,11,11,0,0,1,7.82-.79c2.19.48,4.46.57,6.67,1Z" fill="#ffc9b0"></path><path d="M222.57,135.75a8.94,8.94,0,0,1-1.43-.13,28.45,28.45,0,0,1-7.73-3.08c-.94-.49-1.82-.95-2.7-1.35-1.55-.71-2.47-.6-4.3-.38a3.05,3.05,0,0,1-1.38-.08,1.76,1.76,0,0,1-1.15-1.28c-.61.13-1.34.27-2.23.41a2.38,2.38,0,0,1-2.54-1.11,2.57,2.57,0,0,1,.47-2.92,5.66,5.66,0,0,1,2.32-1.42,11.85,11.85,0,0,1,8.4-.83c1.13.24,2.26.38,3.46.52s2.13.26,3.19.46l1.62.34h0a52.2,52.2,0,0,1,5.65,1.64,5.62,5.62,0,0,1,3.79,4.22,4,4,0,0,1-1.85,3.91A6.08,6.08,0,0,1,222.57,135.75Zm-14.21-7.1a7.27,7.27,0,0,1,3.19.73c.91.42,1.86.91,2.78,1.38a27.11,27.11,0,0,0,7.16,2.89,4.7,4.7,0,0,0,3.51-.6,2.07,2.07,0,0,0,1-2,3.68,3.68,0,0,0-2.48-2.62,47.64,47.64,0,0,0-5.43-1.58l-1.55-.32c-1-.2-2-.32-3-.44-1.19-.15-2.43-.3-3.64-.56a10.07,10.07,0,0,0-7.21.73,4.07,4.07,0,0,0-1.58.89c-.25.27-.29.52-.22.63s.23.14.47.1c.55-.08,3.39-.72,4-.94a1.06,1.06,0,0,1,.68-.15,1,1,0,0,1,.86,1.13h0s0,.11,0,.18a1.64,1.64,0,0,1-.37.69A16.05,16.05,0,0,1,208.36,128.65Zm-3.48-1Z" fill="#093f68"></path><polygon points="212.58 108.81 210.06 124.18 207.28 108.81 212.58 108.81" fill="#fff"></polygon><path d="M210.06,125.18a1,1,0,0,1-1-.82L206.29,109a1,1,0,0,1,.22-.82,1,1,0,0,1,.77-.36h5.3a1,1,0,0,1,.76.35,1,1,0,0,1,.22.81l-2.51,15.37a1,1,0,0,1-1,.84Zm-1.58-15.37,1.53,8.48,1.39-8.48Z" fill="#093f68"></path><path d="M209.53,105.76h.8a2.25,2.25,0,0,1,2.25,2.25v3a0,0,0,0,1,0,0h-5.3a0,0,0,0,1,0,0v-3A2.25,2.25,0,0,1,209.53,105.76Z" transform="translate(419.85 216.82) rotate(-180)" fill="#ffc9b0"></path><path d="M210.33,112.06h-.8a3.26,3.26,0,0,1-3.25-3.25v-3a1,1,0,0,1,1-1h5.3a1,1,0,0,1,1,1v3A3.26,3.26,0,0,1,210.33,112.06Zm-2.05-5.3v2a1.25,1.25,0,0,0,1.25,1.25h.8a1.25,1.25,0,0,0,1.25-1.25v-2Z" fill="#093f68"></path><ellipse cx="225.07" cy="92" rx="5.15" ry="4.44" fill="#ffc9b0"></ellipse><path d="M225.07,97.44c-3.39,0-6.15-2.44-6.15-5.44s2.76-5.44,6.15-5.44S231.21,89,231.21,92,228.46,97.44,225.07,97.44Zm0-8.88c-2.29,0-4.15,1.55-4.15,3.44s1.86,3.44,4.15,3.44,4.14-1.55,4.14-3.44S227.35,88.56,225.07,88.56Z" fill="#093f68"></path><ellipse cx="195.06" cy="92" rx="5.15" ry="4.44" fill="#ffc9b0"></ellipse><path d="M195.06,97.44c-3.39,0-6.15-2.44-6.15-5.44s2.76-5.44,6.15-5.44S201.21,89,201.21,92,198.45,97.44,195.06,97.44Zm0-8.88c-2.29,0-4.15,1.55-4.15,3.44s1.86,3.44,4.15,3.44,4.15-1.55,4.15-3.44S197.35,88.56,195.06,88.56Z" fill="#093f68"></path><path d="M200.49,78.85l5-6.46s1.13,4,1.82,6.43l7.92,0L217.11,73l2.2,5.75,6.14,0V90.93a15.52,15.52,0,0,1-15.52,15.53h0A15.53,15.53,0,0,1,194.4,90.93V78.86Z" fill="#ffc9b0"></path><path d="M209.93,107.46A16.55,16.55,0,0,1,193.4,90.93V78.86a1,1,0,0,1,1-1H200l4.72-6.08a1,1,0,0,1,1-.36,1,1,0,0,1,.77.71s.93,3.26,1.62,5.7l6.43,0,1.64-5.07a1,1,0,0,1,.93-.69,1,1,0,0,1,1,.64L220,77.79l5.45,0h0a1,1,0,0,1,1,1V90.93A16.55,16.55,0,0,1,209.93,107.46ZM195.4,79.86V90.93a14.53,14.53,0,1,0,29,0V79.77l-5.14,0h0a1,1,0,0,1-.93-.64l-1.19-3.1-1,3.06a1,1,0,0,1-.95.69l-7.92,0h0a1,1,0,0,1-1-.73c-.38-1.36-.9-3.18-1.28-4.54l-3.81,4.9a1,1,0,0,1-.79.39Zm5.09-1h0Z" fill="#093f68"></path><circle cx="218.21" cy="89.37" r="1.44" fill="#093f68"></circle><circle cx="202.97" cy="89.42" r="1.44" fill="#093f68"></circle><path d="M210,94.51a5.78,5.78,0,0,1-1.31-.14,1.31,1.31,0,0,1-.89-.75c-.38-.84,0-2.42,1.23-4.71a1,1,0,0,1,1.35-.42,1,1,0,0,1,.42,1.34,14.29,14.29,0,0,0-1.09,2.67,7.42,7.42,0,0,0,1.43-.09,1,1,0,0,1,.35,2A9,9,0,0,1,210,94.51Zm-.34-1.61h0Z" fill="#093f68"></path><path d="M214.18,86.54a1,1,0,0,1,0-2H221a1,1,0,0,1,0,2Z" fill="#093f68"></path><path d="M204.41,86.71h-.06l-6.84-.35a1,1,0,0,1-.95-1,1,1,0,0,1,1.05-1l6.85.35a1,1,0,0,1-.05,2Z" fill="#093f68"></path><path d="M210,100.2a11.66,11.66,0,0,1-7.31-3,1,1,0,0,1,1.4-1.43h0c.24.23,5.75,5.47,11.42-.09a1,1,0,0,1,1.41,0,1,1,0,0,1,0,1.42A9.73,9.73,0,0,1,210,100.2Z" fill="#093f68"></path><path d="M201,135.67a1,1,0,0,1-1-1v-17a1,1,0,0,1,2,0v17A1,1,0,0,1,201,135.67Z" fill="#093f68"></path><rect x="174.84" y="131.99" width="27.22" height="2.67" transform="translate(376.9 266.65) rotate(-180)" fill="#fff"></rect><path d="M202.06,135.66H174.84a1,1,0,0,1-1-1V132a1,1,0,0,1,1-1h27.22a1,1,0,0,1,1,1v2.67A1,1,0,0,1,202.06,135.66Zm-26.22-2h25.22V133H175.84Z" fill="#093f68"></path><rect x="202.06" y="131.99" width="12.25" height="2.67" fill="#fff"></rect><path d="M214.31,135.66H202.06a1,1,0,0,1-1-1V132a1,1,0,0,1,1-1h12.25a1,1,0,0,1,1,1v2.67A1,1,0,0,1,214.31,135.66Zm-11.25-2h10.25V133H203.06Z" fill="#093f68"></path><polygon points="174.84 131.99 202.06 131.99 196.47 113.22 169.25 113.22 174.84 131.99" fill="#fff"></polygon><path d="M202.06,133H174.84a1,1,0,0,1-1-.71l-5.59-18.78a1,1,0,0,1,.16-.88,1,1,0,0,1,.8-.4h27.22a1,1,0,0,1,1,.71L203,131.71a1,1,0,0,1-.16.88A1,1,0,0,1,202.06,133Zm-26.47-2h25.13l-5-16.77H170.59Z" fill="#093f68"></path><path d="M184.84,158l9.11-.23,3.42-17.3a4.36,4.36,0,0,0-3.43-5.12l-2-.39a4.35,4.35,0,0,0-5.12,3.42Z" fill="#ffc9b0"></path><path d="M184.84,159a1,1,0,0,1-1-1.1l2-19.62a5.39,5.39,0,0,1,6.31-4.31l2,.4a5.36,5.36,0,0,1,4.22,6.29L194.93,158a1,1,0,0,1-1,.8l-9.1.23Zm6.27-23.13a3.36,3.36,0,0,0-3.29,2.71L186,157l7.17-.19,3.27-16.52a3.36,3.36,0,0,0-2.64-3.94l-2-.39A2.88,2.88,0,0,0,191.11,135.85Z" fill="#093f68"></path><path d="M194,157.75l-.46,5s-13.75,6.78-14,3.39,6.15-8.21,6.15-8.21Z" fill="#f56132"></path><path d="M181,168.09a3.23,3.23,0,0,1-1.56-.32,1.88,1.88,0,0,1-1-1.52c-.33-3.84,5.85-8.56,6.55-9.09a1.09,1.09,0,0,1,.57-.2l8.34-.21a.92.92,0,0,1,.75.32,1,1,0,0,1,.27.77l-.46,5a1,1,0,0,1-.55.8C191.61,164.82,184.66,168.09,181,168.09Zm5-9.13c-2.32,1.78-5.68,5.13-5.51,7.12.86.59,6.45-1.22,12.09-4l.31-3.34Z" fill="#093f68"></path><path d="M197.37,158.66l8.88-2V139a4.36,4.36,0,0,0-4.35-4.36h-2a4.36,4.36,0,0,0-4.36,4.36Z" fill="#ffc9b0"></path><path d="M197.37,159.66a1,1,0,0,1-.59-.19,1,1,0,0,1-.41-.71l-1.84-19.64a5.37,5.37,0,0,1,5.35-5.45h2a5.36,5.36,0,0,1,5.35,5.36v17.64a1,1,0,0,1-.78,1l-8.88,2Zm2.51-24a3.37,3.37,0,0,0-3.36,3.36l1.74,18.41,7-1.57V139a3.36,3.36,0,0,0-3.35-3.36Z" fill="#093f68"></path><path d="M206.25,156.67l.53,5s-12.17,9.32-13.11,6.05,4.45-9.25,4.45-9.25Z" fill="#f56132"></path><path d="M194.69,169.42a2.33,2.33,0,0,1-.73-.11,1.86,1.86,0,0,1-1.25-1.3c-1.06-3.7,4.07-9.53,4.66-10.19a1,1,0,0,1,.53-.3l8.14-1.83a1,1,0,0,1,1.21.88l.52,5a1,1,0,0,1-.38.9C205.16,164.19,198.06,169.42,194.69,169.42Zm4-10c-1.93,2.2-4.57,6.14-4,8.06.94.4,6.09-2.46,11.1-6.23l-.35-3.34Z" fill="#093f68"></path><path d="M218.35,126.88h0a1,1,0,0,1-1-1l.53-10.9a1,1,0,0,1,1-1,1,1,0,0,1,1,1l-.52,10.9A1,1,0,0,1,218.35,126.88Z" fill="#093f68"></path><path d="M175.42,124a4.42,4.42,0,0,1,1,2.71,3.05,3.05,0,0,1-1.28,2.53,2.34,2.34,0,0,1-2.75-.09c-1-.87-1.91-3.8-1.37-5.12C171.87,122,174.34,122.66,175.42,124Z" fill="#ffc9b0"></path><path d="M173.84,130.63a3.15,3.15,0,0,1-2.06-.73c-1.31-1.11-2.38-4.47-1.65-6.25a2.88,2.88,0,0,1,2.31-1.86,4.31,4.31,0,0,1,3.76,1.58,5.36,5.36,0,0,1,1.26,3.33,4.05,4.05,0,0,1-1.73,3.37A3.39,3.39,0,0,1,173.84,130.63Zm-.92-6.88h-.19a1,1,0,0,0-.75.64,5.3,5.3,0,0,0,1.1,4,1.39,1.39,0,0,0,1.55,0,2.06,2.06,0,0,0,.83-1.7,3.37,3.37,0,0,0-.82-2.08h0A2.43,2.43,0,0,0,172.92,123.75Z" fill="#093f68"></path><path d="M156.58,106.92c-.51-.1-1-.21-1.5-.3l-4.13-.71a25.44,25.44,0,0,1-2.73-.57,7,7,0,0,1-2.25-1,6.64,6.64,0,0,1-1.21-1.16,9.81,9.81,0,0,1-.85-1.25,4.08,4.08,0,0,1,.38-4.65,4.27,4.27,0,0,1,4.47-1.47,4.83,4.83,0,0,1,1.17.43l.08,0a.45.45,0,0,0,0-.11,5,5,0,0,1,.7-2.58A4.23,4.23,0,0,1,152.43,92a4.13,4.13,0,0,1,5,1,6.27,6.27,0,0,1,.82,1.27,6.91,6.91,0,0,1,.6,1.5,6.18,6.18,0,0,1,.14,2.46,15.25,15.25,0,0,1-.58,2.49c-.38,1.23-.77,2.45-1.14,3.67-.25.84-.48,1.69-.72,2.53Z" fill="#f56132"></path><path d="M156.55,107.92l-.17,0-.49-.1-1-.19-3.44-.59-.69-.12a28.47,28.47,0,0,1-2.83-.59,8,8,0,0,1-2.56-1.19,7.35,7.35,0,0,1-1.4-1.34,9.27,9.27,0,0,1-1-1.39,5.08,5.08,0,0,1,.49-5.79A5.25,5.25,0,0,1,149,94.81l.18,0a6,6,0,0,1,.71-1.81,5.3,5.3,0,0,1,5.27-2.49,5,5,0,0,1,3.09,1.71,7,7,0,0,1,1,1.46,7.48,7.48,0,0,1,.69,1.71,7.1,7.1,0,0,1,.16,2.85,15.69,15.69,0,0,1-.62,2.65l-.51,1.67c-.21.66-.42,1.33-.62,2s-.35,1.18-.51,1.77l-.21.75A1.12,1.12,0,0,1,156.55,107.92Zm-.93-1.28,1,.28Zm-8-10a3.17,3.17,0,0,0-2.52,1.24,3.07,3.07,0,0,0-.27,3.52,7.47,7.47,0,0,0,.75,1.11,5.85,5.85,0,0,0,1,1,5.75,5.75,0,0,0,1.93.88,23.16,23.16,0,0,0,2.61.54l.71.12,3.45.6.61.11c.16-.57.32-1.15.49-1.73l.63-2,.51-1.65a14.25,14.25,0,0,0,.55-2.33,5.25,5.25,0,0,0-.11-2.07,6.57,6.57,0,0,0-.52-1.29,5.68,5.68,0,0,0-.69-1.08,3.08,3.08,0,0,0-1.9-1,3.28,3.28,0,0,0-3.26,1.55,4,4,0,0,0-.55,2.07,1.14,1.14,0,0,1-.47.89,1,1,0,0,1-1,.11.31.31,0,0,1-.1-.05,4.32,4.32,0,0,0-.94-.34A4.81,4.81,0,0,0,147.58,96.65Z" fill="#093f68"></path><path d="M172.31,83.49l-1-.71-2.92-1.89a22.23,22.23,0,0,1-1.9-1.32,5.86,5.86,0,0,1-1.37-1.52,5.35,5.35,0,0,1-.54-1.28,7.34,7.34,0,0,1-.25-1.22,3.37,3.37,0,0,1,1.81-3.42,3.54,3.54,0,0,1,3.88.33,4.21,4.21,0,0,1,.75.71l.05.06,0-.09a4.15,4.15,0,0,1,1.37-1.73,3.53,3.53,0,0,1,1.82-.66,3.42,3.42,0,0,1,2.09.51,3.36,3.36,0,0,1,1.45,1.86,5.78,5.78,0,0,1,.22,1.23,6.66,6.66,0,0,1,0,1.34,5.22,5.22,0,0,1-.7,1.92,12.35,12.35,0,0,1-1.26,1.71l-2.06,2.43c-.46.55-.91,1.12-1.37,1.69Z" fill="#f56132"></path><path d="M172.27,84.47a.94.94,0,0,1-.53-.16l-.32-.22c-.23-.16-.46-.32-.7-.47l-2.26-1.47-.65-.42a22.14,22.14,0,0,1-2-1.38,6.79,6.79,0,0,1-1.61-1.78,6.26,6.26,0,0,1-.64-1.52,8.26,8.26,0,0,1-.28-1.4,4.36,4.36,0,0,1,2.35-4.42,4.53,4.53,0,0,1,4.9.41,5,5,0,0,1,1.06-1,4.5,4.5,0,0,1,2.33-.83,4.41,4.41,0,0,1,2.69.65,4.3,4.3,0,0,1,1.87,2.39,6.24,6.24,0,0,1,.26,1.47,6.74,6.74,0,0,1,0,1.56,6,6,0,0,1-.83,2.29A14.69,14.69,0,0,1,176.55,80l-.94,1.11-1.12,1.32c-.32.38-.63.76-.93,1.15l-.43.53A1.15,1.15,0,0,1,172.27,84.47ZM167.79,72.7a2.76,2.76,0,0,0-1.24.32,2.37,2.37,0,0,0-1.26,2.42,5.37,5.37,0,0,0,.21,1.06,4.07,4.07,0,0,0,.44,1,4.66,4.66,0,0,0,1.14,1.25,20.2,20.2,0,0,0,1.81,1.26l.66.42,2.26,1.47.3.2c.28-.35.56-.69.85-1s.75-.9,1.13-1.34l.93-1.09a12,12,0,0,0,1.16-1.58,4.27,4.27,0,0,0,.57-1.54,5.94,5.94,0,0,0,0-1.12,4.35,4.35,0,0,0-.17-1,2.43,2.43,0,0,0-2.52-1.69,2.5,2.5,0,0,0-1.3.47,3.14,3.14,0,0,0-1.05,1.33l0,.09a1,1,0,0,1-.77.58,1,1,0,0,1-.89-.34l-.08-.09a2.9,2.9,0,0,0-.55-.51A2.72,2.72,0,0,0,167.79,72.7Z" fill="#093f68"></path><path d="M246.43,109.77c-.08-.51-.15-1-.23-1.51-.24-1.37-.48-2.75-.73-4.13-.16-.91-.32-1.83-.39-2.76a7,7,0,0,1,.22-2.46,6.55,6.55,0,0,1,.68-1.53,9.19,9.19,0,0,1,.89-1.23,4.08,4.08,0,0,1,4.51-1.21,4.29,4.29,0,0,1,2.89,3.71,5.23,5.23,0,0,1,0,1.25.34.34,0,0,1,0,.09l.11,0a5,5,0,0,1,2.66-.21,4.15,4.15,0,0,1,2.07,1.08,4.11,4.11,0,0,1,.81,5.07,5.93,5.93,0,0,1-.91,1.2,7.73,7.73,0,0,1-1.21,1.08,6.07,6.07,0,0,1-2.27,1,15.58,15.58,0,0,1-2.54.3c-1.28.06-2.56.1-3.84.17-.88,0-1.75.11-2.63.17Z" fill="#f56132"></path><path d="M246.5,110.76a1.06,1.06,0,0,1-1.06-.85l-.07-.44c-.05-.35-.1-.69-.16-1-.19-1.1-.38-2.2-.58-3.3l-.14-.83a24.18,24.18,0,0,1-.4-2.87,7.86,7.86,0,0,1,.25-2.81,7.08,7.08,0,0,1,.79-1.77,8.8,8.8,0,0,1,1-1.36A5,5,0,0,1,251.73,94a5.27,5.27,0,0,1,3.53,4.51c0,.06,0,.12,0,.19a5.49,5.49,0,0,1,1.94.05,5.27,5.27,0,0,1,2.55,1.32,5.19,5.19,0,0,1,1.57,2.8,5,5,0,0,1-.56,3.49,7.52,7.52,0,0,1-1,1.4,8.69,8.69,0,0,1-1.38,1.22,7.23,7.23,0,0,1-2.63,1.11,17.47,17.47,0,0,1-2.7.32l-1.77.08q-1,0-2.07.09l-1.78.11-.83.06ZM250,95.69a3.18,3.18,0,0,0-2.38,1.12,7.81,7.81,0,0,0-.78,1.09,5.46,5.46,0,0,0-.58,1.29,6,6,0,0,0-.18,2.11,23.33,23.33,0,0,0,.38,2.66l.14.83c.2,1.1.39,2.2.58,3.3,0,.21.07.41.1.62q.9-.08,1.8-.12l2.09-.09,1.75-.08a14.11,14.11,0,0,0,2.38-.27,5.22,5.22,0,0,0,1.91-.8,6.82,6.82,0,0,0,1-.93,5.8,5.8,0,0,0,.78-1,3.11,3.11,0,0,0,.35-2.14,3.28,3.28,0,0,0-2.56-2.55,4,4,0,0,0-2.14.18,1.11,1.11,0,0,1-1-.14,1,1,0,0,1-.42-.87s0-.1,0-.11a4.81,4.81,0,0,0,0-1,3.27,3.27,0,0,0-2.25-2.9A2.84,2.84,0,0,0,250,95.69Z" fill="#093f68"></path></g></svg>