<svg xmlns="http://www.w3.org/2000/svg" class="illustration styles_illustrationTablet__1DWOa" viewBox="109.61 61.48 180.78 177.04"><g id="_155_network_outline" data-name="#155_network_outline"><rect x="164.69" y="62.48" width="70.63" height="53.58" rx="3.61" fill="#673119"/><path d="M231.7,117.06H168.3a4.62,4.62,0,0,1-4.61-4.61V66.09a4.62,4.62,0,0,1,4.61-4.61h63.4a4.62,4.62,0,0,1,4.61,4.61v46.36A4.62,4.62,0,0,1,231.7,117.06ZM168.3,63.48a2.61,2.61,0,0,0-2.61,2.61v46.36a2.61,2.61,0,0,0,2.61,2.61h63.4a2.61,2.61,0,0,0,2.61-2.61V66.09a2.61,2.61,0,0,0-2.61-2.61Z" fill="#093f68"/><rect x="190.24" y="116.06" width="21.83" height="7.81" fill="#093f68"/><path d="M212.07,124.87H190.24a1,1,0,0,1-1-1v-7.81a1,1,0,0,1,1-1h21.83a1,1,0,0,1,1,1v7.81A1,1,0,0,1,212.07,124.87Zm-20.83-2h19.83v-5.81H191.24Z" fill="#093f68"/><rect x="183.22" y="123.25" width="34.8" height="4.61" rx="2.19" fill="#673119"/><path d="M215.83,128.86H185.42a3.2,3.2,0,0,1-3.2-3.2v-.22a3.2,3.2,0,0,1,3.2-3.19h30.41a3.19,3.19,0,0,1,3.19,3.19v.22A3.19,3.19,0,0,1,215.83,128.86Zm-30.41-4.61a1.19,1.19,0,0,0-1.2,1.19v.22a1.2,1.2,0,0,0,1.2,1.2h30.41a1.2,1.2,0,0,0,1.19-1.2v-.22a1.19,1.19,0,0,0-1.19-1.19Z" fill="#093f68"/><rect x="168.77" y="67.26" width="62.46" height="37.93" fill="#fff"/><path d="M231.23,106.18H168.77a1,1,0,0,1-1-1V67.26a1,1,0,0,1,1-1h62.46a1,1,0,0,1,1,1v37.92A1,1,0,0,1,231.23,106.18Zm-61.46-2h60.46V68.26H169.77Z" fill="#093f68"/><rect x="110.61" y="172.14" width="70.63" height="53.58" rx="3.61" fill="#673119"/><path d="M177.62,226.72h-63.4a4.61,4.61,0,0,1-4.61-4.61V175.75a4.61,4.61,0,0,1,4.61-4.61h63.4a4.62,4.62,0,0,1,4.61,4.61v46.36A4.62,4.62,0,0,1,177.62,226.72Zm-63.4-53.58a2.61,2.61,0,0,0-2.61,2.61v46.36a2.61,2.61,0,0,0,2.61,2.61h63.4a2.61,2.61,0,0,0,2.61-2.61V175.75a2.61,2.61,0,0,0-2.61-2.61Z" fill="#093f68"/><rect x="136.16" y="225.72" width="21.83" height="7.81" fill="#093f68"/><path d="M158,234.53H136.16a1,1,0,0,1-1-1v-7.81a1,1,0,0,1,1-1H158a1,1,0,0,1,1,1v7.81A1,1,0,0,1,158,234.53Zm-20.82-2H157v-5.81H137.16Z" fill="#093f68"/><rect x="129.14" y="232.91" width="34.8" height="4.61" rx="2.19" fill="#673119"/><path d="M161.74,238.52H131.33a3.19,3.19,0,0,1-3.19-3.19v-.23a3.19,3.19,0,0,1,3.19-3.19h30.41a3.2,3.2,0,0,1,3.2,3.19v.23A3.2,3.2,0,0,1,161.74,238.52Zm-30.41-4.61a1.19,1.19,0,0,0-1.19,1.19v.23a1.19,1.19,0,0,0,1.19,1.19h30.41a1.19,1.19,0,0,0,1.2-1.19v-.23a1.19,1.19,0,0,0-1.2-1.19Z" fill="#093f68"/><rect x="114.69" y="176.92" width="62.46" height="37.93" fill="#fff"/><path d="M177.15,215.85H114.69a1,1,0,0,1-1-1V176.92a1,1,0,0,1,1-1h62.46a1,1,0,0,1,1,1v37.93A1,1,0,0,1,177.15,215.85Zm-61.46-2h60.46V177.92H115.69Z" fill="#093f68"/><rect x="218.77" y="172.14" width="70.63" height="53.58" rx="3.61" fill="#673119"/><path d="M285.78,226.72h-63.4a4.62,4.62,0,0,1-4.61-4.61V175.75a4.62,4.62,0,0,1,4.61-4.61h63.4a4.61,4.61,0,0,1,4.61,4.61v46.36A4.61,4.61,0,0,1,285.78,226.72Zm-63.4-53.58a2.61,2.61,0,0,0-2.61,2.61v46.36a2.61,2.61,0,0,0,2.61,2.61h63.4a2.61,2.61,0,0,0,2.61-2.61V175.75a2.61,2.61,0,0,0-2.61-2.61Z" fill="#093f68"/><rect x="244.32" y="225.72" width="21.83" height="7.81" fill="#093f68"/><path d="M266.15,234.53H244.32a1,1,0,0,1-1-1v-7.81a1,1,0,0,1,1-1h21.83a1,1,0,0,1,1,1v7.81A1,1,0,0,1,266.15,234.53Zm-20.83-2h19.83v-5.81H245.32Z" fill="#093f68"/><rect x="237.3" y="232.91" width="34.8" height="4.61" rx="2.19" fill="#673119"/><path d="M269.91,238.52H239.5a3.2,3.2,0,0,1-3.2-3.19v-.23a3.2,3.2,0,0,1,3.2-3.19h30.41a3.19,3.19,0,0,1,3.19,3.19v.23A3.19,3.19,0,0,1,269.91,238.52Zm-30.41-4.61a1.19,1.19,0,0,0-1.2,1.19v.23a1.19,1.19,0,0,0,1.2,1.19h30.41a1.19,1.19,0,0,0,1.19-1.19v-.23a1.19,1.19,0,0,0-1.19-1.19Z" fill="#093f68"/><rect x="222.85" y="176.92" width="62.46" height="37.93" fill="#fff"/><path d="M285.31,215.85H222.85a1,1,0,0,1-1-1V176.92a1,1,0,0,1,1-1h62.46a1,1,0,0,1,1,1v37.93A1,1,0,0,1,285.31,215.85Zm-61.46-2h60.46V177.92H223.85Z" fill="#093f68"/><path d="M255.24,166.83a1,1,0,0,1-1-1v-8.46c0-3.29-3.5-6-7.8-6H153.56c-4.3,0-7.8,2.68-7.8,6v8.46a1,1,0,1,1-2,0v-8.46c0-4.4,4.4-8,9.8-8h92.88c5.4,0,9.8,3.57,9.8,8v8.46A1,1,0,0,1,255.24,166.83Z" fill="#093f68"/><circle cx="200" cy="150.39" r="5.77" fill="#093f68"/><path d="M200,157.16a6.77,6.77,0,1,1,6.77-6.76A6.77,6.77,0,0,1,200,157.16Zm0-11.53a4.77,4.77,0,1,0,4.77,4.77A4.78,4.78,0,0,0,200,145.63Z" fill="#093f68"/><path d="M199.9,145.63h0a1,1,0,0,1-1-1c.18-5.11.27-10.79.14-12.05a1,1,0,0,1,.15-1.22,1.07,1.07,0,0,1,1.14-.22c.75.33,1,.45.57,13.56A1,1,0,0,1,199.9,145.63Z" fill="#093f68"/></g></svg>