<svg version="1.1" id="Capa_1" xmlns="http://www.w3.org/2000/svg" xmlns:xlink="http://www.w3.org/1999/xlink" x="0px" y="0px"
	 viewBox="0 0 325.592 325.592" style="enable-background:new 0 0 325.592 325.592;" xml:space="preserve">
<g>
	<path fill="#f9f9f9" d="M233.008,136.025l-11.44-11.442c-4.7-4.699-10.948-7.287-17.595-7.287c-6.646,0-12.895,2.588-17.596,7.287l-34.605,34.606
		c-4.776,4.776-7.195,11.028-7.269,17.302c-6.542,0.072-12.681,2.648-17.313,7.28l-34.604,34.605
		c-4.701,4.7-7.29,10.95-7.289,17.598c0.001,6.646,2.589,12.894,7.289,17.593l11.439,11.438c4.699,4.702,10.948,7.291,17.594,7.291
		c6.646,0,12.894-2.589,17.597-7.289l34.605-34.605c4.63-4.631,7.206-10.767,7.281-17.302c6.535-0.076,12.67-2.65,17.303-7.281
		l34.604-34.605c4.7-4.7,7.288-10.949,7.288-17.595C240.296,146.973,237.707,140.724,233.008,136.025z M163.213,219.795
		l-34.605,34.604c-1.868,1.867-4.351,2.896-6.99,2.896c-2.638,0-5.119-1.028-6.986-2.896L103.19,242.96
		c-1.866-1.866-2.895-4.348-2.895-6.987c0-2.64,1.027-5.122,2.896-6.988l34.606-34.607c1.866-1.866,4.348-2.893,6.987-2.893
		c2.64,0,5.121,1.027,6.987,2.895l0.417,0.417l-22.923,22.924c-2.929,2.93-2.929,7.678,0,10.607
		c1.465,1.464,3.385,2.196,5.304,2.196c1.919,0,3.839-0.732,5.304-2.196l22.924-22.924l0.417,0.417
		c1.866,1.866,2.895,4.348,2.895,6.987C166.108,215.446,165.08,217.929,163.213,219.795z M222.4,160.608l-34.602,34.604
		c-1.868,1.867-4.351,2.896-6.991,2.896c-2.64,0-5.121-1.027-6.987-2.895l-0.417-0.417l22.925-22.924
		c2.929-2.93,2.929-7.678,0-10.607c-2.93-2.928-7.678-2.928-10.607,0l-22.925,22.925l-0.417-0.417
		c-3.853-3.854-3.853-10.124,0-13.977l34.604-34.605c1.867-1.867,4.349-2.895,6.989-2.895c2.64,0,5.122,1.027,6.988,2.894
		l11.44,11.442c1.866,1.866,2.895,4.348,2.895,6.987C225.296,156.259,224.268,158.741,222.4,160.608z"/>
	<path fill="#f9f9f9" d="M308.092,8.463H17.5c-9.649,0-17.5,7.851-17.5,17.5v273.666c0,9.649,7.851,17.5,17.5,17.5h290.592
		c9.649,0,17.5-7.851,17.5-17.5V25.963C325.592,16.313,317.741,8.463,308.092,8.463z M273.466,35.296c7.994,0,14.5,6.505,14.5,14.5
		s-6.506,14.5-14.5,14.5c-7.996,0-14.5-6.505-14.5-14.5S265.47,35.296,273.466,35.296z M224.294,35.296
		c7.995,0,14.5,6.505,14.5,14.5s-6.505,14.5-14.5,14.5c-7.995,0-14.5-6.505-14.5-14.5S216.299,35.296,224.294,35.296z
		 M44.399,42.296h58.5c4.143,0,7.5,3.357,7.5,7.5s-3.357,7.5-7.5,7.5h-58.5c-4.143,0-7.5-3.357-7.5-7.5S40.257,42.296,44.399,42.296
		z M297.796,286.806c0,1.258-1.024,2.283-2.283,2.283H30.079c-1.259,0-2.283-1.025-2.283-2.283V98.336h270V286.806z"/>
	</g>
</svg>
