<?xml version="1.0" standalone="no"?>
<svg width="100%" height="100%" xmlns="http://www.w3.org/2000/svg" xmlns:xlink="http://www.w3.org/1999/xlink"><defs><pattern id="pattern" width="81" height="81" viewBox="0 0 40 40" patternUnits="userSpaceOnUse" patternTransform="rotate(155)"><rect id="pattern-background" width="800" height="200" fill="rgba(127, 156, 245,1)"></rect> <path fill="rgba(103, 49, 25,1)" d="M0 26a 8-8 0 0 0 8-8a 12-12 0 0 1 12-12v4a-8 8 0 0 0-8 8a-12 12 0 0 1-12 12zM0 66a 8-8 0 0 0 8-8a 12-12 0 0 1 12-12v4a-8 8 0 0 0-8 8a-12 12 0 0 1-12 12z"></path><path fill="#ecc94b" d="M20 28.5a 8.5-8.5 0 0 0 8.5-8.5a 11.5-11.5 0 0 1 11.5-11.5v3a-8.5 8.5 0 0 0-8.5 8.5a-11.5 11.5 0 0 1-11.5 11.5z"></path></pattern> <!----> <!----></defs> <rect fill="url(#pattern)" height="200" width="800"></rect></svg>