<?xml version="1.0" encoding="iso-8859-1"?>
<!-- Generator: Adobe Illustrator 19.0.0, SVG Export Plug-In . SVG Version: 6.00 Build 0)  -->
<svg version="1.1" id="Layer_1" xmlns="http://www.w3.org/2000/svg" xmlns:xlink="http://www.w3.org/1999/xlink" x="0px" y="0px"
	 viewBox="0 0 512 512" style="enable-background:new 0 0 512 512;" xml:space="preserve">
<path style="fill:#63842C;" d="M507.242,206.72C484.267,88.918,380.526,0,256,0C114.616,0,0,114.616,0,256
	c0,118.597,80.653,218.342,190.098,247.42L507.242,206.72z"/>
<path style="fill:#274E2D;" d="M512,256c0-16.858-1.647-33.331-4.758-49.28L356.174,55.652L124.383,437.704l65.715,65.715
	C211.127,509.007,233.213,512,256,512C397.385,512,512,397.385,512,256z"/>
<path style="fill:#92CCFF;" d="M356.174,133.565v-33.391H211.478L256,450.783h100.174c24.487,0,44.522-20.035,44.522-44.522V178.087
	C400.696,153.6,380.661,133.565,356.174,133.565z"/>
<path style="fill:#C9E5FF;" d="M155.826,100.174v33.391c-24.487,0-44.522,20.035-44.522,44.522v228.174
	c0,24.487,20.035,44.522,44.522,44.522H256V100.174H155.826z"/>
<polygon style="fill:#C9A06C;" points="356.174,55.652 256,55.652 233.739,100.174 356.174,100.174 "/>
<rect x="155.826" y="55.652" style="fill:#DBBC82;" width="100.174" height="44.522"/>
<polygon style="fill:#92CCFF;" points="367.304,89.043 256,89.043 233.739,100.174 256,111.304 367.304,111.304 "/>
<rect x="144.696" y="89.043" style="fill:#C9E5FF;" width="111.304" height="22.261"/>
<path style="fill:#DDD532;" d="M222.609,185.878L256,428.522h100.174c12.275,0,22.261-9.986,22.261-22.261V208.139L222.609,185.878z
	"/>
<path style="fill:#FFF3AD;" d="M356.174,155.826h-22.261v-44.522H256l-33.391,51.2L256,208.139
	c30.603,0.003,30.606,17.809,61.214,17.809c30.611,0,30.611-17.809,61.221-17.809v-30.052
	C378.435,165.812,368.449,155.826,356.174,155.826z"/>
<path style="fill:#FFE65A;" d="M133.565,208.139v198.122c0,12.275,9.986,22.261,22.261,22.261H256V185.878L133.565,208.139z"/>
<path style="fill:#FFFFFF;" d="M178.087,111.304v44.522h-22.261c-12.275,0-22.261,9.986-22.261,22.261v30.052
	c30.608,0,30.608,17.809,61.215,17.809c30.606,0,30.606-17.809,61.213-17.809c0.007,0,0.007-96.835,0.007-96.835H178.087z"/>
<path style="fill:#365F2C;" d="M356.142,377.155l-5.224-161.888l-67.401,0.003l-5.224,161.884c-0.013,0.426-0.032,0.85-0.032,1.28
	c0,21.515,17.441,38.957,38.957,38.957s38.957-17.441,38.957-38.957C356.174,378.005,356.156,377.581,356.142,377.155z"/>
<path style="fill:#44702A;" d="M350.918,215.267l-0.337-10.45c-0.58-17.933-15.29-32.295-33.363-32.295
	s-32.784,14.362-33.363,32.295l-0.337,10.455c8.83,4.957,16.347,10.677,33.697,10.677
	C334.569,225.948,342.085,220.225,350.918,215.267z"/>
<path style="fill:#81982D;" d="M233.707,377.155l-5.224-161.89l-67.401,0.003l-5.224,161.887c-0.013,0.426-0.032,0.85-0.032,1.28
	c0,21.515,17.441,38.957,38.957,38.957s38.957-17.441,38.957-38.957C233.739,378.005,233.721,377.581,233.707,377.155z"/>
<path style="fill:#A0AD2F;" d="M194.783,172.522c-18.074,0-32.784,14.362-33.363,32.295l-0.337,10.453
	c8.831,4.957,16.347,10.68,33.699,10.68c17.355,0,24.87-5.725,33.703-10.683l-0.337-10.448
	C227.566,186.883,212.856,172.522,194.783,172.522z"/>
<path style="fill:#63842C;" d="M289.363,204.817c-0.58-17.933-15.29-32.295-33.363-32.295l-11.13,68.622l44.948-22.258
	L289.363,204.817z"/>
<path style="fill:#81982D;" d="M222.637,204.817l-0.454,14.064L256,218.883v-46.362
	C237.926,172.522,223.216,186.883,222.637,204.817z"/>
<path style="fill:#44702A;" d="M294.924,377.155l-5.107-158.268c-8.883-4.972-16.391-10.745-33.818-10.748l-22.261,104.626
	L256,417.391c21.515,0,38.957-17.441,38.957-38.957C294.957,378.005,294.939,377.581,294.924,377.155z"/>
<path style="fill:#63842C;" d="M255.992,208.139c-17.424,0-24.93,5.77-33.81,10.742l-5.107,158.274
	c-0.013,0.426-0.032,0.85-0.032,1.28c0,21.515,17.441,38.957,38.957,38.957C256,417.391,256,208.139,255.992,208.139z"/>
<rect x="233.773" y="243.59" style="fill:#44702A;" width="22.229" height="22.261"/>
<rect x="256.033" y="288.111" style="fill:#365F2C;" width="22.229" height="22.261"/>
<g>
	<polygon style="fill:#63842C;" points="156.577,354.894 155.858,377.155 178.087,377.155 178.087,354.894 	"/>
	<rect x="178.12" y="288.111" style="fill:#63842C;" width="22.229" height="22.261"/>
</g>
<g>
	<rect x="311.686" y="332.633" style="fill:#274E2D;" width="22.229" height="22.261"/>
	<polygon style="fill:#274E2D;" points="353.269,288.111 331.726,288.111 331.726,310.372 353.987,310.372 	"/>
</g>
<g>
</g>
<g>
</g>
<g>
</g>
<g>
</g>
<g>
</g>
<g>
</g>
<g>
</g>
<g>
</g>
<g>
</g>
<g>
</g>
<g>
</g>
<g>
</g>
<g>
</g>
<g>
</g>
<g>
</g>
</svg>
