<svg xmlns="http://www.w3.org/2000/svg" xmlns:xlink="http://www.w3.org/1999/xlink" id="_1-10" data-name="#1-10" class="illustration styles_illustrationTablet__1DWOa" viewBox="22.79 3.55 354.42 289.36"><defs><linearGradient id="linear-gradient" x1="303.9" y1="223.01" x2="277.12" y2="249.28" gradientUnits="userSpaceOnUse"><stop offset="0" stop-color="#d46a00"/><stop offset="1" stop-color="#ffcd62"/></linearGradient><linearGradient id="linear-gradient-2" x1="126.08" y1="150.49" x2="115.39" y2="163.48" xlink:href="#linear-gradient"/><linearGradient id="linear-gradient-3" x1="89.75" y1="137.91" x2="75.05" y2="155.09" xlink:href="#linear-gradient"/><linearGradient id="linear-gradient-4" x1="344.27" y1="216.09" x2="326.67" y2="230.05" xlink:href="#linear-gradient"/><linearGradient id="linear-gradient-5" x1="157.94" y1="194.6" x2="144.98" y2="216.82" xlink:href="#linear-gradient"/></defs><title>-</title><path d="M27.17,148.59l118-70.23a9,9,0,0,1,9.16,0L372.8,207.27a9,9,0,0,1,.15,15.39l-110.17,68a15,15,0,0,1-15.39.23L27.28,164.1A9,9,0,0,1,27.17,148.59Z" fill="#6de2fc"/><path d="M27.17,148.6l118-70.23a9,9,0,0,1,9.16,0L372.8,207.28a9,9,0,0,1,.15,15.39l-110.17,68a15,15,0,0,1-15.39.23L27.28,164.11A9,9,0,0,1,27.17,148.6Z" fill="#ffcd62"/><path d="M115.4,93.43a5.79,5.79,0,0,1-1.22.75.2.2,0,0,1-.18.26l-.65,0a4.86,4.86,0,0,1-4-.82A12.1,12.1,0,0,1,106.67,92c-2-1.58-4-3.92-6.27-5.56,0,.46.06.92.11,1.36l.49,4.41.87,7.82c0,.14,0,.55.07.67,3.78,4.88,14.15,3.16,14.15,3.16S122.23,88,115.4,93.43Z" fill="#f47a63"/><polyline points="272.66 224.88 245.82 244.48 285.19 269.1 310.54 252" fill="url(#linear-gradient)"/><polyline points="116.33 151.66 104.13 160.9 118.4 170.53 132.68 158.72" fill="url(#linear-gradient-2)"/><polyline points="72.99 136.64 51.34 150.41 81.17 167.74 106.18 151.11" fill="url(#linear-gradient-3)"/><path d="M125,142.36s-1.09,6.07.68,6.78,9,6.34,7.9,8.6c-2.47,5.18-17.24-6.08-17.24-6.08l1.83-12.84" fill="#1d3f75"/><path d="M115.67,119.15c0,1.17-1,21.36-1,21.36s8.21,7.57,14.32,7.09l3-19.6" fill="#fff7e1"/><path d="M101.23,135.52s10.9,1.25,17.32-5.38c3.73-3.86,10.78-10.45,10.78-10.45l-26-1.91" fill="#fff7e1"/><path d="M115.51,45l40.14,23.47V79.63s-7.22-4.49-7.87,1.84c-.67,6.51,7.87,9.1,7.87,9.1l-.28,17.18-16.91-9.5s.33-7.46-5-9.82c-5.63-2.47-5.17,4-5.17,4L115.2,85l.31-40" fill="#673119"/><path d="M155.65,50.83V36.37s-4.45-.27-5.55-4,1.47-6.93,5.55-5.48V9.43l51.41,29.88V59.53s8.52.75,8.28,7-8.28,2.11-8.28,2.11V80.51L185.15,67.34s2-8.6-5.17-11.42c-5.19-2-5.81,5.21-5.81,5.21L155.65,50.83" fill="#673119"/><path d="M155.37,107.74v13.94s-7.75-5-10.26-.31S154,131,154,131v16.28l53.06,30.63V137.68Z" fill="#673119"/><path d="M121.33,48.39s-.93,8.22,3.44,10.58c4.12,2.22,4.93-5.94,4.93-5.94l16.69,9.56V21.19L116.14,3.94s-8.92-2.42-10.45,4.83l.55,30.86Z" fill="#6de2fc"/><path d="M174.17,78.75s-.49-6.73,7.13-5.48,4.88,13.27,4.88,13.27" fill="#6de2fc"/><path d="M270.83,128.11l.46-34.88s1-5.48-3.4-8L217.09,55.88V76.1s9.69,3,8.1,8-8.1,1.1-8.1,1.1V97.08Z" fill="#6de2fc"/><path d="M115.2,85l13.05,7.45s-.44-7.11,5.17-4,5,9.82,5,9.82l18.43,10.39v40.53l-38.29-22.3a9.31,9.31,0,0,1-3.4-5.89C114.74,117.22,115.2,85,115.2,85Z" fill="#6de2fc"/><path d="M155.37,107.74l19.32,11.18s-3.35,7.81,2.72,10.82,6.42-5.28,6.42-5.28l23.23,13.22v-15s-7.77-.55-9.2-6,6.38-5.07,9.2-3.25V98.13L190.24,88,155.65,68.44V79.63s-6.92-4.78-8.46.62,2.42,9.28,8.46,10.32l-.28,17.18" fill="#6de2fc"/><path d="M207.06,144.45v16.94s-8.09-4.12-9.55.18,9.55,9.56,9.55,9.56v13.57l41.49,24s9.51,5.34,11.41-5.11l.22-29-21.48-12.26s1.47-10.34-5.21-13.34-6,6.95-6,6.95Z" fill="#6de2fc"/><path d="M121.33,48.39s-.93,8.22,3.44,10.58c4.12,2.22,4.93-5.94,4.93-5.94l16.69,9.56V21.19L116.14,3.94s-8.92-2.42-10.45,4.83l.55,30.86Z" fill="#2c858d"/><path d="M174.17,78.75s-.49-6.73,7.13-5.48,4.88,13.27,4.88,13.27" fill="#2c858d"/><path d="M270.83,128.11l.46-34.88s1-5.48-3.4-8L217.09,55.88V76.1s9.69,3,8.1,8-8.1,1.1-8.1,1.1V97.08Z" fill="#2c858d"/><path d="M115.2,85l13.05,7.45s-.44-7.11,5.17-4,5,9.82,5,9.82l18.43,10.39v40.53l-38.29-22.3a9.31,9.31,0,0,1-3.4-5.89C114.74,117.22,115.2,85,115.2,85Z" fill="#2c858d"/><path d="M155.37,107.74l19.32,11.18s-3.35,7.81,2.72,10.82,6.42-5.28,6.42-5.28l23.23,13.22v-15s-7.77-.55-9.2-6,6.38-5.07,9.2-3.25V98.13L190.24,88,155.65,68.44V79.63s-6.92-4.78-8.46.62,2.42,9.28,8.46,10.32l-.28,17.18" fill="#2c858d"/><path d="M207.06,144.45v16.94s-8.09-4.12-9.55.18,9.55,9.56,9.55,9.56v13.57l41.49,24s9.51,5.34,11.41-5.11l.22-29-21.48-12.26s1.47-10.34-5.21-13.34-6,6.95-6,6.95Z" fill="#2c858d"/><path d="M207.06,98.13l23.61,13.47s-.86-7.54,6.38-5.42,5.48,12.49,5.48,12.49l18.27,10.48-.61,38.58-21.48-12.26s1-11.12-5.21-13.34-6,6.95-6,6.95l-20.45-11.4v-15c-5.19-.09-11-3.74-9.2-8.3s9.2-1,9.2-1V98.13" fill="#673119"/><path d="M283.21,226.38c-.3-.37-9-2.37-10.55-1.49s.55,3.25,4.49,5.57,7.32,4.34,8.91,3.84,3.31-1.41,3.31-2.32v-9.19" fill="#1d3f75"/><path d="M302.63,243c0,.53,1.05,2.65,0,3.17s-8.16,2.18-9.61,4.18-.94,3.53,0,4.07S310.54,252,310.54,252l-2-11.29" fill="#1d3f75"/><path d="M297.9,153s-.95-3.94-6.62-5.71-4.91,10.81-4.91,10.81" fill="#1d3f75"/><path d="M287.08,172.5c-.59.26-14.92,10.86-13.7,27.13.74,9.82,7.89,26.3,7.89,26.3s11.54,7.34,19,5.48" fill="#f7931e"/><path d="M284,177.19s-3.83,16.65-2.41,27,16.3,40.1,16.3,40.1a40.06,40.06,0,0,0,15.45-1.48s-9-35.14-9.83-39,0-24.93,0-24.93" fill="#f7931e"/><path d="M289.43,148.45s-18.08-7.75-23.91-11.14c0,0-1.54,6.16-1.23,7s15.36,16.46,23.17,17.79" fill="#1d3f75"/><path d="M75.78,125.58s-3.32-2.45-4.57-2.06-1.73,14.22-.86,15.07,3.77,4,5.43,3.34,2.62-3.34,2.62-3.34" fill="#1d3f75"/><path d="M106.3,117.1l-19.78,1.21,3.73,13.91L77.5,122.59c-2.48,2.65-2.07,5.47-2.2,9A20.47,20.47,0,0,0,76,138.3c.07.24.15.47.24.7,1.19,1.09,2.57,2.05,3.52,2.8,2.29,1.81,4.51,3.7,6.76,5.56,3.18,2.62,6.21,5.13,10.24,6.33s11.08-1.81,11.9-6.51C110.09,138.76,107.48,125.49,106.3,117.1Z" fill="#fff7e1"/><path d="M261.87,157.25l-3.76-1.72c-.67-.31-1.25.69-.58,1l3.76,1.72C262,158.55,262.54,157.56,261.87,157.25Z" fill="#606060"/><path d="M302.78,178q-3.17-9.94-5.66-20.08c-.18-.72-1.29-.41-1.11.31q2.48,10.14,5.66,20.08C301.89,179,303,178.69,302.78,178Z" fill="#606060"/><path d="M88.49,83.49c-.76-1.33-3.12-3.07-4.5-1.54a1.62,1.62,0,0,0,.23,2.25A6.79,6.79,0,0,0,87,85.34a.73.73,0,0,0,.94-.71A.77.77,0,0,0,88.49,83.49Z" fill="#fbb5ad"/><path d="M105.37,108.62l-20.28-5s.63,8.8,1.42,14.67c3.63,1.63,8.05,1.6,11.9,1a25.41,25.41,0,0,0,7.88-2.24,17.78,17.78,0,0,0,2.32-1.44C108.3,113.53,105.62,110.77,105.37,108.62Z" fill="#f47a63"/><path d="M110,112.89c0,1.59-.42,5.51-.51,7.1-8.54-2.28-27-8.46-28.28-21.19a11.58,11.58,0,0,1,.6-5.12,24,24,0,0,1,4.26-4.48c2.18-2,4.88-4.07,7.88-4.6,3.69-.66,6.6,1.74,9.25,4.24,1,2.31-1.88,4.57-1.5,6.92l5.16,15.5,3.15,1.62" fill="#f47a63"/><path d="M94,79.19s2.24,10.41-1.19,11.73-6.93-1.08-7.54-3a14.81,14.81,0,0,1-.24-5S87.63,79.22,94,79.19Z" fill="#fbb5ad"/><path d="M94.41,77.33c.11-2.53-3.42-4.13-5.05-2a3.67,3.67,0,0,0-3-.85c-1.5.26-2,1.32-1.9,2.73a2.75,2.75,0,0,0-2.23,1.09,2.46,2.46,0,0,0,0,2.83,2.52,2.52,0,0,0-1.55,2.73,3.07,3.07,0,0,0,.53,1.47,2.35,2.35,0,0,0-.15.5,2.43,2.43,0,0,0,1.13,2.43,2.79,2.79,0,0,0,1.59.48,2.15,2.15,0,0,0,2,1.16,2.07,2.07,0,0,0,2-1.91,2,2,0,0,0-.11-.84,4.88,4.88,0,0,0,.25-3.34,1.79,1.79,0,0,0,.43-.21,2,2,0,0,0,.81-1.2,2.88,2.88,0,0,0,1.49.13,1.37,1.37,0,0,0,1-.91,3.37,3.37,0,0,0,3.57-1.26A2.37,2.37,0,0,0,94.41,77.33Z" fill="#d86212"/><path d="M88.53,86.33a2.49,2.49,0,0,0-1.08-1.64,1.31,1.31,0,0,0-1.87.17,1.5,1.5,0,0,0,.08,1.74c.46.6,1.21.61,1.86.87.39.16.62-.23.54-.56A.5.5,0,0,0,88.53,86.33Z" fill="#fbb5ad"/><path d="M93.34,83.72c0-.24-.42-.14-.37.1l.32,1.63a4.4,4.4,0,0,1,.15.75c0,.45-.22.53-.56.74a.19.19,0,0,0,.19.33c.44-.27.81-.4.78-1A21.35,21.35,0,0,0,93.34,83.72Z" fill="#56403d"/><path d="M94.22,83.28a.19.19,0,0,0,0,.38A.19.19,0,0,0,94.22,83.28Z" fill="#56403d"/><path d="M90.52,84.53a.19.19,0,0,0,0,.38A.19.19,0,0,0,90.52,84.53Z" fill="#56403d"/><path d="M92.48,88a1.32,1.32,0,0,1-1.65-.54.19.19,0,0,0-.33.19,1.71,1.71,0,0,0,2.18.68C92.9,88.25,92.71,87.92,92.48,88Z" fill="#56403d"/><path d="M116,110.63A2.36,2.36,0,0,0,113.9,112c-.31.53-.51,1.1-.86,1.61-.57.82-1,.5-1.84.12s-1.67.9-.77,1.32a5.32,5.32,0,0,0,2.29.79,1.89,1.89,0,0,0,1.22-.88.71.71,0,0,0,1.22.29,8.22,8.22,0,0,0,1.92-2.79A1.36,1.36,0,0,0,116,110.63Z" fill="#fbb5ad"/><path d="M120.67,116.78Q115.36,115,110,113.24c-.22,1.8-.33,3.6-.47,5.4a26,26,0,0,0,5.23,4.82.86.86,0,0,0,1.28-.73,2.8,2.8,0,0,0-.28-1,11.59,11.59,0,0,0,2.31,1.19.86.86,0,0,0,.83-1.42l-.71-.58a7.14,7.14,0,0,0,1.8.08c.9-.08,1.22-1.44.23-1.67-.4-.09-.79-.2-1.18-.33a4.11,4.11,0,0,0,2-.83C121.58,117.77,121.21,117,120.67,116.78Z" fill="#fbb5ad"/><path d="M116.85,88.31a4.81,4.81,0,0,0-2.79,6.52.61.61,0,0,0,.64.39,4.62,4.62,0,0,1,1.7-3.38l0,0c.76-.63,1.71-1.21,2-2C118.87,88.68,117.95,87.94,116.85,88.31Z" fill="#fbb5ad"/><path d="M267.53,155.37a24.94,24.94,0,0,1-6-4.22c.11-2,.23-6.41-2-6-1.08.22-1,1.46-1,2.32a21.11,21.11,0,0,0,.12,2.27c-2.54,1-6.59-.41-8,2.15a.77.77,0,0,0,0,.77,1.4,1.4,0,0,0,.25.28,2.89,2.89,0,0,0-1,.82A.79.79,0,0,0,250,155a2.07,2.07,0,0,0,.49.27.84.84,0,0,0,0,.21c0,.87.68,1.25,1.73,1.35a2,2,0,0,0,2.33,1.23,25,25,0,0,0,4.32-.8,42.51,42.51,0,0,1,4.47,2.16.78.78,0,0,0,1-1.14.75.75,0,0,0,.27-1,.83.83,0,0,0,0-1,.77.77,0,0,0,.62-.39c.48.28,1,.55,1.47.8C267.63,157.13,268.41,155.81,267.53,155.37Z" fill="#fbb5ad"/><path d="M257,152a24.39,24.39,0,0,1-6.12.63.19.19,0,0,0,0,.38,24.8,24.8,0,0,0,6.22-.64C257.34,152.36,257.23,152,257,152Z" fill="#56403d"/><path d="M256.08,154.68a18.36,18.36,0,0,1-5.45.49c-.25,0-.25.37,0,.38a18.74,18.74,0,0,0,5.56-.5C256.43,155,256.32,154.62,256.08,154.68Z" fill="#56403d"/><path d="M255.72,156.22a12.8,12.8,0,0,1-3.41.5.19.19,0,0,0,0,.38,13.19,13.19,0,0,0,3.51-.52A.19.19,0,0,0,255.72,156.22Z" fill="#56403d"/><path d="M282.53,167.74c-.19,1.76.53,5.84,1.47,9.45a22,22,0,0,0,10.73,2.68,28.12,28.12,0,0,0,8.78-1c-.45-8.72-3.81-28.52-8-28.12-5.29.51-10.51,6.77-10.51,6.77-9.82,1.44-22.67-8-22.67-8l-2.7,8.29A34.39,34.39,0,0,0,282.53,167.74Z" fill="#1d3f75"/><path d="M265.54,138.24c-2-2.42-3.31-4.24-6.1-5.73-.83-.44-2.09.53-1.42,1.42a21.83,21.83,0,0,0,2.79,2.75l0,.07s0,.09,0,.13l0,.06a6.08,6.08,0,0,0,.22,4.38,9.49,9.49,0,0,0,3.27,3C264.73,142.3,265.19,140.28,265.54,138.24Z" fill="#fbb5ad"/><path d="M335.58,211.62l-19.83,11.76s.63,7.88,15.8,14.25l22.82-14.2" fill="url(#linear-gradient-4)"/><ellipse cx="346.27" cy="215.19" rx="11.99" ry="11.15" fill="#673119"/><ellipse cx="346.26" cy="208.6" rx="8.98" ry="4.86" fill="#673119"/><path d="M345.8,169.44v38.1a.77.77,0,0,0,1.53,0v-38.1A.77.77,0,0,0,345.8,169.44Z" fill="#1c7377"/><path d="M349.41,168a3.68,3.68,0,0,0,.23-2.91c-.35-1-.86-2.06-1.27-3.09s-.78-1.93-1.23-2.87h0c-.45.23-3.67,5.07-3.8,7.11s2.54,3.74,2.54,3.74l.81.51c.15.09,1.54-1.06,1.7-1.2A4.33,4.33,0,0,0,349.41,168Z" fill="#1c7377"/><path d="M347,179.12h0c3.4-.33,5.74-3.19,7.34-6.16C350.75,173.15,347.44,175.42,347,179.12Z" fill="#1c7377"/><path d="M346.75,179h0c-1-3.25-4.32-5-7.55-5.9C340.13,176.58,343,179.35,346.75,179Z" fill="#1c7377"/><path d="M346.56,188.48v0c4.32-.42,7.31-4.06,9.35-7.84C351.32,180.88,347.1,183.77,346.56,188.48Z" fill="#1c7377"/><path d="M346.23,188.31h0c-1.31-4.14-5.49-6.3-9.61-7.51C337.8,185.24,341.51,188.77,346.23,188.31Z" fill="#1c7377"/><path d="M346.89,199.45v0c4.93-.48,8.33-4.63,10.65-8.93C352.32,190.79,347.51,194.08,346.89,199.45Z" fill="#1c7377"/><path d="M346.51,199.27h0c-1.49-4.72-6.26-7.18-11-8.56C336.91,195.76,341.13,199.78,346.51,199.27Z" fill="#1c7377"/><path d="M177.06,100.09c-.44,4.19-1.26,8.34-1.79,12.52,2.61,1.07,8.05,4.08,8.05,4.08l-1-14.55Z" fill="#673119"/><ellipse cx="179.75" cy="97.14" rx="4.88" ry="6.59" transform="translate(-13.11 29.68) rotate(-9.11)" fill="#673119"/><path d="M148.9,205.91c-1.71,1.58-5.21-4-7.33-3.27a36,36,0,0,1-10.18,2c-3.22.17-6.51-.16-9.25-2a9.51,9.51,0,0,1,.6-15.71L119,185l-12.79,8.9s1.06,18.72,35.64,16.1L182,232.92l10.28-7.77Z" fill="url(#linear-gradient-5)"/><path d="M133.29,206.71c-11.08,0-19.76-5.62-19.76-12.8s8.68-12.8,19.76-12.8,19.76,5.62,19.76,12.8S144.37,206.71,133.29,206.71Zm0-19.95c-8.31,0-14.11,3.77-14.11,7.14S125,201,133.29,201s14.11-3.77,14.11-7.14S141.61,186.76,133.29,186.76Z" fill="#1d3f75"/><path d="M146.91,199.25c.65-.59,27.8,15.68,27.8,15.68l17.57,10.21-3.82,3a3,3,0,0,1-3.38.23L142.8,203.88Z" fill="#1d3f75"/><path d="M191.83,218.12l-7.12,4.73,3.75,5.24,7.65-4.84C196.15,220.76,194.3,218.27,191.83,218.12Z" fill="#1d3f75"/><path d="M183.35,212.74a4.71,4.71,0,0,0-3.63-1.1l-6.79,4.51,3.75,5.24,8.38-5.3A5.14,5.14,0,0,0,183.35,212.74Z" fill="#1d3f75"/><path d="M291,228.5a119.23,119.23,0,0,1-6.54-42.15.24.24,0,0,0-.48,0,119.61,119.61,0,0,0,6.56,42.27C290.65,228.91,291.11,228.79,291,228.5Z" fill="#fff"/><path d="M286.8,157.24a25,25,0,0,1-10.71-1.11c-.29-.1-.42.36-.13.46a25.36,25.36,0,0,0,10.84,1.13C287.1,157.69,287.11,157.21,286.8,157.24Z" fill="#204472"/><path d="M282.53,167.74h2.7L284,177.19S282.68,170.29,282.53,167.74Z" fill="#204472"/><path d="M291.76,146.58c-1.69.9-3.79-.56-5.19-1.46-1.7-1.09-3.41-3-2.44-5.15.15-.32-.37-.51-.52-.19-1,2.24.57,4.39,2.37,5.61,1.6,1.09,4,2.73,6,1.68C292.31,146.92,292.08,146.42,291.76,146.58Z" fill="#009245"/><path d="M283.63,138.22s-4.12,11.24-.26,13.48C287.61,154.16,292,150,292,150s4.22-9.72,0-12.24S284.29,136.83,283.63,138.22Z" fill="#fbb5ad"/><path d="M284.33,147a.82.82,0,0,1-.29-.16,33.51,33.51,0,0,1,1.57-3,.31.31,0,0,0-.54-.31,33.5,33.5,0,0,0-1.67,3.18.33.33,0,0,0,0,.38,1.57,1.57,0,0,0,.72.49C284.55,147.79,284.71,147.18,284.33,147Z" fill="#56403d"/><path d="M297.68,143.93c.49-2.36-.59-4-2.12-5.86q-.18-.22-.39-.44a3.43,3.43,0,0,0,1.29-.81.32.32,0,0,0-.09-.54,2,2,0,0,0-1.56.16,4.65,4.65,0,0,0-.46-1.57.32.32,0,0,0-.54-.05,1.7,1.7,0,0,0-.42,1.38,9.11,9.11,0,0,0-6.27-1.27,5.24,5.24,0,0,0-2.2,1,3.12,3.12,0,0,0-1.7-.3,2.86,2.86,0,0,0-2.57,2.32,2.54,2.54,0,0,0,2.37,2.66,4,4,0,0,0,2-.18c-.59.48-1.06,1.2,0,1.9,1.89,1.23,3.32.36,3.07,1.43-.2.88.79,1.77,1.62,2.09,0,.15,0,.55.06,1.08a2.65,2.65,0,0,1,1.32.4.33.33,0,0,1,.49.24,5.83,5.83,0,0,1-1.18,4.08,12.06,12.06,0,0,0,4-2.44A10.77,10.77,0,0,0,297.68,143.93ZM294,135.76c0,.05,0,.11,0,.16a.32.32,0,0,0,0,.1c0,.11,0,.21,0,.32A1.15,1.15,0,0,1,294,135.76Z" fill="#1c7377"/><path d="M286.14,148a1.75,1.75,0,0,1-2.42.11c-.21-.17-.45.17-.24.34a2.16,2.16,0,0,0,2.93-.13C286.6,148.13,286.33,147.81,286.14,148Z" fill="#56403d"/><path d="M286.21,146.21a.31.31,0,0,0-.22.59A.31.31,0,0,0,286.21,146.21Z" fill="#56403d"/><path d="M282.86,144.1a.31.31,0,0,0-.22.59A.31.31,0,0,0,282.86,144.1Z" fill="#56403d"/><path d="M289.26,147.66s2.67-3.92,3.36-2.05-3.61,3.81-3.61,3.81" fill="#fbb5ad"/><path d="M107.88,122.52c-.11-.6-1-.35-.92.25a125.25,125.25,0,0,1,1.82,13.59c0,.61,1,.61,1,0A127.6,127.6,0,0,0,107.88,122.52Z" fill="#18696d"/><path d="M94.14,145.54a101.35,101.35,0,0,1-3.35-12.66c-.12-.6-1-.35-.92.25a101.35,101.35,0,0,0,3.35,12.66C93.42,146.37,94.34,146.12,94.14,145.54Z" fill="#18696d"/><path d="M102.92,118.2A40,40,0,0,1,85.1,107.13c-.31-.34-.82.17-.5.5a40.75,40.75,0,0,0,18.13,11.25A.36.36,0,0,0,102.92,118.2Z" fill="#af3e2f"/><path d="M110.42,112.47A60.87,60.87,0,0,1,97.11,105c-.37-.27-.73.35-.36.62a61.56,61.56,0,0,0,13.48,7.52C110.65,113.33,110.84,112.65,110.42,112.47Z" fill="#af3e2f"/><path d="M106,106.15l-3.3-10c-.14-.43-.83-.25-.69.19l3.3,10C105.42,106.78,106.11,106.59,106,106.15Z" fill="#af3e2f"/><ellipse cx="196.11" cy="190.7" rx="2.36" ry="66.78" transform="translate(-67.1 265.19) rotate(-60)" fill="#f7b43e"/></svg>