<?xml version="1.0" encoding="iso-8859-1"?>
<!-- Generator: Adobe Illustrator 18.0.0, SVG Export Plug-In . SVG Version: 6.00 Build 0)  -->
<!DOCTYPE svg PUBLIC "-//W3C//DTD SVG 1.1//EN" "http://www.w3.org/Graphics/SVG/1.1/DTD/svg11.dtd">
<svg version="1.1" id="Capa_1" xmlns="http://www.w3.org/2000/svg" xmlns:xlink="http://www.w3.org/1999/xlink" x="0px" y="0px"
	 viewBox="0 0 440.959 440.959" style="enable-background:new 0 0 440.959 440.959;" xml:space="preserve">
<g>
	<path fill="#673119" d="M235.375,175.153c-3.52-4.336-8.887-7.117-14.895-7.117c-6.009,0-11.375,2.78-14.896,7.117
		c-16.225,0.476-18.017,10.79-18.017,15.288c0,2.761,2.238,5,5,5s5-2.239,5-5c0-1.382,0.006-3.649,3.801-4.718
		c-0.039,0.497-0.076,0.994-0.076,1.5c0,2.761,2.238,5,5,5c2.762,0,5-2.239,5-5c0-5.065,4.121-9.186,9.188-9.186
		c5.066,0,9.188,4.121,9.188,9.186c0,2.761,2.238,5,5,5c2.762,0,5-2.239,5-5c0-0.506-0.037-1.003-0.076-1.5
		c3.796,1.068,3.802,3.336,3.802,4.718c0,2.761,2.238,5,5,5c2.762,0,5-2.239,5-5C253.393,185.944,251.6,175.629,235.375,175.153z"/>
	<g>
		<g>
			<path fill="#673119" d="M180.34,156.934c-1.319,0-2.609-0.53-3.54-1.47c-0.93-0.92-1.46-2.21-1.46-3.53c0-1.32,0.53-2.61,1.46-3.54
				c0.931-0.93,2.221-1.46,3.54-1.46c1.32,0,2.601,0.53,3.53,1.46c0.93,0.93,1.47,2.22,1.47,3.54c0,1.32-0.54,2.6-1.47,3.53
				C182.941,156.404,181.66,156.934,180.34,156.934z"/>
		</g>
		<g>
			<path fill="#673119" d="M260.62,156.934c-1.32,0-2.609-0.53-3.54-1.46c-0.93-0.93-1.46-2.22-1.46-3.54c0-1.32,0.53-2.61,1.46-3.54
				c0.931-0.93,2.22-1.46,3.54-1.46c1.32,0,2.61,0.53,3.54,1.46c0.93,0.93,1.46,2.22,1.46,3.54c0,1.31-0.53,2.6-1.46,3.54
				C263.221,156.404,261.941,156.934,260.62,156.934z"/>
		</g>
	</g>
	<path fill="#673119" d="M264.177,222.748l-34.719-9.932c-1.382-0.396-2.87-0.176-4.081,0.602l-4.97,3.198l-4.766-3.16
		c-1.221-0.809-2.732-1.043-4.139-0.64l-34.72,9.932c-2.655,0.759-4.191,3.527-3.433,6.182c0.629,2.196,2.63,3.627,4.805,3.627
		c0.456,0,0.919-0.063,1.378-0.194l2.15-0.615c-0.002,0.049-0.015,0.094-0.015,0.143c0,11.836,20.118,17.227,38.811,17.227
		c18.691,0,38.809-5.391,38.809-17.227c0-0.049-0.013-0.095-0.015-0.144l2.153,0.616c0.459,0.131,0.922,0.194,1.378,0.194
		c2.175,0,4.176-1.431,4.805-3.627C268.368,226.275,266.832,223.507,264.177,222.748z M233.158,224.276l5.356,1.532v11.265
		c-1.611,0.41-3.392,0.783-5.356,1.095V224.276z M207.802,238.168c-1.965-0.312-3.745-0.685-5.357-1.095v-11.266l5.357-1.532
		V238.168z M191.669,231.822c-0.014-0.996-0.324-1.917-0.838-2.691l1.614-0.462v4.116
		C192.032,232.421,191.766,232.092,191.669,231.822z M217.802,239.07v-12.202c1.672,1.002,3.712,0.921,5.268-0.079l0.003,0.004
		l0.051-0.033c0.004-0.003,0.008-0.005,0.013-0.008l0.022-0.015v12.331c-0.877,0.025-1.759,0.048-2.679,0.048
		C219.561,239.118,218.678,239.095,217.802,239.07z M249.288,231.822c-0.097,0.27-0.362,0.598-0.773,0.961v-4.114l1.612,0.461
		C249.612,229.904,249.302,230.826,249.288,231.822z"/>
	<g>
		<path fill="#673119" d="M214.213,117.625c-2.726-0.421-5.281,1.454-5.701,4.183l-0.147,0.958h-50.136c-6.224,0-9.867,2.666-11.828,4.902
			c-5.006,5.71-4.083,13.97-3.961,14.893c0.331,2.513,2.475,4.331,4.944,4.331c0.209,0,0.42-0.013,0.633-0.04
			c2.728-0.342,4.665-2.838,4.341-5.568c-0.144-1.204-0.16-5.083,1.579-7.042c0.324-0.365,1.311-1.475,4.292-1.475h48.601
			l-1.328,8.647c-5.345-4.835-14.432-7.894-25.162-7.894c-17.265,0-30.283,7.917-30.283,18.414c0,10.497,13.02,18.413,30.285,18.413
			c8.61,0,16.164-1.97,21.574-5.246c-0.126,2.528,1.653,4.796,4.21,5.188c0.257,0.04,0.513,0.059,0.765,0.059
			c2.427,0,4.557-1.769,4.937-4.242l6.57-42.779C218.816,120.597,216.943,118.044,214.213,117.625z M180.341,160.346
			c-12.194,0-20.285-5.064-20.285-8.413c0-3.35,8.09-8.414,20.283-8.414c12.194,0,20.284,5.065,20.284,8.414
			C200.623,155.282,192.533,160.346,180.341,160.346z"/>
		<path fill="#673119" d="M294.561,127.668c-1.96-2.236-5.604-4.902-11.827-4.902h-50.138l-0.147-0.958c-0.419-2.729-2.968-4.605-5.701-4.183
			c-2.729,0.419-4.602,2.972-4.184,5.701l6.57,42.779c0.38,2.473,2.51,4.242,4.936,4.242c0.252,0,0.508-0.019,0.765-0.059
			c2.557-0.392,4.336-2.66,4.21-5.188c5.41,3.276,12.965,5.246,21.576,5.246c17.265,0,30.283-7.916,30.283-18.413
			c0-10.498-13.02-18.414-30.285-18.414c-10.73,0-19.816,3.059-25.16,7.893l-1.328-8.646h48.602c2.98,0,3.967,1.11,4.29,1.475
			c1.737,1.956,1.722,5.826,1.579,7.037c-0.347,2.727,1.576,5.226,4.305,5.586c0.223,0.029,0.443,0.044,0.661,0.044
			c2.471,0,4.619-1.83,4.951-4.346C298.642,141.639,299.567,133.379,294.561,127.668z M260.619,143.519
			c12.194,0,20.285,5.065,20.285,8.414c0,3.349-8.09,8.413-20.283,8.413c-12.194,0-20.285-5.064-20.285-8.413
			C240.336,148.584,248.426,143.519,260.619,143.519z"/>
	</g>
	<g>
		<path fill="#673119" d="M233.902,264.363c-1.78,0-3.344-0.931-4.229-2.333c-1.334-0.472-4.516-1.138-9.192-1.138
			c-4.677,0-7.858,0.667-9.192,1.138c-0.886,1.402-2.449,2.333-4.23,2.333c-2.762,0-5-2.239-5-5c0-7.37,11.542-8.471,18.422-8.471
			s18.422,1.101,18.422,8.471C238.902,262.124,236.663,264.363,233.902,264.363z"/>
	</g>
	<g>
		<path fill="#673119" d="M205.481,339.514c-1.32,0-2.61-0.53-3.54-1.47c-0.93-0.93-1.46-2.21-1.46-3.53c0-1.32,0.53-2.61,1.46-3.539
			c0.93-0.93,2.22-1.461,3.54-1.461c1.31,0,2.6,0.53,3.53,1.461c0.939,0.94,1.47,2.22,1.47,3.539c0,1.31-0.53,2.6-1.47,3.53
			C208.08,338.984,206.79,339.514,205.481,339.514z"/>
	</g>
	<path fill="#673119" d="M422.68,363.828c-1.95-25.017-13.314-47.489-32.837-64.985c-10.689-9.579-21.023-15.2-26.072-17.637
		c0.276-13.454,4.393-23.122,4.464-23.286c0.021-0.045,0.04-0.091,0.059-0.137c21.962-53.765,11.591-100.371-7.34-120.922
		c-8.15-8.849-8.076-12.844-7.762-29.655c0.068-3.615,0.145-7.711,0.145-12.489c0-39.003-23.283-67.78-67.331-83.221
		C254.657,0.507,223.101,0,220.48,0c-2.621,0-34.178,0.507-65.525,11.496c-44.048,15.44-67.331,44.218-67.331,83.221
		c0,4.78,0.077,8.878,0.145,12.494c0.314,16.808,0.39,20.801-7.762,29.649c-18.93,20.55-29.301,67.157-7.34,120.923
		c0.019,0.046,0.038,0.092,0.059,0.137c0.074,0.168,4.229,9.806,4.507,23.265c-5.033,2.425-15.395,8.051-26.115,17.658
		c-19.522,17.497-30.887,39.968-32.837,64.985c-0.01,0.129,0,72.132,0,72.132c0,2.761,2.238,5,5,5h394.4c2.762,0,5-2.239,5-5
		C422.68,435.959,422.69,363.957,422.68,363.828z M84.974,430.959H28.279v-66.546c3.288-41.075,33.626-63.168,48.148-71.468
		c-1.189,7.387-3.816,15.317-8.821,23.138c-25.424,39.73,2.79,89.732,4.003,91.842c1.144,1.987,3.49,2.942,5.699,2.316
		c2.206-0.626,3.703-2.673,3.633-4.965c-0.463-14.889,1.41-27.67,4.032-38.009V430.959z M215.48,430.959H94.974v-46.301
		c5.031,15.075,10.831,25.875,11.333,26.716c1.706,2.861,4.476,2.597,4.522,2.595c1.874-0.051,3.563-1.148,4.372-2.839
		c0.327-0.683,8.023-17.02,10.096-43.487c0.867-11.077,3.164-21.161,5.306-28.623c11.07,35.011,5.88,65.184,5.819,65.516
		c-0.346,1.904,0.438,3.836,2.012,4.961c1.573,1.126,3.657,1.243,5.344,0.299c29.714-16.577,38.896-53.633,25.689-99.23
		c12.871,8.051,28.965,12.936,46.013,13.727V430.959z M163.405,292.996c-0.336-0.847-8.364-26.406-11.637-42.01
		c16.625,23.081,41.685,38.37,68.638,38.419c0.008,0,0.014,0.002,0.021,0.002c0.018,0,0.037-0.001,0.056-0.001
		c0.018,0,0.036,0.001,0.055,0.001c0.007,0,0.014-0.002,0.02-0.002c26.95-0.049,52.007-15.335,68.632-38.41
		c-3.272,15.601-11.229,40.98-11.531,41.74c-12.985,13.58-34.291,21.675-57.254,21.675
		C197.609,314.409,176.413,306.414,163.405,292.996z M164.336,205.607l-22.981-29.572v-58.194c0-0.126-0.839-12.815,4.181-26.9
		c-0.619,5.236-0.93,11.142-0.828,17.857c0.041,2.735,2.271,4.925,4.997,4.925c0.026,0,0.052,0,0.077,0
		c2.761-0.042,4.966-2.313,4.924-5.075c-0.214-14.218,1.421-24.199,3.999-31.534l18.263,11.388
		c-1.271,6.012-2.382,12.531-3.325,19.555c-0.368,2.737,1.564,5.179,4.289,5.622c3.129,0.509,5.284-1.779,5.621-4.29
		c0.749-5.573,1.579-10.637,2.468-15.241l12.955,8.079c0.823,0.513,1.737,0.758,2.641,0.758c1.669,0,3.3-0.835,4.247-2.355
		c1.462-2.343,0.747-5.427-1.597-6.888L188.3,83.785c7.745-30.961,18.118-34.956,20.003-35.43c2.341-0.21,4.722-0.379,7.177-0.468
		v60.836c0,2.761,2.238,5,5,5c2.762,0,5-2.239,5-5V47.887c2.321,0.084,4.575,0.24,6.794,0.434
		c2.099,0.471,20.078,6.119,25.113,60.86c0.238,2.594,3.243,4.729,5.436,4.521c3.396-0.322,4.773-2.687,4.521-5.437
		c-2.732-29.699-9.316-46.787-16.041-56.625c7.596,2.099,15.235,3.43,20.267,8.861c6.129,6.616,15.133,18.391,14.686,48.147
		c-0.042,2.761,2.163,5.033,4.924,5.075c0.025,0,0.051,0,0.077,0c2.726,0,4.956-2.189,4.997-4.925
		c0.101-6.652-0.202-12.513-0.809-17.714c4.979,14.028,4.192,26.194,4.18,26.369c-0.01,0.129-0.015,45.556-0.015,45.556
		l-20.849,14.934c-2.245,1.608-2.762,4.732-1.153,6.977c0.975,1.363,2.511,2.089,4.068,2.089c1.008,0,2.025-0.304,2.907-0.936
		l15.026-10.763c0,0-0.061,16.478-0.168,18.322c-0.018,0.086-1.279,8.389-3.204,19.751c-2.197,8.158-5.408,15.909-9.446,23.042
		l-14.719-5.409c-2.597-0.955-5.466,0.377-6.418,2.969c-0.952,2.592,0.377,5.465,2.969,6.418l12.662,4.653
		c-14.772,20.667-36.955,34.33-60.803,34.351c-11.922-0.011-23.427-3.431-33.799-9.429l4.56-10.33
		c1.115-2.526-0.029-5.478-2.555-6.593c-2.529-1.116-5.48,0.03-6.594,2.555l-3.852,8.726
		c-15.722-11.987-27.925-30.162-33.524-50.981c-1.923-11.347-3.243-20.492-3.262-20.89l14.982,19.28
		c0.986,1.269,2.461,1.932,3.952,1.932c1.071,0,2.152-0.343,3.064-1.052C165.636,210.929,166.03,207.788,164.336,205.607z
		 M163.07,68.051c7.81-10.896,19.56-14.575,27.56-16.684c-4.41,6.686-8.149,15.674-11.194,26.89L163.07,68.051z M345.987,430.959
		H225.48V324.284c17.082-0.815,33.185-5.734,46.046-13.831c-13.254,45.65-4.08,82.754,25.656,99.344
		c1.688,0.941,3.767,0.825,5.339-0.299c1.573-1.123,2.358-3.054,2.017-4.956c-0.06-0.337-5.252-30.509,5.82-65.521
		c2.142,7.462,4.438,17.546,5.305,28.622c2.072,26.468,9.77,42.805,10.098,43.487c0.81,1.692,2.497,2.839,4.373,2.839
		c2.066,0,3.643-0.991,4.521-2.595c0.471-0.859,6.302-11.641,11.332-26.714V430.959z M351.862,331.615
		c-0.002-0.002-0.002-0.005-0.004-0.007c-15.969-22.356-7.98-49.831,1.272-81.643c2.462-8.467,5.009-17.223,7.183-26.198
		c5.561-22.956-1.314-31.64-8.594-40.835c-7.186-9.077-15.33-19.365-13.72-49.752c3.356-63.342-14.303-74.642-16.327-75.722
		c0,0-3.886-2.128-6.266,1.537c-2.659,4.095,1.559,7.286,1.559,7.286s-0.076-0.032-0.21-0.121
		c0.143,0.095,14.241,10.19,11.258,66.491c-1.81,34.161,7.99,46.541,15.866,56.489c6.7,8.464,11.128,14.057,6.715,32.273
		c-2.121,8.755-4.635,17.4-7.066,25.76c-9.427,32.416-18.318,63.058-0.571,89.12c2.367,21.805-6.204,46.137-12.052,59.689
		c-2.041-6.912-4.314-16.871-5.273-29.118c-1.653-21.133-7.982-38.462-9.917-43.353c1.03-6.611,5.862-37.246,14.004-83.557
		c5.82-33.107,2.495-48.338-1.024-64.465c-2.151-9.852-4.375-20.039-4.375-35.241c0-25.018,0-43.093-9.739-56.659
		c-1.61-2.243-4.734-2.756-6.978-1.146c-2.243,1.61-2.756,4.734-1.145,6.978c7.862,10.952,7.862,26.815,7.862,50.827
		c0,16.28,2.341,27.003,4.605,37.374c3.305,15.137,6.426,29.434,0.945,60.6c-8.535,48.556-13.444,79.94-14.157,84.53
		c-12.498,29.535-13.139,57.312-12.232,72.239c-20.946-18.611-23.741-54.585-7-97.392c0.102-0.217,0.962-2.442,1.331-3.338
		c7.153-17.387,14.323-55.664,18.302-79.204c2.271-8.664,3.498-17.728,3.498-26.988v-70.054c0.196-3.029,1.493-32.272-19.386-54.842
		c-13.167-14.233-37.006-25.395-70.257-25.395c-33.251,0-56.211,11.249-69.308,25.427c-0.343,0.371-19.305,18.323-19.305,54.814
		v70.05c0,9.245,1.223,18.295,3.487,26.946c3.977,23.537,11.149,61.849,18.308,79.246c0.329,0.801,1.286,3.53,1.614,4.046
		c16.436,42.496,13.55,78.174-7.283,96.684c0.907-14.928,0.267-42.704-12.23-72.239c-0.713-4.587-5.623-35.972-14.159-84.53
		c-5.479-31.166-2.358-45.463,0.945-60.6c2.264-10.37,4.604-21.093,4.604-37.374c0-24.012,0-39.876,7.862-50.827
		c1.61-2.243,1.098-5.367-1.146-6.978c-2.243-1.61-5.366-1.098-6.978,1.146c-9.739,13.566-9.739,31.642-9.739,56.659
		c0,15.202-2.224,25.389-4.374,35.241c-3.521,16.126-6.845,31.358-1.025,64.464c8.142,46.31,12.975,76.944,14.006,83.557
		c-1.935,4.891-8.266,22.221-9.919,43.353c-0.959,12.248-3.232,22.207-5.271,29.117c-5.85-13.553-14.42-37.884-12.052-59.688
		c17.746-26.063,8.855-56.707-0.574-89.125c-2.431-8.358-4.944-17.001-7.065-25.754c-4.413-18.217,0.015-23.809,6.715-32.273
		c7.876-9.948,17.677-22.328,15.866-56.489c-2.983-56.3,11.115-66.395,11.258-66.491c-0.134,0.089-0.21,0.121-0.21,0.121
		s4.729-3.544,1.782-7.373c-2.632-3.42-6.489-1.45-6.489-1.45c-2.024,1.08-19.684,12.38-16.327,75.722
		c1.61,30.387-6.534,40.675-13.72,49.752c-7.279,9.195-14.154,17.879-8.594,40.835c2.174,8.974,4.72,17.728,7.182,26.192
		c9.253,31.815,17.244,59.292,1.275,81.649c-0.002,0.002-0.002,0.005-0.004,0.007c-0.002,0.003-0.006,0.006-0.008,0.009
		c-0.656,0.927-13.433,19.336-17.191,51.247c-5.268-16.749-8.875-41.076,4.129-61.397c20.629-32.233,6.857-65.266,5.87-67.531
		c-20.276-49.697-11.387-92.015,5.462-110.307c10.869-11.799,10.733-19.063,10.404-36.612c-0.066-3.572-0.143-7.621-0.143-12.307
		c0-34.79,20.33-59.589,60.426-73.708C188.02,10.454,218.522,10.017,220.487,10c2.161,0.018,32.351,0.465,62.209,10.932
		c40.237,14.104,60.64,38.929,60.64,73.784c0,4.684-0.075,8.731-0.143,12.302c-0.328,17.552-0.464,24.816,10.404,36.617
		c16.85,18.292,25.739,60.612,5.462,110.307c-0.987,2.266-14.757,35.298,5.869,67.531c12.962,20.252,9.373,44.57,4.123,61.336
		c-3.768-31.876-16.526-50.258-17.183-51.185C351.867,331.621,351.863,331.618,351.862,331.615z M412.68,430.959h-56.693V367.27
		c2.621,10.338,4.494,23.119,4.031,38.006c-0.07,2.292,1.427,4.339,3.633,4.965c2.208,0.626,4.556-0.329,5.699-2.316
		c1.214-2.109,29.429-52.112,4.003-91.842c-4.993-7.803-7.61-15.74-8.79-23.142c14.528,8.27,44.82,30.291,48.117,71.473V430.959z"/>
</g>
<g>
</g>
<g>
</g>
<g>
</g>
<g>
</g>
<g>
</g>
<g>
</g>
<g>
</g>
<g>
</g>
<g>
</g>
<g>
</g>
<g>
</g>
<g>
</g>
<g>
</g>
<g>
</g>
<g>
</g>
</svg>
