<svg xmlns="http://www.w3.org/2000/svg" xmlns:xlink="http://www.w3.org/1999/xlink" viewBox="0 0 400 300" width="406" height="306" class="illustration styles_illustrationTablet__1DWOa"><defs><linearGradient id="linear-gradient" x1="258.32" y1="249.58" x2="233.54" y2="223.64" gradientUnits="userSpaceOnUse"><stop offset="0" stop-color="#fff" stop-opacity="0"></stop><stop offset="1" stop-color="#9e005d"></stop></linearGradient><linearGradient id="linear-gradient-2" x1="101.69" y1="195.75" x2="81.77" y2="169.85" xlink:href="#linear-gradient"></linearGradient><linearGradient id="linear-gradient-3" x1="368.13" y1="201.37" x2="360.79" y2="189.06" xlink:href="#linear-gradient"></linearGradient></defs><title>PP</title><g style="isolation: isolate;"><g id="Layer_2" data-name="Layer 2"><path d="M195.22,288.83,15.5,182.61c-5.72-3.21-10.63-8.49-5.05-11.94l180.37-104c2.71-1.68,6.82-2.78,9.57-1.18L389,175c5.72,3.32,6.75,12.6,1,15.93L218.91,288.66A23.9,23.9,0,0,1,195.22,288.83Z" fill="#dd6f31"></path><path d="M245.8,204.75l-50,25.85L239,256.68c.36,0,1.37,10.27-1.35.74,16.7-9.21,37.54-17,49.4-24.31C269.15,220.79,258.8,212.79,245.8,204.75Z" opacity="0.63" fill="url(#linear-gradient)" style="mix-blend-mode: multiply;"></path><path d="M103.44,158.33,44,191.27l43.19,26.07c.36,0,1.37,10.27-1.35.74,16.7-9.21,49.58-26.13,61.44-33.46C129.45,172.3,116.44,166.36,103.44,158.33Z" opacity="0.63" fill="url(#linear-gradient-2)" style="mix-blend-mode: multiply;"></path><path d="M113.22,48.77V90.3a2.39,2.39,0,0,0,3.58,2.07l55.81-29.22V16.62Z" fill="#673119"></path><path d="M113.22,48.77S145.7,54.11,149.29,53s23.32-36.4,23.32-36.4Z" fill="#673119"></path><path d="M113.22,48.77S145.7,54.11,149.29,53s23.32-36.4,23.32-36.4Z" fill="#124577" opacity="0.82"></path><path d="M334.27,67v41.53a2.39,2.39,0,0,1-3.58,2.07L274.88,81.42V34.9Z" fill="#673119"></path><path d="M334.27,67s-32.47,5.34-36.07,4.25-23.32-36.4-23.32-36.4Z" fill="#673119"></path><path d="M334.27,67s-32.47,5.34-36.07,4.25-23.32-36.4-23.32-36.4Z" fill="#124577" opacity="0.82"></path><path d="M40.59,79.91c44.86,16.89,30,94,30,94s4.27-78.7,49.68-105.94S256.35,31.6,292.74,78.61c3.37,4.35,6.76,8.05,8.71,13.38a24.39,24.39,0,0,1-4.91,24.68c-9.56,10-28.3,7.74-38.93.64-9.57-6.39-15.45-16.79-23.37-24.89-7.49-7.66-16.59-11.75-27.28-8.54a25.66,25.66,0,0,0-11.63,7.35c-11.3,12.52-11.58,31.18-4.8,45.93" fill="none" stroke="#2e3192" stroke-linecap="round" stroke-miterlimit="10" stroke-width="2" stroke-dasharray="5 5"></path><path d="M196.95,218.25l1.3-1-1.15-15.18-6.75.24s.34,6.49-1.1,8.08-5.5.82-5.87,1-3.08-.41-4.18.88,4.38,4.42,7.21,4.86a18.16,18.16,0,0,0,5.79-.2s.32-3.93,1.31-3.61,1.37,4.42,1.37,4.42Z" fill="#9c4100"></path><path d="M199.73,170.47c.56,15.88,1.15,36.56,1.15,36.56s-3.66,4.93-13.61,2.83c-1.07-.23-3.44-25.53-4.6-38.69A38.54,38.54,0,0,1,199.73,170.47Z" fill="#653200"></path><path d="M179.36,231.28l1.3-1-1.15-15.18-6.75.24s.34,6.49-1.1,8.08-5.5.82-5.87,1-3.08-.41-4.18.88,4.38,4.42,7.21,4.86a18.16,18.16,0,0,0,5.79-.2s.32-3.93,1.31-3.61,1.37,4.42,1.37,4.42Z" fill="#9c4100"></path><path d="M176.46,173.35a40.56,40.56,0,0,1,14.05-3.47c-.83,5.94-1.59,10.06-1.72,10.37-.33.75-6.5,38.47-6.5,38.47-7.3,2.91-15.91.48-15.91.48s3-29.43,3.22-34.34q0-.79.09-1.59A11.57,11.57,0,0,1,176.46,173.35Z" fill="#653200"></path><path d="M221.29,182.12s-12.35-11.07-21.56-11.66-22.31,8.86-21.28,14.35,18.65,17.29,18.65,17.29" fill="#653200"></path><path d="M196,162.36l9.84-6.89a2.06,2.06,0,0,0,.7-2.54l-7-15.34a2.1,2.1,0,0,0-3-.91l-11,6.78a2.06,2.06,0,0,0-.75,2.71L193,161.63A2.1,2.1,0,0,0,196,162.36Z" fill="#1784aa"></path><path d="M196.9,161.83l9.84-6.89a2.06,2.06,0,0,0,.7-2.54l-7-15.34a2.1,2.1,0,0,0-3-.91l-11,6.78a2.06,2.06,0,0,0-.75,2.71l8.13,15.45A2.1,2.1,0,0,0,196.9,161.83Z" fill="#29abe2"></path><polygon points="195.26 160.89 206.34 153.14 199.07 137.16 186.76 144.75 195.26 160.89" fill="#e4f5fd"></polygon><path d="M200.39,143.94c3.66,2,9.4,4.25,13.25,6.88.62.42,1.54,1.87.93,1.66.26.29-2.26,1.28-2,1.6.08.11-1.63-.82-1.72-.78v0a6.66,6.66,0,0,1-4.72.56l-.64-.46,0,0-.16-.09a.37.37,0,0,0-.11-.11l-.1-.07a.37.37,0,0,0-.14-.23c-.85-.66-2.71-1-2.91-2.12a2.26,2.26,0,0,1,.27-.84.32.32,0,0,0-.07-.43,2.53,2.53,0,0,1,.38-1.94l.05-.06-.22-.25a24.73,24.73,0,0,1-2.84-2.29.57.57,0,0,1-.18-.34.48.48,0,0,1,0-.17A.69.69,0,0,1,200.39,143.94Z" fill="#e85454"></path><path d="M202.15,148.62a.89.89,0,0,0,.05,1.29.19.19,0,0,0,0,.06,1.41,1.41,0,0,0,0,1.45,4.29,4.29,0,0,0,1.72,1.12,2,2,0,0,0,.66.21c1,1.59,4,1.9,5.47.82.19-.14-.06-.4-.25-.26-1.22.91-3.94.63-4.87-.7l.07-.08a1.34,1.34,0,0,0-.16-1.26,2.16,2.16,0,0,0,.42-.42.18.18,0,0,0,0-.11l1.43.73c.21.11.4-.2.19-.31L204.62,150c-.58-.31-2.6-1.07-2-2s3.72,1.27,4.44,1.75c.19.13.38-.18.19-.31a22.14,22.14,0,0,0-3.66-2.05c-.63-.27-1-.24-1.31.46A1.35,1.35,0,0,0,202.15,148.62Zm.32,1.55.29.22.89.55a2.55,2.55,0,0,0,.72.42h0c.17.27.45.88,0,1-.24.06-.81-.34-1-.48a2.3,2.3,0,0,1-.94-.75A1.1,1.1,0,0,1,202.47,150.17Zm-.16-1.17a1.69,1.69,0,0,0,.52.47c.67.41,1.38.78,2.09,1.13-.48.55-.89.16-1.39-.15S201.95,149.63,202.32,149Z" fill="#653200"></path><path d="M211.34,148.09s-2.47.55-2.66,5.69l1.85,4.56,10.07-5.17S218.2,150.16,211.34,148.09Z" fill="#673119"></path><path d="M187.48,150.49c.75,1.64,1.49,3.12,2.13,4.8.46-1.11.89-2,1.44-3.09a.81.81,0,0,1,.08-.1.87.87,0,0,1,1.6.53,6.93,6.93,0,0,1-1.17,2.82.89.89,0,0,1,.23.17c1.45,1.6,1.1,4,.93,6a.76.76,0,0,1-1.14.61.78.78,0,0,1-.39-.1,6.45,6.45,0,0,1-2.62-3.74C187.69,155.89,186.63,153.13,187.48,150.49Z" fill="#e85454"></path><path d="M225.06,150.36l-3.64-1.07c-.9.13-8.78,3.31-12.05,8.86a34.33,34.33,0,0,0-.8,5.14c-.3,2.31-.54,4.63-.66,7a50.12,50.12,0,0,0,.12,7.59c.11,1.08.18,1.62.37,2.69a4.86,4.86,0,0,0,1.43.85c10.92,3.75,18.93-2.33,19.26-3.2s.85-13.33,1.11-20.74A7.14,7.14,0,0,0,225.06,150.36Z" fill="#673119"></path><path d="M215.43,137.53S213,149.73,217.52,151s9.89-3.77,10.28-6.28S221.8,133.46,215.43,137.53Z" fill="#e85454"></path><path d="M217.19,142.41c-.14-.2-2.75-.88-3.3-3.06s1.44-5,6-5.44,12.17,2,11,13.88-13.22,6.75-14,3A22.44,22.44,0,0,1,217.19,142.41Z" fill="#653200"></path><path d="M217.19,142.41s-.76,4-2.42,5.78-3,4.91-1,7.32,0,3.72-2.87,6-1.1,11.7,9.26,9.4,15.25-8.49,15.25-8.49S232.78,144,230,139.69" fill="#653200"></path><path d="M209.35,158.33s-2.35,7.78-4.69,8-5.9-3.2-8.4-7.67c0,0-6.51-.61-7.2,6.24,0,0,8.26,16.56,20.29,12.52" fill="#673119"></path><path d="M252.59,217.63c7.4-9.13,10.8-20.81,10.65-32.5a36.82,36.82,0,0,0-10.46-25.37c-6.11-6.19-15.31-9.25-23.49-5-6.78,3.48-10.07,10.17-12.43,17C214,179.93,213.07,190.44,203,193c-3.92,1-8,.31-12.07,0-7-.47-14.45,1.79-16.64,9.2-3.92,13.28,14.13,24.62,24.28,28.9,17.66,7.46,39,2.74,52-11.13Q251.6,218.85,252.59,217.63Z" fill="#7ec971"></path><path d="M174.6,202.39c7.18,12.84,30.55,18.64,43.3,18,11.57-.59,18.88-7.57,18.09-19.16-.43-6.36-2.48-12.71-1.9-19.11,1-10.91,11.45-19.87,22.14-17.74a37.08,37.08,0,0,1,7.15,21.48c.15,11.69-3.24,23.37-10.65,32.5q-1,1.22-2.07,2.38c-13,13.87-34.31,18.59-52,11.13-10.15-4.29-28.2-15.62-24.28-28.9C174.46,202.76,174.54,202.58,174.6,202.39Z" fill="#61af51"></path><path d="M44,148.25v41.53a2.39,2.39,0,0,0,3.58,2.07l55.81-31V116.1Z" fill="#673119"></path><path d="M44,148.25s32.47,5.34,36.07,4.25,23.32-36.4,23.32-36.4Z" fill="#673119"></path><path d="M44,148.25s32.47,5.34,36.07,4.25,23.32-36.4,23.32-36.4Z" fill="#124577" opacity="0.82"></path><polygon points="270.96 112.44 275.26 134.34 289.54 121.56 270.96 112.44" fill="#033e93"></polygon><polygon points="247.92 50.08 256.62 59.3 259.61 48.83 247.92 50.08" fill="#033e93"></polygon><polygon points="136.63 66.84 130.26 55.88 124.97 65.39 136.63 66.84" fill="#033e93"></polygon><polygon points="34.75 77.9 43.44 87.12 46.44 76.66 34.75 77.9" fill="#033e93"></polygon><path d="M361.17,206.45c9-5.32,18.87-9.4,27.39-15.49-9.21-6-18.44-11.88-28-17.1l-24.37,18.56,24,14.45Z" opacity="0.63" fill="url(#linear-gradient-3)" style="mix-blend-mode: multiply;"></path><ellipse cx="347.46" cy="178" rx="19.2" ry="17.85" fill="#673119"></ellipse><ellipse cx="347.45" cy="167.46" rx="14.38" ry="7.78" fill="#1d3f75"></ellipse><path d="M346.71,104.78v61a1.23,1.23,0,0,0,2.46,0v-61A1.23,1.23,0,0,0,346.71,104.78Z" fill="#1c7377"></path><path d="M352.48,102.51a5.9,5.9,0,0,0,.37-4.66c-.56-1.68-1.38-3.3-2-4.94s-1.25-3.09-2-4.6h0c-.72.36-5.87,8.11-6.08,11.37s4.07,6,4.07,6l1.29.82c.23.15,2.47-1.7,2.72-1.92A6.93,6.93,0,0,0,352.48,102.51Z" fill="#1c7377"></path><path d="M348.65,120.27v0c5.44-.53,9.19-5.11,11.75-9.86C354.63,110.71,349.33,114.35,348.65,120.27Z" fill="#1c7377"></path><path d="M348.22,120.07h0c-1.65-5.21-6.91-7.93-12.09-9.44C337.63,116.2,342.29,120.63,348.22,120.07Z" fill="#1c7377"></path><path d="M347.92,135.25v0c6.92-.67,11.7-6.5,15-12.54C355.54,123.08,348.79,127.7,347.92,135.25Z" fill="#1c7377"></path><path d="M347.39,135h0c-2.1-6.63-8.79-10.09-15.38-12C333.9,130.07,339.83,135.71,347.39,135Z" fill="#1c7377"></path><path d="M348.45,152.81v0c7.88-.77,13.33-7.41,17-14.29C357.14,138.95,349.44,144.22,348.45,152.81Z" fill="#1c7377"></path><path d="M347.84,152.52h0c-2.39-7.55-10-11.5-17.53-13.7C332.47,146.91,339.23,153.34,347.84,152.52Z" fill="#1c7377"></path></g></g></svg>