<svg xmlns="http://www.w3.org/2000/svg" class="illustration styles_illustrationTablet__1DWOa" viewBox="105.21 55.15 189.7 189.7"><g id="_546_summer_landscape_outline" data-name="#546_summer_landscape_outline"><path d="M293.85,150c0,1.93-.06,3.84-.18,5.74-.06,1-.13,2.07-.23,3.1a93.86,93.86,0,0,1-174.26,38.88c-1.45-2.44-2.79-5-4-7.54A93.86,93.86,0,1,1,293.85,150Z" fill="#673119"/><path d="M200,244.85a94.91,94.91,0,0,1-81.68-46.62c-1.46-2.45-2.82-5-4-7.62a94.12,94.12,0,0,1-8.11-26.75,95.42,95.42,0,0,1-1-13.86,94.85,94.85,0,0,1,189.7,0c0,1.94-.06,3.89-.18,5.8-.06,1-.13,2.09-.23,3.14a93.89,93.89,0,0,1-24.92,55.57A95.14,95.14,0,0,1,200,244.85Zm0-187.7a92.88,92.88,0,0,0-83.93,132.6c1.21,2.55,2.54,5.06,4,7.46a92.85,92.85,0,0,0,148,15.94,91.84,91.84,0,0,0,24.38-54.4c.1-1,.17-2,.23-3.07.12-1.87.18-3.78.18-5.68A93,93,0,0,0,200,57.15Z" fill="#093f68"/><circle cx="180.09" cy="115.14" r="27.31" fill="#f56132"/><path d="M180.09,143.45a28.31,28.31,0,1,1,28.31-28.31A28.34,28.34,0,0,1,180.09,143.45Zm0-54.62a26.31,26.31,0,1,0,26.31,26.31A26.34,26.34,0,0,0,180.09,88.83Z" fill="#093f68"/><path d="M171,192.51a235.13,235.13,0,0,1-51.77,5.21c-1.45-2.44-2.79-5-4-7.54a94,94,0,0,1-2.42-74.8c4.84,7,8.3,15.41,15.81,19.11s16.15,1.61,23.71,4.76a26.31,26.31,0,0,1,2.51,1.21c5.71,3.14,10.32,8.38,13.66,13.86C173.59,162.8,188.06,188.83,171,192.51Z" fill="#093f68"/><path d="M121.63,198.73h-2.46a1,1,0,0,1-.85-.49c-1.46-2.45-2.82-5-4-7.62a94.12,94.12,0,0,1-8.11-26.75,95.42,95.42,0,0,1-1-13.86,94.18,94.18,0,0,1,6.67-35,1,1,0,0,1,.82-.62,1,1,0,0,1,.93.42c1.21,1.74,2.34,3.59,3.44,5.37,3.39,5.53,6.59,10.75,12,13.41,3.71,1.84,7.74,2.17,12,2.52,3.88.32,7.9.66,11.64,2.22a28.48,28.48,0,0,1,2.61,1.25c6.68,3.67,11.32,9.76,14,14.22,5.31,8.74,13.64,24.75,9.78,33.73-1.34,3.11-4,5.12-7.91,6h0A236.3,236.3,0,0,1,121.63,198.73Zm-1.88-2a234.3,234.3,0,0,0,51-5.19c3.28-.7,5.41-2.27,6.49-4.79,3.64-8.46-5.53-25.13-9.64-31.9-2.6-4.25-7-10.05-13.29-13.5a23.45,23.45,0,0,0-2.42-1.17c-3.45-1.44-7.13-1.74-11-2.06-4.27-.36-8.68-.72-12.73-2.72-5.92-2.92-9.43-8.64-12.82-14.16-.75-1.23-1.52-2.48-2.31-3.7a93,93,0,0,0,3.08,72.22C117.2,192.13,118.44,194.47,119.75,196.72Zm51.2-4.21h0Z" fill="#093f68"/><path d="M107.15,163.71a93.85,93.85,0,0,0,161.64,50.12V163.71Z" fill="#673119"/><path d="M200,244.85a94.87,94.87,0,0,1-93.84-81,1,1,0,0,1,.23-.79,1,1,0,0,1,.76-.35H268.79a1,1,0,0,1,1,1v50.12a1,1,0,0,1-.27.68A95.14,95.14,0,0,1,200,244.85Zm-91.69-80.14a92.85,92.85,0,0,0,159.48,48.73V164.71Z" fill="#093f68"/><path d="M183.76,170.72H162.92a1,1,0,0,1,0-2h20.84a1,1,0,0,1,0,2Z" fill="#f56132"/><path d="M188.91,176.72H170.62a1,1,0,0,1,0-2h18.29a1,1,0,0,1,0,2Z" fill="#f56132"/><path d="M179.76,181.42h-24.2a1,1,0,0,1,0-2h24.2a1,1,0,0,1,0,2Z" fill="#f56132"/><path d="M171.84,239.55a93.9,93.9,0,0,0,121.6-80.71c.1-1,.17-2.06.23-3.1a151,151,0,0,0-18.11-1C209.65,154.7,179.67,203.94,171.84,239.55Z" fill="#ffbc0e"/><path d="M200,244.85a94.72,94.72,0,0,1-28.46-4.35,1,1,0,0,1-.68-1.17c8.69-39.5,41.32-85.63,104.7-85.63a151.37,151.37,0,0,1,18.23,1.05,1,1,0,0,1,.88,1.05c-.06,1-.13,2.09-.23,3.14a93.89,93.89,0,0,1-24.92,55.57A95.14,95.14,0,0,1,200,244.85Zm-27-6a93,93,0,0,0,95-25.72,91.84,91.84,0,0,0,24.38-54.4c.07-.71.13-1.42.17-2.13a152.19,152.19,0,0,0-17.05-.92c-29.35,0-53.89,9.68-72.93,28.78C188.44,198.71,177.68,218.48,173,238.87Z" fill="#093f68"/><path d="M183.76,188.34h-9.39a1,1,0,0,1,0-2h9.39a1,1,0,0,1,0,2Z" fill="#f56132"/><path d="M173.34,192.6h-6.48a1,1,0,0,1,0-2h6.48a1,1,0,0,1,0,2Z" fill="#f56132"/><path d="M254.59,194.13S235,139.5,239,109.93h4.78s2.25,45.9,20.83,77.43Z" fill="#ad7972"/><path d="M254.59,195.13a1.15,1.15,0,0,1-.31,0,1,1,0,0,1-.63-.62c-.05-.14-5-13.9-9.32-31.1-5.88-23.16-8-41.18-6.37-53.57a1,1,0,0,1,1-.87h4.78a1,1,0,0,1,1,.95c0,.46,2.45,46,20.69,77a1,1,0,0,1-.3,1.34l-10,6.77A1,1,0,0,1,254.59,195.13Zm-14.76-84.2c-3.08,26.72,12.47,73.5,15.28,81.65l8.12-5.52c-16.61-28.84-20-69.42-20.44-76.13Z" fill="#093f68"/><path d="M239.63,115.48l28.73,22.61s2.69-7.35-3-16.33-16.45-11.67-16.45-11.67l28.32-6.63s-3-7.3-14.64-7.75S243.14,107,243.14,107s6.51-10.55,1.13-18.85-14.59-14.59-14.59-14.59l7.85,33.89s-4.93-7.86-16.61-7.41-21.09,10.1-21.09,10.1l28.55.9s-7.46-1.12-14.19,10.55-3.59,17.73-3.59,17.73Z" fill="#70cc40"/><path d="M210.6,140.27l-.2,0a1,1,0,0,1-.69-.52c-.14-.27-3.31-6.68,3.61-18.69,2.87-5,5.89-7.74,8.48-9.26l-22-.69a1,1,0,0,1-.68-1.7c.4-.4,9.84-9.94,21.78-10.4a20.6,20.6,0,0,1,14.8,4.89l-7-30.15a1,1,0,0,1,1.54-1c.38.26,9.43,6.5,14.87,14.87,3.06,4.73,2.57,10,1.42,14,3.54-3.33,9.12-7.12,16.1-6.83,12.18.46,15.4,8,15.53,8.36a1,1,0,0,1-.7,1.35l-25,5.85c3.77,1.54,9.83,4.82,13.71,11,5.88,9.29,3.2,16.89,3.09,17.2a1,1,0,0,1-.67.62,1,1,0,0,1-.89-.17l-28.1-22.12L211.23,140A1,1,0,0,1,210.6,140.27ZM227.48,112c-1.94.1-7.31,1.22-12.42,10.08-4.63,8-4.41,13.26-3.95,15.52L239,114.71a1,1,0,0,1,1.26,0l27.5,21.64a19.93,19.93,0,0,0-3.23-14c-5.4-8.52-15.75-11.21-15.86-11.24a1,1,0,0,1,0-1.94l27-6.33c-1.28-1.91-4.87-5.76-13.16-6.08-10.93-.42-18.5,10.68-18.57,10.79a1,1,0,0,1-1.69-1.07c.06-.1,6.11-10.12,1.14-17.79-3.65-5.62-9.15-10.35-12.16-12.7l7.24,31.23a1,1,0,0,1-1.82.76c-.19-.3-4.82-7.35-15.73-6.94-8.23.32-15.41,5.48-18.62,8.18l25.22.79a6.41,6.41,0,0,1,1,0,1,1,0,0,1-.18,2Z" fill="#093f68"/><circle cx="243.89" cy="117.7" r="7.12" fill="#725858"/><path d="M243.89,125.82A8.12,8.12,0,1,1,252,117.7,8.13,8.13,0,0,1,243.89,125.82Zm0-14.24A6.12,6.12,0,1,0,250,117.7,6.13,6.13,0,0,0,243.89,111.58Z" fill="#093f68"/><circle cx="232.76" cy="122.6" r="7.12" fill="#725858"/><path d="M232.75,130.73a8.13,8.13,0,1,1,8.13-8.13A8.14,8.14,0,0,1,232.75,130.73Zm0-14.25a6.13,6.13,0,1,0,6.13,6.12A6.13,6.13,0,0,0,232.75,116.48Z" fill="#093f68"/><path d="M274.42,182.86s-7.51-.8-16.15,4.48-12,16.44-12,16.44" fill="#ffbc0e"/><path d="M246.26,204.78a1,1,0,0,1-1-1.29c.15-.47,3.6-11.59,12.45-17s16.45-4.66,16.77-4.63a1,1,0,0,1-.21,2c-.07,0-7.3-.68-15.51,4.34S247.25,204,247.22,204.07A1,1,0,0,1,246.26,204.78Z" fill="#093f68"/><path d="M174.37,198.87h-4.88a1,1,0,0,1,0-2h4.88a1,1,0,0,1,0,2Z" fill="#f56132"/><path d="M169.49,204.78h-6.57a1,1,0,0,1,0-2h6.57a1,1,0,0,1,0,2Z" fill="#f56132"/><path d="M210.12,198.73a1,1,0,0,1-.91-.58,1,1,0,0,1,.49-1.33l4.87-2.22a1,1,0,1,1,.83,1.82l-4.87,2.22A1,1,0,0,1,210.12,198.73Z" fill="#093f68"/><path d="M232.75,222.15H227.2a1,1,0,0,1,0-2h5.55a1,1,0,0,1,0,2Z" fill="#093f68"/><path d="M268.79,164.71a1,1,0,0,1-.22-2l4.22-.93a1,1,0,1,1,.44,1.95l-4.22.94Z" fill="#093f68"/><path d="M192.29,231.54h-3.38a1,1,0,0,1,0-2h3.38a1,1,0,0,1,0,2Z" fill="#093f68"/><path d="M240.09,139a1,1,0,0,1-.18-2l6.17-1.13a1,1,0,0,1,.36,2L240.27,139Z" fill="#093f68"/><path d="M242.08,150.13a1,1,0,0,1-.2-2l7.38-1.53a1,1,0,1,1,.41,1.95l-7.38,1.54Z" fill="#093f68"/><path d="M244.6,161.34a1,1,0,0,1-.22-2l7.81-1.78a1,1,0,0,1,1.2.76,1,1,0,0,1-.76,1.19l-7.8,1.78A.9.9,0,0,1,244.6,161.34Z" fill="#093f68"/><path d="M247,170.72a1,1,0,0,1-.3-2l8.22-2.54a1,1,0,0,1,.59,1.91l-8.22,2.54A.93.93,0,0,1,247,170.72Z" fill="#093f68"/><path d="M250.13,181.42a1,1,0,0,1-.88-.52,1,1,0,0,1,.4-1.36l8.52-4.69a1,1,0,1,1,1,1.75l-8.53,4.69A.94.94,0,0,1,250.13,181.42Z" fill="#093f68"/></g></svg>